<svg xmlns="http://www.w3.org/2000/svg" xmlns:xlink="http://www.w3.org/1999/xlink" width="700" height="500" viewBox="0 0 700 500">
  <defs>
    <clipPath id="clip-anniversary">
      <rect width="700" height="500"/>
    </clipPath>
  </defs>
  <g id="anniversary" clip-path="url(#clip-anniversary)">
    <g id="undraw_celebration_re_kc9k" transform="translate(5 5)">
      <path id="Path_1" data-name="Path 1" d="M417.591,362.14c-3.692-4.324-8.911-8.324-9.241-13.659-.3-4.893,3.735-9.752,2.032-14.433-1.309-3.6-5.629-5.772-9.85-6.922a42.138,42.138,0,0,0-24.6.856l.427-.272c-4.8-1.547-10.421.05-14.2,3.007s-6.027,7.057-7.77,11.165-3.094,8.366-5.516,12.217a19.363,19.363,0,0,1-11.025,8.685c1.638,2.953,6.759,3.966,9.763,1.931a11.77,11.77,0,0,0,2.054-1.919l6.01-6.6c2.061,3.313-1.018,7.885,1.516,10.952,1.306,1.582,3.692,2.182,5.908,2.613A117.89,117.89,0,0,0,415.383,368c1.366-.364,2.874-.865,3.44-1.982C419.477,364.732,418.562,363.278,417.591,362.14Z" transform="translate(-208.738 -173.203)" fill="#2f2e41"/>
      <path id="Path_2" data-name="Path 2" d="M482.084,395.123a7.63,7.63,0,0,0-.211,1.306l-37.856,19.736-9.2-4.787-9.809,11.605,15.378,9.905a7.657,7.657,0,0,0,8.458-.186l39.037-27.83a9.916,9.916,0,0,0,10.189-2.352,7.733,7.733,0,0,0,1.171-9.444,9.552,9.552,0,0,0-9.36-4.332,8.964,8.964,0,0,0-7.8,6.379Z" transform="translate(-224.121 -189.313)" fill="#ffb7b7"/>
      <path id="Path_3" data-name="Path 3" d="M438.766,421.308l-12.235,14.33a4.107,4.107,0,0,1-2.923,1.389,4.2,4.2,0,0,1-3.073-1.092l-13.851-13a9.327,9.327,0,0,1-1.946-13.965,11.817,11.817,0,0,1,15.453-1.759l17.372,8.779a3.633,3.633,0,0,1,1.949,2.409,3.324,3.324,0,0,1-.745,2.907Z" transform="translate(-220.135 -193.52)" fill="#1397cf"/>
      <path id="Path_4" data-name="Path 4" d="M245.039,628.645h10.8l5.139-37.66H245.037Z" transform="translate(-43.247 -151.169)" fill="#ffb7b7"/>
      <path id="Path_5" data-name="Path 5" d="M422.76,758.1h21.278c7.488,0,13.559,5.486,13.56,12.253v.4H422.761Z" transform="translate(-223.724 -283.809)" fill="#2f2e41"/>
      <path id="Path_6" data-name="Path 6" d="M155.149,628.645h10.8l5.14-37.66H155.147Z" transform="translate(-27.382 -151.169)" fill="#ffb7b7"/>
      <path id="Path_7" data-name="Path 7" d="M332.87,758.1h21.278c7.488,0,13.559,5.485,13.559,12.253v.4H332.871Z" transform="translate(-207.859 -283.809)" fill="#2f2e41"/>
      <path id="Path_33" data-name="Path 33" d="M17.235.645c9.331.108,16.983,8.545,17.09,18.846s-7.369,18.563-16.7,18.455S.642,29.4.535,19.1,7.9.537,17.235.645Z" transform="translate(155.662 196.993) rotate(-83.735)" fill="#ffb7b7"/>
      <path id="Path_8" data-name="Path 8" d="M394.873,399.03l11,4.925s12.29,19.3,5.24,37.619c-3.423,8.893,6.216,37.242,6.216,37.242s14.934,128.408,14.981,168.039c-18.553,2.578-36.179,5.763-37.06-2.2s-10.528-102.127-10.528-102.127-13.266,104.517-23.841,106.109-31.725-.8-31.725-.8,16.791-153.1,28.247-162.653l1.762-7.964-.047-71.487,13.2-5.692Z" transform="translate(-207.204 -191.962)" fill="#2f2e41"/>
      <path id="Path_9" data-name="Path 9" d="M358.151,513.7a8.69,8.69,0,0,0,4.771-5.815,7.945,7.945,0,0,0-1.871-7.039l12.792-77.06-16.714-.725L347.158,499.8a8.017,8.017,0,0,0-1.334,11.362A10.168,10.168,0,0,0,358.15,513.7Z" transform="translate(-209.832 -198.11)" fill="#ffb7b7"/>
      <path id="Path_10" data-name="Path 10" d="M374.708,438.842l-19.989-1.14a4.1,4.1,0,0,1-2.91-1.411,3.32,3.32,0,0,1-.719-2.913l4.165-17.648c.4-5.485,5.646-9.637,11.716-9.275s10.664,5.1,10.263,10.587l1.675,17.923a3.389,3.389,0,0,1-1.118,2.808,4.206,4.206,0,0,1-3.083,1.069Z" transform="translate(-211.06 -193.856)" fill="#1397cf"/>
      <path id="Path_11" data-name="Path 11" d="M410.613,346.366c-.728-2.983-3.091-5.454-5.813-7.264a25.762,25.762,0,0,0-30.436,1.673,13.941,13.941,0,0,0-4.7,6.809,7.766,7.766,0,0,0,1.97,7.6l.373.211c-.338-1.3.776-2.592,2.108-3.164a18.379,18.379,0,0,1,4.3-.871,15.857,15.857,0,0,0,10.713-6.832,16.984,16.984,0,0,0,10.229,9.634c2.468.872,9.246,2.071,11.6.964C413.946,353.717,411.34,349.349,410.613,346.366Z" transform="translate(-214.3 -175.563)" fill="#2f2e41"/>
      <path id="Path_438" data-name="Path 438" d="M252.171,714.8a21.637,21.637,0,0,0,19.256-3.065c6.744-5.116,8.859-13.542,10.579-21.345L287.1,667.3l-10.654,6.63c-7.662,4.768-15.5,9.689-20.8,16.594s-7.619,16.333-3.358,23.806" transform="translate(-193.246 -260.585)" fill="#e6e6e6"/>
      <path id="Path_439" data-name="Path 439" d="M254.171,751.117c-1.341-8.829-2.721-17.772-1.778-26.7.836-7.925,3.511-15.665,8.958-22.013a39.387,39.387,0,0,1,10.4-8.514c1.039-.593,2,.9.961,1.486a35.888,35.888,0,0,0-15.239,16.615c-3.318,7.625-3.85,15.938-3.279,24.038.345,4.9,1.079,9.765,1.817,14.626a.884.884,0,0,1-.665,1.059.974.974,0,0,1-1.171-.6Z" transform="translate(-193.601 -267.351)" fill="#f2f2f2"/>
      <path id="Path_442" data-name="Path 442" d="M266.34,746.859a15.193,15.193,0,0,0,12.79,5.968c6.476-.278,11.873-4.361,16.731-8.239l14.372-11.467-9.511-.411c-6.84-.3-13.857-.574-20.372,1.335s-12.524,6.494-13.715,12.589" transform="translate(-196.117 -277.261)" fill="#e6e6e6"/>
      <path id="Path_443" data-name="Path 443" d="M249.989,768.494c6.456-10.323,13.944-21.8,27.325-25.464a33.586,33.586,0,0,1,11.492-1.072c1.22.1.916,1.795-.3,1.7a30.636,30.636,0,0,0-18.341,4.385,45.141,45.141,0,0,0-12.606,12.294c-2.088,2.873-3.958,5.868-5.827,8.858C251.132,770.151,249.385,769.461,249.989,768.494Z" transform="translate(-193.209 -279.653)" fill="#f2f2f2"/>
      <path id="Path_12" data-name="Path 12" d="M768.042,516.212c-12.115-14.651-34.288-18.187-45.306-10.747s-13.549,27.659-1.434,42.31c11.214,13.562,31.53,17.26,42.721,12.179a1.147,1.147,0,0,0-.007.482l.631,2.819a1.333,1.333,0,0,0,.9.951,1.547,1.547,0,0,0,1.37-.193l5.342-3.772a1.233,1.233,0,0,0,.538-1.154,1.3,1.3,0,0,0-.8-1.021l-2.874-1.235a1.519,1.519,0,0,0-.316-.09C777.431,548.5,779.28,529.8,768.042,516.212Z" transform="translate(-274.999 -218.221)" fill="#ccc"/>
      <path id="Path_13" data-name="Path 13" d="M747.434,513.126c12.307,1.767,20.927,11.935,19.61,23.133-.13,1.235,2.005,1.227,2.135,0C770.445,524.2,761.21,513.3,748,511.266,746.657,511.059,746.08,512.918,747.434,513.126Z" transform="translate(-280.89 -220.667)" fill="#fff"/>
      <path id="Path_14" data-name="Path 14" d="M791.86,165.522c10.592-15.586,6.038-35.513-5.682-42.018s-33.447-1.163-44.038,14.422c-9.8,14.426-6.1,32.854,3.254,40.375a1.5,1.5,0,0,0-.5.172l-2.666,1.571a1.257,1.257,0,0,0-.645,1.109,1.272,1.272,0,0,0,.7,1.079l5.852,3.094a1.556,1.556,0,0,0,1.386.026,1.285,1.285,0,0,0,.753-1.052l.209-2.87a1.154,1.154,0,0,0-.025-.3C762.125,185.332,782.035,179.979,791.86,165.522Z" transform="translate(-279.07 -120.791)" fill="#ccc"/>
      <path id="Path_15" data-name="Path 15" d="M795.088,147.9c2.729,10.988-4.544,21.982-16.546,25.012-1.318.347-.521,2.137.788,1.793,12.865-3.389,20.662-15.169,17.88-27.016C796.927,146.481,794.8,146.683,795.088,147.9Z" transform="translate(-286.398 -127.464)" fill="#fff"/>
      <path id="Path_16" data-name="Path 16" d="M563.323,269.282c-.886-18.273-17.009-32.476-30.75-31.932s-28.428,15.967-27.543,34.239c.82,16.913,15.307,30.306,27.721,31.8a1.279,1.279,0,0,0-.305.395l-1.234,2.651a1.183,1.183,0,0,0,.152,1.245,1.483,1.483,0,0,0,1.252.537l6.765-.4a1.44,1.44,0,0,0,1.164-.68,1.179,1.179,0,0,0-.028-1.252l-1.606-2.483a1.3,1.3,0,0,0-.205-.235C550.968,300.745,564.145,286.232,563.323,269.282Z" transform="translate(-238.237 -150.602)" fill="#1397cf"/>
      <path id="Path_17" data-name="Path 17" d="M553.347,255.476c9.071,7.721,9.86,20.511,1.8,29.1-.877.955.893,2.034,1.764,1.086,8.558-9.319,7.715-23.025-1.932-31.431C553.993,253.373,552.358,254.615,553.347,255.476Z" transform="translate(-246.718 -154.85)" fill="#fff"/>
      <path id="Path_18" data-name="Path 18" d="M635.723,434.94c-10.745-.612-20.513-5.841-26.27-14.062-.8-1.149-1.833-2.412-1.283-3.826a2.8,2.8,0,0,1,2.884-1.741,3.432,3.432,0,0,1,2.871,2.989c.227,1.56-.991,2.784-2.494,3.364-3.674,1.416-7.38-.772-10.372-2.519-6.818-3.98-14.318-7.579-22.58-8.033-7.644-.42-15.842,2.289-20.094,8.28-.744,1.048,1.1,2.017,1.843.974,4.217-5.941,12.742-8.075,20.154-7.157a42.082,42.082,0,0,1,12.61,3.869c2.037.955,4.013,2.015,5.949,3.128a39.172,39.172,0,0,0,5.835,3.023c3.4,1.263,7.907,1.164,10.283-1.744,2.217-2.713.5-7.23-3.2-7.992a5.361,5.361,0,0,0-4.54,1.266,4.246,4.246,0,0,0-1.33,4.122c.37,1.6,1.7,3.161,2.732,4.467a36.8,36.8,0,0,0,27.007,13.522.967.967,0,1,0,0-1.929Z" transform="translate(-247.63 -195.042)" fill="#ccc"/>
      <path id="Path_19" data-name="Path 19" d="M892.347,263.6c5.844-2.457,13.02-3.263,18.967-.979s10,8.135,8.078,13.315c-.872,2.348-2.857,4.658-2.084,7.029.6,1.825,2.673,3.031,4.713,3.888s4.272,1.577,5.747,3.023,1.783,3.933-.06,5.054c-.607.369-1.366.544-1.955.934a2.642,2.642,0,0,0-.959,3.142,6.737,6.737,0,0,0,2.348,2.791c2.092,1.631,4.857,3.5,4.207,5.811a4.357,4.357,0,0,1-3.044,2.573,16.644,16.644,0,0,1-4.469.533L862.1,312.474a25.856,25.856,0,0,1-6.1-.308,7.284,7.284,0,0,1-4.787-2.906c-1.182-1.978-.406-4.414,1.054-6.26s3.526-3.3,5.234-5,3.1-3.812,2.8-6c-.241-1.754-1.521-3.271-2.44-4.865s-1.453-3.586-.263-5.052c1.677-2.066,5.7-1.88,7.612-3.805,1.439-1.453,1.161-3.545,1.3-5.419.344-4.507,3.8-8.764,8.713-10.741a18.768,18.768,0,0,1,15.608.961Z" transform="translate(-299.242 -156.619)" fill="#2f2e41"/>
      <path id="Path_20" data-name="Path 20" d="M803.167,443.477V452.6l-38.942,4.341V443.475Z" transform="translate(-134.88 -113.437)" fill="#9e616a"/>
      <path id="Path_21" data-name="Path 21" d="M1001.657,561.142v29.419h-.412c-7,0-12.667-5.128-12.667-11.451h0V561.141Z" transform="translate(-323.586 -233.429)" fill="#2f2e41"/>
      <path id="Path_22" data-name="Path 22" d="M744.181,461.362l-2.479,8.844-38.93-4.431,3.659-13.053Z" transform="translate(-124.034 -115.803)" fill="#9e616a"/>
      <path id="Path_23" data-name="Path 23" d="M942.563,584.011l-7.992,28.519-.4-.091c-6.784-1.553-10.89-7.781-9.173-13.911h0l4.881-17.418Z" transform="translate(-312.296 -238.537)" fill="#2f2e41"/>
      <path id="Path_24" data-name="Path 24" d="M911.427,447.637l2.1,1.98s13.721,9.723,3.57,35.335l-16.606,43.231,55.66,1.961L954.96,549.9s-80.718,4.057-80.012-7.964,3.684-56.534,3.684-56.534l-16.77-12.171,4.043-20.585Z" transform="translate(-301.222 -204.396)" fill="#2f2e41"/>
      <path id="Path_25" data-name="Path 25" d="M863.521,474l-6.448,5.974-21.619,53.706s-3.294,13.4,4.118,16.373,55.1,19.629,55.1,19.629l4.87-15.839L862.8,533.911l17.127-20.325,2.578-32.035Z" transform="translate(-296.433 -211.139)" fill="#2f2e41"/>
      <path id="Path_26" data-name="Path 26" d="M867.829,343.284l54.875-9.916,1.193,27.207-14.214,27.379,3.022,32.433-49.18,7.765,1.54-42.646s-13.207-16.838-5.427-33.809Z" transform="translate(-300.396 -175.167)" fill="#e4e4e4"/>
      <path id="Path_27" data-name="Path 27" d="M1003.019,257.774a7.411,7.411,0,0,1-1.652,6.6,9.179,9.179,0,0,1-6.658,3.091l-52.622,55.144-12.234-13.418L985.425,259.2c.128-4.071,3.606-7.413,8.094-7.777s8.57,2.362,9.5,6.348Z" transform="translate(-313.222 -154.198)" fill="#ffb7b7"/>
      <path id="Path_28" data-name="Path 28" d="M950.98,333.828a3.43,3.43,0,0,1-1.311,2.74l-14.8,12.037a11.836,11.836,0,0,1-15.505,1.375,9.315,9.315,0,0,1-1.521-14.012l10.328-15.449a4,4,0,0,1,2.73-1.68,4.277,4.277,0,0,1,3.191.771l15.444,11.532a3.463,3.463,0,0,1,1.439,2.687Z" transform="translate(-310.661 -171.437)" fill="#e4e4e4"/>
      <path id="Path_29" data-name="Path 29" d="M765.622,414.909a7.6,7.6,0,0,1,2.729-6.3,9.449,9.449,0,0,1,7.1-2.153l61.182-47.384L846.5,374l-63.243,41.884c-.8,4.008-4.8,6.84-9.294,6.591s-8.081-3.5-8.338-7.564Z" transform="translate(-284.233 -181.741)" fill="#ffb7b7"/>
      <path id="Path_30" data-name="Path 30" d="M836.876,359.829a3.559,3.559,0,0,1,1.751-2.531l16.628-9.895a11.855,11.855,0,0,1,15.558.744,9.3,9.3,0,0,1-.823,14.06l-12.776,13.875a4.25,4.25,0,0,1-6.006.1l-13.355-13.5A3.358,3.358,0,0,1,836.876,359.829Z" transform="translate(-296.806 -178.103)" fill="#e4e4e4"/>
      <ellipse id="Ellipse_2" data-name="Ellipse 2" cx="20.226" cy="18.279" rx="20.226" ry="18.279" transform="translate(570.594 118.866)" fill="#ffb7b7"/>
      <path id="Path_31" data-name="Path 31" d="M914.129,293.709c-6.387-.464-11.691-6.23-11.027-11.99.155,4.914-3.79,9.153-9.174,9.858-2.93.292-6.142-.509-8.692.826-2.825,1.479-3.729,5.072-6.671,6.35-2.843,1.235-6.454-.449-7.859-3s-1.06-5.619-.129-8.343c2.7-7.9,9.787-13.944,18.672-15.921a27.968,27.968,0,0,1,24.718,6.265c2.686,2.441,4.818,5.553,5.164,8.981a8.626,8.626,0,0,1-4.821,8.689Z" transform="translate(-302.617 -159.163)" fill="#2f2e41"/>
      <path id="Path_32" data-name="Path 32" d="M495.647,776.18H181.891a.748.748,0,1,1,0-1.488H495.647a.748.748,0,1,1,0,1.488Z" transform="translate(-181.067 -288.054)" fill="#cacaca"/>
    </g>
  </g>
</svg>
