<svg xmlns="http://www.w3.org/2000/svg" xmlns:xlink="http://www.w3.org/1999/xlink" width="700" height="500" viewBox="0 0 700 500">
  <defs>
    <clipPath id="clip-birthday">
      <rect width="700" height="500"/>
    </clipPath>
  </defs>
  <g id="birthday" clip-path="url(#clip-birthday)">
    <g id="undraw_happy_birthday_re_c16u" transform="translate(5 5)">
      <path id="Path_1" data-name="Path 1" d="M714.546,333.255c14.8-36.741,49.775-68.489,92.039-72.265-25.409,35.595-36.362,78.34-30.92,120.672,2.163,16.319,6.409,34.261-3.12,48.15-5.929,8.642-16.378,13.962-27.149,16.363s-21.995,2.215-33.074,2.015l-2.48,1.131C702.052,410.787,699.744,370,714.546,333.255Z" transform="translate(-252.147 -195.284)" fill="#f0f0f0"/>
      <path id="Path_2" data-name="Path 2" d="M806.638,261.743c-28.812,18.582-50.549,45.073-62.123,75.71-2.437,6.577-4.288,13.445-4.395,20.43a35.9,35.9,0,0,0,5.585,19.393c3.334,5.554,7.441,10.879,9.255,17.085,1.912,6.541.353,13.158-3.552,18.809-4.778,6.915-11.962,11.832-19.168,16.415-8,5.089-16.4,10.258-21.295,18.252-.593.969-2.187.062-1.594-.9,8.518-13.909,26.394-18.961,37.33-30.775,5.1-5.513,8.437-12.479,6.859-19.819-1.38-6.419-5.61-11.913-9.038-17.51-3.6-5.877-5.952-11.975-6.226-18.775-.281-6.955,1.284-13.9,3.528-20.511a145.736,145.736,0,0,1,22.882-41.772,164.476,164.476,0,0,1,41.071-37.551c.985-.635,1.86.893.882,1.524Z" transform="translate(-251.995 -195.237)" fill="#fff"/>
      <path id="Path_3" data-name="Path 3" d="M746.952,329.5c-10.955-5.144-16.26-16.858-12.532-27.67.369-1.058,2.168-.578,1.8.481-3.493,10.066,1.479,20.981,11.714,25.717,1.076.5.09,1.968-.98,1.472Z" transform="translate(-251.334 -197.353)" fill="#fff"/>
      <path id="Path_4" data-name="Path 4" d="M742.709,379.747a47.8,47.8,0,0,0,27.426-20.429c.6-.967,2.19-.061,1.594.905a49.737,49.737,0,0,1-28.585,21.2.868.868,0,1,1-.434-1.681Z" transform="translate(-251.092 -200.317)" fill="#fff"/>
      <path id="Path_5" data-name="Path 5" d="M775.454,286.5a15.143,15.143,0,0,0,13.253,2.247.868.868,0,1,1,.434,1.681,16.976,16.976,0,0,1-14.668-2.456.853.853,0,0,1-.307-1.188.987.987,0,0,1,1.287-.283Z" transform="translate(-250.211 -196.589)" fill="#fff"/>
      <path id="Path_6" data-name="Path 6" d="M908.33,359.034c-.709.235-1.418.469-2.132.718a194.777,194.777,0,0,0-27.569,11.689c-.689.344-1.381.7-2.058,1.064a193.826,193.826,0,0,0-55.166,43.555,176.959,176.959,0,0,0-16.454,22.148c-6.723,10.714-13.089,22.824-22.962,30.631a32.666,32.666,0,0,1-3.218,2.294L711.4,456.416c-.135-.1-.274-.195-.41-.3l-2.719-.474c.221-.416.46-.844.68-1.26.127-.242.269-.481.4-.723.089-.16.18-.32.25-.47.03-.053.06-.107.086-.146.071-.149.154-.281.221-.416q1.991-3.588,4.043-7.163c0-.014,0-.014.022-.025,10.476-18.135,22.683-35.622,37.378-50.842.442-.458.887-.93,1.36-1.381a177.652,177.652,0,0,1,21.7-18.874q6.406-4.692,13.3-8.767a140.29,140.29,0,0,1,38.5-15.473c27.181-6.5,56.311-4.9,80.289,7.935C907.122,358.365,907.721,358.69,908.33,359.034Z" transform="translate(-252.021 -199.673)" fill="#f0f0f0"/>
      <path id="Path_7" data-name="Path 7" d="M907.958,360.419a177.586,177.586,0,0,0-98.977,25.92c-6.235,3.9-12.192,8.352-16.833,13.87A36.58,36.58,0,0,0,783.96,418.8c-.96,6.288-1.153,12.822-3.752,18.785-2.74,6.285-8.3,10.7-15.1,13.044-8.324,2.865-17.267,2.8-26.01,2.452-9.707-.384-19.784-.925-28.906,2.737a.874.874,0,1,1-.683-1.609c15.872-6.371,33.44-.469,49.876-3.823,7.67-1.565,14.875-5.274,18.4-12.012,3.085-5.892,3.29-12.63,4.2-19a38.779,38.779,0,0,1,7.273-18.451c4.312-5.709,10.093-10.388,16.193-14.416a168.114,168.114,0,0,1,45.512-20.634,183.413,183.413,0,0,1,57.282-7.154c1.2.041.9,1.747-.29,1.707Z" transform="translate(-252.002 -200.302)" fill="#fff"/>
      <path id="Path_8" data-name="Path 8" d="M815.167,379.6c-5.392-10.2-1.989-22.5,8.039-29.058.985-.64,2.108.743,1.122,1.384-9.354,6.1-12.5,17.574-7.418,27.045.534,1-1.212,1.621-1.742.63Z" transform="translate(-249.149 -199.879)" fill="#fff"/>
      <path id="Path_9" data-name="Path 9" d="M782.017,418.573a52.1,52.1,0,0,0,35.221-1.067.874.874,0,1,1,.683,1.609,54.193,54.193,0,0,1-36.653,1.042c-1.136-.375-.381-1.956.749-1.583Z" transform="translate(-250.028 -203.326)" fill="#fff"/>
      <path id="Path_10" data-name="Path 10" d="M864.978,362.957a13.573,13.573,0,0,0,9.117,9.161c1.141.361.384,1.942-.749,1.583a15.217,15.217,0,0,1-10.11-10.114.871.871,0,0,1,.53-1.12.967.967,0,0,1,1.213.489Z" transform="translate(-247.758 -200.498)" fill="#fff"/>
      <path id="Path_11" data-name="Path 11" d="M336.278,687.313c-38.567-16.4-70.216-50.993-71.1-90.184,36.527,26.079,81.869,39.389,128,37.576,17.789-.759,37.49-3.313,51.772,6.508,8.887,6.11,13.844,16.131,15.624,26.228s.731,20.415-.321,30.6l1.034,2.369C419.077,704.671,374.845,703.713,336.278,687.313Z" transform="translate(-264.213 -212.563)" fill="#f0f0f0"/>
      <path id="Path_12" data-name="Path 12" d="M266.081,596.969c17.9,27.926,44.867,49.936,77.083,62.905a76.7,76.7,0,0,0,21.735,5.589,44.3,44.3,0,0,0,21.368-3.677c6.251-2.65,12.312-6.028,19.152-7.229a26.87,26.87,0,0,1,20.048,4.69c7.108,4.92,11.876,11.905,16.282,18.885,4.892,7.75,9.841,15.871,18.106,20.982,1,.619-.1,2.018-1.1,1.4-14.38-8.891-18.486-25.729-30.421-36.688-5.569-5.114-12.841-8.709-20.889-7.811-7.037.785-13.291,4.264-19.6,7a47.134,47.134,0,0,1-20.749,4.314,71.19,71.19,0,0,1-21.887-4.8,165.327,165.327,0,0,1-43.39-24.219,161.177,161.177,0,0,1-37.458-40.644c-.611-.955,1.106-1.645,1.713-.7Z" transform="translate(-264.239 -212.531)" fill="#fff"/>
      <path id="Path_13" data-name="Path 13" d="M331.537,659.424c-6.383,9.7-19.436,13.7-30.832,9.447a.873.873,0,1,1,.656-1.619c10.609,3.976,22.773.223,28.661-8.842.621-.953,2.133.066,1.516,1.014Z" transform="translate(-263.251 -215.693)" fill="#fff"/>
      <path id="Path_14" data-name="Path 14" d="M380.648,665.61a44.781,44.781,0,0,0-19.994-26.79c-1-.622.1-2.021,1.1-1.4A46.559,46.559,0,0,1,382.5,665.337C382.768,666.422,380.919,666.689,380.648,665.61Z" transform="translate(-261.597 -214.626)" fill="#fff"/>
      <path id="Path_15" data-name="Path 15" d="M288.475,626.685a12.415,12.415,0,0,0,3.428-12.031c-.287-1.082,1.563-1.347,1.848-.273a13.905,13.905,0,0,1-3.76,13.317,1.022,1.022,0,0,1-1.307.193.826.826,0,0,1-.209-1.206Z" transform="translate(-263.577 -213.414)" fill="#fff"/>
      <path id="Path_16" data-name="Path 16" d="M371.589,505.725c.2.671.4,1.341.615,2.017A164.46,164.46,0,0,0,382.746,534c.32.66.654,1.325.994,1.975a183.567,183.567,0,0,0,42.878,54.072,189.629,189.629,0,0,0,22.68,16.82c11.064,7,23.663,13.773,31.351,23.451a30.223,30.223,0,0,1,2.235,3.135l-20.983,60.9c-.123.116-.231.238-.354.355l-.717,2.467c-.433-.235-.876-.487-1.309-.721-.252-.135-.5-.284-.751-.419-.166-.094-.333-.19-.489-.266-.055-.031-.111-.063-.151-.09-.156-.076-.292-.163-.433-.235q-3.725-2.1-7.432-4.263c-.015,0-.015,0-.025-.022-18.8-11.013-36.762-23.571-52.092-38.248-.461-.442-.937-.887-1.389-1.357a172,172,0,0,1-18.747-21.4,147.389,147.389,0,0,1-8.465-12.906,117.8,117.8,0,0,1-13.805-36.614c-4.967-25.513-1.041-52.208,14.633-73.312C370.775,506.786,371.171,506.26,371.589,505.725Z" transform="translate(-261.777 -207.864)" fill="#f0f0f0"/>
      <path id="Path_17" data-name="Path 17" d="M371.956,506.071a144.54,144.54,0,0,0,20.522,93.071,67.369,67.369,0,0,0,13.709,16.543,42.708,42.708,0,0,0,19.459,8.941c6.719,1.359,13.762,2.03,20.006,4.873A23.812,23.812,0,0,1,458.6,644.388c2.466,7.879,1.719,16.107.685,24.129-1.148,8.907-2.493,18.142.773,26.817.4,1.051-1.394,1.556-1.789.507-5.683-15.092,2.019-30.819-.363-46.2-1.112-7.178-4.573-14.091-11.585-17.847-6.131-3.285-13.393-3.983-20.21-5.3-7.157-1.387-13.67-3.786-19.38-8.088a62.849,62.849,0,0,1-14.348-16,143.369,143.369,0,0,1-18.85-43.455,145.356,145.356,0,0,1-3.4-53.272c.134-1.1,1.956-.7,1.822.4Z" transform="translate(-261.354 -207.828)" fill="#fff"/>
      <path id="Path_18" data-name="Path 18" d="M386.7,594.376c-11.42,4.194-24.45.132-30.779-9.595-.617-.955.962-1.884,1.579-.928,5.878,9.071,18.037,12.836,28.651,8.871a.871.871,0,1,1,.549,1.652Z" transform="translate(-261.72 -211.86)" fill="#fff"/>
      <path id="Path_19" data-name="Path 19" d="M420.722,629a41.477,41.477,0,0,0,1.507-32.5c-.392-1.052,1.4-1.558,1.789-.507a43.144,43.144,0,0,1-1.643,33.82C421.885,630.826,420.235,630.011,420.722,629Z" transform="translate(-259.936 -212.474)" fill="#fff"/>
      <path id="Path_20" data-name="Path 20" d="M371.512,543.463a14.055,14.055,0,0,0,10.583-7.7c.476-1.023,2.127-.207,1.653.809a15.744,15.744,0,0,1-11.687,8.543.985.985,0,0,1-1.169-.572.858.858,0,0,1,.62-1.079Z" transform="translate(-261.305 -209.384)" fill="#fff"/>
      <path id="Path_21" data-name="Path 21" d="M421.94,455.3c-34.079-30.971-48.472-63.282-40.53-90.98,10.193-35.544,55.474-60.12,124.234-67.426l.254,2.039c-67.8,7.2-112.393,31.228-122.338,65.912-7.73,26.955,6.455,58.56,39.94,88.993Z" transform="translate(-261.074 -197.13)" fill="#f0f0f0"/>
      <path id="Path_22" data-name="Path 22" d="M748.431,575.479c-42.532,0-88.751-5.835-134.66-17.055C557,544.549,504.945,523.605,463.237,497.857l1.235-1.705c41.507,25.623,93.331,46.471,149.867,60.288,51.092,12.488,102.567,18.274,148.841,16.747l.08,2.05Q755.931,575.48,748.431,575.479Z" transform="translate(-258.763 -207.372)" fill="#f0f0f0"/>
      <path id="Path_23" data-name="Path 23" d="M840.175,553.138l-.712-1.944c38.039-11.874,61.832-31,68.8-55.315,8.863-30.909-10.392-66.778-54.221-101-44.052-34.394-107.575-62.932-178.871-80.357l.569-1.984c71.608,17.5,135.44,46.187,179.737,80.774,44.521,34.76,64.03,71.371,54.935,103.089C903.244,521.417,878.954,541.034,840.175,553.138Z" transform="translate(-252.931 -197.934)" fill="#f0f0f0"/>
      <path id="Path_24" data-name="Path 24" d="M500.675,573.847C417.1,539.628,352.7,495.233,319.34,448.839l1.851-1.135c33.131,46.073,97.193,90.2,180.385,124.267Z" transform="translate(-262.723 -204.882)" fill="#f0f0f0"/>
      <path id="Path_25" data-name="Path 25" d="M782.492,641.884q-12.93,0-26.3-.533l.1-2.05c66.527,2.659,125.225-4.691,169.761-21.259l.831,1.9C888.029,634.4,838.513,641.884,782.492,641.884Z" transform="translate(-250.702 -213.638)" fill="#f0f0f0"/>
      <path id="Path_26" data-name="Path 26" d="M741.957,296.858c-13.813-4.152-28.021-8.018-42.23-11.49-81.763-19.983-162.137-27.078-232.436-20.514l-.224-2.042c70.561-6.586,151.209.526,233.228,20.572,14.248,3.483,28.5,7.36,42.349,11.523Z" transform="translate(-258.658 -195.255)" fill="#f0f0f0"/>
      <path id="Path_27" data-name="Path 27" d="M371.106,458.542c-34.079-30.971-48.472-63.282-40.53-90.98,10.193-35.544,55.474-60.12,124.234-67.426l.254,2.039c-67.8,7.2-112.393,31.228-122.338,65.912-7.73,26.955,6.455,58.56,39.94,88.993Z" transform="translate(-262.472 -197.297)" fill="#f0f0f0"/>
      <path id="Path_28" data-name="Path 28" d="M697.6,578.724c-42.532,0-88.751-5.835-134.66-17.055C506.167,547.794,454.113,526.85,412.4,501.1l1.235-1.705c41.507,25.623,93.331,46.471,149.867,60.288,51.092,12.488,102.567,18.274,148.841,16.747l.08,2.05Q705.1,578.725,697.6,578.724Z" transform="translate(-260.162 -207.539)" fill="#f0f0f0"/>
      <path id="Path_29" data-name="Path 29" d="M789.342,556.383l-.712-1.944c38.039-11.874,61.832-31,68.8-55.315,8.863-30.909-10.392-66.778-54.221-101-44.052-34.394-107.575-62.933-178.871-80.357l.569-1.984c71.608,17.5,135.441,46.188,179.738,80.774,44.521,34.76,64.03,71.371,54.935,103.089C852.411,524.661,828.121,544.278,789.342,556.383Z" transform="translate(-254.33 -198.101)" fill="#f0f0f0"/>
      <path id="Path_30" data-name="Path 30" d="M449.842,577.092c-83.574-34.219-147.974-78.614-181.335-125.008l1.851-1.135c33.131,46.073,97.193,90.2,180.385,124.267Z" transform="translate(-264.122 -205.049)" fill="#f0f0f0"/>
      <path id="Path_31" data-name="Path 31" d="M731.66,645.129q-12.93,0-26.3-.533l.1-2.05c66.527,2.659,125.226-4.691,169.761-21.259l.831,1.9C837.2,637.642,787.681,645.129,731.66,645.129Z" transform="translate(-252.101 -213.805)" fill="#f0f0f0"/>
      <path id="Path_32" data-name="Path 32" d="M691.125,300.1c-13.813-4.152-28.021-8.018-42.23-11.49C567.133,268.629,486.759,261.533,416.46,268.1l-.224-2.042c70.561-6.586,151.209.526,233.228,20.572,14.248,3.483,28.5,7.36,42.349,11.523Z" transform="translate(-260.056 -195.422)" fill="#f0f0f0"/>
      <path id="Path_33" data-name="Path 33" d="M469.533,462.691c-9.509.01-17.215,7.124-17.225,15.9a690.443,690.443,0,0,0-6.535,134.366c.131,2.865.276,5.486.444,8.015.244,4.176.555,8.584.922,13.1.211,2.667.434,5.342.677,8.008.408,4.342.856,8.755,1.333,13.114.3,2.663.61,5.339.943,8,.639,5.235,1.361,10.6,2.211,16.405-.017,8.8,7.7,15.952,17.23,15.971H758.472c9.509-.01,17.215-7.124,17.225-15.9l.013-.11c1.287-5.413,2.486-10.93,3.563-16.4.576-2.882,1.074-5.5,1.521-8,.811-4.557,1.532-8.967,2.142-13.108.417-2.78.795-5.472,1.122-8.005.538-4.145,1.025-8.429,1.487-13.1.253-2.538.486-5.159.711-8.012h0A431.6,431.6,0,0,0,775.711,478.7l-.013-.11c-.01-8.779-7.716-15.892-17.225-15.9Z" transform="translate(-259.267 -205.652)" fill="#3f3d56"/>
      <path id="Path_34" data-name="Path 34" d="M626.66,528.387c-62.606,0-128.946-5.252-215.77-15.759h-.009c-9.32-.012-17.137-6.5-18.141-15.053a14.325,14.325,0,0,1-.114-1.872v-48.22a2.268,2.268,0,0,1,.015-.309c.2-9.215,8.338-16.594,18.321-16.62,151.055-18.961,242.817-18.959,409.029,0H820c9.977.061,18.079,7.461,18.25,16.671a1.725,1.725,0,0,1,.011.254V495.7a14.349,14.349,0,0,1-.115,1.877c-1.018,8.577-8.875,15.067-18.221,15.052C748.111,523.134,689.252,528.387,626.66,528.387Z" transform="translate(-260.706 -203.27)" fill="#1397cf"/>
      <path id="Path_35" data-name="Path 35" d="M631.672,561.036H593.686c-10.066-.011-18.224-7.542-18.236-16.835V416.8c.012-9.293,8.169-16.824,18.236-16.835h37.986c10.067.01,18.224,7.542,18.236,16.835V544.2C649.9,553.495,641.738,561.026,631.672,561.036Z" transform="translate(-255.675 -202.428)" fill="#3f3d56"/>
      <path id="Path_36" data-name="Path 36" d="M719.741,372.27a41.422,41.422,0,0,0-1.448-7.069,43.741,43.741,0,0,0-2.816-6.767,41.455,41.455,0,0,0-19.424-18.62c-10.6-4.815-22.716-5.209-34.108-2.889A70.043,70.043,0,0,0,635.6,348.314a66.615,66.615,0,0,0-10.989,9.568c-3.375,3.739-9.654,14.012-10.107,14.963a62.5,62.5,0,0,0-14.994-19.8,71.813,71.813,0,0,0-25.828-14.41,69.833,69.833,0,0,0-15.83-2.971,54.424,54.424,0,0,0-16.98,1.368,42.728,42.728,0,0,0-24.212,16.34,38.905,38.905,0,0,0-7.562,25.141,39.546,39.546,0,0,0,3.115,13.128,48.463,48.463,0,0,0,3.4,6.591,50.374,50.374,0,0,0,29.7,21.464c10.557,3.012,21.756,3.111,32.612,1.7,11.148-1.452,21.879-4.784,32.379-8.433,1.4-.487,2.8-.988,4.193-1.484,9.334,3.315,18.748,6.512,28.519,8.542a92.856,92.856,0,0,0,33.571,1.243A55.761,55.761,0,0,0,704.427,408.7a45.465,45.465,0,0,0,14.422-23.122A36.927,36.927,0,0,0,719.741,372.27ZM575.027,411.479a81.029,81.029,0,0,1-18.156.1,60.121,60.121,0,0,1-12.626-3.1,38.337,38.337,0,0,1-21.273-19.5,36.9,36.9,0,0,1-2.574-8.639,33.038,33.038,0,0,1,0-7.928,35.1,35.1,0,0,1,2.414-8.09,31.846,31.846,0,0,1,10.379-12.585,36.384,36.384,0,0,1,6.549-3.543,42.7,42.7,0,0,1,8.565-2.115,54.883,54.883,0,0,1,11.942.086,59.908,59.908,0,0,1,27,10.629,61.4,61.4,0,0,1,10.234,9.42,57.009,57.009,0,0,1,7.452,11.847,56.419,56.419,0,0,1,4,13.653l.009.068a57.483,57.483,0,0,0-.436,7.084c0,.912.045,1.823.095,2.733a5.507,5.507,0,0,0-1.158,1.439,198.158,198.158,0,0,1-23.752,6.954Q579.394,410.9,575.027,411.479Zm133.6-31.143a36.894,36.894,0,0,1-2.575,8.64,38.125,38.125,0,0,1-21.273,19.5,60.125,60.125,0,0,1-12.626,3.1,81.055,81.055,0,0,1-18.189-.1c-10.722-1.415-21.064-4.54-31.181-8.027-.417-.144-.83-.295-1.246-.44a5.387,5.387,0,0,0-1.108-1.423,56.744,56.744,0,0,0-.332-9.9,56.426,56.426,0,0,1,4-13.628,57.006,57.006,0,0,1,7.452-11.846,61.4,61.4,0,0,1,10.235-9.421,59.909,59.909,0,0,1,27-10.629,54.884,54.884,0,0,1,11.941-.086,42.7,42.7,0,0,1,8.565,2.115,36.386,36.386,0,0,1,6.55,3.543,31.849,31.849,0,0,1,10.379,12.584,35.1,35.1,0,0,1,2.414,8.09,33.04,33.04,0,0,1,0,7.928Z" transform="translate(-257.503 -199.115)" fill="#3f3d56"/>
      <ellipse id="Ellipse_1" data-name="Ellipse 1" cx="6.668" cy="6.156" rx="6.668" ry="6.156" transform="translate(234.715 351.939)" fill="#1397cf"/>
      <ellipse id="Ellipse_2" data-name="Ellipse 2" cx="6.668" cy="6.156" rx="6.668" ry="6.156" transform="translate(282.501 336.55)" fill="#1397cf"/>
      <ellipse id="Ellipse_3" data-name="Ellipse 3" cx="6.668" cy="6.156" rx="6.668" ry="6.156" transform="translate(261.387 384.77)" fill="#1397cf"/>
      <ellipse id="Ellipse_4" data-name="Ellipse 4" cx="6.668" cy="6.156" rx="6.668" ry="6.156" transform="translate(459.199 351.939)" fill="#1397cf"/>
      <ellipse id="Ellipse_5" data-name="Ellipse 5" cx="6.668" cy="6.156" rx="6.668" ry="6.156" transform="translate(411.413 336.55)" fill="#1397cf"/>
      <ellipse id="Ellipse_6" data-name="Ellipse 6" cx="6.668" cy="6.156" rx="6.668" ry="6.156" transform="translate(432.528 384.77)" fill="#1397cf"/>
      <ellipse id="Ellipse_7" data-name="Ellipse 7" cx="6.668" cy="6.156" rx="6.668" ry="6.156" transform="translate(464.756 459.665)" fill="#1397cf"/>
      <ellipse id="Ellipse_8" data-name="Ellipse 8" cx="6.668" cy="6.156" rx="6.668" ry="6.156" transform="translate(481.425 415.548)" fill="#1397cf"/>
      <ellipse id="Ellipse_9" data-name="Ellipse 9" cx="6.668" cy="6.156" rx="6.668" ry="6.156" transform="translate(429.193 435.042)" fill="#1397cf"/>
      <ellipse id="Ellipse_10" data-name="Ellipse 10" cx="6.668" cy="6.156" rx="6.668" ry="6.156" transform="translate(273.611 459.665)" fill="#1397cf"/>
      <ellipse id="Ellipse_11" data-name="Ellipse 11" cx="6.668" cy="6.156" rx="6.668" ry="6.156" transform="translate(290.28 415.548)" fill="#1397cf"/>
      <ellipse id="Ellipse_12" data-name="Ellipse 12" cx="6.668" cy="6.156" rx="6.668" ry="6.156" transform="translate(238.049 435.042)" fill="#1397cf"/>
      <path id="Path_2961" data-name="Path 2961" d="M688.887,228.942A17.046,17.046,0,0,0,704.4,227.26c5.639-3.883,7.753-10.66,9.523-16.944l5.23-18.591-8.834,4.951c-6.353,3.56-12.852,7.238-17.438,12.643S685.978,222.3,689,228.57" transform="translate(-252.588 -191.724)" fill="#f2f2f2"/>
      <path id="Path_2961-2" data-name="Path 2961" d="M459.726,396.36a13.811,13.811,0,0,0,2.5-14.236c-2.5-6.07-8.982-9.8-15.044-13.1l-17.935-9.736,2.739,9.2c1.969,6.616,4.021,13.394,8.4,18.946s11.63,9.686,18.992,8.721" transform="translate(-259.699 -200.337)" fill="#f2f2f2"/>
      <path id="Path_2961-3" data-name="Path 2961" d="M869.632,698.112a13.811,13.811,0,0,0,2.5-14.236c-2.5-6.07-8.982-9.8-15.044-13.1l-17.935-9.736,2.739,9.2c1.969,6.616,4.021,13.394,8.4,18.946s11.63,9.686,18.992,8.721" transform="translate(-248.419 -215.848)" fill="#f2f2f2"/>
      <ellipse id="Ellipse_13" data-name="Ellipse 13" cx="8.89" cy="8.208" rx="8.89" ry="8.208" transform="translate(273.611 102.633)" fill="#fd6584"/>
      <ellipse id="Ellipse_14" data-name="Ellipse 14" cx="8.89" cy="8.208" rx="8.89" ry="8.208" transform="translate(36.903 344.758)" fill="#fd6584"/>
      <ellipse id="Ellipse_15" data-name="Ellipse 15" cx="8.89" cy="8.208" rx="8.89" ry="8.208" transform="translate(648.121 278.071)" fill="#fd6584"/>
      <ellipse id="Ellipse_16" data-name="Ellipse 16" cx="8.89" cy="8.208" rx="8.89" ry="8.208" transform="translate(28.012 138.541)" fill="#e6e6e6"/>
      <ellipse id="Ellipse_17" data-name="Ellipse 17" cx="8.89" cy="8.208" rx="8.89" ry="8.208" transform="translate(578.109 372.458)" fill="#e6e6e6"/>
      <ellipse id="Ellipse_18" data-name="Ellipse 18" cx="8.89" cy="8.208" rx="8.89" ry="8.208" transform="translate(595.889 123.152)" fill="#e6e6e6"/>
      <path id="Path_37" data-name="Path 37" d="M473.924,475.627c-.768,1.122-2.632.959-3.678.258-1.453-.974-.982-2.85.018-3.959,3.179-3.523,8.437.2,9.146,3.7a8.584,8.584,0,0,1-4.486,8.765c-3.627,1.984-8.339.989-11.457-1.386-6.505-4.954-4.734-14.873,2.492-18.457,4.611-2.287,10.441-1.283,14.984.633,5.114,2.157,9.511,5.463,14.24,8.218a83.883,83.883,0,0,0,34.294,10.811c2.132.2,2.117-2.879,0-3.078a81.559,81.559,0,0,1-19.705-4.38,89.006,89.006,0,0,1-17.707-8.972c-5.568-3.523-11.385-6.946-18.276-7.528a16.449,16.449,0,0,0-14.615,5.871,14.018,14.018,0,0,0-2.433,13.112,14.7,14.7,0,0,0,11.43,9.085,12.64,12.64,0,0,0,12.923-5.512c2.536-4.049,2.454-9.489-1.377-12.846a9.349,9.349,0,0,0-8.6-2.159A7.114,7.114,0,0,0,466,473.807c-.37,5.256,7.713,7.885,10.8,3.373,1.15-1.679-1.734-3.225-2.879-1.553Z" transform="translate(-258.961 -205.522)" fill="#3f3d56"/>
      <path id="Path_38" data-name="Path 38" d="M752.442,475.627c.768,1.122,2.632.959,3.678.258,1.453-.974.982-2.85-.018-3.959-3.179-3.523-8.437.2-9.146,3.7a8.585,8.585,0,0,0,4.487,8.765c3.627,1.984,8.339.989,11.457-1.386,6.505-4.954,4.734-14.873-2.492-18.457-4.611-2.287-10.441-1.283-14.984.633-5.114,2.157-9.511,5.463-14.24,8.218a83.883,83.883,0,0,1-34.294,10.811c-2.133.2-2.117-2.879,0-3.078a81.559,81.559,0,0,0,19.706-4.38,89,89,0,0,0,17.707-8.972c5.568-3.523,11.385-6.946,18.275-7.528a16.449,16.449,0,0,1,14.615,5.871,14.019,14.019,0,0,1,2.433,13.112,14.7,14.7,0,0,1-11.43,9.085,12.64,12.64,0,0,1-12.923-5.512c-2.536-4.049-2.454-9.489,1.377-12.846a9.349,9.349,0,0,1,8.6-2.159,7.114,7.114,0,0,1,5.115,6.011c.37,5.256-7.713,7.885-10.8,3.373-1.15-1.679,1.734-3.225,2.879-1.553Z" transform="translate(-252.378 -205.522)" fill="#3f3d56"/>
      <path id="Path_39" data-name="Path 39" d="M96.83,38.867l-4.4,5.1L76.852,35.463l4.4-5.1Z" transform="translate(2.115 -1.561)" fill="#e4e4e4"/>
      <path id="Path_40" data-name="Path 40" d="M112.548,62.43l3.889,5.359L100.076,75.3l-3.889-5.358Z" transform="translate(2.647 -3.209)" fill="#e4e4e4"/>
      <path id="Path_41" data-name="Path 41" d="M128.614,37.872l7.772.254-.774,15.013-7.773-.253Z" transform="translate(3.518 -1.947)" fill="#e4e4e4"/>
      <path id="Path_42" data-name="Path 42" d="M632.2,369.82l-4.4,5.1-15.574-8.505,4.4-5.1Z" transform="translate(16.846 -18.572)" fill="#e4e4e4"/>
      <path id="Path_43" data-name="Path 43" d="M647.913,393.383l3.889,5.359-16.361,7.513-3.889-5.359Z" transform="translate(17.378 -20.221)" fill="#e4e4e4"/>
      <path id="Path_44" data-name="Path 44" d="M663.979,368.825l7.772.254-.774,15.013-7.773-.253Z" transform="translate(18.249 -18.958)" fill="#e4e4e4"/>
    </g>
  </g>
</svg>
