<svg xmlns="http://www.w3.org/2000/svg" xmlns:xlink="http://www.w3.org/1999/xlink" width="700" height="500" viewBox="0 0 700 500">
  <defs>
    <clipPath id="clip-engagement">
      <rect width="700" height="500"/>
    </clipPath>
  </defs>
  <g id="engagement" clip-path="url(#clip-engagement)">
    <g id="undraw_together_re_a8x4" transform="translate(93 5)">
      <ellipse id="Ellipse_1" data-name="Ellipse 1" cx="69.328" cy="76.686" rx="69.328" ry="76.686" transform="translate(2.704 195.897)" fill="#f0f0f0"/>
      <path id="Path_1" data-name="Path 1" d="M113.314,394.03h.191l3.428,217.418h-7.238Z" transform="translate(-41.091 -121.448)" fill="#f0f0f0"/>
      <ellipse id="Ellipse_2" data-name="Ellipse 2" cx="50.566" cy="55.932" rx="50.566" ry="55.932" transform="translate(170.313 275.489)" fill="#f0f0f0"/>
      <path id="Path_2" data-name="Path 2" d="M351.818,479.085h.139l2.5,158.578h-5.279Z" transform="translate(-130.8 -147.663)" fill="#f0f0f0"/>
      <ellipse id="Ellipse_3" data-name="Ellipse 3" cx="115.06" cy="127.271" rx="115.06" ry="127.271" transform="translate(42.135 0)" fill="#1397cf"/>
      <path id="Path_3" data-name="Path 3" d="M461.855,156.936c22.168,57.356,3.491,124.03-44.111,157.474s-110.1,23.8-147.613-22.774c17.915,46.362,58.883,76.657,104.462,77.247s87.177-28.635,106.069-74.521S492.179,194.581,461.855,156.936Z" transform="translate(-219.704 -114.672)" opacity="0.1"/>
      <path id="Path_4" data-name="Path 4" d="M247.245,183.975h-.316l-5.69,360.834h12.012Z" transform="translate(-90.367 -56.705)" fill="#3f3d56"/>
      <path id="Path_5" data-name="Path 5" d="M702.333,803.376H190.125a.7.7,0,0,1,0-1.384H702.333a.7.7,0,0,1,0,1.384Z" transform="translate(-189.5 -313.491)" fill="#cacaca"/>
      <path id="Path_6" data-name="Path 6" d="M671.4,686.377h-6.128l-2.915-26.142H671.4Z" transform="translate(-248.113 -203.497)" fill="#ffb6b6"/>
      <path id="Path_7" data-name="Path 7" d="M856.976,799.451H837.219v-.277c0-4.7,3.443-8.505,7.689-8.506h12.068Z" transform="translate(-432.132 -310)" fill="#2f2e41"/>
      <path id="Path_8" data-name="Path 8" d="M716.827,686.377H710.7l-2.915-26.142h9.043Z" transform="translate(-265.132 -203.497)" fill="#ffb6b6"/>
      <path id="Path_9" data-name="Path 9" d="M902.408,799.451H882.651v-.277c0-4.7,3.442-8.505,7.689-8.506h12.068Z" transform="translate(-449.15 -310)" fill="#2f2e41"/>
      <path id="Path_10" data-name="Path 10" d="M557.784,686.315h6.128l1.137-26.284-7.265.141Z" transform="translate(-208.942 -203.434)" fill="#ffb6b6"/>
      <path id="Path_11" data-name="Path 11" d="M744.785,790.668h12.068c4.246,0,7.689,3.808,7.69,8.505v.277H744.785Z" transform="translate(-397.506 -310)" fill="#2f2e41"/>
      <path id="Path_12" data-name="Path 12" d="M518.177,686.315H524.3l1.215-26.284-7.343.141Z" transform="translate(-194.106 -203.434)" fill="#ffb6b6"/>
      <path id="Path_13" data-name="Path 13" d="M705.179,790.668h12.067c4.247,0,7.69,3.808,7.69,8.506v.277H705.179Z" transform="translate(-382.67 -310)" fill="#2f2e41"/>
      <path id="Path_14" data-name="Path 14" d="M792.319,614.3a5.269,5.269,0,0,1,.248-4.061,4.407,4.407,0,0,1,2.974-2.4l20.92-37.2,7.07,6.948-22.787,34.383a4.837,4.837,0,0,1-3.277,5.3,4.3,4.3,0,0,1-5.147-2.975Z" transform="translate(-415.203 -242.184)" fill="#ffb6b6"/>
      <path id="Path_15" data-name="Path 15" d="M938.886,631.214a4.692,4.692,0,0,1-2.421-3.065,5.242,5.242,0,0,1,.57-4.021l-8.989-42.668,9.441-.617,5.867,42.135a5.184,5.184,0,0,1,1.073,6.313A4.161,4.161,0,0,1,938.886,631.214Z" transform="translate(-466.155 -245.329)" fill="#ffb6b6"/>
      <path id="Path_16" data-name="Path 16" d="M791.938,621.565a5.579,5.579,0,0,0-1.866-4.051,4.506,4.506,0,0,0-4.006-1.019l-8.946-16.331-3.845,8.965,9.085,14.133a4.895,4.895,0,0,0,5.471,3.857A5.294,5.294,0,0,0,791.938,621.565Z" transform="translate(-408.178 -251.284)" fill="#ffb6b6"/>
      <path id="Path_17" data-name="Path 17" d="M678.277,643.782a5.836,5.836,0,0,0,.783-4.463,5.293,5.293,0,0,0-2.591-3.529l2.03-18.962-8.018,4.451-.7,17.325a5.683,5.683,0,0,0,2.167,6.764,4.6,4.6,0,0,0,6.327-1.584Z" transform="translate(-369.276 -256.42)" fill="#ffb6b6"/>
      <path id="Path_18" data-name="Path 18" d="M666.263,532.184l-2.6,5.839-2.046,99.207,13.369,1.083,12.546-72.759,3.026,71.675,10.995.116,11.893-97.751Z" transform="translate(-247.838 -164.029)" fill="#2f2e41"/>
      <path id="Path_19" data-name="Path 19" d="M729.135,628.025l4.339,2.843s3.526,2.482,2.34,19.75-2.6,86.447-2.6,86.447H725.52l-12.457-82.639-4.545,83.535-8.1-.448s-16.541-95.1-9.384-105.426Z" transform="translate(-376.7 -259.871)" fill="#2f2e41"/>
      <path id="Path_20" data-name="Path 20" d="M856.039,522.346l14.6-5.391,17.933.291,12.2,5.387,3.4,78.57s-26.7,17.691-49.783-1.572Z" transform="translate(-438.564 -225.637)" fill="#e4e4e4"/>
      <path id="Path_21" data-name="Path 21" d="M844.641,523.743s-5.762-.747-8.973,9.831-11.7,24.889-11.7,24.889l9.29,9.636,18.58-28.5Z" transform="translate(-427.166 -227.726)" fill="#e4e4e4"/>
      <path id="Path_22" data-name="Path 22" d="M921.314,526.646l4.532-1.484s10.265,1.513,10.674,13.728,2.35,31.332,2.35,31.332l-10.47,2.309Z" transform="translate(-463.633 -228.166)" fill="#e4e4e4"/>
      <path id="Path_23" data-name="Path 23" d="M687.928,538.138s21.1-7.5,38.126-.508l-1.394,36.324,10.5,28.335s-33.386,14.325-44.511,2.286l3.245-28.382Z" transform="translate(-376.208 -231.09)" fill="#1397cf"/>
      <path id="Path_24" data-name="Path 24" d="M739.819,543.225l4.422-4.266s2.95-.039,5.488,4.981,7.137,21.222,7.137,21.222l14.722,27.585-6.477,4.925-23.349-36.121Z" transform="translate(-395.646 -232.419)" fill="#1397cf"/>
      <path id="Path_25" data-name="Path 25" d="M682.079,541.268l.3-2.276a9.966,9.966,0,0,0-8.917,9.436c-.7,8.763-3.238,58.209-3.238,58.209l8.132,1.791,8.09-50.75Z" transform="translate(-369.577 -232.429)" fill="#1397cf"/>
      <ellipse id="Ellipse_4" data-name="Ellipse 4" cx="13.645" cy="15.093" rx="13.645" ry="15.093" transform="translate(428.568 253.894)" fill="#ffb6b6"/>
      <path id="Path_26" data-name="Path 26" d="M717.188,508.571l-24.667,5.373a1.97,1.97,0,0,1-2.291-1.7l-2.094-11.76c-1.549-8.7,3.573-17.148,11.442-18.862s15.5,3.952,17.052,12.656l2.093,11.76A2.161,2.161,0,0,1,717.188,508.571Z" transform="translate(-376.183 -214.652)" fill="#2f2e41"/>
      <ellipse id="Ellipse_5" data-name="Ellipse 5" cx="10.646" cy="11.776" rx="10.646" ry="11.776" transform="translate(318.848 272.365)" fill="#ffb6b6"/>
      <path id="Path_27" data-name="Path 27" d="M724.659,496.019,709.576,499.3,709,496.943l-.347,2.564-2.322.506-1.152-4.681-.688,5.081-4.494.979-.042-.235c-1.218-6.883,2.831-13.558,9.051-14.921l2.127-.463c6.223-1.347,12.257,3.131,13.489,10.011Z" transform="translate(-380.631 -215.952)" fill="#2f2e41"/>
      <path id="Path_28" data-name="Path 28" d="M710.31,516.967a1.809,1.809,0,0,1-.345.041l-11.428.25-3.594-20.19,12.158-2.648-.232.454c-3.226,6.315,1.488,14.388,4.586,18.638a2.31,2.31,0,0,1,.244,2.247A1.99,1.99,0,0,1,710.31,516.967Z" transform="translate(-378.836 -218.691)" fill="#2f2e41"/>
      <path id="Path_29" data-name="Path 29" d="M873.464,463.768a9.214,9.214,0,0,1,5.173.135l-.163.457c4.067-2.607,8.907-4.049,13.519-3.05a13.22,13.22,0,0,1,9.98,9.809,16.6,16.6,0,0,1,.073,6.137,21.692,21.692,0,0,1-8.968,14.516c-.584.392-1.486.671-1.831.019-.392-.741.493-1.493.757-2.3a2.378,2.378,0,0,0-.919-2.422c-.683-.559-1.515-.849-2.229-1.358a7.186,7.186,0,0,1-2.581-4.872,22.959,22.959,0,0,1,.16-5.8,24.892,24.892,0,0,1-8.547,1.817,5.7,5.7,0,0,1-3.029-.529,7.654,7.654,0,0,1-2.635-3.42l-.843-1.668a7.575,7.575,0,0,1-1.069-3.34A4.588,4.588,0,0,1,873.464,463.768Z" transform="translate(-444.528 -208.388)" fill="#2f2e41"/>
    </g>
  </g>
</svg>
