<svg xmlns="http://www.w3.org/2000/svg" xmlns:xlink="http://www.w3.org/1999/xlink" width="700" height="500" viewBox="0 0 700 500">
  <defs>
    <clipPath id="clip-exam">
      <rect width="700" height="500"/>
    </clipPath>
  </defs>
  <g id="exam" clip-path="url(#clip-exam)">
    <g id="undraw_exams_re_4ios" transform="translate(5 5)">
      <g id="Group_1" data-name="Group 1" transform="translate(0.753 322.895)">
        <path id="Path_1" data-name="Path 1" d="M115.98,312.81c-.976-1.744-5.2.123-5.975-1.459s3.15-3.98,5.391-9.469c.4-.99,2.951-7.228,1.066-9.153-3.574-3.648-19.929,11.408-25.653,6.481-1.256-1.081-2.134-3.24-5.935-6.745-1.512-1.394-2.427-2.024-3.312-1.79-1.256.332-1.355,2.113-2.7,5.615-2.02,5.252-3.214,4.935-4.391,9.125-.874,3.111-.674,4.919-1.7,5.271-1.455.5-2.793-2.8-4.637-2.505-1.881.3-3.018,4.143-3.377,7.019-.674,5.4,1.2,8.959,2.233,12.7,1.127,4.07,1.8,10.259-.807,19.021L40.427,423.815c5.685-15.777,22.147-59.027,29.065-75.1,2-4.64,4.2-9.346,8.729-11.2,4.359-1.788,10.345-.721,17.976-2.669.891-.227,3.365-.894,3.676-2.436.257-1.274-1.2-1.986-.974-3.179.3-1.6,3.161-1.621,6.676-3.468a20.946,20.946,0,0,0,5.352-4.184c.4-.4,6.352-6.446,5.053-8.767h0Z" transform="translate(5.554 -257.505)" fill="#f2f2f2"/>
        <path id="Path_2" data-name="Path 2" d="M20.867,342.9c-1.089,0-1.443,2.739-2.4,2.686s-.935-2.786-2.83-5.536c-.342-.5-2.5-3.62-3.932-3.2-2.721.806-.466,13.657-4.4,15.212-.863.341-2.116.175-4.836,1.141-1.082.384-1.638.678-1.784,1.206-.208.749.588,1.315,1.821,3.026,1.85,2.566,1.358,3.1,2.959,4.916,1.189,1.352,2.084,1.77,1.95,2.406-.189.9-2.1.645-2.5,1.689-.4,1.065,1.048,2.765,2.277,3.782,2.305,1.908,4.495,1.963,6.528,2.5,2.21.588,5.27,2.026,8.577,5.908l28.182,35.579c-5.667-7.509-20.949-28.55-26.4-36.785-1.573-2.377-3.116-4.882-2.67-7.772.429-2.783,2.651-5.588,3.951-10.119.152-.529.557-2.008-.068-2.615-.516-.5-1.265.05-1.754-.411-.655-.618.161-2.112.32-4.473a13.266,13.266,0,0,0-.394-3.99c-.07-.324-1.152-5.164-2.6-5.158h0Z" transform="translate(-0.651 -247.114)" fill="#f2f2f2"/>
        <path id="Path_3" data-name="Path 3" d="M37.027,350.958l-.656-6.208.3-.471a11.937,11.937,0,0,0,2.1-6.319c0-.321-.013-.642-.027-.968a10.242,10.242,0,0,1,.665-4.782c.444-1.046,1.692-3.468,3.567-3.169a2.082,2.082,0,0,1,1.177.609c.042-.072.086-.144.133-.222a6.7,6.7,0,0,1,1.492-1.739,7.777,7.777,0,0,0,1.25-1.34c.243-.321.433-.6.593-.839a2.751,2.751,0,0,1,2.236-1.556c1.194.06,1.819,1.106,2.233,1.8a15.34,15.34,0,0,1,1.3,2.716,4.842,4.842,0,0,0,.219.534c.385.6,3.512.039,4.69-.165,2.647-.468,4.937-.872,5.88.9.676,1.265.174,2.938-1.538,5.105a9.811,9.811,0,0,1-1.6,1.589,2.064,2.064,0,0,1,.942,1.3h0c.356,1.5-.864,3.013-3.627,4.488a9.408,9.408,0,0,1-2.9,1.1,10.783,10.783,0,0,1-1.628.153,2.138,2.138,0,0,1-.239.92c-.485.944-1.5,1.394-3.017,1.286a22.438,22.438,0,0,1-4.27-.728,9.815,9.815,0,0,0-2.7-.426c-1.332.114-2.359,1.244-3.565,2.71l-3.009,3.726h0Z" transform="translate(4.921 -250.007)" fill="#f2f2f2"/>
        <path id="Path_4" data-name="Path 4" d="M43.344,320.074l-5.5,2.248-.506-.188a10.267,10.267,0,0,0-6.3-.553c-.293.08-.582.176-.877.273a8.687,8.687,0,0,1-4.533.531c-1.068-.19-3.6-.854-3.8-2.853a2.364,2.364,0,0,1,.257-1.361l-.236-.08A6.337,6.337,0,0,1,19.883,317a7.452,7.452,0,0,0-1.54-.942c-.355-.168-.66-.291-.917-.395a2.812,2.812,0,0,1-1.987-1.9,3.2,3.2,0,0,1,1.075-2.746,14.4,14.4,0,0,1,2.15-2.018,4.486,4.486,0,0,0,.431-.36c.45-.546-.855-3.61-1.34-4.766-1.1-2.594-2.048-4.839-.673-6.255.983-1.014,2.638-.924,5.05.281a9.508,9.508,0,0,1,1.857,1.241,2.066,2.066,0,0,1,.951-1.3h0c1.283-.747,2.969.122,5.016,2.579a10.371,10.371,0,0,1,1.738,2.7,12.576,12.576,0,0,1,.553,1.63,1.823,1.823,0,0,1,.9.012c.985.258,1.652,1.179,1.939,2.766a26.518,26.518,0,0,1,.418,4.562,11.6,11.6,0,0,0,.3,2.871c.442,1.337,1.734,2.1,3.378,2.966l4.165,2.139Z" transform="translate(1.648 -256.088)" fill="#f2f2f2"/>
        <path id="Path_5" data-name="Path 5" d="M37.027,305.852l-.656-6.208.3-.471a11.937,11.937,0,0,0,2.1-6.319c0-.321-.013-.642-.027-.968a10.242,10.242,0,0,1,.665-4.782c.444-1.046,1.692-3.468,3.567-3.169a2.082,2.082,0,0,1,1.177.609c.042-.072.086-.144.133-.222a6.7,6.7,0,0,1,1.492-1.739,7.776,7.776,0,0,0,1.25-1.34c.243-.321.433-.6.593-.839a2.751,2.751,0,0,1,2.236-1.556c1.194.06,1.819,1.106,2.233,1.8a15.341,15.341,0,0,1,1.3,2.716,4.842,4.842,0,0,0,.219.534c.385.6,3.512.039,4.69-.165,2.647-.468,4.937-.872,5.88.9.676,1.265.174,2.938-1.538,5.105a9.811,9.811,0,0,1-1.6,1.589,2.064,2.064,0,0,1,.942,1.3h0c.356,1.5-.864,3.013-3.627,4.488a9.409,9.409,0,0,1-2.9,1.1,10.782,10.782,0,0,1-1.628.153,2.138,2.138,0,0,1-.239.92c-.485.944-1.5,1.394-3.017,1.286a22.436,22.436,0,0,1-4.27-.728,9.814,9.814,0,0,0-2.7-.426c-1.332.114-2.359,1.244-3.565,2.71l-3.009,3.726h0Z" transform="translate(4.921 -260.156)" fill="#f2f2f2"/>
        <path id="Path_6" data-name="Path 6" d="M44.379,426.225l-1.228-.815-.3-1.5.3,1.5-1.431.174c-.023-.141-.1-.465-.218-.971a228.75,228.75,0,0,1-4.224-24.528A264.763,264.763,0,0,1,35.364,371.7c-.133-9.563.294-16.8.637-22.622.259-4.389.573-8.568.881-12.639.82-10.876,1.594-21.15,1.018-32.523a31.594,31.594,0,0,0-3.308-13.448,28.191,28.191,0,0,0-6.921-8.6l1.8-2.4a31.275,31.275,0,0,1,7.657,9.533,34.6,34.6,0,0,1,3.662,14.761c.586,11.575-.2,21.947-1.026,32.928-.306,4.056-.62,8.217-.877,12.588-.339,5.765-.762,12.942-.631,22.382a261.526,261.526,0,0,0,1.888,28.036,225.131,225.131,0,0,0,4.167,24.192c.337,1.46.407,1.766.062,2.344h0Z" transform="translate(3.564 -260.018)" fill="#f2f2f2"/>
        <path id="Path_7" data-name="Path 7" d="M24.573,290.315c-.119,0-.239,0-.361-.012-2.467-.141-4.751-1.706-6.791-4.65-.956-1.385-1.446-2.965-2.422-6.116a40.278,40.278,0,0,1-1.334-6.34c-.293-2.215-.256-3.142.158-3.96a4.526,4.526,0,0,1,2.041-1.976,1.83,1.83,0,0,1,.113-.905c.494-1.28,1.806-1.112,2.516-1.031a6.718,6.718,0,0,0,1.291.084,3.506,3.506,0,0,0,1.789-.639A7.8,7.8,0,0,1,24,263.76a8.184,8.184,0,0,1,4.557.384c3.133,1.106,4.678,3.687,6.466,6.676a24.138,24.138,0,0,1,2.388,5.774,7.254,7.254,0,0,1,.325,3.831c-.356,1.466-1.2,2.305-3.335,4.158a39.16,39.16,0,0,1-4.314,3.5c-2.239,1.37-3.645,2.23-5.512,2.23h0Z" transform="translate(1.349 -263.589)" fill="#f2f2f2"/>
      </g>
      <path id="Path_8" data-name="Path 8" d="M674,398.319h0a1,1,0,0,1-.971,1.029H0V397.29H673.027a1,1,0,0,1,.971,1.029Z" transform="translate(0 89.389)" fill="#e6e6e6"/>
      <g id="Group_8" data-name="Group 8" transform="translate(53.618 1.478)">
        <g id="Group_2" data-name="Group 2" transform="translate(395.275 8.614)">
          <path id="Path_9" data-name="Path 9" d="M419.125,153.2s-36.228,4.617-30.117-25.736,40.759-86.418,40.759-86.418l19.662,11.685-22.574,56.543,9.718,8.124-17.448,35.8Z" transform="translate(-388.313 -0.858)" fill="#ffb6b6"/>
          <path id="Path_10" data-name="Path 10" d="M535.618,103.071l-5.1,44.492L402.592,146.9l25.691-47.316Z" transform="translate(-386.086 12.314)" fill="#1397cf"/>
          <path id="Path_26" data-name="Path 26" d="M24.339-2.169c13.977-.38,25.11,6.487,24.865,15.338S37.429,29.5,23.452,29.882-1.658,23.4-1.413,14.544,10.362-1.79,24.339-2.169Z" transform="matrix(0.582, -0.813, 0.813, 0.582, 35.565, 44.22)" fill="#ffb6b6"/>
        </g>
        <rect id="Rectangle_1" data-name="Rectangle 1" width="193.089" height="7.854" transform="translate(532.507 486.714) rotate(-90)" fill="#3f3d56"/>
        <rect id="Rectangle_2" data-name="Rectangle 2" width="193.089" height="7.854" transform="translate(494.807 486.714) rotate(-90)" fill="#3f3d56"/>
        <rect id="Rectangle_3" data-name="Rectangle 3" width="314.602" height="7.854" transform="translate(283.533 486.714) rotate(-90)" fill="#e6e6e6"/>
        <rect id="Rectangle_4" data-name="Rectangle 4" width="193.089" height="7.854" transform="translate(409.983 486.715) rotate(-90)" fill="#3f3d56"/>
        <rect id="Rectangle_5" data-name="Rectangle 5" width="193.089" height="7.854" transform="translate(379.927 486.715) rotate(-90)" fill="#3f3d56"/>
        <path id="Path_11" data-name="Path 11" d="M525.306,237.5H373.635l-29.094,43.732,150.919,9.534Z" transform="translate(0.133 51.96)" fill="#3f3d56"/>
        <g id="Group_4" data-name="Group 4" transform="translate(131.535 81.213)">
          <g id="Group_3" data-name="Group 3">
            <path id="Path_12" data-name="Path 12" d="M272.991,121.187l.689-31.715-91.54,7.461-.468,21.49Z" transform="translate(-156.811 -62.56)" fill="#ffb6b6"/>
            <path id="Path_13" data-name="Path 13" d="M214.392,98.087l-4.378,11.162-6.288.213s7.362,2.389,9.407,16.565l-6.041,1.919s-5.8,5.736-16.648,5.18l-29.079-2.578-.112-10.743,20.1-2.461s4.478-3.122-17.691-15.958c0,0-7.344-4.759-.739-28.259a7.446,7.446,0,0,1,6.829-5.623,3.746,3.746,0,0,1,4.055,2.937c1.671,5.879-.02,11.74,4.572,15.41s36.014,12.236,36.014,12.236Z" transform="translate(-160.166 -67.503)" fill="#2f2e41"/>
          </g>
          <path id="Path_14" data-name="Path 14" d="M532.567,245.614s-31.584,56.925-103.053,46.666c-17.007-2.441-31.971-13.156-40.5-28.941-16.477-30.51-41.5-83.931-33.385-114.18L234.76,124.712,225.236,93.6,356.054,75.6c11.571-1.593,22.906,4.37,28.7,15.1l63.724,117.929,19,2.2,65.089,34.791Z" transform="translate(-150.014 -65.739)" fill="#2f2e41"/>
        </g>
        <g id="Group_6" data-name="Group 6" transform="translate(131.444 95.882)">
          <g id="Group_5" data-name="Group 5" transform="translate(0 7.558)">
            <path id="Path_15" data-name="Path 15" d="M275.2,131.777l-1.721-31.671L182.8,115.347l1.165,21.461Z" transform="translate(-156.543 -82.394)" fill="#ffb6b6"/>
            <path id="Path_16" data-name="Path 16" d="M214.863,112.36l-3.516,11.5-6.251.748s7.519,1.754,10.634,15.709l-5.876,2.428s-5.348,6.212-16.2,6.582l-29.181-.09-.927-10.7,19.846-4.167s4.227-3.494-18.845-14.4c0,0-7.681-4.117-2.882-28.1a7.537,7.537,0,0,1,6.38-6.187,3.706,3.706,0,0,1,4.265,2.582c2.112,5.717.872,11.7,5.727,14.97s36.826,9.126,36.826,9.126Z" transform="translate(-160.087 -85.647)" fill="#2f2e41"/>
          </g>
          <path id="Path_17" data-name="Path 17" d="M543.271,234.565s-27.16,59.433-99.176,55.3c-17.138-.983-32.866-10.388-42.561-25.4-18.74-29.006-47.734-80.121-41.946-110.964L237.249,139.444l-11.855-30.195,129.025-29.1c11.413-2.574,23.164,2.4,29.757,12.6l72.471,112.113,19.1.571,67.52,29.129Z" transform="translate(-149.898 -79.477)" fill="#2f2e41"/>
        </g>
        <path id="Path_18" data-name="Path 18" d="M429.6,1.206,423.319,6.2l32.987,48.272,6.283-1.665Z" transform="translate(12.423 -1.206)" fill="#3f3d56"/>
        <path id="Path_19" data-name="Path 19" d="M514.5,89.018l36.129-1.665,15.708,74.905s-32.987,131.5-72.258,126.507c0,0-24.348-19.142-24.348-25.8s-32.987-23.3-32.987-23.3l-7.854-28.3,23.562-38.285s9.425-29.962,40.841-46.608L514.5,89.018Z" transform="translate(13.292 18.176)" fill="#1397cf"/>
        <path id="Path_20" data-name="Path 20" d="M367.614,136.271H46.382v8.324H203.464V457.533h7.854V144.595h156.3Z" transform="translate(-46.382 29.183)" fill="#e6e6e6"/>
        <path id="Path_28" data-name="Path 28" d="M42.412,0C65.836,0,84.824,20.122,84.824,44.943S65.836,89.886,42.412,89.886,0,69.765,0,44.943,18.989,0,42.412,0Z" transform="translate(504.232 10.65)" fill="#ffb6b6"/>
        <path id="Path_21" data-name="Path 21" d="M395.33,93.468l-29.623,12.484,58.121,81.564,20.421-16.645Z" transform="translate(3.435 19.552)" fill="#e6e6e6"/>
        <g id="Group_7" data-name="Group 7" transform="translate(399.968 139.654)">
          <path id="Path_22" data-name="Path 22" d="M503.814,234.192s-11,36.869-34.558,18.435-57.434-75.03-57.434-75.03l18.163-14.149,39.27,45.14,11-6.023,23.562,31.627Z" transform="translate(-389.339 -104.357)" fill="#ffb6b6"/>
          <path id="Path_23" data-name="Path 23" d="M513.341,115.21l36.129,23.3L496.063,261.691l-34.558-49.937Z" transform="translate(-381.588 -115.21)" fill="#1397cf"/>
          <path id="Path_27" data-name="Path 27" d="M14.6-1.324c8.8-.224,15.661,10.983,15.313,25.032S22.145,49.327,13.34,49.551-2.321,38.568-1.973,24.52,5.794-1.1,14.6-1.324Z" transform="translate(0 37.703) rotate(-30)" fill="#ffb6b6"/>
        </g>
        <path id="Path_24" data-name="Path 24" d="M551.451,165.827c10.885-37.814,22.566-49.781,34.847-42.288,9.348,5.7,12.161,18.683,6.683,28.529-13.964,25.1-42.737,82.6-36.743,120.71,0,0,9.425,53.266-65.974,53.266s-147.657-18.31-147.657-18.31l39.27-6.658,89.306,6.76c20.4,1.544,37.6-16.956,34.875-38.44q-.135-1.064-.321-2.151c-4.477-26.093,45.715-101.418,45.715-101.418Z" transform="translate(-0.169 25.841)" fill="#3f3d56"/>
      </g>
      <path id="Path_25" data-name="Path 25" d="M509.64,38.44c-3.465,10.28,4.148,20.954,14.426,20.228l.245-.017h0a26.921,26.921,0,0,1,.464,31.475h0a93.811,93.811,0,0,0,5.25,35.489l11.264,31.829,17.34-8.575,8.229,23.275,48.415-26.43L585.931,75.753,576.976,37.8c-6.371-27-32.365-43.258-57.752-36.112L499.747,7.167C484.36,11.5,475.5,28.57,480.3,44.659h0L509.64,38.44" transform="translate(74.726 0)" fill="#2f2e41"/>
    </g>
  </g>
</svg>
