<svg xmlns="http://www.w3.org/2000/svg" xmlns:xlink="http://www.w3.org/1999/xlink" width="700" height="500" viewBox="0 0 700 500">
  <defs>
    <clipPath id="clip-meeting">
      <rect width="700" height="500"/>
    </clipPath>
  </defs>
  <g id="meeting" clip-path="url(#clip-meeting)">
    <g id="undraw_engineering_team_a7n2" transform="translate(5 5)">
      <path id="Path_1" data-name="Path 1" d="M798.791,253.277l-2.161,23.912-5.365,59.392H683.5c.841-13.312,1.992-32.472,3.221-53.156.121-2.066.248-4.145.369-6.236,3.082-51.994,6.454-110.831,6.454-110.831l14.168,3.667,27.488,7.1,11.2,2.892,29.995,7.76c14.955,3.86,25.242,33.944,22.4,65.5Z" transform="translate(-139.418 17.622)" fill="#f2f2f2"/>
      <path id="Path_2" data-name="Path 2" d="M720.015,79.358l13.253,32.22L707.8,136.657l-10.866-39.6Z" transform="translate(-142.158 8.406)" fill="#ffb6b6"/>
      <ellipse id="Ellipse_1" data-name="Ellipse 1" cx="32.831" cy="45.613" rx="32.831" ry="45.613" transform="translate(528.154 27.019)" fill="#ffb6b6"/>
      <path id="Path_3" data-name="Path 3" d="M691.977,81.1c-2.607-5.512-1.584-8.4-3.766-10.421,0,0-.878-.815-7.164-1.28h0c-1.407-14.072-3.164-15.778-3.164-15.778-2.025-1.967-5.029-1.328-6.9-.125-3.953,2.544-3.5,8.039-6.157,9.091-3.677,1.453-10.367-6.737-11.027-16.112-.538-7.648,3.009-15.075,4.416-14.682s4.734-5.533,6.537-5.442c1.231.062,6.262-2.976,7.615-2.738,1.478.259,6.351,3.792,6.554,2.985,1.411-5.609,1-7.166,2.194-8.77,2.122-2.844,5.593-.863,11.038.2,11.2,2.187,13.159-2.945,18.9.534,2.9,1.757,5.327,6.5,10.063,15.9,6.622,13.155,9.934,19.732,9.955,27.4.022,7.824-2.705,7.327-3.9,18.91-1.333,12.893,1.5,18.789-1.6,22.977-2.392,3.237-7.254,4.006-9.809,1.165-4.374-4.864,1.35-16.6-3.49-25.178-2.971-5.264-8.946-7.606-11.683-5-3.095,2.942-1.39,11.578-3.566,12.4-1.864.7-4.595-5.074-5.049-6.035Z" transform="translate(-133.35 1.733)" fill="#2f2e41"/>
      <path id="Path_4" data-name="Path 4" d="M772.209,251.7c-.916,21.753-4.553,28.621-5.827,54.312-.278,5.64-.445,12.187-.445,20,0,1.99.008,3.915.008,5.8,0,4-.055,7.786-.39,11.623a68.994,68.994,0,0,1-1.416,9.4H693.427c-.008-.022-.008-.044-.016-.066-.414-2.5-.676-4.888-.875-7.177q-.1-1.1-.167-2.157c-.064-.829-.12-1.648-.175-2.455a87.2,87.2,0,0,0-.94-9.168,27.281,27.281,0,0,0-4.474-11.446,26.582,26.582,0,0,0-3.1-3.671c-.2-.188-.39-.376-.589-.564-2.818-2.688-5.484-4.623-7.793-10.108-.04-.077-.072-.166-.1-.243a41.006,41.006,0,0,1-2.181-6.846,30.643,30.643,0,0,1-.406-12.375c2.046-10.639,9.624-11.7,15.817-22.451a40.351,40.351,0,0,0,1.958-3.871c2.8-6.326,3.558-11.9,4.45-18.524.143-1.073.271-2.135.374-3.163.08-.774.152-1.537.208-2.29a83.485,83.485,0,0,0-.327-16.622c-1.894-15.937-7.483-25.8-3.535-40.1a40.5,40.5,0,0,1,4.776-10.749c3.757-6.116,7.618-10.086,6.95-17.982-.677-7.963-5.023-9.058-5.508-16.014a23.737,23.737,0,0,1,2.133-10.86v-.011c4.967-11.712,17.369-22.495,25.25-22.152a6.286,6.286,0,0,1,3.821,1.382c3.893,3.185,2.269,10.141,8.232,19.9a35.172,35.172,0,0,0,11.351,11.512c7.538,5.464,13.668,21.577,17.83,42.18.032.155.064.309.1.476a320.5,320.5,0,0,1,5.286,42.423c.382,6.293.6,12.619.652,18.878C772.456,243.5,772.376,247.841,772.209,251.7Z" transform="translate(-137.103 10.778)" fill="#1397cf"/>
      <g id="Group_1" data-name="Group 1" transform="translate(552.646 160.14)">
        <path id="Path_5" data-name="Path 5" d="M725.554,305.359l-1.442,5.574-.907,3.494-2.1,8.13-2.436,9.4H703.01l2.627-9.4,1.218-4.379,2.022-7.244,3.391-12.165Z" transform="translate(-696.045 -128.493)" fill="#ffb6b6"/>
        <path id="Path_6" data-name="Path 6" d="M771.14,170.266c-.04.719-.1,1.515-.152,2.378-.62,8.781-2.086,24.5-4.227,42.423-1.13,9.455-2.452,19.531-3.94,29.539-3.2,21.6-7.18,42.866-11.678,56.844-.8,2.522-1.632,4.8-2.476,6.813q-.967,2.306-2.03,4.545a139.143,139.143,0,0,1-7.53,13.88c-.1.188-.223.365-.342.553-.43.707-.876,1.4-1.322,2.1-2.181,3.417-4.41,6.6-6.567,9.522-2.627,3.561-5.159,6.713-7.427,9.4H698.025l-.1-.066-3.661-2.256s1.042-1.7,2.786-4.921c.358-.653.74-1.372,1.154-2.157.509-.962,1.059-2.024,1.647-3.174,1.226-2.411,2.619-5.242,4.115-8.449,2.9-6.2,6.2-13.835,9.537-22.671q.574-1.543,1.162-3.119c.008-.033.024-.066.032-.1.661-1.792,1.314-3.639,1.966-5.519a153.857,153.857,0,0,0,7.571-33.564,181.039,181.039,0,0,0,1.281-23.944,93.818,93.818,0,0,0-2.34-19.177v-.011c-.319-1.36-.677-2.721-1.083-4.07a64.725,64.725,0,0,0-2.6-7.166c-4.5-10.373-8.151-10.8-11.057-22.108-.86-3.351-2.81-10.915-2.213-18.9v-.011c.072-.984.191-1.98.351-2.975V163.9c.04-.276.1-.564.152-.84a27.365,27.365,0,0,1,2.34-7.167,20.248,20.248,0,0,1,7.968-8.7l.009-.011a17.7,17.7,0,0,1,6.368-2.267c11.629-1.437,20.648,12.143,25.576,19.564q2.853,4.3,5.238,7.221c12.393,15.373,15.793,5.552,16.676.476.135-.785.208-1.46.247-1.9Z" transform="translate(-694.26 -144.802)" fill="#1397cf"/>
        <path id="Path_7" data-name="Path 7" d="M790.88,167.308c0,.055-.008.243-.04.553.016-.166.024-.332.032-.487A.137.137,0,0,1,790.88,167.308Z" transform="translate(-713.96 -142.418)" fill="#6c63ff"/>
      </g>
      <path id="Path_8" data-name="Path 8" d="M600.284,378.318H173.576c-3.965,0-7.2,4.479-7.2,9.987s3.232,10,7.2,10H600.284c3.964,0,7.188-4.479,7.188-10S604.247,378.318,600.284,378.318Z" transform="translate(-33.938 40.074)" fill="#e6e6e6"/>
      <path id="Path_9" data-name="Path 9" d="M529.854,425H292.528c-3.964,0-7.188,4.479-7.188,9.986s3.224,10,7.188,10H529.854c3.964,0,7.2-4.49,7.2-10S533.818,425,529.854,425Z" transform="translate(-58.203 45.018)" fill="#e6e6e6"/>
      <path id="Path_10" data-name="Path 10" d="M235.069,82.781l26.893-15.724L273.5,99.909l-28.26,16.025Z" transform="translate(-47.949 7.103)" fill="#ffb6b6"/>
      <path id="Path_11" data-name="Path 11" d="M235.069,82.781l26.893-15.724L273.5,99.909l-28.26,16.025Z" transform="translate(-47.949 7.103)" opacity="0.1"/>
      <path id="Path_12" data-name="Path 12" d="M212.827,70.262l26.53,42.467s-18.456,80.928-36.911,88.14-52.483,42.467-52.483,42.467l-42.678-38.461,20.762-42.467s50.176-95.351,63.441-95.351,21.339,3.205,21.339,3.205Z" transform="translate(-21.884 7.103)" fill="#1397cf"/>
      <path id="Path_13" data-name="Path 13" d="M170.084,334.668H108.327l-3.9-7.252L88.481,297.809,84.813,291s-13.842-35.256-10.958-67.307,32.874-39.262,32.874-39.262h1.234l36.715,44.823-2.192,41.714,11.627,26.842,15.97,36.858Z" transform="translate(-14.984 19.536)" fill="#2f2e41"/>
      <path id="Path_14" data-name="Path 14" d="M128.908,323.54H112.356V289.486Z" transform="translate(-22.918 30.664)" fill="#2f2e41"/>
      <path id="Path_15" data-name="Path 15" d="M553.5,278.7l-2.059,14.84-5.11,36.858H443.68c.8-8.261,1.9-20.152,3.068-32.988.115-1.282.236-2.572.352-3.87,2.936-32.267,6.148-68.781,6.148-68.781l13.5,2.276,26.184,4.407,10.67,1.795,28.572,4.816c14.245,2.4,24.044,21.065,21.333,40.648Z" transform="translate(-90.501 23.808)" fill="#f2f2f2"/>
      <path id="Path_16" data-name="Path 16" d="M749.877,321.61H694.2c.848-1.386,1.326-2.187,1.326-2.187l16.691-3.83,34.391-7.885s1.569,5.633,3.27,13.9Z" transform="translate(-141.601 32.594)" fill="#2f2e41"/>
      <path id="Path_17" data-name="Path 17" d="M461.675,95.766l24.213,47.574-42.236,1.753-4.533-44.709Z" transform="translate(-89.571 10.144)" fill="#e29696"/>
      <path id="uuid-ae755ff6-bb09-410e-86b1-7d1b81a37005-121" d="M311.786,186.631c-3.107-12.452-10.25-20.318-15.953-17.57s-7.807,15.069-4.7,27.524a36.651,36.651,0,0,0,5.941,13.21l13.643,52.528,17.606-9.42L313.006,202.12a45.124,45.124,0,0,0-1.22-15.489Z" transform="translate(-59.092 17.85)" fill="#eca2a2"/>
      <path id="Path_19" data-name="Path 19" d="M494.012,167.256l-.033,48.485-3.247,17.908-6.679,36.834-4.862,33.878-3.622,25.24-1.292,9.014q-1.462,1.358-2.913,2.6H387.005a69.71,69.71,0,0,1-7.474-7.107,38.211,38.211,0,0,0,2.843-4.511c2.561-4.7,5.658-12.388,3.76-19.735a18.272,18.272,0,0,1-.381-5.5c.773-13.8,11.189-37.131,11.189-37.131L394.786,232.6l-.946-15.176,6.669-74,21.737-17.556,3.753-.5,37.044-2.78,15.311,1.226.7.264,14.961,43.18Z" transform="translate(-77.416 12.985)" fill="#ccc"/>
      <g id="Group_2" data-name="Group 2" transform="translate(393.124 136.618)">
        <path id="Path_20" data-name="Path 20" d="M520.472,321.584H502.016l-.813-11.619-.018-.232,5.225-.5L520,307.947l.236,6.954.185,5.337Z" transform="translate(-495.355 -103.999)" fill="#ffb6b6"/>
        <path id="Path_21" data-name="Path 21" d="M523.521,178.877l7.753,63.2-6.327,62.186-.986,9.679-1.742,17.091-.536,5.256.017.569.133,4.263H499.916l-.808-11.618-.069-1.042-1.65-23.8-.029-.4-3.5-50.464,6.863-36.474.508-2.684v-.008l2.986-62.451L501.9,123.8l-.023-.264c.046.04.087.08.133.12.121.1.242.208.358.321,13.473,11.875,21.5,32.708,21.149,54.9Z" transform="translate(-493.861 -123.533)" fill="#ccc"/>
      </g>
      <path id="Path_22" data-name="Path 22" d="M392.168,153.539l-8.428-12.111S365.7,152.728,364.8,159s-32.754,98.345-32.754,98.345l-13.859-51.424-18.039,16.733s14.475,79.839,28.012,83.587,58.907-94.5,58.907-94.5l5.1-58.2Z" transform="translate(-61.224 14.981)" fill="#ccc"/>
      <path id="Path_23" data-name="Path 23" d="M673.148,286.447H16.844C7.554,286.447,0,296.953,0,309.859s7.554,23.4,16.844,23.4h656.3c9.289,0,16.852-10.495,16.852-23.4S682.438,286.447,673.148,286.447Z" transform="translate(0 30.342)" fill="#e6e6e6"/>
      <path id="Path_24" data-name="Path 24" d="M483.861,223.381l-1.276,82.726c-.124,8.008-4.832,14.41-10.6,14.41H362.453c-5.629,0-10.276-6.113-10.584-13.922l-3.255-82.726c-.332-8.436,4.5-15.53,10.584-15.53H473.264c5.943,0,10.724,6.787,10.6,15.041Z" transform="translate(-71.106 22.068)" fill="#3f3d56"/>
      <ellipse id="Ellipse_2" data-name="Ellipse 2" cx="26.206" cy="36.409" rx="26.206" ry="36.409" transform="translate(209.723 37.035)" fill="#ffb6b6"/>
      <path id="Path_25" data-name="Path 25" d="M234.4,153.165l2.884,43.268L256.89,306.207l-16.941,8.249L211.327,194.831l-3.953-48.076Z" transform="translate(-42.3 15.545)" fill="#ffb6b6"/>
      <path id="Path_26" data-name="Path 26" d="M196.862,223.381l-1.276,82.726c-.124,8.008-4.832,14.41-10.6,14.41H75.454c-5.629,0-10.276-6.113-10.584-13.922l-3.255-82.726c-.332-8.436,4.5-15.53,10.584-15.53H186.265c5.943,0,10.724,6.787,10.6,15.041Z" transform="translate(-12.565 22.068)" fill="#3f3d56"/>
      <ellipse id="Ellipse_3" data-name="Ellipse 3" cx="20.697" cy="12.718" rx="20.697" ry="12.718" transform="translate(197.016 317.708)" fill="#ffb6b6"/>
      <path id="Path_27" data-name="Path 27" d="M190.242,167.045,202.065,79.5s32.874-6.41,34.027,8.814-.824,89.626-.824,89.626l-45.026-10.9Z" transform="translate(-38.805 8.279)" fill="#1397cf"/>
      <path id="Path_28" data-name="Path 28" d="M266.238,78.844s16.211-8.038,23.05-12.363,20.424,25.841,20.726,9.91-4.392-22.613-4.392-22.613-1.172-34.853-26.446-30.5c0,0,5.559-17.437-12.689-20.134s-46.638,58.527-44.1,67.676,5.59,16.714-1.623,26.5-20.721,64.994-10.444,79.851,10.951,21.3,3.91,30.547-23.685,29.341-5.689,32.83-1.646.883,11.77-15.512,32.993-15.725,25.683-42.03,5.39-64,3.8-69.718,3.56-42.031,3.56-42.031,11.984-2.446,12.88,7.586Z" transform="translate(-40.888 0.324)" fill="#2f2e41"/>
      <g id="Group_3" data-name="Group 3" transform="translate(328.251 0)">
        <ellipse id="Ellipse_4" data-name="Ellipse 4" cx="28.528" cy="39.634" rx="28.528" ry="39.634" transform="translate(2.379 43.862)" fill="#eca2a2"/>
        <path id="Path_29" data-name="Path 29" d="M445.548,30.211c-.825.669-1.931-.343-2.2-1.619A9.025,9.025,0,0,1,443.7,24.7l1.539-6.334c1.092-4.492,2.25-9.141,4.615-12.56C453.424.648,459.095-.665,464.2.286c6.556,1.221,13.024,6.153,16.073,14.309s1.751,19.536-3.758,24.624c7.85,12.5,10.587,26.432,10.155,43.011s-13.436,31.837-21.917,43.516c-1.894-1.595-3.616-9.07-2.574-11.785s-.451-5.861.839-8.362,2.369,1.481,1.065-1.006c-.823-1.569,2.389-5.18,1.166-6.119-5.916-4.543-7.883-14.787-11.6-22.632-4.482-9.462-12.152-15.87-20.269-16.934a15.1,15.1,0,0,0-12.859,4.082,19.9,19.9,0,0,0-5.188,16.178,18.4,18.4,0,0,1-2.883-11.975c.413-4.32,2.326-8.315,5.035-10.513-1.647-7.566-.236-16.269,3.586-22.124S440.4,29.7,445.979,31.24l-.432-1.029Z" transform="translate(-412.364 0)" fill="#2f2e41"/>
        <path id="Path_30" data-name="Path 30" d="M455.14,53.475c7.391,1.108,12.727,10,17.234,18.217,2.6,4.734,5.318,9.963,5.253,15.915-.066,6.018-2.962,11.179-4.346,16.882-2.262,9.322-.057,20.413,5.328,26.8-5.321,1.4-11.074-4.14-11.992-11.556-1.069-8.633,3.641-16.965,3.083-25.69-.491-7.687-4.852-13.6-8.559-19.351s-7.188-13.375-5.483-20.72l-.517-.5Z" transform="translate(-421.09 5.664)" fill="#2f2e41"/>
      </g>
      <g id="Group_4" data-name="Group 4" transform="translate(463.493 136.047)">
        <path id="uuid-aec20554-f6ec-4c5b-9d97-717cd04239bf-122" d="M591.563,293.926c-7.321,5.785-11.107,15.722-8.456,22.194s10.733,7.028,18.056,1.24a25.745,25.745,0,0,0,7.338-9.346l30.8-25.056-8.771-19.827L601.1,289.937a17.112,17.112,0,0,0-9.535,3.989Z" transform="translate(-582.262 -108.175)" fill="#ffb6b6"/>
        <path id="Path_31" data-name="Path 31" d="M702.627,125.034c-.92-.507-9-4.755-16.367.854-8.468,6.443-9.776,21.152-10.235,26.311-1.06,11.917,2.062,14.589,2.721,26.654,1.233,22.572,4.484-3.178-.708,7.125-1.8,3.566-20.153,58.833-30.276,69.658-19.688,21.054-32.191,35.881-32.191,35.881l14.273,21.541a147.962,147.962,0,0,0,42.489-26.332c20.448-18.447,30.673-27.67,38.583-45.714.681-1.554,16.98-40.008,8.227-82.529-2-9.7-5.655-27.47-16.515-33.449Z" transform="translate(-589.056 -123.017)" fill="#1397cf"/>
      </g>
      <path id="Path_32" data-name="Path 32" d="M782.861,223.381l-1.276,82.726c-.124,8.008-4.832,14.41-10.6,14.41H661.453c-5.629,0-10.276-6.113-10.584-13.922l-3.255-82.726c-.332-8.436,4.5-15.53,10.584-15.53H772.264c5.943,0,10.724,6.787,10.6,15.041Z" transform="translate(-132.096 22.068)" fill="#3f3d56"/>
    </g>
  </g>
</svg>
