<svg xmlns="http://www.w3.org/2000/svg" xmlns:xlink="http://www.w3.org/1999/xlink" width="700" height="500" viewBox="0 0 700 500">
  <defs>
    <clipPath id="clip-others">
      <rect width="700" height="500"/>
    </clipPath>
  </defs>
  <g id="others" clip-path="url(#clip-others)">
    <g id="undraw_date_picker_re_r0p8" transform="translate(5 5)">
      <path id="Path_1" data-name="Path 1" d="M599.384,187.285c-.133,6.73-6.29,12.088-13.75,11.966H521.841c-.231-.005-.462-.011-.693-.027A13.877,13.877,0,0,1,519.37,199V178.633a4.038,4.038,0,0,1,2.881-3.748h63.868c7.455.127,13.389,5.674,13.265,12.4Z" transform="translate(-253.538 -173.566)" fill="#e6e6e6"/>
      <path id="Path_2" data-name="Path 2" d="M936.138,173.4h-411.4a7.8,7.8,0,0,0-2.592.434,6.69,6.69,0,0,0-4.772,6.209V584.823c0,3.668,3.3,6.642,7.364,6.643h411.4c4.066,0,7.362-2.975,7.364-6.643V180.039C943.5,176.371,940.2,173.4,936.138,173.4Zm4.418,411.427a4.225,4.225,0,0,1-4.418,3.986h-411.4a4.225,4.225,0,0,1-4.419-3.986V180.039a4.225,4.225,0,0,1,4.419-3.986h411.4a4.225,4.225,0,0,1,4.418,3.986Z" transform="translate(-253.502 -173.396)" fill="#e6e6e6"/>
      <ellipse id="Ellipse_1" data-name="Ellipse 1" cx="9.665" cy="8.718" rx="9.665" ry="8.718" transform="translate(454.621 121.643)" fill="#1397cf"/>
      <ellipse id="Ellipse_2" data-name="Ellipse 2" cx="9.665" cy="8.718" rx="9.665" ry="8.718" transform="translate(494.89 121.643)" fill="#1397cf"/>
      <ellipse id="Ellipse_3" data-name="Ellipse 3" cx="9.665" cy="8.718" rx="9.665" ry="8.718" transform="translate(374.083 193.69)" fill="#1397cf"/>
      <ellipse id="Ellipse_4" data-name="Ellipse 4" cx="9.665" cy="8.718" rx="9.665" ry="8.718" transform="translate(414.352 193.69)" fill="#1397cf"/>
      <ellipse id="Ellipse_5" data-name="Ellipse 5" cx="9.665" cy="8.718" rx="9.665" ry="8.718" transform="translate(454.621 229.712)" fill="#1397cf"/>
      <ellipse id="Ellipse_6" data-name="Ellipse 6" cx="9.665" cy="8.718" rx="9.665" ry="8.718" transform="translate(494.89 229.712)" fill="#1397cf"/>
      <ellipse id="Ellipse_7" data-name="Ellipse 7" cx="9.665" cy="8.718" rx="9.665" ry="8.718" transform="translate(535.158 229.712)" fill="#1397cf"/>
      <path id="Path_3" data-name="Path 3" d="M556.716,180.629a.966.966,0,0,0,0,1.466h0l4.932,4.449H549.487a1.042,1.042,0,1,0,0,2.073h12.161l-4.932,4.449a.966.966,0,0,0,0,1.466,1.239,1.239,0,0,0,1.625,0h0l6.893-6.218a.966.966,0,0,0,0-1.466l-6.893-6.218a1.239,1.239,0,0,0-1.625,0Z" transform="translate(-254.064 -174.188)" fill="#fff"/>
      <path id="Path_4" data-name="Path 4" d="M848.692,341.345h-259.5c-1,0-1.818-.4-1.818-.886s.814-.886,1.818-.886h259.5c1,0,1.818.4,1.818.886S849.7,341.345,848.692,341.345Z" transform="translate(-254.771 -192.383)" fill="#e6e6e6"/>
      <path id="Path_5" data-name="Path 5" d="M848.692,297.167h-259.5c-1,0-1.818-.4-1.818-.886s.814-.886,1.818-.886h259.5c1,0,1.818.4,1.818.886S849.7,297.167,848.692,297.167Z" transform="translate(-254.771 -187.335)" fill="#e6e6e6"/>
      <path id="Path_6" data-name="Path 6" d="M849.533,382.608H588.589a.89.89,0,1,1,0-1.771H849.533a.89.89,0,1,1,0,1.771Z" transform="translate(-254.776 -197.098)" fill="#e6e6e6"/>
      <path id="Path_7" data-name="Path 7" d="M849.533,422.608H588.589a.89.89,0,1,1,0-1.771H849.533a.89.89,0,1,1,0,1.771Z" transform="translate(-254.776 -201.668)" fill="#e6e6e6"/>
      <path id="Path_8" data-name="Path 8" d="M849.533,463.608H588.589a.89.89,0,1,1,0-1.772H849.533a.89.89,0,1,1,0,1.772Z" transform="translate(-254.776 -206.353)" fill="#e6e6e6"/>
      <path id="Path_9" data-name="Path 9" d="M823.37,442.88V296.945c0-.3.44-.549.982-.549s.982.246.982.549V442.88c0,.3-.44.549-.982.549S823.37,443.183,823.37,442.88Z" transform="translate(-259.05 -187.45)" fill="#e6e6e6"/>
      <path id="Path_10" data-name="Path 10" d="M782.37,442.88V296.945c0-.3.44-.549.982-.549s.982.246.982.549V442.88c0,.3-.44.549-.982.549S782.37,443.183,782.37,442.88Z" transform="translate(-258.307 -187.45)" fill="#e6e6e6"/>
      <path id="Path_11" data-name="Path 11" d="M741.37,442.88V296.945c0-.3.44-.549.982-.549s.982.246.982.549V442.88c0,.3-.44.549-.982.549S741.37,443.183,741.37,442.88Z" transform="translate(-257.563 -187.45)" fill="#e6e6e6"/>
      <path id="Path_12" data-name="Path 12" d="M701.37,442.88V296.945c0-.3.44-.549.982-.549s.982.246.982.549V442.88c0,.3-.44.549-.982.549S701.37,443.183,701.37,442.88Z" transform="translate(-256.838 -187.45)" fill="#e6e6e6"/>
      <path id="Path_13" data-name="Path 13" d="M659.37,479.942V297.084a1.045,1.045,0,0,1,1.964,0V479.942a1.045,1.045,0,0,1-1.964,0Z" transform="translate(-256.077 -187.45)" fill="#e6e6e6"/>
      <path id="Path_14" data-name="Path 14" d="M617.37,479.942V297.084a1.045,1.045,0,0,1,1.964,0V479.942a1.045,1.045,0,0,1-1.964,0Z" transform="translate(-255.315 -187.45)" fill="#e6e6e6"/>
      <path id="Path_15" data-name="Path 15" d="M588.589,504.558a.89.89,0,1,1,0-1.771L688.5,502.4a.963.963,0,0,1,.986.882.936.936,0,0,1-.977.889l-99.918.391Z" transform="translate(-254.775 -210.987)" fill="#e6e6e6"/>
      <path id="Path_16" data-name="Path 16" d="M662.989,253.325a.89.89,0,1,1,0-1.771l140.138-.158h0a.89.89,0,1,1,0,1.771l-140.138.158Z" transform="translate(-256.124 -182.308)" fill="#e6e6e6"/>
      <path id="Path_17" data-name="Path 17" d="M710.972,575.021c-10.865,0-19.672-7.945-19.672-17.746s8.807-17.746,19.672-17.746,19.672,7.945,19.672,17.746-8.807,17.746-19.672,17.746Z" transform="translate(-256.656 -215.229)" fill="#e6e6e6"/>
      <path id="Path_18" data-name="Path 18" d="M718.918,556.684H713.1v-5.252a1.951,1.951,0,0,0-3.881,0v5.252h-5.822a1.76,1.76,0,1,0,0,3.5h5.821v5.252a1.951,1.951,0,0,0,3.881,0v-5.251h5.822a1.76,1.76,0,1,0,0-3.5Z" transform="translate(-256.84 -216.39)" fill="#fff"/>
      <path id="Path_19" data-name="Path 19" d="M756.972,575.021c-10.865,0-19.672-7.945-19.672-17.746s8.808-17.746,19.672-17.746,19.672,7.945,19.672,17.746S767.836,575.021,756.972,575.021Z" transform="translate(-257.489 -215.229)" fill="#e6e6e6"/>
      <path id="Path_20" data-name="Path 20" d="M767.1,565.864l-5.124-5.412A7,7,0,0,0,760.57,550.4a9,9,0,0,0-11.225.369,6.981,6.981,0,0,0-.592,10.119,8.956,8.956,0,0,0,11.12,1.433l4.989,5.269a1.586,1.586,0,0,0,2.076.147A1.241,1.241,0,0,0,767.1,565.864ZM749.781,556.1a5.429,5.429,0,1,1,5.4,4.872,5.156,5.156,0,0,1-5.4-4.872Z" transform="translate(-257.663 -216.267)" fill="#fff"/>
      <path id="Path_21" data-name="Path 21" d="M662.989,581.326a.89.89,0,1,1,0-1.771l140.138-.158h0a.89.89,0,1,1,0,1.771l-140.138.158Z" transform="translate(-256.124 -219.785)" fill="#e6e6e6"/>
      <path id="Path_22" data-name="Path 22" d="M231.731,533.39h12.526l5.959-43.581H231.729Z" transform="translate(-4.201 -55.964)" fill="#ffb6b6"/>
      <path id="Path_23" data-name="Path 23" d="M477.112,707.59v14.641H517.5v-.461c0-7.829-7.036-14.178-15.717-14.181l-7.386-5.049-.383.142-13.373,4.907Z" transform="translate(-252.772 -233.855)" fill="#2f2e41"/>
      <path id="Path_24" data-name="Path 24" d="M116.468,517.4l11.21,5.04,26.885-36.607-16.546-7.438Z" transform="translate(-2.112 -54.66)" fill="#ffb6b6"/>
      <path id="Path_25" data-name="Path 25" d="M356.672,703.75l36.143,16.244.226-.407c3.878-7.007.721-15.524-7.05-19.017l-4.114-7.484-.432-.027-14.374-1-.295-.133-2.867-1.284Z" transform="translate(-250.589 -232.495)" fill="#2f2e41"/>
      <path id="Path_26" data-name="Path 26" d="M486.909,447.942l-69.066,2.181-.481-.631s-5.891,12.4-5.891,23.029c0,3.534,2.724,26.648,1.34,31.021-.172.544,1.013,1.877.624,4.409-.252,1.643-1.644.379-1.964,2.657-.23,1.635,2.22,2.537,1.964,4.429-.28,2.066-3.65,8.759-3.953,11.057-3.229,24.47-7.528,59.919-7.528,59.919s-17.268,41.721-20.921,42.4c-6.131,1.138-10.271,11.195-6.873,13.286,1.618,1,22.528,7.7,22.528,7.7,1.149.188,4.743-1.439,2.454-5.285-.422-.708,2.092,1.094,2.51.246.444-.9-.428-4.488.081-5.488,4.57-8.984,11.586-21.435,18.235-27.828A58.4,58.4,0,0,0,437.725,576.7l15.251-76.285L458.2,521.81l4.325,3.855-1.186,8.99.2,8.725,10.8,36.315s1.62,67.82-.982,69.974c-1.409,1.166-7.388,15.534,3.928,16.829l20.559-1.431s2.77-5.266,1.385-7.14-1.3-1.363.388-4.43,1-8.264,1-8.264a552.678,552.678,0,0,0,3.182-73.51c-1.031-40.3-7.276-86.605-7.276-87.549a5.7,5.7,0,0,1,.575-2.81v-2.544l-2.653-9.014Z" transform="translate(-250.884 -204.765)" fill="#2f2e41"/>
      <path id="Path_27" data-name="Path 27" d="M397.926,466.435a6.469,6.469,0,0,1-.614-5.961,7.492,7.492,0,0,1,4.672-4.252l-.5-44.767,12.24,6.985-1.407,42.429c1.129,3.457-.786,7.13-4.458,8.549a8.33,8.33,0,0,1-9.937-2.984Z" transform="translate(-251.317 -200.596)" fill="#ffb8b8"/>
      <path id="Path_28" data-name="Path 28" d="M400.728,437.032l1.042-.045.124,0,3.855-.012,6.349-.012.46-.006.207.036,2.167.34.09-.525,4.225-7.28L422.5,425.5l-1.182-4.749-2.331-2.619,3.959-4.328.5-2.137,3.314-14.057,10.983-46.624v-.028l.231-.989,3.572-15.147-1.1-3.809-1.226-4.181a11.538,11.538,0,0,0-5.122-6.51,13.168,13.168,0,0,0-3.565-1.5,13.528,13.528,0,0,0-4.99-.37l-.019.005a13.785,13.785,0,0,0-2.782.607l-.358.126a13.35,13.35,0,0,0-1.45.63,11.567,11.567,0,0,0-5.98,6.855l-11.638,11.694-2.047,6.617-.658,2.125-2.11,11.329.031,44.582-.376,2.02-.534,11.192,2.087,2.566-2.358,3.11-.081,1.707-.016.44,3.149,2.885.2,6.222Z" transform="translate(-251.324 -189.96)" fill="#1397cf"/>
      <path id="Path_29" data-name="Path 29" d="M412.37,445.19c17.439,2.721,29.133,1.685,36.329-7.972,9.389-10.785,26.462,1.95,40.868,6.684l1.708-1.665,2.906-2.826-2.671-2.728,2.671-5.261-2.229-6.492-2.847-.469.766-5.589,1.2-3.268-3.515-3.481-2.985-8.689,2.15-18.184a111.32,111.32,0,0,0-16.319-71.94l-8.159-6.608-3.387-2.746-4.546-7.653-4.8.5-13,1.355-.442.957-3.191,6.944L421.282,317.3a14.388,14.388,0,0,0-4.461,11.929h0l.334,3.029.245,2.179,1.159,10.487,4.723,42.843.353,2.276,3.8,24.633c-6.176,5.385-6.552,4.21-9.173,13.688-.295,1.054-3.711,3.4-3.927,4.429C414.029,434.242,412.37,445.19,412.37,445.19Z" transform="translate(-251.598 -187.439)" fill="#1397cf"/>
      <ellipse id="Ellipse_8" data-name="Ellipse 8" cx="22.579" cy="20.369" rx="22.579" ry="20.369" transform="translate(173.6 63.612)" fill="#ffb6b6"/>
      <path id="Path_30" data-name="Path 30" d="M424.29,249.336a12.5,12.5,0,0,1,11.983-2.9,14.951,14.951,0,0,1,12.2-9.065,16,16,0,0,1,14.545,5.577,5.175,5.175,0,0,1,4.635.384,9.116,9.116,0,0,1,3.12,3.321,18.141,18.141,0,0,1-1.23,20.273c.884-1.61-1.6,1.163-4.022.436-2.08-.492-10.624-5.434-12.756-5.184s-2.824-1.3-4.909-1.772c-2.043-.589-7.258,7.029-8.3,12.069-.2.955-.679,2.142-1.756,2.164-1.326.027-1.724-1.687-2.842-2.33a2.414,2.414,0,0,0-3.032.838,3.068,3.068,0,0,0,.064,3.074,10.147,10.147,0,0,0,2.178,2.506l-.579.287a3.278,3.278,0,0,1-3.838-.235c-2.156.878-8.022-4.072-7.243-7.067a30.353,30.353,0,0,1-2.644-11.532A14.951,14.951,0,0,1,424.29,249.336Z" transform="translate(-251.734 -180.689)" fill="#2f2e41"/>
      <path id="Path_31" data-name="Path 31" d="M591.981,384.8a8.579,8.579,0,0,1-6.579-.785,7.046,7.046,0,0,1-3.557-5.055l-48.494-9.515,10.271-9.213,45.544,10.669c3.988-.225,7.532,2.276,8.25,5.821S595.8,383.743,591.981,384.8Z" transform="translate(-253.792 -194.744)" fill="#ffb8b8"/>
      <path id="Path_32" data-name="Path 32" d="M459.366,316.639A13.467,13.467,0,0,0,451.7,319.3a11.4,11.4,0,0,0-2.932,3.206,10.465,10.465,0,0,0-1.5,4.31v.009a11.11,11.11,0,0,0,6.531,11.126l15.975,7.809,2.023.987c13.611,12.515,36.563,19.057,62.966,23.4l15.18,3.746,5.1-1.709,1.236,4.377,5.081.15,2.763-.518,5.781-2.045,1.1-2v-.009l2.373-9.5.016-.063v-.009l.553-2.172-3.26-1.361-2.836-3.417-5.129.093-4.677.367-1.37-2.891-59.264-24.739-12.271-5.127-.03-.016-.585-.248-16.008-6.681-4.358.125Z" transform="translate(-252.23 -189.732)" fill="#1397cf"/>
      <ellipse id="Ellipse_9" data-name="Ellipse 9" cx="9.665" cy="8.718" rx="9.665" ry="8.718" transform="translate(326.977 183.645)" fill="#1397cf"/>
      <path id="Path_33" data-name="Path 33" d="M308.224,711.712c-14.36,1.142-28.524-3.625-38.547-12.972-6.471-6.155-10.912-14.076-15.206-21.737-1.25-2.229-2.542-4.535-3.857-6.744a12.688,12.688,0,0,1,1.582-15.352,15.972,15.972,0,0,1,16.007-4.614l.627.163,5.64,19.853c.841-2.961,2.647-9.633,3.788-16.17l.1-.547.562.226a78.756,78.756,0,0,1,16.482,8.959c18.126,13.116,28.939,32.76,29.566,53.714l.015.617Z" transform="translate(-248.632 -227.822)" fill="#f2f2f2"/>
      <path id="Path_34" data-name="Path 34" d="M523.495,726.025l-273.7.272a1.06,1.06,0,1,1,0-2.109l273.7-.272a1.06,1.06,0,1,1,0,2.109Z" transform="translate(-248.63 -236.297)" fill="#cacaca"/>
      <path id="Path_35" data-name="Path 35" d="M759.828,239.189H707.789a4.007,4.007,0,1,1,0-7.972h52.039a4.007,4.007,0,1,1,0,7.972Z" transform="translate(-256.874 -180.002)" fill="#e6e6e6"/>
      <path id="Path_36" data-name="Path 36" d="M927.6,199.485c-5.975,0-10.818-4.369-10.818-9.759s4.843-9.759,10.818-9.759,10.818,4.369,10.818,9.759S933.579,199.485,927.6,199.485Z" transform="translate(-260.744 -174.147)" fill="#e6e6e6"/>
    </g>
  </g>
</svg>
