<svg xmlns="http://www.w3.org/2000/svg" xmlns:xlink="http://www.w3.org/1999/xlink" width="700" height="500" viewBox="0 0 700 500">
  <defs>
    <linearGradient id="linear-gradient" x1="0.5" y1="1" x2="0.5" gradientUnits="objectBoundingBox">
      <stop offset="0" stop-color="gray" stop-opacity="0.251"/>
      <stop offset="0.54" stop-color="gray" stop-opacity="0.122"/>
      <stop offset="1" stop-color="gray" stop-opacity="0.102"/>
    </linearGradient>
    <clipPath id="clip-party">
      <rect width="700" height="500"/>
    </clipPath>
  </defs>
  <g id="party" clip-path="url(#clip-party)">
    <g id="undraw_festivities_tvvj" transform="translate(5 5.004)">
      <path id="Path_1" data-name="Path 1" d="M277.59,70.623c-1.538-1.987-4.714.169-3.278,2.228.375.537.788,1.057,1.175,1.558,4.733,6.039,7.186,13.449,9.3,20.744.515,1.812,1.017,3.7.426,5.435a32.552,32.552,0,0,0-.978-14.277,85.632,85.632,0,0,0-5.318-13.455A12.087,12.087,0,0,0,277.59,70.623Z" transform="translate(-136.108 -54.428)" fill="#1397cf" opacity="0.5"/>
      <path id="Path_2" data-name="Path 2" d="M229.836,92.3c-3.177-.091-3.6,4.511-.419,4.753.832.066,1.677.085,2.478.1,9.778.254,19.029,3.623,27.918,7.247,2.179.888,4.448,1.884,5.718,3.787a42.083,42.083,0,0,0-14.893-10.025,113.864,113.864,0,0,0-17.561-5.393,16.1,16.1,0,0,0-3.24-.471Z" transform="translate(-119.074 -63.325)" fill="#1397cf"/>
      <path id="Path_3" data-name="Path 3" d="M231.971,111c-2.02.072-1.563,2.8.47,2.814.527,0,1.061,0,1.563-.042,6.169-.236,12.491,1.383,18.616,3.165a9.7,9.7,0,0,1,4.187,2,34.228,34.228,0,0,0-10.877-5.308,88.051,88.051,0,0,0-11.843-2.476A11.264,11.264,0,0,0,231.971,111Z" transform="translate(-120.326 -70.731)" fill="#1397cf" opacity="0.2"/>
      <path id="Path_4" data-name="Path 4" d="M297.195,178.619c.572,1.842,3.24.743,2.751-1.129-.127-.489-.286-.972-.432-1.431-1.773-5.622-1.69-11.843-1.4-17.924a8.738,8.738,0,0,1,1-4.354,30.519,30.519,0,0,0-2.707,11.335,74.832,74.832,0,0,0,.413,11.517,9.7,9.7,0,0,0,.368,1.987Z" transform="translate(-144.277 -87.677)" fill="#1397cf" opacity="0.5"/>
      <path id="Path_5" data-name="Path 5" d="M237.951,66.9c-1.214-.2-1.3,1.48-.1,1.739.318.066.635.115.94.163,3.717.6,7.275,2.331,10.7,4.137a5.738,5.738,0,0,1,2.23,1.7,20.3,20.3,0,0,0-5.788-4.487,51.411,51.411,0,0,0-6.741-2.9A6.645,6.645,0,0,0,237.951,66.9Z" transform="translate(-122.633 -53.258)" fill="#1397cf" opacity="0.2"/>
      <path id="Path_6" data-name="Path 6" d="M208.208,136.906c-3.082,1.51-.477,5.647,2.688,4.276.826-.362,1.633-.767,2.408-1.147,9.41-4.638,20.332-6.347,31.133-7.664,2.637-.32,5.451-.6,7.891.387a56.1,56.1,0,0,0-20.592-1.172,141.778,141.778,0,0,0-20.109,4.107,18.835,18.835,0,0,0-3.418,1.214Z" transform="translate(-111.634 -78.714)" fill="#1397cf"/>
      <path id="Path_7" data-name="Path 7" d="M222.445,157.351c-2.211,1.963,1.271,4.282,3.564,2.416.635-.489,1.188-1.009,1.741-1.5,6.748-6.039,15.662-10.3,24.538-14.252,2.179-.972,11.151-1.957,13.539-1.9-6.252.531-19.023,2.416-24.7,4.831a138.944,138.944,0,0,0-16.113,8.6A16.891,16.891,0,0,0,222.445,157.351Z" transform="translate(-117.07 -83.053)" fill="#1397cf" opacity="0.5"/>
      <path id="Path_8" data-name="Path 8" d="M247.673,186.3c-.635,2.808,3.577,2.85,4.365.042.2-.731.368-1.474.527-2.18,1.951-8.594,6.722-16.94,11.665-24.984,1.214-1.975,8-7.633,10-8.884-4.829,3.817-14.226,12.247-17.428,17.332a127.851,127.851,0,0,0-8.12,15.78,16.01,16.01,0,0,0-1.01,2.893Z" transform="translate(-126.503 -86.295)" fill="#1397cf"/>
      <path id="Path_9" data-name="Path 9" d="M295.035,45.641c-1.512-2.923-5.82-.519-4.448,2.476.356.785.756,1.552,1.137,2.283,4.644,8.932,6.239,19.253,7.434,29.4.292,2.488.546,5.145-.521,7.434a48.49,48.49,0,0,0,1.531-19.386,122.211,122.211,0,0,0-3.933-19,16.556,16.556,0,0,0-1.2-3.213Z" transform="translate(-142.078 -44.32)" fill="#1397cf"/>
      <path id="Path_10" data-name="Path 10" d="M257.844,53.005a.593.593,0,0,0,.26.079c.172,0,.286-.163.356-.308.375-.779.159-1.812.743-2.416a8.436,8.436,0,0,1,1.4,2.2l2.211-.6a2.975,2.975,0,0,1-.419,2.416,3.316,3.316,0,0,1,1.042.676,1.043,1.043,0,0,1,.273,1.111,5.891,5.891,0,0,1-1.563.145,9.4,9.4,0,0,1-.165,2.766.494.494,0,0,1-.191.35c-.159.1-.375,0-.54-.085a4.947,4.947,0,0,1-1.817-1.812l-.826,1.866a.85.85,0,0,1-.362.471.607.607,0,0,1-.693-.229,1.523,1.523,0,0,1-.241-.707l-.311-1.776a.411.411,0,0,0-.1-.254.494.494,0,0,0-.324-.091h-2.344c-.133-.4.28-.761.68-.93s.87-.29,1.074-.658c.407-.755-.635-1.812-.2-2.446C256.313,51.954,257.164,52.685,257.844,53.005Z" transform="translate(-128.911 -46.714)" fill="#1397cf"/>
      <path id="Path_11" data-name="Path 11" d="M322.539,70.623c1.538-1.987,4.714.169,3.279,2.228-.375.537-.788,1.057-1.175,1.558-4.733,6.039-7.192,13.449-9.3,20.744-.521,1.812-1.023,3.7-.432,5.435a32.555,32.555,0,0,1,.985-14.277,85.954,85.954,0,0,1,5.318-13.485A12.1,12.1,0,0,1,322.539,70.623Z" transform="translate(-150.896 -54.428)" fill="#1397cf" opacity="0.5"/>
      <path id="Path_12" data-name="Path 12" d="M355.008,92.3c3.177-.091,3.6,4.511.419,4.753-.832.066-1.671.085-2.472.1-9.785.254-19.029,3.623-27.918,7.247-2.179.888-4.448,1.884-5.718,3.787a41.971,41.971,0,0,1,14.893-10.025,114.618,114.618,0,0,1,17.536-5.387,16.1,16.1,0,0,1,3.259-.477Z" transform="translate(-152.653 -63.325)" fill="#1397cf"/>
      <path id="Path_13" data-name="Path 13" d="M359.856,111c2.014.072,1.563,2.8-.47,2.814-.527,0-1.061,0-1.569-.042-6.169-.236-12.485,1.383-18.61,3.165a9.7,9.7,0,0,0-4.187,2,34.229,34.229,0,0,1,10.877-5.308,87.848,87.848,0,0,1,11.843-2.476A11.266,11.266,0,0,1,359.856,111Z" transform="translate(-158.377 -70.731)" fill="#1397cf" opacity="0.5"/>
      <path id="Path_14" data-name="Path 14" d="M360.418,66.9c1.22-.2,1.309,1.48.1,1.739-.318.066-.635.115-.947.163-3.717.6-7.269,2.331-10.693,4.137a5.738,5.738,0,0,0-2.23,1.7,20.217,20.217,0,0,1,5.788-4.487,51.328,51.328,0,0,1,6.735-2.9,6.921,6.921,0,0,1,1.245-.35Z" transform="translate(-162.618 -53.258)" fill="#1397cf" opacity="0.2"/>
      <path id="Path_15" data-name="Path 15" d="M317.315,190.786c-.273,1.147-1.944.6-1.722-.6.057-.308.127-.6.2-.894.851-3.491.54-7.277.114-10.973a5.353,5.353,0,0,0-.794-2.615,18.734,18.734,0,0,1,2.122,6.824,45.737,45.737,0,0,1,.222,7.036A6.036,6.036,0,0,1,317.315,190.786Z" transform="translate(-151.117 -96.359)" fill="#1397cf" opacity="0.2"/>
      <path id="Path_16" data-name="Path 16" d="M356.485,176.275c.947,1.528-1.379,1.419-2.4-.109-.273-.4-.515-.8-.756-1.208-2.885-4.668-7.281-9.288-11.7-13.751a16.028,16.028,0,0,0-3.634-2.977,56.6,56.6,0,0,1,9.53,7.73c2.84,2.826,5.35,5.767,7.809,8.708a14.169,14.169,0,0,1,1.156,1.606Z" transform="translate(-159.46 -89.44)" fill="#1397cf" opacity="0.5"/>
      <path id="Path_17" data-name="Path 17" d="M234.193,176.275c-.947,1.528,1.385,1.419,2.408-.109.267-.4.515-.8.75-1.208,2.885-4.668,7.281-9.288,11.71-13.751a16,16,0,0,1,3.628-2.977,57.114,57.114,0,0,0-9.53,7.73c-2.84,2.826-5.35,5.767-7.8,8.708A14.233,14.233,0,0,0,234.193,176.275Z" transform="translate(-121.531 -89.44)" fill="#1397cf" opacity="0.2"/>
      <path id="Path_18" data-name="Path 18" d="M282.767,190.786c.273,1.147,1.938.6,1.722-.6-.057-.308-.133-.6-.2-.894-.845-3.491-.54-7.277-.108-10.973a5.41,5.41,0,0,1,.788-2.615,18.725,18.725,0,0,0-2.122,6.824,45.75,45.75,0,0,0-.229,7.036A6.042,6.042,0,0,0,282.767,190.786Z" transform="translate(-139.252 -96.359)" fill="#1397cf" opacity="0.2"/>
      <path id="Path_19" data-name="Path 19" d="M345.095,85.9c1.214-.205,1.3,1.48.1,1.733-.318.066-.635.121-.94.169-3.717.6-7.275,2.331-10.7,4.131a5.852,5.852,0,0,0-2.23,1.7,20.283,20.283,0,0,1,5.788-4.481,52.274,52.274,0,0,1,6.741-2.911A6.607,6.607,0,0,1,345.095,85.9Z" transform="translate(-157.028 -60.783)" fill="#1397cf" opacity="0.2"/>
      <path id="Path_20" data-name="Path 20" d="M329.594,48.519c1.048-.6,1.792.912.775,1.576-.273.175-.546.338-.813.489-3.209,1.878-5.826,4.747-8.291,7.633a5.549,5.549,0,0,0-1.4,2.373,19.26,19.26,0,0,1,3.609-6.214,48.944,48.944,0,0,1,5.083-5.091A6.888,6.888,0,0,1,329.594,48.519Z" transform="translate(-152.85 -45.929)" fill="#1397cf" opacity="0.2"/>
      <path id="Path_21" data-name="Path 21" d="M372.509,136.906c3.082,1.51.477,5.647-2.688,4.276-.826-.362-1.639-.767-2.408-1.147-9.416-4.638-20.331-6.347-31.133-7.664-2.637-.32-5.451-.6-7.891.387a56.088,56.088,0,0,1,20.592-1.172,141.779,141.779,0,0,1,20.109,4.107,19.04,19.04,0,0,1,3.418,1.214Z" transform="translate(-155.96 -78.714)" fill="#1397cf"/>
      <path id="Path_22" data-name="Path 22" d="M359.088,157.336c2.211,1.963-1.271,4.282-3.564,2.416-.635-.489-1.188-1.009-1.741-1.5-6.767-6.045-15.662-10.327-24.557-14.277-2.179-.972-11.151-1.957-13.546-1.9,6.258.531,19.029,2.416,24.709,4.831a138.947,138.947,0,0,1,16.113,8.6,16.886,16.886,0,0,1,2.586,1.836Z" transform="translate(-151.325 -83.037)" fill="#1397cf" opacity="0.5"/>
      <path id="Path_23" data-name="Path 23" d="M330.53,189.72c.273,2.863-3.927,2.416-4.333-.477-.108-.749-.172-1.5-.241-2.222-.8-8.763-4.448-17.61-8.26-26.18-.947-2.1-6.932-8.527-8.755-10,4.289,4.36,12.5,13.842,15.007,19.271a125.975,125.975,0,0,1,5.979,16.62,15.648,15.648,0,0,1,.6,2.989Z" transform="translate(-148.868 -86.513)" fill="#1397cf"/>
      <path id="Path_24" data-name="Path 24" d="M343.49,53.005a.566.566,0,0,1-.26.079c-.165,0-.28-.163-.349-.308-.381-.779-.165-1.812-.743-2.416a8.435,8.435,0,0,0-1.4,2.2l-2.217-.6a3,3,0,0,0,.419,2.416,3.386,3.386,0,0,0-1.042.676,1.054,1.054,0,0,0-.267,1.111,5.892,5.892,0,0,0,1.563.145,9.192,9.192,0,0,0,.165,2.766.494.494,0,0,0,.191.35c.159.1.375,0,.54-.085a5.064,5.064,0,0,0,1.817-1.812l.826,1.866a.8.8,0,0,0,.362.471.607.607,0,0,0,.693-.229,1.6,1.6,0,0,0,.241-.707l.311-1.776a.411.411,0,0,1,.1-.254.494.494,0,0,1,.324-.091h2.344c.133-.4-.28-.761-.68-.93s-.877-.29-1.074-.658c-.407-.755.635-1.812.2-2.446C345.028,51.954,344.2,52.685,343.49,53.005Z" transform="translate(-159.306 -46.714)" fill="#1397cf"/>
      <path id="Path_25" data-name="Path 25" d="M354,196.411a.581.581,0,0,1-.261.072c-.171,0-.286-.163-.356-.308-.375-.773-.159-1.782-.737-2.416a8.292,8.292,0,0,0-1.41,2.241l-2.211-.646a2.981,2.981,0,0,0,.419,2.416,3.3,3.3,0,0,0-1.042.67,1.061,1.061,0,0,0-.273,1.111,5.892,5.892,0,0,0,1.563.151,9.355,9.355,0,0,0,.165,2.76.541.541,0,0,0,.191.356c.165.1.375,0,.54-.091a4.9,4.9,0,0,0,1.817-1.812l.826,1.866a.839.839,0,0,0,.369.465.594.594,0,0,0,.686-.223,1.636,1.636,0,0,0,.248-.707l.3-1.782a.411.411,0,0,1,.1-.254.5.5,0,0,1,.33-.085c.775,0,1.557-.03,2.338,0,.133-.393-.28-.761-.68-.93s-.87-.29-1.074-.658c-.407-.749.635-1.812.2-2.416C355.529,195.336,354.678,196.091,354,196.411Z" transform="translate(-163.136 -103.513)" fill="#1397cf" opacity="0.2"/>
      <path id="Path_26" data-name="Path 26" d="M383.506,100.265a.515.515,0,0,1-.26.072c-.172,0-.286-.157-.356-.3-.375-.779-.159-1.812-.743-2.416a8.455,8.455,0,0,0-1.4,2.247l-2.211-.652a2.981,2.981,0,0,0,.419,2.416,3.408,3.408,0,0,0-1.042.67,1.055,1.055,0,0,0-.273,1.117,5.893,5.893,0,0,0,1.563.145,9.414,9.414,0,0,0,.165,2.766.494.494,0,0,0,.191.35c.159.1.375,0,.54-.085a4.947,4.947,0,0,0,1.817-1.812l.826,1.866a.849.849,0,0,0,.362.471.613.613,0,0,0,.693-.229,1.524,1.524,0,0,0,.241-.707l.311-1.812a.411.411,0,0,1,.1-.248.494.494,0,0,1,.324-.091h2.344c.133-.393-.28-.761-.68-.924s-.87-.29-1.074-.658c-.407-.755.635-1.812.2-2.416C385.038,99.208,384.2,99.957,383.506,100.265Z" transform="translate(-173.895 -65.433)" fill="#1397cf"/>
      <path id="Path_27" data-name="Path 27" d="M264.183,210.086a.778.778,0,0,1-.362.1c-.235,0-.394-.223-.5-.423-.521-1.087-.222-2.494-1.029-3.406a11.519,11.519,0,0,0-1.957,3.128l-3.1-.93a4.19,4.19,0,0,0,.585,3.358,4.713,4.713,0,0,0-1.455.942,1.474,1.474,0,0,0-.375,1.546,8.266,8.266,0,0,0,2.179.211,13.046,13.046,0,0,0,.229,3.847.684.684,0,0,0,.267.489c.222.139.521,0,.75-.115a6.97,6.97,0,0,0,2.541-2.561l1.15,2.6a1.214,1.214,0,0,0,.508.652.835.835,0,0,0,.959-.314,2.188,2.188,0,0,0,.343-.99l.426-2.476a.629.629,0,0,1,.146-.35.659.659,0,0,1,.457-.127c1.086,0,2.173-.036,3.259-.03.191-.55-.388-1.057-.947-1.292s-1.214-.4-1.493-.918c-.572-1.045.9-2.5.273-3.406C266.324,208.594,265.136,209.639,264.183,210.086Z" transform="translate(-129.531 -108.503)" fill="#1397cf"/>
      <path id="Path_28" data-name="Path 28" d="M215.108,102.446a.785.785,0,0,1-.369.1c-.229,0-.394-.223-.489-.423-.527-1.087-.222-2.494-1.029-3.406a11.539,11.539,0,0,0-1.963,3.128l-3.081-.912a4.161,4.161,0,0,0,.578,3.358,4.68,4.68,0,0,0-1.449.942,1.475,1.475,0,0,0-.381,1.546,8.267,8.267,0,0,0,2.179.211,12.837,12.837,0,0,0,.235,3.847.543.543,0,0,0,.364.541.591.591,0,0,0,.652-.167,6.97,6.97,0,0,0,2.541-2.561l1.144,2.6a1.155,1.155,0,0,0,.515.652.842.842,0,0,0,.959-.314,2.153,2.153,0,0,0,.337-.99l.432-2.476a.587.587,0,0,1,.14-.35.659.659,0,0,1,.457-.121c1.086,0,2.173-.042,3.266-.036.184-.55-.394-1.057-.947-1.292s-1.22-.4-1.5-.918c-.565-1.045.9-2.5.28-3.406C217.242,100.954,216.054,102,215.108,102.446Z" transform="translate(-111.639 -65.869)" fill="#1397cf"/>
      <path id="Path_29" data-name="Path 29" d="M366.272,170.251a.383.383,0,0,1-.191.054c-.127,0-.21-.121-.267-.223-.28-.6-.114-1.323-.546-1.812a6.279,6.279,0,0,0-1.042,1.661l-1.639-.483a2.257,2.257,0,0,0,.311,1.812,2.392,2.392,0,0,0-.769.5.781.781,0,0,0-.2.821,4.4,4.4,0,0,0,1.156.115,6.9,6.9,0,0,0,.127,2.041.357.357,0,0,0,.14.26.41.41,0,0,0,.4-.06,3.776,3.776,0,0,0,1.347-1.359l.635,1.383a.607.607,0,0,0,.267.344.451.451,0,0,0,.515-.163,1.166,1.166,0,0,0,.178-.525l.229-1.317a.329.329,0,0,1,.076-.187.323.323,0,0,1,.241-.066h1.735c.1-.29-.21-.562-.508-.682a1.473,1.473,0,0,1-.794-.489c-.3-.556.483-1.329.152-1.812S366.773,170.009,366.272,170.251Z" transform="translate(-168.173 -93.416)" fill="#1397cf" opacity="0.2"/>
      <path id="Path_30" data-name="Path 30" d="M299.591,208.747a.528.528,0,0,1-.191.054.349.349,0,0,1-.261-.229c-.28-.574-.121-1.323-.553-1.812a6.184,6.184,0,0,0-1.042,1.661l-1.633-.483a2.216,2.216,0,0,0,.3,1.782,2.678,2.678,0,0,0-.769.5.781.781,0,0,0-.2.821,4.149,4.149,0,0,0,1.156.109,6.9,6.9,0,0,0,.127,2.047.369.369,0,0,0,.14.26c.121.072.28,0,.4-.06a3.769,3.769,0,0,0,1.347-1.359l.635,1.383a.607.607,0,0,0,.267.344.457.457,0,0,0,.515-.169,1.166,1.166,0,0,0,.178-.525l.229-1.317a.311.311,0,0,1,.076-.181.343.343,0,0,1,.241-.066h1.734c.1-.29-.21-.562-.5-.688s-.635-.211-.794-.489c-.3-.556.477-1.329.146-1.812S300.1,208.505,299.591,208.747Z" transform="translate(-143.859 -108.662)" fill="#1397cf" opacity="0.2"/>
      <path id="Path_31" data-name="Path 31" d="M235.064,74.007a.5.5,0,0,1-.191.054.349.349,0,0,1-.26-.229c-.28-.6-.121-1.323-.546-1.812a5.883,5.883,0,0,0-1.042,1.661l-1.639-.483a2.194,2.194,0,0,0,.311,1.812,2.628,2.628,0,0,0-.775.5.775.775,0,0,0-.2.821,4.109,4.109,0,0,0,1.156.109A6.9,6.9,0,0,0,232,78.488a.369.369,0,0,0,.14.26c.121.072.28,0,.4-.06a3.707,3.707,0,0,0,1.347-1.359l.635,1.383a.608.608,0,0,0,.273.344.45.45,0,0,0,.508-.169,1.166,1.166,0,0,0,.178-.525l.229-1.317a.3.3,0,0,1,.076-.181.343.343,0,0,1,.241-.066h1.735c.1-.29-.21-.562-.5-.688s-.635-.211-.794-.489c-.3-.556.477-1.329.146-1.812S235.572,73.765,235.064,74.007Z" transform="translate(-120.331 -55.293)" fill="#1397cf" opacity="0.5"/>
      <path id="Path_32" data-name="Path 32" d="M269.411,149.931a.389.389,0,0,1-.2.054c-.121,0-.21-.115-.26-.223-.28-.574-.121-1.323-.546-1.812a6.034,6.034,0,0,0-1.042,1.661l-1.639-.483a2.24,2.24,0,0,0,.311,1.812,2.55,2.55,0,0,0-.769.5.775.775,0,0,0-.2.821,4.13,4.13,0,0,0,1.156.109,6.9,6.9,0,0,0,.121,2.047.4.4,0,0,0,.14.26c.121.072.28,0,.4-.066a3.659,3.659,0,0,0,1.347-1.353l.635,1.383a.657.657,0,0,0,.273.344.444.444,0,0,0,.508-.169,1.168,1.168,0,0,0,.184-.525l.229-1.317a.265.265,0,0,1,.076-.181.323.323,0,0,1,.241-.066H272.1c.1-.29-.2-.562-.5-.688s-.635-.217-.794-.489c-.3-.556.483-1.329.146-1.812S269.913,149.7,269.411,149.931Z" transform="translate(-132.853 -85.368)" fill="#1397cf" opacity="0.5"/>
      <path id="Path_33" data-name="Path 33" d="M244.481,120.331a.363.363,0,0,1-.191.054c-.127,0-.21-.115-.26-.223-.28-.574-.121-1.323-.553-1.812a6.181,6.181,0,0,0-1.042,1.661l-1.633-.483a2.216,2.216,0,0,0,.3,1.812,2.678,2.678,0,0,0-.769.5.775.775,0,0,0-.2.821,4.15,4.15,0,0,0,1.156.109,6.9,6.9,0,0,0,.127,2.047.369.369,0,0,0,.14.26c.121.072.28,0,.4-.066a3.659,3.659,0,0,0,1.347-1.353l.635,1.383a.607.607,0,0,0,.267.344.457.457,0,0,0,.515-.169,1.166,1.166,0,0,0,.178-.525l.229-1.317a.3.3,0,0,1,.076-.181.343.343,0,0,1,.241-.066h1.735c.1-.29-.21-.562-.5-.688s-.635-.217-.794-.489c-.3-.556.477-1.329.146-1.812S244.989,120.1,244.481,120.331Z" transform="translate(-123.763 -73.644)" fill="#1397cf" opacity="0.5"/>
      <path id="Path_34" data-name="Path 34" d="M351.541,127.3a.382.382,0,0,1-.191.054c-.127,0-.21-.115-.267-.223-.273-.574-.114-1.323-.546-1.812a6.182,6.182,0,0,0-1.042,1.661l-1.633-.483a2.216,2.216,0,0,0,.3,1.782,2.41,2.41,0,0,0-.769.5.775.775,0,0,0-.2.821,4.391,4.391,0,0,0,1.156.109,6.9,6.9,0,0,0,.127,2.047.369.369,0,0,0,.14.26c.121.072.28,0,.4-.066a3.757,3.757,0,0,0,1.347-1.353l.635,1.377a.606.606,0,0,0,.267.35.457.457,0,0,0,.515-.169,1.167,1.167,0,0,0,.178-.525l.229-1.317a.328.328,0,0,1,.076-.187.35.35,0,0,1,.241-.06h1.734c.1-.29-.21-.562-.5-.688s-.635-.217-.794-.489c-.3-.556.477-1.329.146-1.812S352.049,127.065,351.541,127.3Z" transform="translate(-162.801 -76.404)" fill="#1397cf" opacity="0.5"/>
      <path id="Path_35" data-name="Path 35" d="M299.591,121.481a.363.363,0,0,1-.191.054c-.127,0-.21-.121-.26-.223-.28-.6-.121-1.323-.553-1.812a6.38,6.38,0,0,0-1.042,1.661l-1.633-.483a2.228,2.228,0,0,0,.3,1.812,2.553,2.553,0,0,0-.769.5.787.787,0,0,0-.2.827,4.672,4.672,0,0,0,1.156.109,6.9,6.9,0,0,0,.127,2.041.345.345,0,0,0,.14.26c.121.079.28,0,.4-.06a3.707,3.707,0,0,0,1.347-1.359l.635,1.383a.607.607,0,0,0,.267.344.444.444,0,0,0,.515-.163,1.168,1.168,0,0,0,.178-.525l.229-1.317a.328.328,0,0,1,.076-.187.415.415,0,0,1,.241-.066h1.735c.1-.29-.21-.562-.5-.682A1.5,1.5,0,0,1,301,123.1c-.305-.556.477-1.329.146-1.812S300.1,121.245,299.591,121.481Z" transform="translate(-143.858 -74.099)" fill="#1397cf" opacity="0.2"/>
      <path id="Path_36" data-name="Path 36" d="M283.291,128.571a.383.383,0,0,1-.191.054c-.127,0-.21-.115-.267-.223-.28-.6-.114-1.323-.546-1.812a6.38,6.38,0,0,0-1.042,1.661l-1.639-.477a2.239,2.239,0,0,0,.311,1.782,2.5,2.5,0,0,0-.769.5.787.787,0,0,0-.2.827,4.67,4.67,0,0,0,1.156.109,6.936,6.936,0,0,0,.127,2.047.369.369,0,0,0,.14.26c.121.072.28,0,.4-.066a3.707,3.707,0,0,0,1.347-1.359l.635,1.383a.606.606,0,0,0,.267.35.457.457,0,0,0,.515-.169,1.167,1.167,0,0,0,.178-.525l.229-1.317a.329.329,0,0,1,.076-.187.389.389,0,0,1,.241-.066h1.735c.1-.3-.21-.568-.5-.688a1.5,1.5,0,0,1-.794-.489c-.3-.556.477-1.329.146-1.812S283.8,128.335,283.291,128.571Z" transform="translate(-137.915 -76.908)" fill="#1397cf" opacity="0.3"/>
      <path id="Path_37" data-name="Path 37" d="M268.1,85.7a.389.389,0,0,1-.2.054c-.121,0-.21-.115-.26-.223-.28-.6-.121-1.323-.546-1.812a6.094,6.094,0,0,0-1.042,1.655l-1.639-.477a2.194,2.194,0,0,0,.311,1.812,2.611,2.611,0,0,0-.775.5.8.8,0,0,0-.2.827,4.37,4.37,0,0,0,1.156.109,6.937,6.937,0,0,0,.121,2.047.368.368,0,0,0,.14.26c.121.072.28,0,.4-.066a3.633,3.633,0,0,0,1.347-1.359l.635,1.383a.65.65,0,0,0,.273.35.44.44,0,0,0,.515-.223,1.168,1.168,0,0,0,.184-.525l.222-1.317a.329.329,0,0,1,.076-.187.416.416,0,0,1,.241-.066H270.8c.1-.3-.2-.568-.5-.688a1.473,1.473,0,0,1-.794-.489c-.3-.556.477-1.329.146-1.812S268.6,85.435,268.1,85.7Z" transform="translate(-132.376 -59.927)" fill="#1397cf" opacity="0.2"/>
      <path id="Path_38" data-name="Path 38" d="M298.032,141.7a.456.456,0,0,1-.2.054c-.121,0-.21-.121-.26-.229-.28-.574-.121-1.317-.546-1.812a6.123,6.123,0,0,0-1.042,1.661l-1.639-.483a2.205,2.205,0,0,0,.311,1.812,2.5,2.5,0,0,0-.775.5.792.792,0,0,0-.2.821,4.37,4.37,0,0,0,1.156.115,6.9,6.9,0,0,0,.121,2.041.4.4,0,0,0,.14.26.41.41,0,0,0,.4-.06,3.707,3.707,0,0,0,1.347-1.359l.635,1.383a.608.608,0,0,0,.273.344.451.451,0,0,0,.508-.163,1.168,1.168,0,0,0,.184-.525l.229-1.317a.242.242,0,0,1,.093-.2.271.271,0,0,1,.225-.052h1.728c.1-.29-.2-.562-.5-.682a1.473,1.473,0,0,1-.794-.489c-.3-.556.477-1.329.146-1.812S298.533,141.431,298.032,141.7Z" transform="translate(-143.29 -82.104)" fill="#1397cf" opacity="0.3"/>
      <g id="Group_1" data-name="Group 1" transform="translate(441.071 149.93)" opacity="0.1">
        <ellipse id="Ellipse_1" data-name="Ellipse 1" cx="11.43" cy="14.222" rx="11.43" ry="14.222" transform="translate(43.581 293.293)" fill="#3f3d56"/>
        <path id="Path_39" data-name="Path 39" d="M840.244,685.969a16.446,16.446,0,0,0,2.389-8.69c0-7.851-5.121-14.228-11.437-14.228s-11.437,6.371-11.437,14.228a16.507,16.507,0,0,0,2.408,8.69,17.015,17.015,0,0,0,0,17.387,17,17,0,0,0,0,17.381,16.536,16.536,0,0,0-2.389,8.7c0,7.851,5.121,14.222,11.437,14.222s11.436-6.365,11.436-14.222a16.483,16.483,0,0,0-2.408-8.678,17,17,0,0,0,0-17.381A17.015,17.015,0,0,0,840.244,685.969Z" transform="translate(-776.204 -439.321)" fill="#3f3d56"/>
        <ellipse id="Ellipse_2" data-name="Ellipse 2" cx="11.43" cy="14.222" rx="11.43" ry="14.222" transform="translate(43.581 206.366)" fill="#3f3d56"/>
        <ellipse id="Ellipse_3" data-name="Ellipse 3" cx="11.43" cy="14.222" rx="11.43" ry="14.222" transform="translate(43.581 188.985)" fill="#3f3d56"/>
        <path id="Path_40" data-name="Path 40" d="M849.01,376.822a51.382,51.382,0,0,0,4.257-5.961l-30.04-4.686,32.486.229a49.787,49.787,0,0,0,1.048-41.241l-43.586,21.493,40.193-28.088c-10.264-16.861-29.573-26.863-50.043-25.922s-38.674,12.667-47.179,30.39a49.962,49.962,0,0,0,6.785,53.786,51.932,51.932,0,0,0-6.246,9.487l38.992,19.253-41.572-13.286a50.019,50.019,0,0,0,8.825,48.875c-17.654,21.337-15.092,51.987,5.887,70.405s53.327,18.418,74.3,0,23.541-49.069,5.887-70.405a50.041,50.041,0,0,0,0-64.353Z" transform="translate(-751.208 -292.586)" fill="#1397cf"/>
        <path id="Path_41" data-name="Path 41" d="M751.219,484.848a50.217,50.217,0,0,0,11.716,32.177c-17.654,21.337-15.092,51.987,5.887,70.405s53.327,18.418,74.3,0,23.541-49.069,5.887-70.405C856.352,508.189,751.219,479.008,751.219,484.848Z" transform="translate(-751.212 -368.435)" opacity="0.1"/>
      </g>
      <g id="Group_2" data-name="Group 2" transform="translate(49.824 149.93)" opacity="0.1">
        <ellipse id="Ellipse_4" data-name="Ellipse 4" cx="11.43" cy="14.222" rx="11.43" ry="14.222" transform="translate(43.078 293.293)" fill="#3f3d56"/>
        <path id="Path_42" data-name="Path 42" d="M223.694,685.969a16.5,16.5,0,0,0,2.389-8.69c0-7.851-5.121-14.228-11.436-14.228s-11.436,6.371-11.436,14.228a16.446,16.446,0,0,0,2.408,8.69,17.015,17.015,0,0,0,0,17.387,17,17,0,0,0,0,17.381,16.478,16.478,0,0,0-2.389,8.7c0,7.851,5.121,14.222,11.436,14.222s11.436-6.365,11.436-14.222a16.536,16.536,0,0,0-2.389-8.7,17,17,0,0,0,0-17.381,17.015,17.015,0,0,0,0-17.387Z" transform="translate(-160.138 -439.322)" fill="#3f3d56"/>
        <ellipse id="Ellipse_5" data-name="Ellipse 5" cx="11.43" cy="14.222" rx="11.43" ry="14.222" transform="translate(43.078 206.366)" fill="#3f3d56"/>
        <ellipse id="Ellipse_6" data-name="Ellipse 6" cx="11.43" cy="14.222" rx="11.43" ry="14.222" transform="translate(43.078 188.985)" fill="#3f3d56"/>
        <path id="Path_43" data-name="Path 43" d="M147.136,376.822a51.388,51.388,0,0,1-4.257-5.961l30.04-4.686-32.486.229a49.787,49.787,0,0,1-1.048-41.241l43.586,21.493-40.193-28.088c10.264-16.86,29.573-26.863,50.043-25.922s38.674,12.667,47.179,30.39a49.962,49.962,0,0,1-6.785,53.786,51.922,51.922,0,0,1,6.246,9.487l-38.992,19.253,41.572-13.286a50.019,50.019,0,0,1-8.825,48.875c17.654,21.337,15.092,51.987-5.887,70.405s-53.327,18.418-74.3,0-23.541-49.069-5.887-70.405a50.041,50.041,0,0,1,0-64.353Z" transform="translate(-135.419 -292.586)" fill="#1397cf"/>
        <path id="Path_44" data-name="Path 44" d="M244.93,484.848a50.216,50.216,0,0,1-11.716,32.177c17.654,21.337,15.092,51.987-5.887,70.405s-53.327,18.418-74.3,0-23.541-49.069-5.887-70.405C139.8,508.189,244.93,479.008,244.93,484.848Z" transform="translate(-135.419 -368.435)" opacity="0.1"/>
      </g>
      <g id="Group_3" data-name="Group 3" transform="translate(233.506 149.959)" opacity="0.1">
        <ellipse id="Ellipse_7" data-name="Ellipse 7" cx="11.43" cy="14.222" rx="11.43" ry="14.222" transform="translate(43.078 293.264)" fill="#3f3d56"/>
        <path id="Path_45" data-name="Path 45" d="M512.79,685.969a16.5,16.5,0,0,0,2.383-8.69c0-7.851-5.083-14.228-11.436-14.228S492.3,669.421,492.3,677.278a16.445,16.445,0,0,0,2.4,8.69,17.015,17.015,0,0,0,0,17.387,17,17,0,0,0,0,17.381,16.478,16.478,0,0,0-2.389,8.7c0,7.851,5.121,14.222,11.437,14.222s11.436-6.365,11.436-14.222a16.535,16.535,0,0,0-2.383-8.7,17.037,17.037,0,0,0,0-17.381,17.049,17.049,0,0,0,0-17.387Z" transform="translate(-449.234 -439.351)" fill="#3f3d56"/>
        <ellipse id="Ellipse_8" data-name="Ellipse 8" cx="11.43" cy="14.222" rx="11.43" ry="14.222" transform="translate(43.078 206.337)" fill="#3f3d56"/>
        <ellipse id="Ellipse_9" data-name="Ellipse 9" cx="11.43" cy="14.222" rx="11.43" ry="14.222" transform="translate(43.078 188.956)" fill="#3f3d56"/>
        <path id="Path_46" data-name="Path 46" d="M436.261,376.841A51.394,51.394,0,0,1,432,370.881l30.033-4.686-32.48.229a49.788,49.788,0,0,1-1.048-41.241L472.1,346.676l-40.2-28.088c10.271-16.847,29.575-26.836,50.036-25.892s38.656,12.664,47.163,30.377a49.961,49.961,0,0,1-6.755,53.769,51.556,51.556,0,0,1,6.239,9.487l-39.011,19.253L531.139,392.3a50.019,50.019,0,0,1-8.825,48.875c17.654,21.337,15.092,51.987-5.887,70.405s-53.327,18.418-74.3,0-23.541-49.069-5.887-70.405a50.041,50.041,0,0,1,0-64.353Z" transform="translate(-424.519 -292.634)" fill="#1397cf"/>
        <path id="Path_47" data-name="Path 47" d="M534.03,484.848a50.216,50.216,0,0,1-11.716,32.177c17.654,21.337,15.092,51.987-5.887,70.405s-53.327,18.418-74.3,0-23.541-49.069-5.887-70.405C428.9,508.189,534.03,479.008,534.03,484.848Z" transform="translate(-424.519 -368.464)" opacity="0.1"/>
      </g>
      <g id="Group_4" data-name="Group 4" transform="translate(303.432 74.303)" opacity="0.6">
        <path id="Path_48" data-name="Path 48" d="M579.163,183.965a1.316,1.316,0,0,0-1.727-.225,1.17,1.17,0,0,0-.338,1.626c.235.338.5.664.744.978,2.98,3.829,4.524,8.455,5.858,13.069a5.91,5.91,0,0,1,.267,3.448,20.461,20.461,0,0,0-.635-9,54.325,54.325,0,0,0-3.348-8.5A7.433,7.433,0,0,0,579.163,183.965Z" transform="translate(-550.01 -173.758)" fill="#1397cf" opacity="0.5"/>
        <path id="Path_49" data-name="Path 49" d="M549.056,197.589a1.5,1.5,0,1,0-.267,2.989c.527.042,1.055.054,1.563.066,6.163.157,11.983,2.283,17.58,4.566a7.517,7.517,0,0,1,3.622,2.416,26.428,26.428,0,0,0-9.378-6.317,72.034,72.034,0,0,0-11.068-3.4A9.918,9.918,0,0,0,549.056,197.589Z" transform="translate(-539.255 -179.332)" fill="#1397cf"/>
        <path id="Path_50" data-name="Path 50" d="M550.409,209.389c-1.271.042-.985,1.763.3,1.769h.985c3.888-.151,7.866.87,11.729,1.993a6.088,6.088,0,0,1,2.637,1.262,21.58,21.58,0,0,0-6.856-3.346,54.641,54.641,0,0,0-7.446-1.582,7.543,7.543,0,0,0-1.347-.1Z" transform="translate(-540.049 -184.006)" fill="#1397cf" opacity="0.2"/>
        <path id="Path_51" data-name="Path 51" d="M591.486,251.957c.362,1.16,2.04.471,1.735-.713-.083-.308-.178-.6-.273-.9-1.112-3.545-1.061-7.458-.877-11.293a5.484,5.484,0,0,1,.635-2.742,19.36,19.36,0,0,0-1.728,7.138,47.664,47.664,0,0,0,.261,7.247A6.573,6.573,0,0,0,591.486,251.957Z" transform="translate(-555.128 -194.669)" fill="#1397cf" opacity="0.5"/>
        <path id="Path_52" data-name="Path 52" d="M554.182,181.583c-.769-.127-.826.936-.064,1.093l.591.109a22.729,22.729,0,0,1,6.741,2.6,3.627,3.627,0,0,1,1.4,1.069,12.758,12.758,0,0,0-3.647-2.82,33.1,33.1,0,0,0-4.244-1.812,4.96,4.96,0,0,0-.782-.242Z" transform="translate(-541.503 -172.988)" fill="#1397cf" opacity="0.2"/>
        <path id="Path_53" data-name="Path 53" d="M535.442,225.672c-1.938.948-.3,3.557,1.7,2.693.521-.229,1.029-.483,1.512-.719,5.934-2.929,12.822-4,19.594-4.831a10.087,10.087,0,0,1,4.975.242,35.377,35.377,0,0,0-12.974-.737,88.585,88.585,0,0,0-12.663,2.591,11.665,11.665,0,0,0-2.141.761Z" transform="translate(-534.575 -189.013)" fill="#1397cf"/>
        <path id="Path_54" data-name="Path 54" d="M544.412,238.546c-1.4,1.208.781,2.693,2.243,1.51.381-.314.75-.64,1.093-.948,4.251-3.793,9.867-6.492,15.458-8.98,1.372-.6,6.989-1.208,8.533-1.208-3.939.338-11.989,1.5-15.566,3.02a87.651,87.651,0,0,0-10.166,5.435A10.753,10.753,0,0,0,544.412,238.546Z" transform="translate(-537.998 -191.742)" fill="#1397cf" opacity="0.5"/>
        <path id="Path_55" data-name="Path 55" d="M560.3,256.781c-.407,1.769,2.255,1.812,2.751,0,.127-.459.235-.924.337-1.371,1.226-5.435,4.231-10.671,7.345-15.738.762-1.244,5.038-4.831,6.3-5.592-3.043,2.416-8.965,7.712-10.979,10.913a80.466,80.466,0,0,0-5.083,9.94,10.437,10.437,0,0,0-.673,1.848Z" transform="translate(-543.939 -193.786)" fill="#1397cf"/>
        <path id="Path_56" data-name="Path 56" d="M590.136,168.193c-.953-1.842-3.666-.326-2.8,1.564.222.489.477.972.718,1.437,2.923,5.622,3.933,12.127,4.683,18.522a8.654,8.654,0,0,1-.331,4.68,30.478,30.478,0,0,0,.966-12.211,77.429,77.429,0,0,0-2.478-11.97,10.42,10.42,0,0,0-.756-2.023Z" transform="translate(-553.752 -167.358)" fill="#1397cf"/>
        <path id="Path_57" data-name="Path 57" d="M566.67,172.825a.3.3,0,0,0,.159.042.275.275,0,0,0,.222-.187c.241-.5.1-1.129.47-1.54a5.254,5.254,0,0,1,.883,1.413l1.4-.411a1.887,1.887,0,0,1-.267,1.516,2.165,2.165,0,0,1,.635.423.67.67,0,0,1,.165.7,3.561,3.561,0,0,1-.985.1,5.75,5.75,0,0,1-.1,1.739.333.333,0,0,1-.121.223.344.344,0,0,1-.337-.054,3.152,3.152,0,0,1-1.15-1.153l-.515,1.172a.535.535,0,0,1-.235.3.379.379,0,0,1-.432-.139,1.046,1.046,0,0,1-.152-.447l-.2-1.123a.246.246,0,0,0-.063-.157.3.3,0,0,0-.2-.054H564.37c-.089-.248.172-.477.426-.6s.547-.187.674-.417c.26-.477-.407-1.135-.121-1.54S566.257,172.62,566.67,172.825Z" transform="translate(-545.433 -168.856)" fill="#1397cf"/>
        <path id="Path_58" data-name="Path 58" d="M607.468,183.927a1.314,1.314,0,0,1,1.773-.284,1.17,1.17,0,0,1,.3,1.685c-.241.338-.5.664-.743.978-2.98,3.829-4.53,8.455-5.858,13.069a5.914,5.914,0,0,0-.273,3.448,20.466,20.466,0,0,1,.635-9,53.716,53.716,0,0,1,3.348-8.5A7.4,7.4,0,0,1,607.468,183.927Z" transform="translate(-559.318 -173.72)" fill="#1397cf" opacity="0.5"/>
        <path id="Path_59" data-name="Path 59" d="M627.908,197.589a1.5,1.5,0,1,1,.26,2.989c-.521.042-1.055.054-1.557.066-6.163.157-11.989,2.283-17.587,4.566a7.528,7.528,0,0,0-3.615,2.416,26.426,26.426,0,0,1,9.378-6.317,72.171,72.171,0,0,1,11.062-3.4A10.045,10.045,0,0,1,627.908,197.589Z" transform="translate(-560.404 -179.332)" fill="#1397cf"/>
        <path id="Path_60" data-name="Path 60" d="M631.019,209.39c1.271.042.978,1.763-.3,1.769h-.985c-3.888-.151-7.866.87-11.729,1.993a6.055,6.055,0,0,0-2.637,1.262,21.514,21.514,0,0,1,6.856-3.346,54.658,54.658,0,0,1,7.459-1.558,7.544,7.544,0,0,1,1.334-.121Z" transform="translate(-564.036 -184.006)" fill="#1397cf" opacity="0.5"/>
        <path id="Path_61" data-name="Path 61" d="M631.323,181.583c.769-.127.826.936.063,1.093l-.6.109a22.694,22.694,0,0,0-6.735,2.6,3.627,3.627,0,0,0-1.4,1.069,12.732,12.732,0,0,1,3.641-2.82,33.582,33.582,0,0,1,4.25-1.812A4.789,4.789,0,0,1,631.323,181.583Z" transform="translate(-566.691 -172.988)" fill="#1397cf" opacity="0.2"/>
        <path id="Path_62" data-name="Path 62" d="M604.205,259.637c-.172.719-1.22.362-1.08-.368a2.4,2.4,0,0,1,.127-.562,20.026,20.026,0,0,0,.07-6.915,3.364,3.364,0,0,0-.5-1.643,11.745,11.745,0,0,1,1.334,4.282,29.623,29.623,0,0,1,.146,4.433A3.574,3.574,0,0,1,604.205,259.637Z" transform="translate(-559.46 -200.151)" fill="#1397cf" opacity="0.2"/>
        <path id="Path_63" data-name="Path 63" d="M628.846,250.494c.6.96-.87.894-1.512-.066-.172-.254-.324-.507-.477-.749a52.307,52.307,0,0,0-7.377-8.66,10.081,10.081,0,0,0-2.281-1.878,36.02,36.02,0,0,1,5.992,4.868c1.792,1.812,3.367,3.623,4.918,5.484a9.062,9.062,0,0,1,.737,1Z" transform="translate(-564.704 -195.79)" fill="#1397cf" opacity="0.5"/>
        <path id="Path_64" data-name="Path 64" d="M551.81,250.494c-.6.96.87.894,1.518-.066.165-.254.324-.507.47-.749a52.3,52.3,0,0,1,7.376-8.66,10.113,10.113,0,0,1,2.287-1.878,36.064,36.064,0,0,0-6,4.868c-1.785,1.812-3.367,3.624-4.918,5.484A9.072,9.072,0,0,0,551.81,250.494Z" transform="translate(-540.809 -195.79)" fill="#1397cf" opacity="0.2"/>
        <path id="Path_65" data-name="Path 65" d="M582.412,259.637c.172.719,1.22.362,1.086-.368-.038-.193-.083-.38-.127-.562a19.871,19.871,0,0,1-.07-6.915,3.294,3.294,0,0,1,.5-1.643,11.742,11.742,0,0,0-1.334,4.282,28.737,28.737,0,0,0-.14,4.433,4.021,4.021,0,0,0,.089.773Z" transform="translate(-551.975 -200.151)" fill="#1397cf" opacity="0.2"/>
        <path id="Path_66" data-name="Path 66" d="M621.689,193.553c.763-.127.82.93.057,1.093-.2.042-.4.072-.591.1a22.582,22.582,0,0,0-6.741,2.609,3.677,3.677,0,0,0-1.4,1.069,12.779,12.779,0,0,1,3.647-2.826,33.058,33.058,0,0,1,4.244-1.812A4.312,4.312,0,0,1,621.689,193.553Z" transform="translate(-563.176 -177.729)" fill="#1397cf" opacity="0.2"/>
        <path id="Path_67" data-name="Path 67" d="M611.9,170.009c.635-.393,1.131.568.489.99l-.508.308a21.788,21.788,0,0,0-5.229,4.831,3.375,3.375,0,0,0-.877,1.5,12.1,12.1,0,0,1,2.268-3.919,31.446,31.446,0,0,1,3.215-3.207A4.022,4.022,0,0,1,611.9,170.009Z" transform="translate(-560.539 -168.372)" fill="#1397cf" opacity="0.2"/>
        <path id="Path_68" data-name="Path 68" d="M638.948,225.672c1.938.948.3,3.557-1.7,2.693-.521-.23-1.029-.483-1.518-.719-5.928-2.929-12.815-4-19.588-4.831a10.087,10.087,0,0,0-4.975.242,35.377,35.377,0,0,1,12.968-.737,88.494,88.494,0,0,1,12.669,2.591,12.006,12.006,0,0,1,2.141.761Z" transform="translate(-562.505 -189.014)" fill="#1397cf"/>
        <path id="Path_69" data-name="Path 69" d="M630.477,238.546c1.4,1.208-.781,2.693-2.243,1.51-.381-.314-.75-.64-1.1-.948-4.251-3.793-9.861-6.492-15.458-8.98-1.366-.6-7.021-1.208-8.527-1.208,3.939.338,11.983,1.5,15.56,3.02a87.229,87.229,0,0,1,10.166,5.435,10.752,10.752,0,0,1,1.6,1.172Z" transform="translate(-559.58 -191.742)" fill="#1397cf" opacity="0.5"/>
        <path id="Path_70" data-name="Path 70" d="M612.49,258.939c.172,1.812-2.478,1.516-2.732-.3-.064-.477-.108-.948-.152-1.4-.5-5.52-2.8-11.094-5.216-16.493-.591-1.323-4.365-5.369-5.509-6.3,2.7,2.748,7.872,8.721,9.454,12.139a79.519,79.519,0,0,1,3.761,10.466A9.768,9.768,0,0,1,612.49,258.939Z" transform="translate(-558.023 -193.932)" fill="#1397cf"/>
        <path id="Path_71" data-name="Path 71" d="M620.672,172.825a.317.317,0,0,1-.165.042.294.294,0,0,1-.222-.187c-.235-.5-.1-1.129-.464-1.54a5.273,5.273,0,0,0-.889,1.413l-1.391-.411a1.858,1.858,0,0,0,.267,1.516,2.164,2.164,0,0,0-.635.423.67.67,0,0,0-.172.7,3.616,3.616,0,0,0,.985.1,5.927,5.927,0,0,0,.108,1.739.333.333,0,0,0,.121.223.344.344,0,0,0,.337-.054,3.152,3.152,0,0,0,1.15-1.153l.515,1.172a.552.552,0,0,0,.229.3.385.385,0,0,0,.438-.139,1.044,1.044,0,0,0,.153-.447l.2-1.123a.246.246,0,0,1,.063-.157.3.3,0,0,1,.2-.054h1.474c.089-.248-.178-.477-.426-.6s-.553-.187-.68-.417c-.254-.477.413-1.135.127-1.54S621.1,172.62,620.672,172.825Z" transform="translate(-564.617 -168.856)" fill="#1397cf"/>
        <path id="Path_72" data-name="Path 72" d="M627.287,263.155a.4.4,0,0,1-.165.048c-.108,0-.178-.1-.222-.193-.235-.489-.1-1.129-.464-1.54a5.123,5.123,0,0,0-.89,1.413l-1.391-.411a1.881,1.881,0,0,0,.26,1.516,2.119,2.119,0,0,0-.635.429.664.664,0,0,0-.172.7,3.863,3.863,0,0,0,.985.091,5.911,5.911,0,0,0,.1,1.739.333.333,0,0,0,.121.223c.1.06.235,0,.343-.054a3.138,3.138,0,0,0,1.144-1.153l.521,1.172a.5.5,0,0,0,.229.3.379.379,0,0,0,.432-.139,1.029,1.029,0,0,0,.159-.447l.191-1.123a.348.348,0,0,1,.064-.157.3.3,0,0,1,.21-.054h1.474c.083-.248-.178-.477-.426-.6s-.553-.187-.68-.417c-.254-.477.407-1.129.127-1.54S627.719,262.95,627.287,263.155Z" transform="translate(-567.027 -204.635)" fill="#1397cf" opacity="0.2"/>
        <path id="Path_73" data-name="Path 73" d="M645.868,202.6a.429.429,0,0,1-.165.048c-.108,0-.178-.1-.222-.193-.241-.489-.1-1.129-.47-1.54a5.248,5.248,0,0,0-.883,1.413l-1.4-.411a1.887,1.887,0,0,0,.267,1.516,2.047,2.047,0,0,0-.635.429.664.664,0,0,0-.172.7,3.836,3.836,0,0,0,.985.091,5.924,5.924,0,0,0,.1,1.739.334.334,0,0,0,.121.223.344.344,0,0,0,.337-.054,3.153,3.153,0,0,0,1.15-1.153l.521,1.172a.5.5,0,0,0,.229.3.379.379,0,0,0,.432-.139.946.946,0,0,0,.152-.447l.2-1.123a.246.246,0,0,1,.063-.157.3.3,0,0,1,.2-.054h1.48c.083-.248-.178-.477-.432-.6s-.546-.187-.673-.417c-.26-.477.407-1.135.127-1.54S646.3,202.4,645.868,202.6Z" transform="translate(-573.802 -180.652)" fill="#1397cf"/>
        <path id="Path_74" data-name="Path 74" d="M570.711,271.779a.5.5,0,0,1-.229.066c-.146,0-.248-.145-.311-.272-.331-.682-.14-1.564-.635-2.144A7.327,7.327,0,0,0,568.3,271.4l-1.944-.568a2.627,2.627,0,0,0,.369,2.114,2.929,2.929,0,0,0-.915.6.927.927,0,0,0-.241.972,5.017,5.017,0,0,0,1.372.133,8.361,8.361,0,0,0,.146,2.416.451.451,0,0,0,.171.314c.14.085.324,0,.47-.078a4.468,4.468,0,0,0,1.6-1.606l.718,1.637a.724.724,0,0,0,.324.411.529.529,0,0,0,.635-.2,1.337,1.337,0,0,0,.216-.6l.267-1.558a.3.3,0,0,1,.114-.238.33.33,0,0,1,.267-.064h2.052c.121-.344-.248-.67-.6-.815s-.762-.254-.94-.6c-.356-.658.566-1.576.172-2.144C572.058,270.837,571.315,271.5,570.711,271.779Z" transform="translate(-545.86 -207.787)" fill="#1397cf"/>
        <path id="Path_75" data-name="Path 75" d="M539.793,203.979a.5.5,0,0,1-.229.06c-.146,0-.248-.139-.311-.266-.331-.682-.14-1.57-.635-2.144a7.323,7.323,0,0,0-1.233,1.969l-1.944-.574a2.628,2.628,0,0,0,.368,2.114,3.185,3.185,0,0,0-.915.6.926.926,0,0,0-.235.978,5.189,5.189,0,0,0,1.366.133,8.379,8.379,0,0,0,.146,2.416.441.441,0,0,0,.172.308c.14.091.324,0,.47-.072a4.437,4.437,0,0,0,1.6-1.612l.718,1.643a.79.79,0,0,0,.324.411.542.542,0,0,0,.6-.2,1.363,1.363,0,0,0,.216-.6l.267-1.564a.382.382,0,0,1,.1-.217.388.388,0,0,1,.286-.078h2.052c.121-.35-.241-.67-.6-.815s-.762-.26-.94-.6c-.356-.658.566-1.576.178-2.144C541.14,203.061,540.4,203.7,539.793,203.979Z" transform="translate(-534.587 -180.933)" fill="#1397cf"/>
        <path id="Path_76" data-name="Path 76" d="M635.017,246.684a.182.182,0,0,1-.286-.1c-.172-.368-.07-.833-.343-1.141a3.941,3.941,0,0,0-.635,1.045l-1.036-.3a1.407,1.407,0,0,0,.2,1.123,1.523,1.523,0,0,0-.483.314.489.489,0,0,0-.127.519,2.669,2.669,0,0,0,.724.066,4.223,4.223,0,0,0,.083,1.292.238.238,0,0,0,.089.163.251.251,0,0,0,.248-.042,2.305,2.305,0,0,0,.851-.858l.381.876a.4.4,0,0,0,.172.217.287.287,0,0,0,.324-.109.8.8,0,0,0,.1-.344l.14-.833a.161.161,0,0,1,.063-.123.179.179,0,0,1,.14-.034h1.086c.064-.181-.127-.35-.311-.429s-.413-.139-.5-.308c-.191-.35.3-.839.089-1.141S635.341,246.539,635.017,246.684Z" transform="translate(-570.201 -198.285)" fill="#1397cf" opacity="0.2"/>
        <path id="Path_77" data-name="Path 77" d="M593.017,270.934a.277.277,0,0,1-.121.036.218.218,0,0,1-.165-.145c-.172-.362-.07-.827-.343-1.135a3.852,3.852,0,0,0-.635,1.045l-1.036-.3a1.411,1.411,0,0,0,.2,1.123,1.524,1.524,0,0,0-.483.314.49.49,0,0,0-.127.519,2.668,2.668,0,0,0,.724.066,4.169,4.169,0,0,0,.083,1.286.254.254,0,0,0,.083.169.28.28,0,0,0,.254-.042,2.3,2.3,0,0,0,.851-.858l.381.876a.4.4,0,0,0,.172.217.294.294,0,0,0,.324-.109.716.716,0,0,0,.108-.326l.146-.833a.161.161,0,0,1,.063-.123.178.178,0,0,1,.14-.034h1.087c.063-.181-.127-.356-.311-.429s-.413-.139-.5-.308c-.191-.35.3-.839.089-1.141S593.335,270.789,593.017,270.934Z" transform="translate(-554.886 -207.89)" fill="#1397cf" opacity="0.2"/>
        <path id="Path_78" data-name="Path 78" d="M552.395,186.064a.31.31,0,0,1-.121.036c-.083,0-.133-.079-.165-.145-.178-.362-.076-.833-.349-1.135a3.758,3.758,0,0,0-.635,1.045l-1.08-.332a1.377,1.377,0,0,0,.191,1.123,1.722,1.722,0,0,0-.483.314.5.5,0,0,0-.127.519,2.942,2.942,0,0,0,.731.072,4.371,4.371,0,0,0,.076,1.286.226.226,0,0,0,.089.163c.076.048.172,0,.248-.036a2.348,2.348,0,0,0,.851-.858l.381.87a.376.376,0,0,0,.172.217.274.274,0,0,0,.324-.1.769.769,0,0,0,.114-.332l.14-.827a.159.159,0,0,1,.2-.157h1.093c.057-.187-.133-.356-.318-.435s-.407-.133-.5-.308c-.191-.35.3-.833.1-1.135S552.681,185.913,552.395,186.064Z" transform="translate(-540.053 -174.275)" fill="#1397cf" opacity="0.5"/>
        <path id="Path_79" data-name="Path 79" d="M574.008,233.87a.213.213,0,0,1-.121,0c-.076,0-.133-.072-.165-.139-.178-.362-.076-.833-.343-1.141a3.749,3.749,0,0,0-.635,1.051l-1.029-.308a1.384,1.384,0,0,0,.2,1.123,1.626,1.626,0,0,0-.489.314.5.5,0,0,0-.127.519,2.969,2.969,0,0,0,.731.072,4.369,4.369,0,0,0,.076,1.286.238.238,0,0,0,.089.163c.076.048.178,0,.254-.036a2.335,2.335,0,0,0,.845-.858l.388.87a.378.378,0,0,0,.172.217.287.287,0,0,0,.318-.1.694.694,0,0,0,.114-.332l.146-.827a.205.205,0,0,1,.044-.121.264.264,0,0,1,.153-.042h1.093c.064-.187-.133-.356-.318-.435s-.407-.133-.5-.308c-.184-.35.3-.839.1-1.141S574.326,233.719,574.008,233.87Z" transform="translate(-547.955 -193.196)" fill="#1397cf" opacity="0.5"/>
        <path id="Path_80" data-name="Path 80" d="M558.308,215.244a.277.277,0,0,1-.121.036.219.219,0,0,1-.165-.145c-.178-.362-.076-.833-.343-1.135a3.72,3.72,0,0,0-.635,1.045l-1.029-.3a1.389,1.389,0,0,0,.2,1.123,1.627,1.627,0,0,0-.489.314.5.5,0,0,0-.127.519,2.669,2.669,0,0,0,.731.066,4.369,4.369,0,0,0,.076,1.286.238.238,0,0,0,.089.169.281.281,0,0,0,.254-.042,2.29,2.29,0,0,0,.845-.858l.388.876a.4.4,0,0,0,.172.217.28.28,0,0,0,.318-.109.746.746,0,0,0,.114-.332l.146-.827a.187.187,0,0,1,.044-.115.224.224,0,0,1,.152-.042h1.093c.064-.181-.133-.356-.318-.429s-.407-.139-.5-.308c-.191-.35.3-.839.1-1.141S558.626,215.093,558.308,215.244Z" transform="translate(-542.23 -185.832)" fill="#1397cf" opacity="0.5"/>
        <path id="Path_81" data-name="Path 81" d="M625.743,219.634a.31.31,0,0,1-.121.036.206.206,0,0,1-.165-.145c-.178-.362-.076-.827-.349-1.135a3.852,3.852,0,0,0-.635,1.045l-1.029-.3a1.389,1.389,0,0,0,.191,1.123,1.6,1.6,0,0,0-.483.314.49.49,0,0,0-.127.519,2.67,2.67,0,0,0,.731.066,4.371,4.371,0,0,0,.076,1.286.238.238,0,0,0,.089.169.268.268,0,0,0,.248-.042,2.3,2.3,0,0,0,.851-.858l.381.876a.4.4,0,0,0,.172.217.287.287,0,0,0,.324-.109.747.747,0,0,0,.114-.332l.14-.827a.161.161,0,0,1,.063-.123.178.178,0,0,1,.14-.034h1.093c.057-.181-.133-.356-.318-.429s-.406-.139-.5-.308c-.191-.35.3-.839.1-1.141S626.061,219.483,625.743,219.634Z" transform="translate(-566.817 -187.571)" fill="#1397cf" opacity="0.5"/>
        <path id="Path_82" data-name="Path 82" d="M593.017,215.964a.182.182,0,0,1-.286-.1c-.172-.362-.07-.833-.343-1.141a3.943,3.943,0,0,0-.635,1.045l-1.036-.3a1.406,1.406,0,0,0,.2,1.123,1.524,1.524,0,0,0-.483.314.49.49,0,0,0-.127.519,2.67,2.67,0,0,0,.724.066,4.208,4.208,0,0,0,.083,1.292.255.255,0,0,0,.083.163.264.264,0,0,0,.254-.042,2.3,2.3,0,0,0,.851-.858l.381.876a.4.4,0,0,0,.172.217.294.294,0,0,0,.324-.109.716.716,0,0,0,.108-.326l.146-.833a.161.161,0,0,1,.063-.123.178.178,0,0,1,.14-.034h1.087c.063-.181-.127-.35-.311-.429s-.413-.139-.5-.308c-.191-.35.3-.839.089-1.141S593.335,215.819,593.017,215.964Z" transform="translate(-554.886 -186.118)" fill="#1397cf" opacity="0.2"/>
        <path id="Path_83" data-name="Path 83" d="M582.753,220.434a.337.337,0,0,1-.127.036c-.076,0-.127-.078-.165-.145-.172-.362-.07-.833-.343-1.135a3.852,3.852,0,0,0-.635,1.045l-1.036-.3a1.412,1.412,0,0,0,.2,1.123,1.493,1.493,0,0,0-.483.314.489.489,0,0,0-.127.519,2.669,2.669,0,0,0,.724.066,4.377,4.377,0,0,0,.083,1.286.214.214,0,0,0,.089.163c.076.048.172,0,.248-.036a2.348,2.348,0,0,0,.851-.858l.381.87a.394.394,0,0,0,.172.223.287.287,0,0,0,.324-.109.872.872,0,0,0,.114-.332l.14-.827a.16.16,0,0,1,.063-.123.178.178,0,0,1,.14-.034h1.093c.057-.181-.133-.356-.318-.435s-.407-.133-.5-.3c-.19-.356.3-.839.089-1.141S583.071,220.283,582.753,220.434Z" transform="translate(-551.141 -187.888)" fill="#1397cf" opacity="0.3"/>
        <path id="Path_84" data-name="Path 84" d="M573.177,193.4a.211.211,0,0,1-.121.03c-.076,0-.133-.072-.165-.139-.172-.362-.07-.833-.343-1.141a3.942,3.942,0,0,0-.635,1.045l-1.036-.3a1.407,1.407,0,0,0,.2,1.123,1.525,1.525,0,0,0-.483.314.49.49,0,0,0-.127.519,2.923,2.923,0,0,0,.724.072,4.171,4.171,0,0,0,.083,1.286.255.255,0,0,0,.083.163c.076.048.178,0,.254-.042a2.287,2.287,0,0,0,.851-.852l.381.87a.4.4,0,0,0,.172.217.3.3,0,0,0,.324-.1.763.763,0,0,0,.108-.332l.146-.827a.212.212,0,0,1,.051-.121.251.251,0,0,1,.152-.042h1.086c.064-.187-.127-.356-.311-.435s-.413-.139-.5-.308c-.191-.35.3-.839.089-1.141S573.495,193.267,573.177,193.4Z" transform="translate(-547.652 -177.178)" fill="#1397cf" opacity="0.2"/>
        <path id="Path_85" data-name="Path 85" d="M592.033,228.68a.192.192,0,0,1-.174.019.177.177,0,0,1-.112-.128c-.178-.362-.076-.833-.349-1.141a3.942,3.942,0,0,0-.635,1.045l-1.029-.3a1.4,1.4,0,0,0,.19,1.123,1.678,1.678,0,0,0-.483.314.49.49,0,0,0-.127.519,2.669,2.669,0,0,0,.731.066,4.4,4.4,0,0,0,.076,1.292.239.239,0,0,0,.089.163.251.251,0,0,0,.248-.042,2.338,2.338,0,0,0,.851-.852l.381.87a.4.4,0,0,0,.172.217.287.287,0,0,0,.324-.109.72.72,0,0,0,.1-.338l.14-.833a.242.242,0,0,1,.051-.115.218.218,0,0,1,.153-.042h1.093c.063-.181-.133-.35-.318-.429s-.407-.139-.5-.308c-.191-.35.3-.839.1-1.141S592.351,228.529,592.033,228.68Z" transform="translate(-554.525 -191.152)" fill="#1397cf" opacity="0.3"/>
      </g>
      <g id="Group_5" data-name="Group 5" transform="translate(454.647 7.096)" opacity="0.8">
        <path id="Path_86" data-name="Path 86" d="M843.522,82.482c-1.544-1.993-4.734.169-3.291,2.228.375.544.788,1.063,1.182,1.564,4.746,6.093,7.2,13.491,9.321,20.8.521,1.812,1.023,3.714.432,5.484a32.548,32.548,0,0,0-.985-14.319,84.708,84.708,0,0,0-5.331-13.54,12.091,12.091,0,0,0-1.328-2.216Z" transform="translate(-797.112 -66.22)" fill="#1397cf" opacity="0.5"/>
        <path id="Path_87" data-name="Path 87" d="M795.643,104.189c-3.177-.1-3.609,4.523-.419,4.765.839.06,1.677.079,2.484.1,9.8.254,19.061,3.623,27.988,7.247,2.186.894,4.448,1.9,5.763,3.8a42.171,42.171,0,0,0-14.931-10.055,117.11,117.11,0,0,0-17.612-5.435A15.7,15.7,0,0,0,795.643,104.189Z" transform="translate(-780.036 -75.13)" fill="#1397cf"/>
        <path id="Path_88" data-name="Path 88" d="M797.781,123c-2.02.066-1.563,2.8.47,2.814.534,0,1.067,0,1.576-.036,6.182-.242,12.517,1.383,18.661,3.164a9.771,9.771,0,0,1,4.2,2.011,34.287,34.287,0,0,0-10.909-5.32,87.506,87.506,0,0,0-11.869-2.482,10.912,10.912,0,0,0-2.129-.151Z" transform="translate(-781.29 -82.579)" fill="#1397cf" opacity="0.2"/>
        <path id="Path_89" data-name="Path 89" d="M863.181,190.729c.572,1.848,3.24.749,2.751-1.129-.127-.489-.28-.972-.426-1.437-1.779-5.635-1.7-11.873-1.4-17.972a8.759,8.759,0,0,1,1-4.36,30.651,30.651,0,0,0-2.713,11.36,75.268,75.268,0,0,0,.413,11.553A9.706,9.706,0,0,0,863.181,190.729Z" transform="translate(-805.303 -99.546)" fill="#1397cf" opacity="0.5"/>
        <path id="Path_90" data-name="Path 90" d="M803.78,78.719c-1.214-.2-1.309,1.486-.1,1.739.318.066.635.121.947.169,3.723.6,7.288,2.337,10.719,4.143a5.853,5.853,0,0,1,2.243,1.709,20.424,20.424,0,0,0-5.807-4.5,53.339,53.339,0,0,0-6.754-2.917,7.35,7.35,0,0,0-1.251-.344Z" transform="translate(-783.603 -65.036)" fill="#1397cf" opacity="0.2"/>
        <path id="Path_91" data-name="Path 91" d="M773.957,148.905c-3.088,1.51-.476,5.659,2.694,4.282.832-.362,1.639-.767,2.414-1.147,9.442-4.656,20.4-6.365,31.19-7.688,2.643-.32,5.464-.6,7.917.393a56.422,56.422,0,0,0-20.649-1.208,140.015,140.015,0,0,0-20.16,4.125A18.513,18.513,0,0,0,773.957,148.905Z" transform="translate(-772.575 -90.55)" fill="#1397cf"/>
        <path id="Path_92" data-name="Path 92" d="M788.232,169.4c-2.224,1.969,1.271,4.294,3.571,2.416.635-.5,1.188-1.021,1.747-1.516,6.76-6.039,15.7-10.327,24.6-14.289,2.186-.972,11.176-1.963,13.578-1.908-6.271.531-19.061,2.416-24.779,4.831a138.674,138.674,0,0,0-16.151,8.618A17.07,17.07,0,0,0,788.232,169.4Z" transform="translate(-778.025 -94.898)" fill="#1397cf" opacity="0.5"/>
        <path id="Path_93" data-name="Path 93" d="M813.523,198.432c-.635,2.814,3.59,2.857,4.378.042.2-.737.368-1.48.527-2.186,1.957-8.618,6.741-16.988,11.7-25.05,1.22-1.981,8.025-7.658,10.032-8.908-4.841,3.829-14.264,12.278-17.479,17.381a127.962,127.962,0,0,0-8.139,15.816A15.517,15.517,0,0,0,813.523,198.432Z" transform="translate(-787.482 -98.16)" fill="#1397cf"/>
        <path id="Path_94" data-name="Path 94" d="M861.013,57.4c-1.512-2.929-5.833-.519-4.448,2.488.362.785.762,1.552,1.15,2.289,4.651,8.95,6.252,19.325,7.453,29.477.292,2.5.54,5.157-.527,7.452a48.611,48.611,0,0,0,1.537-19.434,123.311,123.311,0,0,0-3.958-19.047A16.266,16.266,0,0,0,861.013,57.4Z" transform="translate(-803.103 -56.072)" fill="#1397cf"/>
        <path id="Path_95" data-name="Path 95" d="M823.716,64.791a.581.581,0,0,0,.26.072c.165,0,.286-.163.356-.308.375-.779.159-1.812.743-2.416a8.322,8.322,0,0,1,1.411,2.247l2.217-.652a3.015,3.015,0,0,1-.419,2.416,3.5,3.5,0,0,1,1.042.676,1.054,1.054,0,0,1,.273,1.117,5.911,5.911,0,0,1-1.563.145,9.24,9.24,0,0,1-.172,2.772.494.494,0,0,1-.191.35c-.159.1-.375,0-.54-.085a5.028,5.028,0,0,1-1.823-1.812l-.845,1.8a.838.838,0,0,1-.369.465.607.607,0,0,1-.693-.223,1.65,1.65,0,0,1-.241-.713l-.311-1.812a.411.411,0,0,0-.1-.254.494.494,0,0,0-.324-.091h-2.351c-.133-.4.28-.767.68-.93s.877-.3,1.08-.664c.407-.755-.635-1.812-.2-2.452C822.178,63.716,823.03,64.471,823.716,64.791Z" transform="translate(-789.886 -58.476)" fill="#1397cf"/>
        <path id="Path_96" data-name="Path 96" d="M888.589,82.482c1.544-1.993,4.727.169,3.291,2.228-.381.544-.788,1.063-1.182,1.564-4.746,6.093-7.2,13.491-9.327,20.8-.521,1.812-1.023,3.714-.426,5.484a32.548,32.548,0,0,1,.985-14.319,86.848,86.848,0,0,1,5.324-13.522,12.489,12.489,0,0,1,1.334-2.234Z" transform="translate(-811.942 -66.22)" fill="#1397cf" opacity="0.5"/>
        <path id="Path_97" data-name="Path 97" d="M921.129,104.189c3.177-.1,3.609,4.523.419,4.765-.832.06-1.677.079-2.478.1-9.81.254-19.061,3.623-27.988,7.247-2.186.894-4.486,1.9-5.763,3.8a42.114,42.114,0,0,1,14.931-10.055,117.1,117.1,0,0,1,17.612-5.435,15.7,15.7,0,0,1,3.266-.429Z" transform="translate(-813.686 -75.13)" fill="#1397cf"/>
        <path id="Path_98" data-name="Path 98" d="M926,123c2.027.066,1.569,2.8-.464,2.814-.534,0-1.067,0-1.576-.036-6.188-.242-12.516,1.383-18.661,3.165a9.736,9.736,0,0,0-4.2,2.011,34.286,34.286,0,0,1,10.909-5.32,87.506,87.506,0,0,1,11.9-2.494A10.879,10.879,0,0,1,926,123Z" transform="translate(-819.44 -82.578)" fill="#1397cf" opacity="0.5"/>
        <path id="Path_99" data-name="Path 99" d="M926.573,78.719c1.214-.2,1.309,1.486.1,1.739-.318.066-.635.121-.947.169-3.723.6-7.294,2.337-10.725,4.143a5.834,5.834,0,0,0-2.236,1.709,20.4,20.4,0,0,1,5.8-4.5,53.825,53.825,0,0,1,6.76-2.917,7.349,7.349,0,0,1,1.252-.344Z" transform="translate(-823.692 -65.036)" fill="#1397cf" opacity="0.2"/>
        <path id="Path_100" data-name="Path 100" d="M883.345,202.936c-.273,1.147-1.944.6-1.722-.6.057-.3.133-.6.2-.894.845-3.5.54-7.3.108-11a5.353,5.353,0,0,0-.794-2.621,18.808,18.808,0,0,1,2.129,6.818,45.979,45.979,0,0,1,.222,7.054,5.752,5.752,0,0,1-.146,1.244Z" transform="translate(-812.162 -108.256)" fill="#1397cf" opacity="0.2"/>
        <path id="Path_101" data-name="Path 101" d="M922.626,188.381c.953,1.534-1.385,1.431-2.414-.1-.267-.4-.515-.8-.75-1.208-2.9-4.68-7.3-9.312-11.741-13.787a16.087,16.087,0,0,0-3.641-2.983,57.134,57.134,0,0,1,9.53,7.748c2.846,2.832,5.362,5.785,7.828,8.733a14.262,14.262,0,0,1,1.188,1.6Z" transform="translate(-820.527 -101.316)" fill="#1397cf" opacity="0.5"/>
        <path id="Path_102" data-name="Path 102" d="M800.012,188.381c-.953,1.534,1.385,1.431,2.408-.1.273-.4.521-.8.756-1.208,2.9-4.68,7.3-9.312,11.741-13.787a15.952,15.952,0,0,1,3.641-2.983,56.883,56.883,0,0,0-9.53,7.748c-2.846,2.832-5.369,5.786-7.828,8.733A14.264,14.264,0,0,0,800.012,188.381Z" transform="translate(-782.498 -101.316)" fill="#1397cf" opacity="0.2"/>
        <path id="Path_103" data-name="Path 103" d="M848.737,202.936c.273,1.147,1.944.6,1.722-.6-.057-.3-.134-.6-.2-.894-.845-3.5-.54-7.3-.108-11a5.353,5.353,0,0,1,.794-2.621,18.8,18.8,0,0,0-2.1,6.836,45.964,45.964,0,0,0-.222,7.054,5.746,5.746,0,0,0,.114,1.226Z" transform="translate(-800.288 -108.256)" fill="#1397cf" opacity="0.2"/>
        <path id="Path_104" data-name="Path 104" d="M911.233,97.769c1.214-.205,1.309,1.48.1,1.739-.318.066-.635.115-.947.163-3.723.6-7.287,2.343-10.725,4.149a5.8,5.8,0,0,0-2.236,1.7,20.3,20.3,0,0,1,5.807-4.493,51.64,51.64,0,0,1,6.754-2.917,6.381,6.381,0,0,1,1.252-.344Z" transform="translate(-818.098 -72.581)" fill="#1397cf" opacity="0.2"/>
        <path id="Path_105" data-name="Path 105" d="M895.669,60.289c1.048-.6,1.8.912.769,1.582-.267.175-.547.332-.807.489-3.221,1.884-5.845,4.759-8.317,7.658a5.372,5.372,0,0,0-1.4,2.373,19.251,19.251,0,0,1,3.615-6.232,49.809,49.809,0,0,1,5.121-5.1,6.611,6.611,0,0,1,1.023-.767Z" transform="translate(-813.901 -57.687)" fill="#1397cf" opacity="0.2"/>
        <path id="Path_106" data-name="Path 106" d="M938.7,148.905c3.088,1.51.477,5.659-2.694,4.282-.832-.362-1.646-.767-2.414-1.147-9.442-4.656-20.408-6.365-31.19-7.688-2.643-.32-5.464-.6-7.917.393a56.414,56.414,0,0,1,20.649-1.208,140.013,140.013,0,0,1,20.16,4.125A18.68,18.68,0,0,1,938.7,148.905Z" transform="translate(-817.03 -90.55)" fill="#1397cf"/>
        <path id="Path_107" data-name="Path 107" d="M925.227,169.4c2.217,1.969-1.271,4.294-3.577,2.416-.6-.5-1.188-1.021-1.741-1.516-6.767-6.039-15.706-10.327-24.6-14.289-2.186-.972-11.182-1.963-13.578-1.908,6.271.531,19.061,2.416,24.779,4.831a138.749,138.749,0,0,1,16.157,8.618,17.058,17.058,0,0,1,2.56,1.848Z" transform="translate(-812.377 -94.898)" fill="#1397cf" opacity="0.5"/>
        <path id="Path_108" data-name="Path 108" d="M896.562,201.863c.273,2.869-3.946,2.416-4.352-.477-.108-.755-.172-1.51-.235-2.234-.807-8.781-4.448-17.652-8.3-26.246-.947-2.108-6.951-8.545-8.781-10.025,4.3,4.372,12.536,13.89,15.052,19.325a125.69,125.69,0,0,1,5.985,16.656,15.888,15.888,0,0,1,.635,3Z" transform="translate(-809.883 -98.377)" fill="#1397cf"/>
        <path id="Path_109" data-name="Path 109" d="M909.589,64.791a.58.58,0,0,1-.26.072c-.172,0-.286-.163-.356-.308-.381-.779-.159-1.812-.743-2.416a8.322,8.322,0,0,0-1.411,2.247l-2.217-.652a2.992,2.992,0,0,0,.419,2.416,3.533,3.533,0,0,0-1.048.676,1.06,1.06,0,0,0-.267,1.117,5.891,5.891,0,0,0,1.563.145,9.451,9.451,0,0,0,.165,2.772.517.517,0,0,0,.191.35c.165.1.381,0,.547-.085a5.029,5.029,0,0,0,1.823-1.812l.826,1.872a.815.815,0,0,0,.369.465.594.594,0,0,0,.686-.223,1.581,1.581,0,0,0,.248-.713l.305-1.812a.459.459,0,0,1,.108-.254.494.494,0,0,1,.324-.091h2.351c.133-.4-.286-.767-.686-.93s-.87-.3-1.074-.664c-.407-.755.635-1.812.2-2.452C911.133,63.716,910.281,64.471,909.589,64.791Z" transform="translate(-820.368 -58.476)" fill="#1397cf"/>
        <path id="Path_110" data-name="Path 110" d="M920.129,208.551a.58.58,0,0,1-.26.072c-.172,0-.286-.157-.356-.3-.375-.785-.159-1.812-.743-2.452a8.413,8.413,0,0,0-1.411,2.247l-2.217-.652a3.015,3.015,0,0,0,.419,2.416,3.5,3.5,0,0,0-1.042.676,1.055,1.055,0,0,0-.273,1.117,5.917,5.917,0,0,0,1.563.151,9.192,9.192,0,0,0,.172,2.766.5.5,0,0,0,.19.356c.159.1.375,0,.54-.091a5.028,5.028,0,0,0,1.823-1.812l.826,1.872a.876.876,0,0,0,.369.471.653.653,0,0,0,.693-.229,1.65,1.65,0,0,0,.241-.713l.311-1.782a.319.319,0,0,1,.122-.272.357.357,0,0,1,.3-.066c.781,0,1.569-.03,2.351,0,.134-.4-.28-.761-.68-.93s-.877-.29-1.08-.664c-.407-.749.635-1.812.2-2.446C921.692,207.476,920.815,208.231,920.129,208.551Z" transform="translate(-824.212 -115.405)" fill="#1397cf" opacity="0.2"/>
        <path id="Path_111" data-name="Path 111" d="M949.718,112.171a.521.521,0,0,1-.267.072c-.165,0-.28-.157-.349-.3-.381-.779-.165-1.812-.743-2.452a8.379,8.379,0,0,0-1.41,2.253l-2.218-.658a2.986,2.986,0,0,0,.419,2.416,3.45,3.45,0,0,0-1.048.676,1.084,1.084,0,0,0-.273,1.117,5.964,5.964,0,0,0,1.569.151,9.406,9.406,0,0,0,.165,2.766.53.53,0,0,0,.191.356c.165.1.375,0,.54-.085a5.061,5.061,0,0,0,1.83-1.812l.82,1.872a.85.85,0,0,0,.369.471.613.613,0,0,0,.693-.229,1.553,1.553,0,0,0,.248-.713l.3-1.812a.464.464,0,0,1,.1-.248.482.482,0,0,1,.33-.091h2.344c.14-.393-.28-.761-.68-.93s-.877-.29-1.074-.658c-.407-.755.635-1.812.2-2.452C951.256,111.1,950.4,111.851,949.718,112.171Z" transform="translate(-835.001 -77.23)" fill="#1397cf"/>
        <path id="Path_112" data-name="Path 112" d="M830.087,222.282a.779.779,0,0,1-.362.1c-.235,0-.4-.223-.5-.429-.527-1.081-.222-2.494-1.036-3.406a11.636,11.636,0,0,0-1.963,3.128l-3.094-.906a4.207,4.207,0,0,0,.585,3.364,4.712,4.712,0,0,0-1.455.942,1.486,1.486,0,0,0-.381,1.552,8.339,8.339,0,0,0,2.186.211,12.917,12.917,0,0,0,.235,3.859.713.713,0,0,0,.261.489.76.76,0,0,0,.756-.121,6.94,6.94,0,0,0,2.542-2.561l1.15,2.609a1.155,1.155,0,0,0,.515.652.849.849,0,0,0,.966-.314,2.257,2.257,0,0,0,.337-.99l.432-2.482a.586.586,0,0,1,.14-.356.692.692,0,0,1,.457-.121c1.093,0,2.186-.042,3.272,0,.191-.556-.394-1.063-.947-1.3s-1.22-.4-1.5-.918c-.572-1.051.9-2.512.273-3.418C832.228,220.784,831.04,221.841,830.087,222.282Z" transform="translate(-790.526 -120.428)" fill="#1397cf"/>
        <path id="Path_113" data-name="Path 113" d="M780.875,114.358a.805.805,0,0,1-.369.1c-.229,0-.394-.223-.5-.429-.521-1.087-.222-2.494-1.029-3.412a11.687,11.687,0,0,0-1.97,3.134l-3.088-.912a4.173,4.173,0,0,0,.585,3.37,4.638,4.638,0,0,0-1.455.942,1.469,1.469,0,0,0-.381,1.552,8.288,8.288,0,0,0,2.186.205,13.1,13.1,0,0,0,.229,3.859.7.7,0,0,0,.267.5c.229.139.521,0,.756-.121a6.987,6.987,0,0,0,2.542-2.561l1.15,2.609a1.216,1.216,0,0,0,.508.652.849.849,0,0,0,.966-.314,2.265,2.265,0,0,0,.343-.99l.426-2.488a.628.628,0,0,1,.146-.35.659.659,0,0,1,.457-.121c1.086,0,2.179-.042,3.272-.036.184-.55-.394-1.063-.953-1.292s-1.22-.411-1.5-.924c-.565-1.051.9-2.506.28-3.412C783.016,112.861,781.828,113.905,780.875,114.358Z" transform="translate(-772.58 -77.678)" fill="#1397cf"/>
        <path id="Path_114" data-name="Path 114" d="M932.478,182.341a.363.363,0,0,1-.191.054c-.127,0-.21-.121-.267-.223-.28-.6-.114-1.329-.547-1.812a6.036,6.036,0,0,0-1.042,1.661l-1.646-.483a2.2,2.2,0,0,0,.311,1.812,2.628,2.628,0,0,0-.775.5.8.8,0,0,0-.2.827,4.672,4.672,0,0,0,1.157.109,6.716,6.716,0,0,0,.127,2.047.374.374,0,0,0,.14.266c.121.072.28,0,.4-.066a3.706,3.706,0,0,0,1.347-1.359l.635,1.383a.65.65,0,0,0,.273.35.457.457,0,0,0,.515-.169,1.168,1.168,0,0,0,.178-.525l.229-1.323a.236.236,0,0,1,.093-.2.264.264,0,0,1,.225-.047h1.741c.1-.3-.21-.568-.5-.688a1.539,1.539,0,0,1-.8-.489c-.3-.562.483-1.335.146-1.812S932.96,182.105,932.478,182.341Z" transform="translate(-829.279 -105.301)" fill="#1397cf" opacity="0.2"/>
        <path id="Path_115" data-name="Path 115" d="M865.584,220.937a.389.389,0,0,1-.2.054c-.121,0-.21-.121-.26-.229-.279-.574-.121-1.323-.546-1.812a6.175,6.175,0,0,0-1.048,1.667l-1.639-.483a2.205,2.205,0,0,0,.311,1.812,2.513,2.513,0,0,0-.775.5.787.787,0,0,0-.2.827,4.669,4.669,0,0,0,1.163.109,6.894,6.894,0,0,0,.121,2.047.368.368,0,0,0,.14.26c.121.078.279,0,.4-.06a3.709,3.709,0,0,0,1.353-1.359l.635,1.383a.65.65,0,0,0,.273.35.457.457,0,0,0,.515-.169,1.165,1.165,0,0,0,.178-.525l.229-1.323a.329.329,0,0,1,.076-.187.415.415,0,0,1,.241-.066h1.741c.1-.3-.21-.568-.508-.688a1.473,1.473,0,0,1-.794-.489c-.3-.562.476-1.335.146-1.812S866.092,220.7,865.584,220.937Z" transform="translate(-804.885 -120.586)" fill="#1397cf" opacity="0.2"/>
        <path id="Path_116" data-name="Path 116" d="M800.884,85.841a.382.382,0,0,1-.191.054.338.338,0,0,1-.267-.223c-.28-.6-.121-1.329-.546-1.812a6.147,6.147,0,0,0-1.048,1.661l-1.639-.483a2.223,2.223,0,0,0,.311,1.812,2.5,2.5,0,0,0-.775.5.792.792,0,0,0-.2.827,4.2,4.2,0,0,0,1.163.109,6.967,6.967,0,0,0,.121,2.053.376.376,0,0,0,.146.26c.121.072.273,0,.4-.06a3.7,3.7,0,0,0,1.347-1.365l.635,1.389a.609.609,0,0,0,.273.344.457.457,0,0,0,.515-.169,1.168,1.168,0,0,0,.178-.525l.229-1.317a.328.328,0,0,1,.076-.187.342.342,0,0,1,.241-.066h1.741c.1-.29-.21-.562-.508-.688s-.635-.217-.794-.489c-.305-.556.483-1.335.146-1.812S801.393,85.605,800.884,85.841Z" transform="translate(-781.293 -67.079)" fill="#1397cf" opacity="0.5"/>
        <path id="Path_117" data-name="Path 117" d="M835.317,161.971a.349.349,0,0,1-.191.054c-.127,0-.21-.115-.26-.223-.28-.6-.121-1.329-.553-1.812a6.278,6.278,0,0,0-1.042,1.661l-1.646-.483a2.251,2.251,0,0,0,.311,1.812,2.551,2.551,0,0,0-.769.5.787.787,0,0,0-.2.827,4.39,4.39,0,0,0,1.156.109,6.973,6.973,0,0,0,.127,2.053.369.369,0,0,0,.14.26c.121.072.28,0,.4-.066a3.706,3.706,0,0,0,1.354-1.359l.635,1.383a.607.607,0,0,0,.273.35.444.444,0,0,0,.508-.169,1.168,1.168,0,0,0,.184-.525l.229-1.317a.283.283,0,0,1,.083-.2.323.323,0,0,1,.242-.066h1.734c.1-.29-.2-.568-.5-.688a1.474,1.474,0,0,1-.794-.489c-.3-.556.477-1.335.146-1.812S835.826,161.735,835.317,161.971Z" transform="translate(-793.85 -97.233)" fill="#1397cf" opacity="0.5"/>
        <path id="Path_118" data-name="Path 118" d="M810.328,132.3a.494.494,0,0,1-.191.054.349.349,0,0,1-.26-.229c-.28-.574-.121-1.323-.553-1.812a6.148,6.148,0,0,0-1.042,1.667l-1.646-.483a2.262,2.262,0,0,0,.311,1.812,2.5,2.5,0,0,0-.775.5.8.8,0,0,0-.2.827,4.13,4.13,0,0,0,1.156.109,6.964,6.964,0,0,0,.127,2.053.369.369,0,0,0,.14.26c.121.072.28,0,.4-.06a3.757,3.757,0,0,0,1.353-1.365l.635,1.389a.607.607,0,0,0,.267.344.457.457,0,0,0,.515-.169,1.167,1.167,0,0,0,.184-.525l.222-1.317a.329.329,0,0,1,.076-.187.35.35,0,0,1,.248-.066h1.734c.1-.29-.21-.562-.5-.688s-.635-.217-.8-.489c-.3-.556.483-1.335.152-1.812S810.836,132.055,810.328,132.3Z" transform="translate(-784.738 -85.477)" fill="#1397cf" opacity="0.5"/>
        <path id="Path_119" data-name="Path 119" d="M917.668,139.281a.35.35,0,0,1-.191.054c-.127,0-.21-.115-.26-.223-.28-.6-.121-1.329-.553-1.812a6.124,6.124,0,0,0-1.042,1.661l-1.646-.483a2.251,2.251,0,0,0,.311,1.812,2.627,2.627,0,0,0-.775.5.8.8,0,0,0-.2.827,4.37,4.37,0,0,0,1.156.109,6.96,6.96,0,0,0,.127,2.053.369.369,0,0,0,.14.26c.121.072.28,0,.4-.066a3.708,3.708,0,0,0,1.353-1.359l.635,1.383a.607.607,0,0,0,.273.35.45.45,0,0,0,.508-.169,1.167,1.167,0,0,0,.184-.525l.229-1.317a.236.236,0,0,1,.09-.2.264.264,0,0,1,.228-.049h1.734c.1-.29-.21-.568-.5-.688a1.54,1.54,0,0,1-.8-.489c-.3-.556.483-1.335.152-1.812S918.182,139.045,917.668,139.281Z" transform="translate(-823.879 -88.246)" fill="#1397cf" opacity="0.5"/>
        <path id="Path_120" data-name="Path 120" d="M865.584,133.441a.389.389,0,0,1-.2.054c-.121,0-.209-.115-.26-.223-.28-.6-.121-1.329-.546-1.812a6.142,6.142,0,0,0-1.048,1.661l-1.639-.483a2.222,2.222,0,0,0,.311,1.812,2.5,2.5,0,0,0-.775.5.792.792,0,0,0-.2.827,4.175,4.175,0,0,0,1.163.109,6.967,6.967,0,0,0,.121,2.053.4.4,0,0,0,.14.26c.121.072.28,0,.4-.06a3.707,3.707,0,0,0,1.353-1.365l.635,1.389a.608.608,0,0,0,.273.344.457.457,0,0,0,.515-.169,1.167,1.167,0,0,0,.178-.525l.229-1.317a.328.328,0,0,1,.076-.187.343.343,0,0,1,.241-.066h1.741c.1-.29-.21-.562-.508-.688s-.635-.217-.794-.489c-.3-.556.477-1.335.146-1.812S866.093,133.205,865.584,133.441Z" transform="translate(-804.885 -85.932)" fill="#1397cf" opacity="0.2"/>
        <path id="Path_121" data-name="Path 121" d="M849.238,140.557a.5.5,0,0,1-.191.054.35.35,0,0,1-.261-.229c-.279-.6-.121-1.323-.553-1.812a6.062,6.062,0,0,0-1.042,1.667l-1.646-.489a2.268,2.268,0,0,0,.311,1.812,2.5,2.5,0,0,0-.775.5.8.8,0,0,0-.2.827,4.132,4.132,0,0,0,1.156.109,6.968,6.968,0,0,0,.127,2.053.368.368,0,0,0,.14.26c.121.072.28,0,.4-.06a3.756,3.756,0,0,0,1.353-1.365l.635,1.389a.608.608,0,0,0,.273.344.45.45,0,0,0,.508-.169,1.165,1.165,0,0,0,.184-.525l.229-1.317a.322.322,0,0,1,.07-.187.35.35,0,0,1,.248-.066h1.734c.1-.29-.21-.562-.5-.688s-.635-.217-.8-.489c-.3-.556.483-1.335.152-1.812S849.746,140.315,849.238,140.557Z" transform="translate(-798.926 -88.749)" fill="#1397cf" opacity="0.3"/>
        <path id="Path_122" data-name="Path 122" d="M834,97.521a.39.39,0,0,1-.2.054c-.121,0-.21-.115-.26-.223-.28-.6-.121-1.329-.546-1.812a6.144,6.144,0,0,0-1.048,1.661l-1.639-.483a2.2,2.2,0,0,0,.311,1.812,2.628,2.628,0,0,0-.775.5.787.787,0,0,0-.2.827,4.443,4.443,0,0,0,1.163.109,6.984,6.984,0,0,0,.121,2.053.4.4,0,0,0,.14.26c.121.072.28,0,.4-.066a3.645,3.645,0,0,0,1.353-1.359l.635,1.383a.65.65,0,0,0,.273.35.457.457,0,0,0,.515-.169,1.168,1.168,0,0,0,.178-.525l.229-1.317a.317.317,0,0,1,.076-.187.342.342,0,0,1,.241-.066h1.741c.1-.3-.21-.568-.508-.688a1.473,1.473,0,0,1-.794-.489c-.3-.562.476-1.335.146-1.812S834.512,97.285,834,97.521Z" transform="translate(-793.369 -71.705)" fill="#1397cf" opacity="0.2"/>
        <path id="Path_123" data-name="Path 123" d="M864.014,153.7a.562.562,0,0,1-.2.054c-.121,0-.21-.121-.26-.229-.28-.574-.121-1.323-.546-1.812a6.174,6.174,0,0,0-1.048,1.667l-1.639-.483a2.21,2.21,0,0,0,.311,1.812,2.5,2.5,0,0,0-.775.5.792.792,0,0,0-.2.827,4.2,4.2,0,0,0,1.163.109,6.963,6.963,0,0,0,.121,2.053.4.4,0,0,0,.14.26c.121.072.28,0,.407-.06a3.736,3.736,0,0,0,1.347-1.365l.635,1.389a.609.609,0,0,0,.273.344.457.457,0,0,0,.515-.169,1.167,1.167,0,0,0,.178-.525l.229-1.317a.329.329,0,0,1,.076-.187.343.343,0,0,1,.241-.066h1.741c.1-.29-.21-.562-.508-.688s-.635-.217-.794-.489c-.305-.556.477-1.335.146-1.812S864.523,153.443,864.014,153.7Z" transform="translate(-804.313 -93.953)" fill="#1397cf" opacity="0.3"/>
      </g>
      <path id="Path_124" data-name="Path 124" d="M895.924,696.719A14.341,14.341,0,0,0,898,689.146c0-6.842-4.448-12.386-9.956-12.386s-9.956,5.544-9.956,12.386a14.34,14.34,0,0,0,2.078,7.573,14.842,14.842,0,0,0,0,15.146,14.842,14.842,0,0,0,0,15.146,14.842,14.842,0,0,0,0,15.146,14.359,14.359,0,0,0-2.078,7.573c0,6.842,4.448,12.392,9.956,12.392S898,756.573,898,749.731a14.357,14.357,0,0,0-2.078-7.573,14.841,14.841,0,0,0,0-15.146,14.84,14.84,0,0,0,0-15.146,14.841,14.841,0,0,0,0-15.146Z" transform="translate(-356.403 -294.822)" fill="#3f3d56"/>
      <ellipse id="Ellipse_10" data-name="Ellipse 10" cx="9.956" cy="12.392" rx="9.956" ry="12.392" transform="translate(521.687 366.792)" fill="#3f3d56"/>
      <ellipse id="Ellipse_11" data-name="Ellipse 11" cx="9.956" cy="12.392" rx="9.956" ry="12.392" transform="translate(521.687 351.646)" fill="#3f3d56"/>
      <path id="Path_125" data-name="Path 125" d="M829.226,427.3a45.222,45.222,0,0,1-3.7-5.188l26.164-4.089-28.3.2a43.37,43.37,0,0,1-.909-35.915l37.963,18.721-35.015-24.477c8.914-14.737,25.751-23.5,43.615-22.694s33.755,11.036,41.166,26.507a43.531,43.531,0,0,1-6,46.917,45.258,45.258,0,0,1,5.439,8.268l-33.96,16.813L911.9,440.809a43.6,43.6,0,0,1-7.688,42.582c15.389,18.587,13.162,45.295-5.115,61.345a49.543,49.543,0,0,1-64.742,0c-18.277-16.05-20.5-42.759-5.115-61.345a43.613,43.613,0,0,1,0-56.067Z" transform="translate(-334.865 -166.905)" fill="#1397cf"/>
      <path id="Path_126" data-name="Path 126" d="M914.422,521.481a43.768,43.768,0,0,1-10.2,28.034c15.389,18.587,13.162,45.3-5.115,61.345a49.544,49.544,0,0,1-64.742,0c-18.277-16.05-20.5-42.759-5.115-61.345C822.823,541.8,914.422,516.39,914.422,521.481Z" transform="translate(-334.867 -233.054)" opacity="0.1"/>
      <path id="Path_127" data-name="Path 127" d="M321.549,703.243a15.2,15.2,0,0,0,2.2-8.02c0-7.247-4.721-13.123-10.547-13.123s-10.547,5.876-10.547,13.123a15.2,15.2,0,0,0,2.2,8.02,15.691,15.691,0,0,0,0,16.04,15.691,15.691,0,0,0,0,16.04,15.68,15.68,0,0,0,0,16.034,15.235,15.235,0,0,0-2.2,8.02c0,7.247,4.721,13.123,10.547,13.123s10.547-5.876,10.547-13.123a15.235,15.235,0,0,0-2.2-8.02,15.68,15.68,0,0,0,0-16.034,15.691,15.691,0,0,0,0-16.04A15.691,15.691,0,0,0,321.549,703.243Z" transform="translate(-146.577 -296.937)" fill="#3f3d56"/>
      <ellipse id="Ellipse_12" data-name="Ellipse 12" cx="10.547" cy="13.123" rx="10.547" ry="13.123" transform="translate(156.082 369.129)" fill="#3f3d56"/>
      <ellipse id="Ellipse_13" data-name="Ellipse 13" cx="10.547" cy="13.123" rx="10.547" ry="13.123" transform="translate(156.082 353.089)" fill="#3f3d56"/>
      <path id="Path_128" data-name="Path 128" d="M329.635,418.075a48.782,48.782,0,0,0,3.927-5.5l-27.689-4.336,29.97.211a45.919,45.919,0,0,0,.966-38.047l-40.231,19.827,37.08-25.908c-9.486-15.521-27.289-24.717-46.151-23.84s-35.635,11.682-43.481,28.01a46.087,46.087,0,0,0,6.2,49.578,47.453,47.453,0,0,0-5.756,8.757l35.993,17.749L242.1,432.345a46.173,46.173,0,0,0,8.145,45.088c-16.286,19.686-13.921,47.963,5.434,64.955a52.467,52.467,0,0,0,68.553,0c19.355-16.992,21.72-45.269,5.434-64.955a46.174,46.174,0,0,0,0-59.371Z" transform="translate(-123.525 -161.606)" fill="#1397cf"/>
      <path id="Path_129" data-name="Path 129" d="M239.4,517.675a46.347,46.347,0,0,0,10.8,29.682c-16.286,19.686-13.921,47.963,5.434,64.955a52.467,52.467,0,0,0,68.553,0c19.355-16.992,21.72-45.269,5.434-64.955C336.383,539.187,239.4,512.282,239.4,517.675Z" transform="translate(-123.506 -231.53)" opacity="0.1"/>
      <ellipse id="Ellipse_14" data-name="Ellipse 14" cx="345" cy="16.022" rx="345" ry="16.022" transform="translate(0 457.953)" fill="#3f3d56"/>
      <path id="Path_130" data-name="Path 130" d="M598.735,708.364a1.1,1.1,0,0,0-.763.64h-.121l-.47-.072s-2.465-.193-2.923-.163a.926.926,0,0,1-.75-.4l-1.836-1.474-.14-.115.324-.109s-4.924-5.81-5.985-5.924a8.21,8.21,0,0,1-2.834-1.486v-.091c-.038-.193-.063-.393-.089-.6l.26.151h0v-.205h0a3.651,3.651,0,0,1,.737-1.993,9.434,9.434,0,0,0,1.576-1.987,2.773,2.773,0,0,0,.159-1.045,3.324,3.324,0,0,0-.508-1.812,2.412,2.412,0,0,0-1.614-1.057,1.41,1.41,0,0,1-.521-.066c-1.029-.23-1.4-1.54-2.4-1.86a2.136,2.136,0,0,0-1.43.139c-.451.181-.851.447-1.271.652a8.423,8.423,0,0,0-1.334.646l-.127.1h0l-.083.072h0a2.637,2.637,0,0,0-.426.531v.03a.074.074,0,0,1-.032.06v.4a.188.188,0,0,1,0,.048v.066a.108.108,0,0,0,0,.048.209.209,0,0,0,0,.066v.115a.076.076,0,0,1,0,.036v.1h0a2.117,2.117,0,0,0,.476.64l-.057.054a3.976,3.976,0,0,0-1.264,3.714,4.108,4.108,0,0,0-.724-.417,6.627,6.627,0,0,0-2.707-.6,19.691,19.691,0,0,1-3.679-.562,1.424,1.424,0,0,1,.121.314l-.3-.163a9.323,9.323,0,0,0-2.872-.918s-.635.085-.718-1.208a5.231,5.231,0,0,0-.229-1.172,19.62,19.62,0,0,1-1.023-3.551l-.2-1.878s.959-4.874.381-6.939a1.4,1.4,0,0,0-.534-1.679c-2.414-1.691-4.854,4.9-4.854,4.9l-.909.833a2.008,2.008,0,0,0-.769-.278,3.982,3.982,0,0,0-.826,1.77c-.178.688-1.411,1.812-2.542,2.76-.788.658-1.55,1.341-2.306,2.023-.566.507-1.817,1.208-4.549,1.643l-1.175.181a3.291,3.291,0,0,0,.14-.942,3.573,3.573,0,0,0-2.916-3.43.857.857,0,0,0,0-.254,1.033,1.033,0,0,0-.28-.477,5.243,5.243,0,0,0-2.052-1.691,2.8,2.8,0,0,0-1.112-.169h-.273a2.889,2.889,0,0,0-2.078,1.027c-.3.393-.489.852-.756,1.268a5.9,5.9,0,0,1-2.071,1.812c-.489.278-1.01.526-1.474.846a5.128,5.128,0,0,0-2.046,5.248,7.561,7.561,0,0,1,.477,2.536,4.263,4.263,0,0,1-.845,1.812,5.692,5.692,0,0,0-.94,1.812,1.722,1.722,0,0,0,.585,1.812,4.62,4.62,0,0,1,.635.411,1.992,1.992,0,0,1,.3.447,4.655,4.655,0,0,0,2.9,2.144,2,2,0,0,0,.6.06h.064a1.017,1.017,0,0,0,1.08-.471.972.972,0,0,1,.1-.254.314.314,0,0,1,.178-.115,1.485,1.485,0,0,1,.426.151,5.611,5.611,0,0,0,2.052.549,2.432,2.432,0,0,0,.362,0,1.678,1.678,0,0,0,.737-.1,1.53,1.53,0,0,0,.565-.465l.1-.121a9.465,9.465,0,0,1-.928,2.73,4.8,4.8,0,0,0-.693,2.385,2.269,2.269,0,0,0,.28,1.256l.07-.133a9.608,9.608,0,0,0,1.379,1.812,12.141,12.141,0,0,1-.133,2.832,5.707,5.707,0,0,0,2.357,6.45l.781,1.631-3.221.217c-.324-.042-4.543-.6-4.562.2s.635,8.757,2.821,8.219c2.04-.5,1.366-2.82,1.271-3.128h-.006l1.627-1.468a.645.645,0,0,0-.121-.507h0l3.933.169.921,1.92s1.569,2.271.3,4.179a18.855,18.855,0,0,0-2.8,6.7,7.237,7.237,0,0,1-1.741,3.418c-.737.242-3.564,1.292-2.44,2.893,1.271,1.812,5.5,5.314,7.192,5.194s1.016-1.292,1.016-1.292l-1.417-1.317a30.888,30.888,0,0,1-.152-3.624.837.837,0,0,0-.635-.857,8.767,8.767,0,0,1,1.194-3.581c1.023-1.335,4.289-7.2,4.289-7.2s1.036-.876.807-3.485c-.1-1.051-.146-1.975-.178-2.706l3.7.157s3.965-.374,1.271-4.415-8.418-8-8.418-8l-.051-2.5.413.1a.786.786,0,0,0-.063-.254h.063a51.126,51.126,0,0,1-1.048-6.057l.235.1c2.459,2.706,4.117.417,4.117.417s5.2-6.939,4.689-6.643a.459.459,0,0,1-.343,0l.375-1.135s1.538-2.228-.693-3.485c-1.817-1.021-1.773,2.186-1.69,3.4l-.089-.078s-1.741,2.488-2.675,3.883-1.715.477-1.715.477l-1.182-1.262a4.284,4.284,0,0,0,.28-1.582,2.6,2.6,0,0,0-.8-2.047,3.506,3.506,0,0,1-1.188-2.373,2.385,2.385,0,0,1,.235-.972l6.131-3.086s1.271,0,3.031-2.524a43.828,43.828,0,0,1,3.717-4.656l-.1-.133.1-.109s-.07-.1-.2-.248l.947-1.039a13.07,13.07,0,0,0,0,1.407l.483,1.576.279,8.751s-.3.839,1.614,1.673c1.614.707,4.174,1.9,4.918,2.247a1.031,1.031,0,0,1-.044.1h.222a3.068,3.068,0,0,1,3.6,3.219s.254,7.2-.89,9.711a13.677,13.677,0,0,0-.978,5.61s.114-.525.756.163l-.045.193c-.362,1.739-1.118,5.435-1.271,6.927a23.239,23.239,0,0,1-.826,4.04l-.381,6.643,2.389.109v.236a.722.722,0,0,1-.4.6c-.82.423-2.745,1.9-2.592,6.456l-.083.749a8.952,8.952,0,0,1-1.163,3.539,2.238,2.238,0,0,0-.146.266.208.208,0,0,1,.064-.127s-1.239.242-.985,3.424.635,3.744,1.144,3.78,2.993.6,2.865-.556a20.2,20.2,0,0,1-.083-4.179c.172-.4.839-1.467.2-1.727h0a8.579,8.579,0,0,0,.267-2.228,14.757,14.757,0,0,1,2.141-2.567,5.649,5.649,0,0,0,1.7-3.406c0-.1,2.63-1.751,2.249-3.122q-.1-.35-.152-.6a.437.437,0,0,0-.044-.242h.051l.527-3.02v2.947l.318.036v.242l-.133,2.82a4.382,4.382,0,0,1-.381,1.6,15.017,15.017,0,0,0-1.315,7.12l-.032,2.712c-.089,0-1.385.308-1.137,3.382.254,3.183.635,3.738,1.144,3.781s2.992.6,2.865-.556a20.752,20.752,0,0,1-.089-4.179c.165-.4.464-1.449-.178-1.709a2.17,2.17,0,0,1,.267-1.021c.279-.453,1.213-2.6,1.906-4.258a14.664,14.664,0,0,0,1.182-5.26v-.06a4.743,4.743,0,0,1,.407-1.769,12.093,12.093,0,0,0,.68-1.951.415.415,0,0,1,.044-.23l.6.072,2.084-8.551a39.474,39.474,0,0,0,.292-6.734.51.51,0,0,0-.038-.242h.127s.426-1.033.3-5.435.845-5.81.845-5.81c.527-1.588,1.112-2.12,1.449-2.3h0a.718.718,0,0,1,.292-.091l1.576,1.715h0l.292.314h0l.133.139a1.187,1.187,0,0,1,0-.211c.839.465,2.783,1.546,3.939,2.325a3.71,3.71,0,0,0,3.247.791,9.077,9.077,0,0,0,2.611-.815h.064a3.264,3.264,0,0,0,.635.236s2.135,1.715,2.338-1.419S598.735,708.364,598.735,708.364ZM543.4,744.859a3.346,3.346,0,0,1-.635-.248Zm-3.336-33.928v.447h0A3.5,3.5,0,0,1,540.06,710.931Zm33.35,39.725v.175C573.372,750.741,573.353,750.741,573.41,750.656Z" transform="translate(-228.956 -294.981)" fill="url(#linear-gradient)"/>
      <rect id="Rectangle_1" data-name="Rectangle 1" width="3.622" height="3.617" transform="translate(347.643 403.534)" fill="#1397cf"/>
      <path id="Path_131" data-name="Path 131" d="M593.04,778.25a5.611,5.611,0,0,1-1.665,3.382,14.727,14.727,0,0,0-2.1,2.548c0,2.476-.705,3.225-.705,3.225l-.705.181h-1.747a7.443,7.443,0,0,1-.375-1.329,1.469,1.469,0,0,1,.273-.737,8.987,8.987,0,0,0,1.144-3.515l.076-.731c-.146-4.529,1.741-6,2.541-6.42a.734.734,0,0,0,.394-.6h0l.14-1.292,4.7.217a3.451,3.451,0,0,0,.083,1.3,2.763,2.763,0,0,0,.146.634C595.62,776.511,593.059,778.148,593.04,778.25Z" transform="translate(-249.8 -332.926)" fill="#a0616a"/>
      <path id="Path_132" data-name="Path 132" d="M605.8,775.444a10.915,10.915,0,0,1-.635,1.932,4.859,4.859,0,0,0-.4,1.763v.06a14.747,14.747,0,0,1-1.156,5.23c-.693,1.643-1.607,3.781-1.906,4.227a3.317,3.317,0,0,0-.184,2.017l-2.65-.175.044-4.227a15.046,15.046,0,0,1,1.271-7.078,4.467,4.467,0,0,0,.368-1.588l.134-2.808.038-.827s4.683-.634,5.083.374A2.105,2.105,0,0,1,605.8,775.444Z" transform="translate(-254.588 -333.248)" fill="#a0616a"/>
      <path id="Path_133" data-name="Path 133" d="M593.04,778.25a5.611,5.611,0,0,1-1.665,3.382,14.727,14.727,0,0,0-2.1,2.548c0,2.476-.705,3.225-.705,3.225l-.705.181h-1.747a7.443,7.443,0,0,1-.375-1.329,1.469,1.469,0,0,1,.273-.737,8.987,8.987,0,0,0,1.144-3.515l.076-.731c-.146-4.529,1.741-6,2.541-6.42a.734.734,0,0,0,.394-.6h0l.14-1.292,4.7.217a3.451,3.451,0,0,0,.083,1.3,2.763,2.763,0,0,0,.146.634C595.62,776.511,593.059,778.148,593.04,778.25Z" transform="translate(-249.8 -332.926)" fill="#8e5362"/>
      <path id="Path_134" data-name="Path 134" d="M605.8,775.444a10.915,10.915,0,0,1-.635,1.932,4.859,4.859,0,0,0-.4,1.763v.06a14.747,14.747,0,0,1-1.156,5.23c-.693,1.643-1.607,3.781-1.906,4.227a3.317,3.317,0,0,0-.184,2.017l-2.65-.175.044-4.227a15.046,15.046,0,0,1,1.271-7.078,4.467,4.467,0,0,0,.368-1.588l.134-2.808.038-.827s4.683-.634,5.083.374A2.105,2.105,0,0,1,605.8,775.444Z" transform="translate(-254.588 -333.248)" fill="#8e5362"/>
      <path id="Path_135" data-name="Path 135" d="M597.644,774.532l-4.924-.229.14-1.292,4.7.217A3.448,3.448,0,0,0,597.644,774.532Z" transform="translate(-252.345 -332.945)" opacity="0.1"/>
      <path id="Path_136" data-name="Path 136" d="M606.863,775.44l-5.083-.652.038-.827s4.683-.634,5.083.374a2.106,2.106,0,0,1-.038,1.105Z" transform="translate(-255.649 -333.244)" opacity="0.1"/>
      <path id="Path_137" data-name="Path 137" d="M604.913,755.035l-2.039,8.5-6.036-.773v-2.923l-.521,3.02-7.237-.338.375-6.589a23.236,23.236,0,0,0,.807-4.01c.14-1.492.883-5.163,1.271-6.885.114-.6.191-.93.191-.93s12.4,2.452,13.215,3.34a1.841,1.841,0,0,1,.286.906A41.1,41.1,0,0,1,604.913,755.035Z" transform="translate(-251.018 -321.499)" fill="#2f2e41"/>
      <path id="Path_138" data-name="Path 138" d="M591.21,761.817s4.88-2.416,6.068-1.92Z" transform="translate(-251.795 -327.725)" opacity="0.1"/>
      <path id="Path_139" data-name="Path 139" d="M595.4,750s4.054,2.929,4.181,3.72Z" transform="translate(-253.323 -323.831)" opacity="0.1"/>
      <path id="Path_140" data-name="Path 140" d="M593.66,766.646s2.935-.115,3.869.6Z" transform="translate(-252.688 -330.422)" opacity="0.1"/>
      <path id="Path_141" data-name="Path 141" d="M601.748,761.47s1.391,4.336.788,5.526-1.226-.278-1.226-.278Z" transform="translate(-255.478 -328.375)" opacity="0.1"/>
      <path id="Path_142" data-name="Path 142" d="M598.237,798.92s-1.379.2-1.125,3.364.635,3.714,1.125,3.756,2.929.6,2.808-.556a20.369,20.369,0,0,1-.083-4.149c.172-.393.451-1.443-.178-1.7l-.14.6s-1.328-1.166-2.122-.314a3.019,3.019,0,0,0-.159-.6C598.3,799.131,598.11,799.035,598.237,798.92Z" transform="translate(-253.936 -343.208)" fill="#2f2e41"/>
      <path id="Path_143" data-name="Path 143" d="M632.273,731.259s-.311.163-.775.374a8.935,8.935,0,0,1-2.541.809,3.624,3.624,0,0,1-3.177-.785c-1.137-.773-3.043-1.854-3.869-2.313l-.362-.205h-.038l.686-1.812,2.433-1.208.635.5,1.8,1.468a.9.9,0,0,0,.731.4c.451-.03,2.872.163,2.872.163l.457.072.966.151Z" transform="translate(-262.843 -314.373)" fill="#a0616a"/>
      <path id="Path_144" data-name="Path 144" d="M637.483,732.935s-.311.163-.775.375c-.489-.236-1.093-.682-.858-1.413s.267-1.178.438-1.546l.966.151Z" transform="translate(-268.053 -316.048)" opacity="0.1"/>
      <path id="Path_145" data-name="Path 145" d="M637.228,729.269s2.713-.743,2.51,2.373-2.294,1.407-2.294,1.407-1.779-.441-1.4-1.612S636.307,729.553,637.228,729.269Z" transform="translate(-268.123 -315.59)" fill="#a0616a"/>
      <path id="Path_146" data-name="Path 146" d="M587.748,699.575,584.92,700.7h-.076l-.178-.085c-.731-.344-3.24-1.528-4.822-2.234-1.906-.827-1.582-1.661-1.582-1.661l-.273-8.7-.477-1.558s-.343-5.3,2.37-6.643.959,7.67.959,7.67l.2,1.872a19.908,19.908,0,0,0,.743,3.533,4.908,4.908,0,0,1,.222,1.159c.083,1.268.705,1.208.705,1.208a9,9,0,0,1,2.815.906,7.73,7.73,0,0,1,.934.562Z" transform="translate(-246.795 -295.981)" fill="#a0616a"/>
      <path id="Path_147" data-name="Path 147" d="M608.094,715.555l-2.414-.242a8.484,8.484,0,0,0,1.023-1.987,3.182,3.182,0,0,0,.108-.4,1.322,1.322,0,0,0-.133-1.009c-.705-.99,4.206-2.373,4.206-2.373a10.858,10.858,0,0,0-.057,1.649,8.965,8.965,0,0,0,.127,1.135,2.806,2.806,0,0,0,1.01,1.866C613.508,715.2,608.094,715.555,608.094,715.555Z" transform="translate(-257.071 -307.806)" fill="#8e5362"/>
      <path id="Path_148" data-name="Path 148" d="M608.094,717.381l-2.414-.242a8.484,8.484,0,0,0,1.023-1.987c.28.38.375.368.769.447,0,0,2.433.344,3.482-1.449a2.806,2.806,0,0,0,1.01,1.866C613.508,717.025,608.094,717.381,608.094,717.381Z" transform="translate(-257.071 -309.632)" opacity="0.1"/>
      <path id="Path_149" data-name="Path 149" d="M621.885,729.345a1.222,1.222,0,0,0,0,.211l-.375-.417h0l.686-1.812,2.433-1.208.635.5C624.363,726.881,621.929,727.859,621.885,729.345Z" transform="translate(-262.843 -314.373)" opacity="0.1"/>
      <path id="Path_150" data-name="Path 150" d="M591.84,710.37l-2.827,1.129h-.292l.038-.1c.235-.544,1.334-3.2.858-4.457a7.745,7.745,0,0,1,.934.562Z" transform="translate(-250.887 -306.776)" opacity="0.1"/>
      <path id="Path_151" data-name="Path 151" d="M606.592,748.336c-1.1-.1-12.116-1.063-13.145-2.6a5.157,5.157,0,0,0-.546-.713c.114-.6.191-.93.191-.93s12.4,2.452,13.215,3.34A1.839,1.839,0,0,1,606.592,748.336Z" transform="translate(-252.411 -321.491)" opacity="0.1"/>
      <path id="Path_152" data-name="Path 152" d="M601.4,712.771s2.459.35,3.5-1.474a8.268,8.268,0,0,0,2.783,1.48c1.042.121,5.864,5.888,5.864,5.888s-3.869,1.208-3.621,3.086l-1.855-2.017s-.915-.036-1.7,2.373c0,0-.959,1.383-.832,5.773s-.292,5.435-.292,5.435-12.154-.99-13.234-2.615-1.271-.827-1.271-.827a13.781,13.781,0,0,1,.953-5.58c1.125-2.488.877-9.663.877-9.663a3.037,3.037,0,0,0-3.539-3.2s1.538-3.406.832-4.711a19.015,19.015,0,0,0,3.609.562,6.478,6.478,0,0,1,2.656.6,2.943,2.943,0,0,1,1.1.791,1.671,1.671,0,0,0,1.906.513,17.611,17.611,0,0,0,1.087,2.536l.146.254c.076.115.146.229.222.332A.891.891,0,0,0,601.4,712.771Z" transform="translate(-251 -306.689)" fill="#f86d70"/>
      <path id="Path_153" data-name="Path 153" d="M611.359,711.2a4.14,4.14,0,0,1-.438.5,4.467,4.467,0,0,1-3.126,1.25h-.451a1.323,1.323,0,0,0-.133-1.008c-.705-.99,4.206-2.373,4.206-2.373a10.858,10.858,0,0,0-.057,1.63Z" transform="translate(-257.604 -307.818)" opacity="0.1"/>
      <path id="Path_154" data-name="Path 154" d="M610.033,705.375a4.377,4.377,0,1,1-4.371-4.155,4.459,4.459,0,0,1,3.1,1.208A4.022,4.022,0,0,1,610.033,705.375Z" transform="translate(-255.47 -304.51)" fill="#a0616a"/>
      <path id="Path_155" data-name="Path 155" d="M618.45,723.816l.089,2.778s1.309-1,1.347-1.951S618.45,723.816,618.45,723.816Z" transform="translate(-261.728 -313.458)" opacity="0.1"/>
      <path id="Path_156" data-name="Path 156" d="M601.88,728.42s3.437,4.481,5.432,4.934S602.63,729.875,601.88,728.42Z" transform="translate(-255.686 -315.284)" opacity="0.1"/>
      <path id="Path_157" data-name="Path 157" d="M607.61,729.19s1.906,2.053,3.291,2.313Z" transform="translate(-257.775 -315.589)" opacity="0.1"/>
      <path id="Path_158" data-name="Path 158" d="M597,737.77s3.494,3.261,5.5,3.46Z" transform="translate(-253.906 -318.987)" opacity="0.1"/>
      <path id="Path_159" data-name="Path 159" d="M610.784,705.375a4.025,4.025,0,0,1-1.271,2.9L609.03,708a1.349,1.349,0,0,1-.464-.387,1.472,1.472,0,0,1-.1-.864,1.966,1.966,0,0,0-.635-1.679c-.832-.6-2.16-.284-2.993-.9a3.084,3.084,0,0,1-.534-.562l-.788-1-.165-.193a4.541,4.541,0,0,1,4.754-.866A4.157,4.157,0,0,1,610.784,705.375Z" transform="translate(-256.222 -304.51)" opacity="0.1"/>
      <path id="Path_160" data-name="Path 160" d="M603.514,698.318a8.073,8.073,0,0,1,1.3-.646c.432-.205.826-.471,1.271-.652a2.042,2.042,0,0,1,1.4-.133c.978.32,1.347,1.618,2.357,1.848.165.036.343.036.515.066a2.373,2.373,0,0,1,1.582,1.045,3.422,3.422,0,0,1,.5,1.812,2.879,2.879,0,0,1-.159,1.039,9.241,9.241,0,0,1-1.55,1.975,3.641,3.641,0,0,0-.724,2.186l-1.22-.719a1.347,1.347,0,0,1-.464-.386,1.458,1.458,0,0,1-.1-.858,1.978,1.978,0,0,0-.635-1.685c-.832-.6-2.16-.278-2.992-.9a2.709,2.709,0,0,1-.534-.562c-.26-.332-.527-.664-.788-1a2.865,2.865,0,0,1-.572-.755C602.523,699.417,603.088,698.632,603.514,698.318Z" transform="translate(-255.973 -302.768)" fill="#2f2e41"/>
      <path id="Path_161" data-name="Path 161" d="M608.973,707.029a1.3,1.3,0,0,1-.47-.38,1.471,1.471,0,0,1-.1-.864,1.949,1.949,0,0,0-.635-1.679c-.826-.6-2.154-.284-2.993-.9a3.08,3.08,0,0,1-.534-.562c-.26-.332-.521-.67-.788-1a2.8,2.8,0,0,1-.572-.761,1.682,1.682,0,0,1,.578-1.431,1.773,1.773,0,0,0-.712,1.564,2.868,2.868,0,0,0,.572.755c.261.338.527.67.788,1a2.709,2.709,0,0,0,.534.562c.832.6,2.16.272,2.993.9a1.978,1.978,0,0,1,.635,1.685,1.459,1.459,0,0,0,.1.858,1.347,1.347,0,0,0,.464.386l1.22.719v-.205Z" transform="translate(-255.999 -303.809)" opacity="0.1"/>
      <path id="Path_162" data-name="Path 162" d="M585.473,794s-1.22.242-.972,3.406.635,3.72,1.125,3.756,2.935.6,2.808-.549a20.436,20.436,0,0,1-.083-4.155c.165-.4.826-1.462.2-1.721l-.508.6s-1.328-1.166-2.122-.32C585.918,795.045,585.181,794.272,585.473,794Z" transform="translate(-249.336 -341.259)" fill="#2f2e41"/>
      <path id="Path_163" data-name="Path 163" d="M587.26,797.24c.26.115.508.266.769.386a1.828,1.828,0,0,0,.839.187.657.657,0,0,0,.343-.115" transform="translate(-250.354 -342.543)" opacity="0.1"/>
      <path id="Path_164" data-name="Path 164" d="M599.85,802.38a5.79,5.79,0,0,0,.451.423,1.651,1.651,0,0,0,.877.169.405.405,0,0,0,.146,0,.3.3,0,0,0,.134-.115l.165-.2" transform="translate(-254.945 -344.578)" opacity="0.1"/>
      <path id="Path_165" data-name="Path 165" d="M567.523,712.607s-.559-5.067,1.626-3.817.673,3.46.673,3.46l-.508,1.564Z" transform="translate(-243.134 -307.43)" fill="#ffc1c7"/>
      <path id="Path_166" data-name="Path 166" d="M573.06,684.312l1.271-1.165s2.389-6.547,4.765-4.868-3.012,5.936-3.012,5.936l-1.423,1.582Z" transform="translate(-245.177 -295.315)" fill="#ffc1c7"/>
      <path id="Path_167" data-name="Path 167" d="M544.274,730.9l-.063,1.341s1.144,1.9,1.627,2.041.432-4.016.432-4.016Z" transform="translate(-234.657 -316.017)" fill="#f86d70"/>
      <path id="Path_168" data-name="Path 168" d="M544.074,731.1l-.064,1.347s1.15,1.9,1.626,2.035.438-4.01.438-4.01Z" transform="translate(-234.584 -316.096)" opacity="0.1"/>
      <path id="Path_169" data-name="Path 169" d="M490.32,684.56l.083,4.958h5.807l-.438-2.887Z" transform="translate(-178.791 -271.146)" fill="#ffc1c7"/>
      <path id="Path_170" data-name="Path 170" d="M549.082,749.36l.273,1.582,3.386,7.162s1.544,2.253.292,4.149a18.783,18.783,0,0,0-2.745,6.643,7.753,7.753,0,0,1-1.849,3.563l3.577,1.443s.248-2.832,1.271-4.155,4.206-7.162,4.206-7.162,1.017-.87.788-3.46-.2-4.409-.2-4.409l-.356-4.131Z" transform="translate(-236.199 -323.578)" fill="#2f2e41"/>
      <path id="Path_171" data-name="Path 171" d="M549.082,749.36l.273,1.582,3.386,7.162s1.544,2.253.292,4.149a18.783,18.783,0,0,0-2.745,6.643,7.753,7.753,0,0,1-1.849,3.563l3.577,1.443s.248-2.832,1.271-4.155,4.206-7.162,4.206-7.162,1.017-.87.788-3.46-.2-4.409-.2-4.409l-.356-4.131Z" transform="translate(-236.199 -323.578)" opacity="0.1"/>
      <path id="Path_172" data-name="Path 172" d="M547.323,787.29s-3.812,1.105-2.542,2.923,5.388,5.284,7.053,5.163,1-1.286,1-1.286l-1.391-1.3a30.936,30.936,0,0,1-.146-3.581c.1-.809-1.188-1.208-1.353-.713S547.323,787.29,547.323,787.29Z" transform="translate(-234.77 -338.601)" fill="#f86d70"/>
      <path id="Path_173" data-name="Path 173" d="M550.126,733.6l-3.037.314a1.058,1.058,0,0,0-.972,1.057,15.3,15.3,0,0,1-.114,3.322,5.711,5.711,0,0,0,2.313,6.42l4.511,1.365-7.237.5.229,3.817,1.118-.6,13.736.6s3.888-.374,1.271-4.391-8.26-7.948-8.26-7.948l-.064-3.128-.413-.906Z" transform="translate(-235.16 -317.336)" fill="#2f2e41"/>
      <path id="Path_174" data-name="Path 174" d="M558.65,753.938a4.115,4.115,0,0,1,3.126,0Z" transform="translate(-239.922 -325.269)" opacity="0.1"/>
      <path id="Path_175" data-name="Path 175" d="M543.561,754.857s-4.448-.6-4.492.2.635,8.7,2.764,8.165,1.233-3.146,1.233-3.146l1.6-1.461s.165-.809-.9-.731Z" transform="translate(-232.781 -325.669)" fill="#f86d70"/>
      <path id="Path_176" data-name="Path 176" d="M557.3,716.8l1.773,1.921s.769.906,1.684-.477,2.618-3.853,2.618-3.853,1.906,1.582,2.4,1.262-4.6,6.589-4.6,6.589-1.62,2.271-4.034-.417l-.705-.314Z" transform="translate(-239.113 -309.727)" fill="#f86d70"/>
      <path id="Path_177" data-name="Path 177" d="M557.107,716.8l1.766,1.921s.769.906,1.684-.477,2.624-3.853,2.624-3.853,1.906,1.582,2.389,1.262-4.594,6.589-4.594,6.589-1.627,2.271-4.041-.417l-.705-.314Z" transform="translate(-239.04 -309.727)" opacity="0.1"/>
      <ellipse id="Ellipse_15" data-name="Ellipse 15" cx="3.685" cy="3.503" rx="3.685" ry="3.503" transform="translate(309.096 392.277)" fill="#ffc1c7"/>
      <path id="Path_178" data-name="Path 178" d="M547.277,696.849s-3.177,1.425-2.789,3.919a52.424,52.424,0,0,1,.438,5.635s1.436,2.017-.47,5.876c0,0-1.22,1.957-.407,3.382,0,0,.9-2.259,3.228-.6a19.033,19.033,0,0,0,6.074,2.416s-1.938-8.068-.75-9.2c0,0,2.058-2.9.19-4.741a3.044,3.044,0,0,1-.94-3.563l6.017-3.068s1.271,0,2.974-2.506a42.981,42.981,0,0,1,3.641-4.632s-1.271-1.812-2.5-1.975a4.017,4.017,0,0,0-.813,1.757c-.178.682-1.379,1.812-2.471,2.742-.769.652-1.518,1.335-2.262,2.011-.553.507-1.785,1.208-4.448,1.637C547.569,696.631,547.277,696.849,547.277,696.849Z" transform="translate(-234.496 -299.191)" opacity="0.1"/>
      <path id="Path_179" data-name="Path 179" d="M547.277,696.451s-3.177,1.425-2.789,3.913a52.561,52.561,0,0,1,.438,5.641s1.436,2.017-.47,5.87c0,0-1.22,1.963-.407,3.382,0,0,.9-2.253,3.228-.6a19.192,19.192,0,0,0,6.074,2.416s-1.938-8.068-.75-9.2c0,0,2.058-2.9.19-4.747s-.94-3.557-.94-3.557l6.017-3.068s1.271,0,2.974-2.512a43.287,43.287,0,0,1,3.641-4.626s-1.271-1.842-2.5-1.981a4.075,4.075,0,0,0-.813,1.763c-.178.682-1.379,1.812-2.471,2.742-.769.652-1.518,1.329-2.262,2.011-.553.5-1.785,1.208-4.448,1.637C547.569,696.209,547.277,696.451,547.277,696.451Z" transform="translate(-234.496 -299.029)" fill="#f86d70"/>
      <path id="Path_180" data-name="Path 180" d="M553.58,727.09a31.352,31.352,0,0,1,2.541,4.034C556.1,731.124,555.753,727.428,553.58,727.09Z" transform="translate(-238.073 -314.757)" opacity="0.1"/>
      <path id="Path_181" data-name="Path 181" d="M548.5,707.9a3.136,3.136,0,0,0,4.187.32,5.574,5.574,0,0,1-4.187-.32Z" transform="translate(-236.221 -307.156)" opacity="0.1"/>
      <path id="Path_182" data-name="Path 182" d="M543.109,692.07a1.065,1.065,0,0,0-.267-.477,5.259,5.259,0,0,0-2.014-1.7,2.872,2.872,0,0,0-3.177.858c-.3.386-.483.851-.743,1.262a5.754,5.754,0,0,1-2.027,1.812c-.483.284-.991.525-1.449.846a5.124,5.124,0,0,0-2,5.218,7.971,7.971,0,0,1,.464,2.524,4.4,4.4,0,0,1-.826,1.812,5.536,5.536,0,0,0-.928,1.812,1.721,1.721,0,0,0,.572,1.812,3.41,3.41,0,0,1,.635.411,1.771,1.771,0,0,1,.3.441,4.531,4.531,0,0,0,2.846,2.132c.54.133,1.271.085,1.455-.411a.855.855,0,0,1,.1-.248c.178-.242.565-.1.839,0a5.338,5.338,0,0,0,2.02.55,1.705,1.705,0,0,0,.82-.091,1.492,1.492,0,0,0,.559-.459,5.454,5.454,0,0,0,.959-2.893,6.546,6.546,0,0,0,0-1.993c-.21-1.051-.883-2.035-.781-3.1s1.074-2.071,1.226-3.207a2.359,2.359,0,0,0-.438-1.685,2.559,2.559,0,0,1-.337-.5.477.477,0,0,1,.1-.544.843.843,0,0,1,.26-.121,2.066,2.066,0,0,0,1.271-1.812,3.54,3.54,0,0,1,.083-.858C542.766,693.036,543.179,692.547,543.109,692.07Z" transform="translate(-229.502 -299.956)" opacity="0.1"/>
      <path id="Path_183" data-name="Path 183" d="M542.715,692.07a1.079,1.079,0,0,0-.273-.477,5.24,5.24,0,0,0-2.014-1.7,2.872,2.872,0,0,0-3.177.858,14.126,14.126,0,0,0-.743,1.262,5.754,5.754,0,0,1-2.027,1.812c-.483.284-.991.525-1.449.846a5.142,5.142,0,0,0-2.008,5.218,7.812,7.812,0,0,1,.47,2.524,4.331,4.331,0,0,1-.832,1.812,5.521,5.521,0,0,0-.921,1.812,1.721,1.721,0,0,0,.572,1.812,3.632,3.632,0,0,1,.635.411,1.744,1.744,0,0,1,.292.441,4.563,4.563,0,0,0,2.853,2.132c.54.133,1.271.085,1.455-.411a.856.856,0,0,1,.1-.248c.178-.242.565-.1.839,0a5.284,5.284,0,0,0,2.014.549,1.731,1.731,0,0,0,.826-.091,1.43,1.43,0,0,0,.553-.459,5.4,5.4,0,0,0,.959-2.893,6.35,6.35,0,0,0,0-1.993c-.21-1.051-.883-2.035-.788-3.1s1.08-2.071,1.226-3.207a2.324,2.324,0,0,0-.438-1.685,2.829,2.829,0,0,1-.33-.5.477.477,0,0,1,.1-.543.728.728,0,0,1,.26-.121,2.06,2.06,0,0,0,1.271-1.812,3.891,3.891,0,0,1,.089-.858C542.372,693.036,542.785,692.547,542.715,692.07Z" transform="translate(-229.356 -299.956)" fill="#2f2e41"/>
      <g id="Group_6" data-name="Group 6" transform="translate(305.055 389.787)" opacity="0.1">
        <path id="Path_184" data-name="Path 184" d="M537.994,723.508a.853.853,0,0,0-.1.248.849.849,0,0,1-.763.465c.477.042.978-.06,1.137-.465a.858.858,0,0,1,.1-.248.3.3,0,0,1,.127-.1.441.441,0,0,0-.5.1Z" transform="translate(-537.13 -703.069)"/>
        <path id="Path_185" data-name="Path 185" d="M547.814,692.084a1.018,1.018,0,0,0-.273-.477,5.146,5.146,0,0,0-2.014-1.679,2.663,2.663,0,0,0-1.15-.163,2.433,2.433,0,0,1,.762.139,5.144,5.144,0,0,1,2.014,1.679,1.02,1.02,0,0,1,.273.477c.07.477-.343.966-.483,1.407a3.543,3.543,0,0,0-.083.858,2.078,2.078,0,0,1-1.271,1.812.726.726,0,0,0-.26.121.471.471,0,0,0-.1.544,2.554,2.554,0,0,0,.337.5A2.325,2.325,0,0,1,546,698.98c-.152,1.135-1.125,2.065-1.233,3.2s.578,2.053.788,3.1a6.352,6.352,0,0,1,0,1.993,5.43,5.43,0,0,1-.953,2.893,1.493,1.493,0,0,1-.559.459,1.326,1.326,0,0,1-.407.1,1.794,1.794,0,0,0,.781-.1,1.493,1.493,0,0,0,.559-.459,5.429,5.429,0,0,0,.953-2.893,6.352,6.352,0,0,0,0-1.993c-.21-1.051-.883-2.035-.788-3.1s1.08-2.065,1.233-3.2a2.325,2.325,0,0,0-.438-1.685,2.565,2.565,0,0,1-.337-.5.471.471,0,0,1,.1-.544.727.727,0,0,1,.26-.121,2.06,2.06,0,0,0,1.271-1.812,3.9,3.9,0,0,1,.089-.858C547.471,693.05,547.884,692.561,547.814,692.084Z" transform="translate(-539.504 -689.756)"/>
      </g>
      <path id="Path_186" data-name="Path 186" d="M542.77,763a1.748,1.748,0,0,0,1.728.453" transform="translate(-234.132 -328.981)" opacity="0.1"/>
      <path id="Path_187" data-name="Path 187" d="M554.864,796.56a1.1,1.1,0,0,1-.864.211" transform="translate(-238.227 -342.273)" opacity="0.1"/>
      <path id="Path_188" data-name="Path 188" d="M233.417,791.833l8.463-4.729a19.7,19.7,0,0,0-4.327-4.922l-15.96,4.723,12.5-6.993a21.254,21.254,0,0,0-20.13.325A19.157,19.157,0,0,0,204,796.864c0,10.671,9.1,11.046,20.331,11.046s20.332-.374,20.332-11.046a18.394,18.394,0,0,0-1.747-7.851Z" transform="translate(-110.602 -334.739)" fill="#1397cf"/>
      <path id="Path_189" data-name="Path 189" d="M235.571,810.319a15.792,15.792,0,0,0-3-2.241,14.376,14.376,0,0,0-4.937-2.289,39.232,39.232,0,0,0-4.848-.133,11.594,11.594,0,0,1-7.427-3.237c-1.156-1.135-2.065-2.53-3.456-3.394a7.9,7.9,0,0,0-5.172-.906,13.156,13.156,0,0,0-1.531.3,18.469,18.469,0,0,0-1.2,6.552c0,10.671,9.1,11.046,20.331,11.046,5.451,0,10.394-.091,14.048-1.4l-.635-1.081A15.11,15.11,0,0,0,235.571,810.319Z" transform="translate(-110.602 -342.849)" opacity="0.1"/>
      <path id="Path_190" data-name="Path 190" d="M1013.417,791.833l8.463-4.729a19.7,19.7,0,0,0-4.327-4.922l-15.96,4.723,12.5-6.993a21.254,21.254,0,0,0-20.13.325A19.157,19.157,0,0,0,984,796.864c0,10.671,9.1,11.046,20.331,11.046s20.332-.374,20.332-11.046a18.393,18.393,0,0,0-1.747-7.851Z" transform="translate(-395.022 -334.739)" fill="#1397cf"/>
      <path id="Path_191" data-name="Path 191" d="M1015.571,810.319a15.785,15.785,0,0,0-3-2.241,14.376,14.376,0,0,0-4.937-2.289,39.234,39.234,0,0,0-4.848-.133,11.594,11.594,0,0,1-7.427-3.237c-1.156-1.135-2.065-2.53-3.456-3.394a7.9,7.9,0,0,0-5.172-.906,13.174,13.174,0,0,0-1.531.3,18.465,18.465,0,0,0-1.2,6.552c0,10.671,9.1,11.046,20.331,11.046,5.451,0,10.395-.091,14.048-1.4l-.635-1.081a15.108,15.108,0,0,0-2.173-3.219Z" transform="translate(-395.022 -342.849)" opacity="0.1"/>
      <path id="Path_192" data-name="Path 192" d="M383.787,780.221l-6.614-3.7a15.567,15.567,0,0,1,3.38-3.841l12.472,3.684-9.772-5.435a16.605,16.605,0,0,1,15.706.24,14.97,14.97,0,0,1,7.809,12.955c0,8.34-7.11,8.63-15.884,8.63S375,792.468,375,784.128A14.39,14.39,0,0,1,376.366,778Z" transform="translate(-172.956 -331.387)" fill="#1397cf"/>
      <path id="Path_193" data-name="Path 193" d="M384.922,794.679a12.3,12.3,0,0,1,2.338-1.745,11.081,11.081,0,0,1,3.857-1.812,29.766,29.766,0,0,1,3.812-.1,9.1,9.1,0,0,0,5.8-2.53,17.147,17.147,0,0,1,2.7-2.657,6.169,6.169,0,0,1,4.041-.707,11.278,11.278,0,0,1,1.195.235,14.324,14.324,0,0,1,.921,5.091c0,8.34-7.11,8.63-15.884,8.63-4.257,0-8.12-.072-10.973-1.093l.477-.846A11.583,11.583,0,0,1,384.922,794.679Z" transform="translate(-175.775 -337.711)" opacity="0.1"/>
      <path id="Path_194" data-name="Path 194" d="M463.787,780.221l-6.614-3.7a15.569,15.569,0,0,1,3.38-3.841l12.472,3.684-9.772-5.435a16.6,16.6,0,0,1,15.706.24,14.97,14.97,0,0,1,7.809,12.955c0,8.34-7.11,8.63-15.884,8.63S455,792.468,455,784.128A14.39,14.39,0,0,1,456.366,778Z" transform="translate(-202.127 -331.387)" fill="#1397cf"/>
      <path id="Path_195" data-name="Path 195" d="M464.922,794.679a12.293,12.293,0,0,1,2.338-1.745,11.084,11.084,0,0,1,3.857-1.812,29.766,29.766,0,0,1,3.812-.1,9.1,9.1,0,0,0,5.8-2.53,17.152,17.152,0,0,1,2.7-2.657,6.169,6.169,0,0,1,4.041-.707,11.278,11.278,0,0,1,1.195.235,14.325,14.325,0,0,1,.921,5.091c0,8.34-7.11,8.63-15.884,8.63-4.257,0-8.12-.072-10.973-1.093l.477-.846A11.581,11.581,0,0,1,464.922,794.679Z" transform="translate(-204.946 -337.711)" opacity="0.1"/>
      <path id="Path_196" data-name="Path 196" d="M754.787,780.221l-6.614-3.7a15.568,15.568,0,0,1,3.38-3.841l12.472,3.684-9.772-5.435a16.6,16.6,0,0,1,15.706.24,14.97,14.97,0,0,1,7.809,12.955c0,8.34-7.11,8.63-15.884,8.63S746,792.468,746,784.128A14.389,14.389,0,0,1,747.366,778Z" transform="translate(-308.238 -331.387)" fill="#1397cf"/>
      <path id="Path_197" data-name="Path 197" d="M755.922,794.679a12.3,12.3,0,0,1,2.338-1.745,11.083,11.083,0,0,1,3.857-1.812,29.766,29.766,0,0,1,3.812-.1,9.1,9.1,0,0,0,5.8-2.53,17.139,17.139,0,0,1,2.7-2.657,6.169,6.169,0,0,1,4.041-.707,11.268,11.268,0,0,1,1.194.235,14.325,14.325,0,0,1,.921,5.091c0,8.34-7.11,8.63-15.884,8.63-4.257,0-8.12-.072-10.973-1.093l.477-.846A11.585,11.585,0,0,1,755.922,794.679Z" transform="translate(-311.056 -337.711)" opacity="0.1"/>
      <path id="Path_198" data-name="Path 198" d="M494.269,712.334A12.045,12.045,0,0,0,496.01,706c0-5.725-3.736-10.369-8.336-10.369s-8.336,4.644-8.336,10.369a12.046,12.046,0,0,0,1.741,6.335,12.409,12.409,0,0,0,0,12.682,12.4,12.4,0,0,0,0,12.682,12.408,12.408,0,0,0,0,12.682,12.029,12.029,0,0,0-1.741,6.335c0,5.725,3.736,10.369,8.336,10.369s8.336-4.644,8.336-10.369a12.028,12.028,0,0,0-1.741-6.335,12.408,12.408,0,0,0,0-12.682,12.4,12.4,0,0,0,0-12.682A12.409,12.409,0,0,0,494.269,712.334Z" transform="translate(-211 -302.296)" fill="#3f3d56"/>
      <ellipse id="Ellipse_16" data-name="Ellipse 16" cx="8.336" cy="10.369" rx="8.336" ry="10.369" transform="translate(268.338 380.664)" fill="#3f3d56"/>
      <ellipse id="Ellipse_17" data-name="Ellipse 17" cx="8.336" cy="10.369" rx="8.336" ry="10.369" transform="translate(268.338 367.993)" fill="#3f3d56"/>
      <path id="Path_199" data-name="Path 199" d="M500.654,486.985a38.063,38.063,0,0,0,3.1-4.342l-21.882-3.418,23.68.169a36.3,36.3,0,0,0,.762-30.063L474.547,465l29.3-20.467c-7.488-12.274-21.556-19.55-36.465-18.862S439.209,434.9,433.009,447.8a36.414,36.414,0,0,0,4.91,39.183,37.773,37.773,0,0,0-4.549,6.921l28.42,14.035-30.307-9.663a36.485,36.485,0,0,0,6.436,35.631,36.6,36.6,0,0,0,4.293,51.32,41.454,41.454,0,0,0,54.163,0,36.6,36.6,0,0,0,4.293-51.32,36.484,36.484,0,0,0,0-46.912Z" transform="translate(-192.784 -195.35)" fill="#1397cf"/>
      <path id="Path_200" data-name="Path 200" d="M429.36,565.7a36.582,36.582,0,0,0,8.539,23.456,36.6,36.6,0,0,0,4.293,51.32,41.453,41.453,0,0,0,54.163,0,36.6,36.6,0,0,0,4.293-51.32C506.009,582.708,429.36,561.432,429.36,565.7Z" transform="translate(-192.777 -250.611)" opacity="0.1"/>
      <path id="Path_201" data-name="Path 201" d="M683.515,693.933a15.231,15.231,0,0,0,2.2-8.02c0-7.247-4.721-13.123-10.547-13.123s-10.547,5.876-10.547,13.123a15.236,15.236,0,0,0,2.2,8.02,15.679,15.679,0,0,0,0,16.034,15.691,15.691,0,0,0,0,16.04,15.691,15.691,0,0,0,0,16.04,15.22,15.22,0,0,0-2.2,8.02c0,7.247,4.727,13.123,10.547,13.123s10.547-5.876,10.547-13.123a15.212,15.212,0,0,0-2.2-8.02,15.731,15.731,0,0,0,0-16.04,15.731,15.731,0,0,0,0-16.04A15.72,15.72,0,0,0,683.515,693.933Z" transform="translate(-278.563 -293.25)" fill="#3f3d56"/>
      <ellipse id="Ellipse_18" data-name="Ellipse 18" cx="10.547" cy="13.123" rx="10.547" ry="13.123" transform="translate(386.057 363.506)" fill="#3f3d56"/>
      <ellipse id="Ellipse_19" data-name="Ellipse 19" cx="10.547" cy="13.123" rx="10.547" ry="13.123" transform="translate(386.057 347.466)" fill="#3f3d56"/>
      <path id="Path_202" data-name="Path 202" d="M612.877,408.743a46.713,46.713,0,0,1-3.926-5.5l27.708-4.324-29.97.211a45.919,45.919,0,0,1-.966-38.047l40.212,19.826-37.086-25.908c9.486-15.522,27.289-24.718,46.151-23.84s35.635,11.682,43.481,28.01a46.087,46.087,0,0,1-6.2,49.578,47.811,47.811,0,0,1,5.763,8.757l-35.974,17.767,38.357-12.235a46.127,46.127,0,0,1-8.145,45.088c16.286,19.686,13.921,47.963-5.434,64.955a52.467,52.467,0,0,1-68.553,0c-19.354-16.992-21.72-45.269-5.434-64.955a46.163,46.163,0,0,1,0-59.377Z" transform="translate(-255.748 -157.915)" fill="#1397cf"/>
      <path id="Path_203" data-name="Path 203" d="M703.108,508.356a46.318,46.318,0,0,1-10.8,29.688c16.286,19.686,13.921,47.963-5.434,64.955a52.467,52.467,0,0,1-68.553,0c-19.354-16.992-21.72-45.269-5.434-64.955C606.114,529.874,703.108,502.969,703.108,508.356Z" transform="translate(-255.758 -227.84)" opacity="0.1"/>
    </g>
  </g>
</svg>
