<svg xmlns="http://www.w3.org/2000/svg" xmlns:xlink="http://www.w3.org/1999/xlink" width="700" height="500" viewBox="0 0 700 500">
  <defs>
    <clipPath id="clip-reminder">
      <rect width="700" height="500"/>
    </clipPath>
  </defs>
  <g id="reminder" clip-path="url(#clip-reminder)">
    <g id="undraw_reminder_re_fe15" transform="translate(139.69 5)">
      <path id="Path_1" data-name="Path 1" d="M0,0H41.436V13.307C41.436,35.612,22.869,53.722,0,53.722H0V0H0Z" transform="translate(336.858 169.305) rotate(180)" fill="#2f2e41"/>
      <path id="Path_2" data-name="Path 2" d="M400.706,183.6l7.125,31.254L366.083,208.1,383.1,178.538Z" transform="translate(-73.032 -39.14)" fill="#f1aaaa"/>
      <rect id="Rectangle_1" data-name="Rectangle 1" width="40.025" height="57.777" transform="translate(327.674 269.007) rotate(180)" fill="#ffb6b6"/>
      <path id="Path_4" data-name="Path 4" d="M429.865,405.038,421.06,451.1s5.6,32.012-11.207,64.8l-11.207,33.573-16.811-2.342s10.407-24.985,10.407-35.916,2.4-53.093,2.4-53.093l-1.2-48.11Z" transform="translate(-76.175 -88.795)" fill="#2f2e41"/>
      <path id="Path_5" data-name="Path 5" d="M377.714,585.373s19.212-7.027,20.813,3.123l-.8,4.685s7.2,21.081-3.2,22.642-20.013,3.9-20.813-.781-.788-10.532,1.207-14.635S377.714,585.373,377.714,585.373Z" transform="translate(-74.455 -127.81)" fill="#2f2e41"/>
      <g id="Group_1" data-name="Group 1" transform="translate(272.892 309.097)">
        <path id="Path_6" data-name="Path 6" d="M362.595,395.886l-4.677,46.637s-14.51,29.229-7.713,65.288L351.4,543.1l16.815,2.31s-2.872-26.822.245-37.322,12.832-51.65,12.832-51.65l14.871-45.886-33.565-14.666Z" transform="translate(-342.395 -395.886)" fill="#2f2e41"/>
        <path id="Path_7" data-name="Path 7" d="M369.247,585.527s-16.451-11.961-20.883-2.646L347.8,587.6s-12.931,18.295-3.381,22.618,18.11,9.178,20.215,4.9,3.76-9.9,3.014-14.385,1.6-15.2,1.6-15.2Z" transform="translate(-340.901 -436.102)" fill="#2f2e41"/>
      </g>
      <path id="Path_8" data-name="Path 8" d="M413.776,310.538c18.827,17.136,20.224,44.249,9.206,76.516,0,0-35.222,23.423-60.838-6.246l-12.808-60.12Z" transform="translate(-69.691 -68.078)" fill="#2f2e41"/>
      <path id="Path_9" data-name="Path 9" d="M386.167,203.1l20.013,3.123-1.6,49.189,22.414,43.723-28.818,14.054s-22.414-41.381-26.417-67.147-1.6-44.5-1.6-44.5Z" transform="translate(-73.703 -44.182)" fill="#1397cf"/>
      <path id="Path_10" data-name="Path 10" d="M365.55,205.1l-20.013,3.123,1.6,49.189-4.8,45.285,11.207,12.492s22.414-41.381,26.417-67.147,1.6-44.5,1.6-44.5Z" transform="translate(-68.295 -44.621)" fill="#1397cf"/>
      <path id="Path_11" data-name="Path 11" d="M401.071,206.628l4.4-1.171s15.61-1.952,18.011,4.294,1.6,42.943,1.6,42.943,4.131,45.039-11.944,45.552-12.872-36.964-12.872-36.964Z" transform="translate(-79.801 -44.978)" fill="#1397cf"/>
      <ellipse id="Ellipse_1" data-name="Ellipse 1" cx="20.718" cy="20.207" rx="20.718" ry="20.207" transform="translate(299.97 112.627)" fill="#ffb6b6"/>
      <path id="Path_12" data-name="Path 12" d="M362.231,208.628l-4.4-1.171s-15.61-1.952-18.011,4.294-1.6,42.943-1.6,42.943-4.131,45.039,11.943,45.552,12.872-36.964,12.872-36.964Z" transform="translate(-67.378 -45.417)" fill="#1397cf"/>
      <path id="Path_13" data-name="Path 13" d="M377.95,205.7c-4.445-1.1-9.483,3.53-11.256,10.344a17.166,17.166,0,0,0-.2,8.3l-1.91,7.746-.141-.007-15.064,34.626a27.41,27.41,0,0,0,1.335,24.877c2.658,4.511,6.146,7.544,10.242,4.448,6.8-5.137,11.237-34.549,13.264-51.444l4.687-17.174a17.437,17.437,0,0,0,3.883-7.4C384.561,213.218,382.395,206.8,377.95,205.7Z" transform="translate(-69.23 -45.06)" fill="#a0616a"/>
      <path id="Path_14" data-name="Path 14" d="M350.87,178.569c1.054-3.125,3.134-5.861,4.065-9.024,1.236-4.2,3.867,5.116,4.124.755.488-8.289,13.459-29.612,20.864-33.708s11.658-2.861,19.2.986A24.465,24.465,0,0,1,407.346,140c4.559,2.2,8.663,5.711,10.436,10.359,1.406,3.684,1.25,7.73,1.72,11.633,1.308,10.876,7.559,21.22,6.217,32.092-.419,3.392-1.74,6.9-4.584,8.895s-7.437,1.778-9.309-1.11c-.639-.985-.909-2.155-1.456-3.191a3.268,3.268,0,0,0-2.731-1.97c-1.8.048-2.71,2.4-2,4.01s2.373,2.583,3.935,3.448a11.926,11.926,0,0,1-11.593-1.277,11.26,11.26,0,0,1-4.413-10.533c.844-5.548,9.131-4.4,10.107-9.927.711-4.024,3.206-10.757,2.527-14.786s-3.945.849-.505-1.479c-3.784,1.779-11.877-10.392-15.838-11.755a16.043,16.043,0,0,1-9.121-8.016c-4.2,5.94-7.9,4.327-9.4,11.393s-.113,23.119,6.082,27.063a15.489,15.489,0,0,0-5.619,6.708c-.659,1.529-1.086,3.2-2.18,4.472-2.089,2.425-5.947,2.573-9.022,1.553a15.552,15.552,0,0,1-8.87-7.556,14.937,14.937,0,0,1-.853-11.457Z" transform="translate(-69.846 -29.387)" fill="#2f2e41"/>
      <path id="Path_15" data-name="Path 15" d="M0,625.875a.938.938,0,0,0,.953.929H419.047a.929.929,0,1,0,0-1.858H.953A.938.938,0,0,0,0,625.875Z" transform="translate(0 -137.005)" fill="#3f3d56"/>
      <g id="Group_3" data-name="Group 3" transform="translate(10.745)">
        <path id="Path_16" data-name="Path 16" d="M290.583,1H125.944c-18.67,0-33.805,14.762-33.805,32.972V455.928c0,18.21,15.135,32.972,33.805,32.972H290.583c18.67,0,33.805-14.762,33.805-32.972V33.972C324.388,15.762,309.253,1,290.583,1Z" transform="translate(-29.127 -0.219)" fill="#fff"/>
        <path id="Path_17" data-name="Path 17" d="M290.383,489.461H125.745c-19.082,0-34.606-15.141-34.606-33.752V33.753C91.139,15.142,106.663,0,125.745,0H290.383c19.081,0,34.606,15.142,34.606,33.753V455.709c0,18.611-15.524,33.752-34.606,33.752ZM125.745,1.562c-18.2,0-33,14.441-33,32.191V455.709c0,17.75,14.806,32.191,33,32.191H290.383c18.2,0,33-14.44,33-32.191V33.753c0-17.75-14.806-32.191-33-32.191Z" transform="translate(-28.927)" fill="#3f3d56"/>
        <path id="Path_18" data-name="Path 18" d="M74.491,94.566a2.592,2.592,0,0,0-2.621,2.556v20.45a2.622,2.622,0,0,0,5.242,0V97.123A2.592,2.592,0,0,0,74.491,94.566Z" transform="translate(-25.083 -20.731)" fill="#3f3d56"/>
        <path id="Path_19" data-name="Path 19" d="M337.175,84.673H271a4.967,4.967,0,1,1,0-9.93h66.176a4.967,4.967,0,1,1,0,9.93Z" transform="translate(-63.793 -16.386)" fill="#e6e6e6"/>
        <path id="Path_20" data-name="Path 20" d="M260.618,135.858H196.292a2.869,2.869,0,1,1,0-5.737h64.326a2.869,2.869,0,1,1,0,5.737Z" transform="translate(-49.318 -28.526)" fill="#1397cf"/>
        <ellipse id="Ellipse_2" data-name="Ellipse 2" cx="51.952" cy="49.604" rx="51.952" ry="49.604" transform="translate(0 22.282)" fill="#1397cf"/>
        <path id="Path_21" data-name="Path 21" d="M90.769,59.7,70.02,96.551q-6.612-11.395-13.211-22.8c-1.526-2.622-5.677-.264-4.147,2.364,5.123,8.8,10.192,17.628,15.314,26.427a2.454,2.454,0,0,0,4.147,0L94.916,62.064c1.489-2.644-2.657-5.011-4.147-2.364Z" transform="translate(-21.185 -12.834)" fill="#fff"/>
        <rect id="Rectangle_2" data-name="Rectangle 2" width="37.222" height="4.654" rx="0.31" transform="translate(83.408 11.444)" fill="#e6e6e6"/>
        <ellipse id="Ellipse_3" data-name="Ellipse 3" cx="3.818" cy="3.724" rx="3.818" ry="3.724" transform="translate(240.266 8.652)" fill="#e6e6e6"/>
        <ellipse id="Ellipse_4" data-name="Ellipse 4" cx="3.818" cy="3.724" rx="3.818" ry="3.724" transform="translate(250.765 8.652)" fill="#e6e6e6"/>
        <ellipse id="Ellipse_5" data-name="Ellipse 5" cx="3.818" cy="3.724" rx="3.818" ry="3.724" transform="translate(261.263 8.652)" fill="#e6e6e6"/>
        <path id="Path_22" data-name="Path 22" d="M133.868,156.875a.938.938,0,0,0,.953.929H298.355a.929.929,0,1,0,0-1.858H134.821a.938.938,0,0,0-.953.929Z" transform="translate(-37.452 -34.188)" fill="#3f3d56"/>
        <g id="Group_2" data-name="Group 2" transform="translate(110.111 179.998)">
          <path id="Path_23" data-name="Path 23" d="M294.567,249.056h-98.14a2.869,2.869,0,1,1,0-5.737h98.14a2.869,2.869,0,1,1,0,5.737Z" transform="translate(-159.456 -233.34)" fill="#1397cf"/>
          <path id="Path_24" data-name="Path 24" d="M294.567,302.056h-98.14a2.869,2.869,0,1,1,0-5.737h98.14a2.869,2.869,0,1,1,0,5.737Z" transform="translate(-159.456 -244.959)" fill="#1397cf"/>
          <path id="Path_25" data-name="Path 25" d="M294.567,355.056h-98.14a2.869,2.869,0,1,1,0-5.737h98.14a2.869,2.869,0,1,1,0,5.737Z" transform="translate(-159.456 -256.578)" fill="#1397cf"/>
          <ellipse id="Ellipse_6" data-name="Ellipse 6" cx="7.205" cy="7.027" rx="7.205" ry="7.027" transform="translate(0 5.465)" fill="#1397cf"/>
          <path id="Path_26" data-name="Path 26" d="M158.975,254.742V253.18a10.544,10.544,0,1,0,0-21.081v-1.562a12.106,12.106,0,1,1,0,24.2Z" transform="translate(-152.571 -230.538)" fill="#3f3d56"/>
          <ellipse id="Ellipse_7" data-name="Ellipse 7" cx="7.205" cy="7.027" rx="7.205" ry="7.027" transform="translate(0 46.846)" fill="#1397cf"/>
          <path id="Path_27" data-name="Path 27" d="M158.975,307.742V306.18a10.544,10.544,0,1,0,0-21.081v-1.562a12.106,12.106,0,1,1,0,24.2Z" transform="translate(-152.571 -242.157)" fill="#3f3d56"/>
          <ellipse id="Ellipse_8" data-name="Ellipse 8" cx="7.205" cy="7.027" rx="7.205" ry="7.027" transform="translate(0 88.227)" fill="#1397cf"/>
          <path id="Path_28" data-name="Path 28" d="M158.975,360.742V359.18a10.544,10.544,0,1,0,0-21.081v-1.562a12.106,12.106,0,1,1,0,24.2Z" transform="translate(-152.571 -253.776)" fill="#3f3d56"/>
        </g>
      </g>
      <path id="Path_29" data-name="Path 29" d="M382.652,203.7c4.444-1.1,9.483,3.53,11.256,10.344a17.166,17.166,0,0,1,.2,8.3l1.91,7.746.141-.007,15.064,34.626a27.41,27.41,0,0,1-1.335,24.877c-2.658,4.511-6.146,7.544-10.242,4.448-6.8-5.137-11.237-34.549-13.264-51.444L381.7,225.425a17.435,17.435,0,0,1-3.883-7.4C376.042,211.218,378.208,204.8,382.652,203.7Z" transform="translate(-75.249 -44.622)" fill="#ffb6b6"/>
      <path id="Path_30" data-name="Path 30" d="M401.189,228.053l-16.854,11.685,8.427,51.761,10.569,13.332,12.311-4.153,3.6-24.469-4.236-23.663Z" transform="translate(-76.674 -49.995)" fill="#1397cf"/>
    </g>
  </g>
</svg>
