<svg xmlns="http://www.w3.org/2000/svg" xmlns:xlink="http://www.w3.org/1999/xlink" width="700" height="500" viewBox="0 0 700 500">
  <defs>
    <clipPath id="clip-travel">
      <rect width="700" height="500"/>
    </clipPath>
  </defs>
  <g id="travel" clip-path="url(#clip-travel)">
    <g id="undraw_traveling_01tc" transform="translate(5 5)">
      <path id="Path_1" data-name="Path 1" d="M75.987,314.623a89.087,89.087,0,0,0-9.692,1.8c-14.667,3.567-14.971,15.462-14.843,18.189l-.1-.074a32.154,32.154,0,0,0-2.957,8.384l-.672-36.456a30.432,30.432,0,0,0,1.159-3.565c1.1,4.038,2.9,7.853,4.449,7.6,2.017-.329,2.9-7.418,2.52-12.456,2.565,3.946,6.882,8.166,8.511,6.865,1.3-1.04.53-5.32-.891-9.212,2.961,2.13,6.239,3.531,7.257,2.178,1.388-1.846-1.939-8.145-5.007-11.661,4.107.457,9.33-.324,9.673-2.557.282-1.839-2.827-4.161-6.154-5.654,3.342-1.052,6.467-2.886,6.364-4.7-.123-2.155-4.763-3.6-8.766-3.819,3.019-2.821,5.793-6.721,4.945-8.485-.78-1.622-4.408-.993-7.756.435,1.981-3.383,3.374-7.195,2.313-8.5-1.321-1.625-6.011,1.18-9.211,4.28.623-4.83.308-10.926-1.506-11.478-1.517-.461-3.668,3.085-5.142,6.948-.652-4.054-1.971-7.9-3.493-7.9-2.169,0-3.927,7.81-3.927,12.9,0,.288.006.558.017.817-.218-.3-.467-.616-.752-.946-3.056-3.545-8.972-7.48-10.483-5.621-1.061,1.3.332,5.116,2.313,8.5-3.348-1.428-6.976-2.056-7.756-.435-1.048,2.179,3.432,7.618,7.073,10.255-.219-.031-.449-.058-.694-.078-4.25-.346-10.894,1.217-11.042,3.8-.1,1.814,3.022,3.648,6.364,4.7-3.327,1.494-6.436,3.815-6.154,5.655.342,2.232,5.566,3.014,9.673,2.557-3.068,3.516-6.4,9.815-5.007,11.661,1.017,1.353,4.3-.047,7.257-2.178-1.421,3.892-2.193,8.172-.891,9.212,1.72,1.374,6.437-3.408,8.924-7.523-.253,5.034.755,11.951,2.756,12.224.837.114,1.724-.952,2.524-2.593l-2.267,39.186c-.53,4.564,2.859,7.542,3.162,9.421l.489,26.536a31.4,31.4,0,0,0-2.3-5.744l-.1.074c.129-2.727-.176-14.622-14.843-18.189a89.085,89.085,0,0,0-9.692-1.8c-3.519-.452-4.891,5.3-1.713,7.159,4.6,2.691,8.934,6.082,11.191,10.1,5.771,10.265,13.744,4.331,14.877,3.41a31.463,31.463,0,0,1,2.621,7.467l.26,14.092c-.064.333-.108.52-.111.534l.122.043.628,34.1,5.829-.056-2.085-34.86a39.808,39.808,0,0,0,0-14.94l-2.085-27.39h0c-.005-.021.118.719,0,0l-2.719-10.762a32.492,32.492,0,0,1,3.177-10.78c1.134.921,9.107,6.855,14.877-3.41,2.257-4.015,6.587-7.406,11.191-10.1,3.179-1.858,1.806-7.611-1.713-7.159ZM49.362,395.314l-.11-5.964A37.947,37.947,0,0,1,49.362,395.314Z" transform="translate(-1.033 30.931)" fill="#f2f2f2"/>
      <path id="Path_2" data-name="Path 2" d="M0,414.437a1.242,1.242,0,0,0,1.122,1.34H688.878a1.362,1.362,0,0,0,0-2.681H1.122A1.242,1.242,0,0,0,0,414.437Z" transform="translate(0 52.2)" fill="#3f3d56"/>
      <g id="Group_1" data-name="Group 1" transform="translate(67.502 149.065)">
        <ellipse id="Ellipse_1" data-name="Ellipse 1" cx="50.925" cy="60.824" rx="50.925" ry="60.824" transform="translate(298.946 197.113)" fill="#3f3d56"/>
        <ellipse id="Ellipse_2" data-name="Ellipse 2" cx="33.95" cy="40.549" rx="33.95" ry="40.549" transform="translate(315.921 217.387)" fill="#fff"/>
        <ellipse id="Ellipse_3" data-name="Ellipse 3" cx="19.332" cy="23.09" rx="19.332" ry="23.09" transform="translate(330.538 234.846)" fill="#3f3d56"/>
        <ellipse id="Ellipse_4" data-name="Ellipse 4" cx="50.925" cy="60.824" rx="50.925" ry="60.824" transform="translate(4.715 197.113)" fill="#3f3d56"/>
        <ellipse id="Ellipse_5" data-name="Ellipse 5" cx="33.95" cy="40.549" rx="33.95" ry="40.549" transform="translate(21.69 217.387)" fill="#fff"/>
        <path id="Path_3" data-name="Path 3" d="M491.115,361.352c-6.634-19.967-29.814-80.982-71.092-101.176a3.658,3.658,0,0,0-.991-.32L286.622,237.2c-2.182-.373-4.212,1.41-4.565,4.008l-2.322,17.119a5.59,5.59,0,0,0,.588,3.38c6.725,12.461,49.82,97.031-19.192,97.031-67.928,0-88.033-58.992-91.052-69.4a5.708,5.708,0,0,1-.034-3.034l20.921-79.127a5.61,5.61,0,0,0-.435-4l9.2-20.4,16.846,11.39,8.721.126,29.773,18.585,6.063-11.827-61.4-36.58s.1-8.474-19.7-15.232l-31.121-16.9-3.772,5.632,9.43,9.011.943,6.758,6.6,2.253,13.2,30.412-3.772,8.714,4.579,2.666-1.315-.357a3.919,3.919,0,0,0-4.6,2.778L149.4,257.159a4.706,4.706,0,0,1-1.514,2.127L140.472,265a4.73,4.73,0,0,0-1.546,2.217l-8.465,24.524a5.651,5.651,0,0,0-.271,2.34c-10.553,2.388-41.574,12.7-58.61,53.4l19.8,19.148s31.043-23.99,82.348.992c8.917,16.578,21.927,30.336,40.709,31.633,49.52,3.419,131.566,6.8,141-6.718,6.9-9.9,11.707-16.073,13.784-18.673a3.767,3.767,0,0,1,2.791-1.486l115.475-4.405c2.8-.107,4.662-3.5,3.627-6.615Z" transform="translate(-71.579 -132.342)" fill="#1397cf"/>
        <ellipse id="Ellipse_6" data-name="Ellipse 6" cx="15.089" cy="18.022" rx="15.089" ry="18.022" transform="translate(85.817 15.769)" fill="#3f3d56"/>
        <path id="Path_4" data-name="Path 4" d="M426.277,251.224c-.179,0-.358,0-.539-.012l-126.159-5.833c-5.583-.259-10.364-4.5-12.181-10.814l-1.727-6a18.5,18.5,0,0,1,1.68-14.382c2.476-4.246,6.38-6.75,10.711-6.869l130.345-3.579a12.608,12.608,0,0,1,10.557,5.669,18.275,18.275,0,0,1,2.945,13.369l-2.458,15.413c-1.219,7.646-6.714,13.04-13.174,13.04Z" transform="translate(-83.73 -123.322)" fill="#3f3d56"/>
        <ellipse id="Ellipse_7" data-name="Ellipse 7" cx="19.332" cy="23.09" rx="19.332" ry="23.09" transform="translate(36.307 234.846)" fill="#3f3d56"/>
        <path id="Path_5" data-name="Path 5" d="M487.467,307.574a8.379,8.379,0,0,1-7.427-5.244l-9.558-20.657a11.716,11.716,0,0,1,.231-10.288c1.659-3.171,4.524-4.961,7.641-4.756l17.339,1.061c3.229.2,6.13,2.623,7.391,6.182l5.067,14.3a11.862,11.862,0,0,1-.064,8.087,9.191,9.191,0,0,1-4.991,5.464l-12.848,5.291a7.261,7.261,0,0,1-2.779.559Z" transform="translate(-94.236 -115.376)" fill="#3f3d56"/>
        <path id="Path_6" data-name="Path 6" d="M255.537,432.364a3.405,3.405,0,0,1-.434-.029l-3.85-.512a3.963,3.963,0,0,1-2.988-2.315,5.52,5.52,0,0,1-.236-4.245l20.028-56.812.435.219-.435-.219a4.157,4.157,0,0,1,3.17-2.869,3.655,3.655,0,0,1,3.571,1.708,5.459,5.459,0,0,1,.688,4.52l-16.177,57.323A4.124,4.124,0,0,1,255.537,432.364Z" transform="translate(-81.61 -102.875)" fill="#3f3d56"/>
      </g>
      <path id="Path_7" data-name="Path 7" d="M364.448,76.613s-7.327-17.5-5.862-33.255L334.2,58.455l.939,28.66,29.308-10.5Z" transform="translate(-19.033 5.479)" fill="#ffb6b6"/>
      <ellipse id="Ellipse_8" data-name="Ellipse 8" cx="21.998" cy="26.274" rx="21.998" ry="26.274" transform="translate(308.284 19.469)" fill="#ffb6b6"/>
      <g id="Group_2" data-name="Group 2" transform="translate(306.124 396.504)">
        <path id="Path_8" data-name="Path 8" d="M372.86,413.866l-13.423,0-6.386-61.842,19.813,0Z" transform="translate(-326.231 -352.022)" fill="#ffb6b6"/>
        <path id="Path_9" data-name="Path 9" d="M325.249,408.634h0a16.2,16.2,0,0,0-.638,4.532h0c0,3.005,2.04,5.442,4.556,5.442h41.571c1.717,0,3.108-1.662,3.108-3.712v-2.067s2.057-6.213-2.177-13.871c0,0-5.262,6-13.125-3.4l-2.319-5.017L339.44,405.207l-9.3,1.368c-2.035.3-3.84-.046-4.887,2.06h0Z" transform="translate(-324.611 -347.154)" fill="#2f2e41"/>
      </g>
      <path id="Path_10" data-name="Path 10" d="M331.043,73.471l32.239-5.251,24.912,14,1.465,108.517s-61.282,8.751-70.94-2.625-2.331-102.391-2.331-102.391l14.654-12.252Z" transform="translate(-17.867 8.62)" fill="#e6e6e6"/>
      <path id="Path_11" data-name="Path 11" d="M343.313,50.94H337.4s-5.131-7.544-4.441-2.947-2.071,9.543-2.071,9.543l-4.142-1.649S318.463,14.286,343.313,12s30.373,20.8,30.373,20.8-1.381,11.543-4.142,8.245S351.6,36.1,351.6,36.1L343.314,50.94Z" transform="translate(-18.533 1.496)" fill="#2f2e41"/>
      <g id="Group_3" data-name="Group 3" transform="translate(256.059 279.35)">
        <path id="Path_12" data-name="Path 12" d="M313.9,304.569l-12.278,6.483-26.783-53.471,18.119-9.571Z" transform="translate(-271.712 -248.011)" fill="#ffb6b6"/>
        <path id="Path_13" data-name="Path 13" d="M271.531,321.19h0a15.964,15.964,0,0,0,.951,4.453h0c1.018,2.748,3.708,3.991,6.01,2.775l38.018-20.085a4.025,4.025,0,0,0,1.585-4.9l-.7-1.891a16.6,16.6,0,0,0-6.689-11.633s-2.782,8.026-13.154,3.236l-3.82-3.468L283.349,311.2l-8.045,5.746c-1.76,1.257-3.528,1.813-3.772,4.245h0Z" transform="translate(-271.522 -242.745)" fill="#2f2e41"/>
      </g>
      <path id="Path_14" data-name="Path 14" d="M381.619,167.671l4.4,15.877v54.575l-14.36,49.442,1.171,115.276H347.061l-2.908-117.585,2.3-58.076-17.585-8.751-46.19,3.4,21.6,63.422-23.77,18.936s-35.551-96.768-30.231-106.143,67.6-25.913,67.6-25.913,63.746-2.715,63.746-4.465Z" transform="translate(-14.223 21.187)" fill="#2f2e41"/>
      <g id="Group_4" data-name="Group 4" transform="translate(337.919 90.018)">
        <path id="Path_15" data-name="Path 15" d="M402.171,111.73l7.085,13.859s10.016,47.018,0,47.209-30.237-23.961-30.237-23.961l2.637-12.6,7.327,3.5-1.465-28h14.654Z" transform="translate(-359.505 -75.9)" fill="#a0616a"/>
        <path id="Path_16" data-name="Path 16" d="M380.261,80.523s23.447-4.934,25.645,13.4,3.421,35.689,3.421,35.689l-25.4,2.513Z" transform="translate(-359.576 -79.919)" fill="#e6e6e6"/>
        <path id="Path_42" data-name="Path 42" d="M7.878-.433C12-.768,14.8,5.271,14.132,13.057s-4.559,14.369-8.684,14.7-6.925-5.7-6.254-13.489S3.753-.1,7.878-.433Z" transform="matrix(0.58, -0.815, 0.815, 0.58, 0, 59.727)" fill="#a0616a"/>
      </g>
      <path id="Path_17" data-name="Path 17" d="M586.988,314.623a89.082,89.082,0,0,0-9.692,1.8c-14.667,3.567-14.971,15.462-14.843,18.189l-.1-.074a32.151,32.151,0,0,0-2.957,8.384l-.672-36.456a30.4,30.4,0,0,0,1.159-3.565c1.1,4.038,2.9,7.853,4.449,7.6,2.017-.329,2.9-7.418,2.521-12.456,2.565,3.946,6.882,8.166,8.511,6.865,1.3-1.04.53-5.32-.891-9.212,2.961,2.13,6.239,3.531,7.257,2.178,1.389-1.846-1.938-8.145-5.007-11.661,4.107.457,9.33-.324,9.673-2.557.282-1.839-2.827-4.161-6.154-5.654,3.342-1.052,6.467-2.886,6.364-4.7-.123-2.155-4.763-3.6-8.766-3.819,3.019-2.821,5.793-6.721,4.945-8.485-.78-1.622-4.408-.993-7.756.435,1.981-3.383,3.374-7.195,2.313-8.5-1.321-1.625-6.011,1.18-9.211,4.28.623-4.83.308-10.926-1.506-11.478-1.517-.461-3.668,3.085-5.142,6.948-.652-4.054-1.971-7.9-3.493-7.9-2.169,0-3.927,7.81-3.927,12.9,0,.288.006.558.017.817-.218-.3-.467-.616-.752-.946-3.056-3.545-8.972-7.48-10.483-5.621-1.061,1.3.332,5.116,2.313,8.5-3.348-1.428-6.976-2.056-7.756-.435-1.048,2.179,3.432,7.618,7.073,10.255-.219-.031-.449-.058-.694-.078-4.25-.346-10.894,1.217-11.042,3.8-.1,1.814,3.022,3.648,6.364,4.7-3.327,1.494-6.436,3.815-6.154,5.655.342,2.232,5.566,3.014,9.673,2.557-3.068,3.516-6.4,9.815-5.007,11.661,1.017,1.353,4.3-.047,7.257-2.178-1.421,3.892-2.193,8.172-.891,9.212,1.72,1.374,6.437-3.408,8.924-7.523-.253,5.034.755,11.951,2.756,12.224.837.114,1.724-.952,2.524-2.593l-2.267,39.186c-.53,4.564,2.859,7.542,3.162,9.421l.489,26.536a31.393,31.393,0,0,0-2.3-5.744l-.1.074c.129-2.727-.176-14.622-14.843-18.189a89.085,89.085,0,0,0-9.692-1.8c-3.519-.452-4.891,5.3-1.713,7.159,4.6,2.691,8.934,6.082,11.191,10.1,5.771,10.265,13.744,4.331,14.877,3.41a31.462,31.462,0,0,1,2.621,7.467l.26,14.092c-.064.333-.108.52-.111.534l.122.043.628,34.1,5.829-.056-2.085-34.86a39.811,39.811,0,0,0,0-14.94l-2.085-27.39h0c-.005-.021.118.719,0,0l-2.719-10.762a32.489,32.489,0,0,1,3.177-10.78c1.134.921,9.107,6.855,14.877-3.41,2.257-4.015,6.587-7.406,11.191-10.1,3.179-1.858,1.806-7.611-1.713-7.159Zm-26.625,80.691-.11-5.964A37.96,37.96,0,0,1,560.362,395.314Z" transform="translate(-30.136 30.931)" fill="#f2f2f2"/>
      <g id="Group_5" data-name="Group 5" transform="translate(480.537 410.228)">
        <path id="Path_18" data-name="Path 18" d="M518,414.742l10.131-2.615-3.624-47.921-14.953,3.86Z" transform="translate(-509.557 -364.206)" fill="#ffb6b6"/>
        <path id="Path_19" data-name="Path 19" d="M553.02,401.732h0a11.9,11.9,0,0,1,1.1,3.3h0c.41,2.268-.8,4.5-2.7,4.995l-31.377,8.1a2.436,2.436,0,0,1-2.853-2.2l-.282-1.56s-2.4-4.289-.25-10.893c0,0,4.79,3.5,9.443-5.119l1.065-4.238,14.671,7.8,7.209-.78c1.577-.171,2.892-.783,3.97.6Z" transform="translate(-509.911 -360.427)" fill="#2f2e41"/>
      </g>
      <g id="Group_6" data-name="Group 6" transform="translate(483.963 407.58)">
        <path id="Path_20" data-name="Path 20" d="M536.332,411.374l8.453-7.167-19.119-42.352L513.19,372.432Z" transform="translate(-513.19 -361.855)" fill="#ffb6b6"/>
        <path id="Path_21" data-name="Path 21" d="M566.312,383.848h0a9.958,9.958,0,0,1,2.1,2.513h0a4.746,4.746,0,0,1-.833,5.859L541.4,414.41a2.162,2.162,0,0,1-3.346-.679l-.773-1.3s-3.62-2.815-3.819-9.9c0,0,5.557.967,6.995-9.144l-.417-4.4,16.056.273,6.371-4.1c1.394-.9,2.4-2.079,3.848-1.312Z" transform="translate(-514.344 -359.107)" fill="#2f2e41"/>
      </g>
      <path id="Path_22" data-name="Path 22" d="M408.367,200.049s-15.763,25.6,15.762,54.373l64.364-24.565-22.987-57.264-20.36-13.335-36.779,40.791Z" transform="translate(-23.033 20.124)" fill="#2f2e41"/>
      <path id="Path_23" data-name="Path 23" d="M491.547,222.994,516.5,281.042l15.762,120.8-19.7,1.569-19.7-114.527-34.809-61.971,24.3-13.335" transform="translate(-26.087 26.988)" fill="#2f2e41"/>
      <path id="Path_24" data-name="Path 24" d="M425.319,228.445v18.234l44.661,58.586s0,43.929,17.076,64.324l19.7,36.084,17.076-10.982L498.877,289.576l-44.66-69.031-28.9,7.9Z" transform="translate(-24.223 27.868)" fill="#2f2e41"/>
      <path id="Path_25" data-name="Path 25" d="M456.527,68.119l-8.413,38.31-32.075-7.536s22.381-27.561,19.226-40.122l21.263,9.348Z" transform="translate(-23.694 7.426)" fill="#ffb6b6"/>
      <path id="Path_26" data-name="Path 26" d="M431.473,72.2l19.7,10.982s10.136,7.4,10.322,12.329-1.127,28.462-1.127,28.462,7.881,9.413,2.627,28.24l2.627,31.378-59.109,37.653,5.254-65.893-2.627-61.186L431.473,72.2Z" transform="translate(-23.152 9.124)" fill="#3f3d56"/>
      <g id="Group_7" data-name="Group 7" transform="translate(364.317 102.767)">
        <path id="uuid-890a8f78-7002-4fae-ad75-e03b10042fc6-1064" d="M413.484,235.152c2.307,6.322,6.908,10.025,10.276,8.27s4.228-8.3,1.919-14.624a17.4,17.4,0,0,0-4.053-6.558L411.569,195.6l-10.366,5.9,11.016,25.634a20.215,20.215,0,0,0,1.265,8.012Z" transform="translate(-387.166 -78.051)" fill="#ffb6b6"/>
        <path id="Path_27" data-name="Path 27" d="M423.1,95.686s-14.449-10.982-19.7,1.569-17.076,76.875-17.076,76.875l17.076,61.186,15.762-7.844-13.792-65.85L423.1,95.686Z" transform="translate(-386.319 -91.238)" fill="#3f3d56"/>
      </g>
      <g id="Group_8" data-name="Group 8" transform="translate(411.544 103.445)">
        <path id="uuid-bf6bc2d3-f134-421c-a442-5bb07c25212c-1065" d="M502.53,225.977c4.095,4.862,9.514,6.28,12.1,3.167s1.37-9.577-2.726-14.44a14.352,14.352,0,0,0-5.791-4.314L488.55,190.051l-7.816,10.05,18.148,18.984a17.986,17.986,0,0,0,3.647,6.892Z" transform="translate(-438.923 -79.429)" fill="#ffb6b6"/>
        <path id="Path_28" data-name="Path 28" d="M462.645,91.867s-25.191-1.23-26.2,12.75,16.207,76.36,16.207,76.36L487.4,230.346l12.234-14.228L466.5,160.968l-3.852-69.1Z" transform="translate(-436.398 -91.84)" fill="#3f3d56"/>
      </g>
      <g id="Group_9" data-name="Group 9" transform="translate(306.014 112.533)">
        <path id="Path_29" data-name="Path 29" d="M431.539,181.681,410.5,105.394c-17.01-17.9-35.464,25.2-85,.768l15.581,86.292c37.455-24.183,69.694-33.655,90.463-10.773Z" transform="translate(-324.551 -99.782)" fill="#fff"/>
        <path id="Path_30" data-name="Path 30" d="M341.019,193.706a.811.811,0,0,1-.394-.1,1.107,1.107,0,0,1-.528-.785l-15.581-86.292a1.257,1.257,0,0,1,.318-1.1.824.824,0,0,1,.964-.177c28.142,13.882,46.307,5.617,59.568-.418,10.083-4.588,18.044-8.209,25.7-.154a1.161,1.161,0,0,1,.273.493l21.042,76.287a1.243,1.243,0,0,1-.386,1.3.829.829,0,0,1-1.149-.119c-18.261-20.118-46.661-16.645-89.376,10.936a.824.824,0,0,1-.449.135Zm-14.285-85.58,14.942,82.752c40.986-26.216,69.057-30.256,87.856-12.541l-19.906-72.17c-6.744-6.9-13.823-3.676-23.589.767-13.3,6.05-31.411,14.293-59.3,1.192Z" transform="translate(-324.495 -99.908)" fill="#3f3d56"/>
      </g>
      <g id="Group_10" data-name="Group 10" transform="translate(270.048 91.144)">
        <path id="Path_31" data-name="Path 31" d="M297.892,112.73l-7.085,13.859s-10.016,47.018,0,47.209,30.237-23.961,30.237-23.961l-2.637-12.6-7.327,3.5,1.465-28H297.892Z" transform="translate(-286.356 -76.9)" fill="#ffb6b6"/>
        <path id="Path_32" data-name="Path 32" d="M320.143,81.523S296.7,76.59,294.5,94.919s-3.421,35.689-3.421,35.689l25.4,2.513Z" transform="translate(-286.625 -80.919)" fill="#e6e6e6"/>
        <path id="Path_43" data-name="Path 43" d="M14.272-.806C22.057-1.477,28.1,1.323,27.761,5.448s-6.919,8.013-14.7,8.684S-.768,12-.433,7.878,6.486-.135,14.272-.806Z" transform="matrix(0.815, -0.58, 0.58, 0.815, 24.21, 64.729)" fill="#ffb6b6"/>
      </g>
      <ellipse id="Ellipse_11" data-name="Ellipse 11" cx="7.957" cy="9.504" rx="7.957" ry="9.504" transform="translate(544.317 456.242)" fill="#3f3d56"/>
      <ellipse id="Ellipse_12" data-name="Ellipse 12" cx="7.957" cy="9.504" rx="7.957" ry="9.504" transform="translate(554.927 470.991)" fill="#3f3d56"/>
      <ellipse id="Ellipse_13" data-name="Ellipse 13" cx="7.957" cy="9.504" rx="7.957" ry="9.504" transform="translate(634.503 470.991)" fill="#3f3d56"/>
      <path id="Path_33" data-name="Path 33" d="M609.238,313.487V210.258c0-11.557,8.092-14.412,17.768-14.412,4.742,0,7.048-.658,10.374,3.379s7.03,5.714,6.953,11.377L642.939,311.9l-33.7,1.591ZM627.949,202.6c-8.636,0-16.825-2.661-16.825,7.654V311.144l29.959-1.415,1.363-99.164c.07-5.054-6.814-4.357-9.782-7.961s-.483,0-4.715,0Z" transform="translate(-34.697 24.742)" fill="#3f3d56"/>
      <path id="Path_34" data-name="Path 34" d="M584.051,300.142,582.84,412.925a10.06,10.06,0,0,0,.843,4.168l8.921,20.126a7.142,7.142,0,0,0,6.736,4.606l78.334-4.128c4.01-.211,7.115-4.268,6.932-9.057L679.7,299.858c-.177-4.631-3.371-8.277-7.252-8.277H591.31c-3.973,0-7.208,3.815-7.259,8.56Z" transform="translate(-33.194 36.845)" fill="#e6e6e6"/>
      <path id="Path_35" data-name="Path 35" d="M616.748,348.2l-1.883-.112.7-16.693c.376-8.991,6.573-16.2,14.108-16.407l33.359-.926c6.738-.141,12.314,5.964,12.688,14l.71,15.263-1.883.125-.71-15.263c-.317-6.82-5.079-12.042-10.76-11.877l-33.359.926c-6.553.181-11.942,6.449-12.269,14.266l-.7,16.693Z" transform="translate(-35.018 39.685)" fill="#3f3d56"/>
      <path id="Path_36" data-name="Path 36" d="M615.339,423.485l-1.876-.229,4.068-47.379c.752-8.761,6.874-15.665,14.239-16.058l32.536-1.742a13.567,13.567,0,0,1,10.973,4.879,19.511,19.511,0,0,1,4.687,12.816l.364,41.25-1.886.024-.364-41.25a17.052,17.052,0,0,0-4.1-11.2,11.875,11.875,0,0,0-9.592-4.266l-32.536,1.742c-6.439.344-11.79,6.379-12.448,14.037l-4.068,47.379Z" transform="translate(-34.938 45.245)" fill="#3f3d56"/>
      <path id="Path_37" data-name="Path 37" d="M599.874,427.171l-1.886-.029,1.193-108.266c.081-7.4,5-13.373,11.2-13.591l64.124-2.256.055,2.253-64.124,2.256c-5.183.182-9.3,5.175-9.364,11.367l-1.193,108.266Z" transform="translate(-34.057 38.291)" fill="#3f3d56"/>
      <path id="Path_38" data-name="Path 38" d="M599.359,411.5h-1.311V312.9c0-3.12-2.122-5.666-4.744-5.666h-7.328v-2.253H593.3c3.461,0,6.309,3.188,6.6,7.22.019.225.028.462.028.7v46.688Z" transform="translate(-33.373 38.537)" fill="#3f3d56"/>
      <g id="Group_11" data-name="Group 11" transform="translate(391.316 0)">
        <path id="Path_39" data-name="Path 39" d="M470.847,51.819c0,14.435-9.8,26.138-21.884,26.138s-21.884-11.7-21.884-26.138,9.8-26.138,21.884-26.138S470.847,37.383,470.847,51.819Z" transform="translate(-415.639 3.245)" fill="#ffb6b6"/>
        <path id="Path_40" data-name="Path 40" d="M446.526,19.923c.633.441,1.481-.226,1.684-1.068a5.159,5.159,0,0,0-.268-2.565l-1.181-4.177c-.837-2.962-1.726-6.028-3.54-8.283-2.737-3.4-7.088-4.269-11-3.642a16.231,16.231,0,0,0-12.329,9.437c-2.338,5.379-1.343,12.884,2.883,16.239-6.022,8.244-8.121,17.431-7.79,28.365s10.307,21,16.813,28.7c1.453-1.052,2.773-5.981,1.975-7.772s.346-3.865-.644-5.515-1.817.977-.817-.663c.631-1.035-1.832-3.416-.894-4.035,4.538-3,6.047-9.752,8.9-14.926,3.438-6.24,9.322-10.466,15.548-11.167a12.844,12.844,0,0,1,9.864,2.692A12.009,12.009,0,0,1,469.7,52.21a10.84,10.84,0,0,0,2.212-7.9,9.867,9.867,0,0,0-3.862-6.933,17.771,17.771,0,0,0-2.751-14.59c-2.932-3.861-14.826-3.2-19.107-2.187l.331-.678Z" transform="translate(-414.948 0)" fill="#2f2e41"/>
        <path id="Path_41" data-name="Path 41" d="M446.641,34.626c-5.67.731-9.763,6.6-13.22,12.014-1.992,3.122-4.079,6.57-4.029,10.5.051,3.969,2.272,7.373,3.334,11.134,1.735,6.147.044,13.462-4.087,17.674,4.082.925,8.495-2.73,9.2-7.621.82-5.693-2.793-11.188-2.365-16.942.377-5.07,3.722-8.971,6.565-12.762s5.514-8.82,4.206-13.664l.4-.328Z" transform="translate(-415.728 4.375)" fill="#2f2e41"/>
      </g>
    </g>
  </g>
</svg>
