<svg xmlns="http://www.w3.org/2000/svg" xmlns:xlink="http://www.w3.org/1999/xlink" width="700" height="500" viewBox="0 0 700 500">
  <defs>
    <clipPath id="clip-wedding">
      <rect width="700" height="500"/>
    </clipPath>
  </defs>
  <g id="wedding" clip-path="url(#clip-wedding)">
    <g id="undraw_wedding_re_66hj" transform="translate(88 5)">
      <g id="Group_1" data-name="Group 1" transform="translate(234.675 36.066)">
        <path id="uuid-c35e0a51-e7e9-4b68-ade6-2a226cad2c46-834" d="M238.838,48.951c-4.272-4.765-5.449-11-2.629-13.921s8.568-1.43,12.841,3.337a16.842,16.842,0,0,1,3.755,6.7L270.668,65.5l-7.531,7.577L244.929,53.232a15.352,15.352,0,0,1-6.091-4.282Z" transform="translate(-234.675 -33.534)" fill="#ffb6b6"/>
        <path id="Path_1" data-name="Path 1" d="M258.157,50.8l-3.392-5.278-10.337,8.458L250.05,57Z" transform="translate(-234.675 -32.629)" fill="#1397cf"/>
        <path id="Path_2" data-name="Path 2" d="M357.308,118.512l-5.239-29.695-51.732-5.263-43.079-35.7L246.91,55.7l35.68,54.117Z" transform="translate(-234.675 -32.453)" fill="#2f2e41"/>
      </g>
      <path id="Path_3" data-name="Path 3" d="M323.263,68.691c-3.356-1.6-7.967,1.709-10.3,7.382a16.541,16.541,0,0,0-1.3,7.2l-2.733,6.866-.047.006-12.549,23.392-17.96-28.221a10.763,10.763,0,0,0-12.434-4.709h0c-7.625,2.478-10.448,12.505-5.382,19.117l29.662,38.712a6.445,6.445,0,0,0,11.183-1.5L318.9,92.768l2.141-5.039a15.484,15.484,0,0,0,4.075-5.876c2.332-5.674,1.5-11.565-1.855-13.161Z" transform="translate(0 5.156)" fill="#ffb6b6"/>
      <path id="Path_4" data-name="Path 4" d="M524.67,434.573a1.234,1.234,0,0,1-1.19,1.28H1.19a1.283,1.283,0,0,1,0-2.56H523.48a1.234,1.234,0,0,1,1.19,1.28Z" transform="translate(0 32.716)" fill="#3f3d56"/>
      <path id="Path_5" data-name="Path 5" d="M324.487,72.845l.523-23.107,12.5-7.4,10.286,17.2Z" transform="translate(0 3.197)" fill="#ffb6b6"/>
      <path id="Path_6" data-name="Path 6" d="M348.773,56.054,320.8,69.708l-1.32,17.855L353.33,67.958Z" transform="translate(0 4.232)" fill="#1397cf"/>
      <path id="Path_7" data-name="Path 7" d="M363.285,135.5l-.01.043a200.392,200.392,0,0,1-4.74,22.424l.84,20.843,1.77,43.58-11.01,1.043-17.35,1.635-1.68.161-11.5,1.086-17.71,1.667-5.21-81.222s6.45-17.81,12.61-34.771c4.16-11.443,8.19-22.51,10-27.447.18-.484.34-.9.47-1.258,2.11-5.7,12.62-12.777,20.76-17.552,5.53-3.259,9.98-5.464,9.98-5.464l4.44,8.8.34.678c6.66,8.733,9.39,20.886,10.02,33.384.05.9.08,1.807.11,2.71a167.62,167.62,0,0,1-2.13,29.662Z" transform="translate(0 4.551)" fill="#2f2e41"/>
      <g id="Group_4" data-name="Group 4" transform="translate(292.889 213.282)">
        <g id="Group_2" data-name="Group 2" transform="translate(0 198.184)">
          <path id="Path_8" data-name="Path 8" d="M333.351,431.039l-11.639-.117-5.119-48.343,17.179.173Z" transform="translate(-292.889 -382.579)" fill="#ffb6b6"/>
          <path id="Path_9" data-name="Path 9" d="M293.474,427.975h0a11.479,11.479,0,0,0-.584,3.533h0A4.115,4.115,0,0,0,296.8,435.8l36.047.361a2.8,2.8,0,0,0,2.72-2.872l.014-1.614s1.825-4.833-1.794-10.849c0,0-4.6,4.636-11.358-2.765l-1.977-3.938-14.653,11.3-8.076.987c-1.767.216-3.329-.07-4.251,1.566h0Z" transform="translate(-292.889 -380.198)" fill="#2f2e41"/>
        </g>
        <g id="Group_3" data-name="Group 3" transform="translate(63.716 187.381)">
          <path id="Path_10" data-name="Path 10" d="M392.934,416.381l-10.57,5.244-23.838-41.351,15.6-7.74Z" transform="translate(-356.605 -372.534)" fill="#ffb6b6"/>
          <path id="Path_11" data-name="Path 11" d="M356.611,431.527h0a11.39,11.39,0,0,0,.876,3.463h0a3.84,3.84,0,0,0,5.243,2.078l32.732-16.243a2.994,2.994,0,0,0,1.318-3.846l-.629-1.466s-.271-5.209-5.934-8.984c0,0-2.319,6.307-11.367,2.721L375.5,406.6l-8.756,16.954-6.909,4.6c-1.512,1.007-3.038,1.467-3.221,3.37h0Z" transform="translate(-356.605 -369.967)" fill="#2f2e41"/>
        </g>
        <path id="Path_12" data-name="Path 12" d="M304.949,208.3l1.195,108.67,9.918,113.46h18.39l14.972-148.369s21.64-35.88,9.017-67.881V198.309L304.949,208.3Z" transform="translate(-292.889 -198.309)" fill="#2f2e41"/>
        <path id="Path_13" data-name="Path 13" d="M335.9,303.23l51.394,97.943-14.426,15.515-40.575-63.032Z" transform="translate(-292.889 -190.386)" fill="#2f2e41"/>
      </g>
      <path id="Path_14" data-name="Path 14" d="M281.39,76.452l-20.833-7.7s-17.578,22.407-8.464,49.714l2.6,32.91S218.89,183.583,216.285,224.9s-87.24,150.544-87.24,150.544-31.25,2.1-33.2,14.7,11.068,28.708,8.464,42.712,18.645,54.616,63.685,51.815,184.364-30.109,186.317-61.618-69.662-266.077-69.662-266.077l10.417-31.509s7.161-12.6-3.255-25.908S281.39,76.453,281.39,76.453Z" transform="translate(0 5.191)" fill="#e6e6e6"/>
      <path id="Path_15" data-name="Path 15" d="M259.553,71.088l.527-1.4,3.731-13.3,18.881,7-1.3,14Z" transform="translate(0 4.257)" fill="#ffb6b6"/>
      <ellipse id="Ellipse_1" data-name="Ellipse 1" cx="22.899" cy="24.628" rx="22.899" ry="24.628" transform="translate(307.434 11.735)" fill="#ffb6b6"/>
      <path id="Path_16" data-name="Path 16" d="M326.99,46.394,317.357,36.33l2.666-7.827s-19.037,7.6-14.314-8.409S334.533,5.7,339.525,9.606s21.167,12.95,17.016,25.632a107.738,107.738,0,0,1-12.023,24.093l-6.227-3.887s-.2-14.605-3.274-13.894-8.027,4.844-8.027,4.844Z" transform="translate(0 0.528)" fill="#2f2e41"/>
      <g id="Group_5" data-name="Group 5" transform="translate(249.754 0)">
        <ellipse id="Ellipse_2" data-name="Ellipse 2" cx="21.132" cy="22.727" rx="21.132" ry="22.727" transform="translate(11.048 25.152)" fill="#ffb6b6"/>
        <path id="Path_17" data-name="Path 17" d="M280.247,17.324c.611.384,1.431-.2,1.627-.929a4.07,4.07,0,0,0-.259-2.23l-1.14-3.632c-.809-2.576-1.667-5.242-3.418-7.2C274.413.372,270.212-.381,266.431.164c-4.856.7-9.648,3.529-11.906,8.205s-1.3,11.2,2.783,14.12c-5.815,7.168-7.842,15.157-7.522,24.664s9.953,18.256,16.235,24.953c1.4-.915,2.678-5.2,1.907-6.758s.334-3.361-.622-4.8-1.755.849-.789-.577c.609-.9-1.769-2.97-.863-3.509,4.382-2.605,5.839-8.48,8.592-12.978a20.381,20.381,0,0,1,15.014-9.71,13.412,13.412,0,0,1,9.525,2.34,9.909,9.909,0,0,1,3.843,9.277,8.769,8.769,0,0,0,2.136-6.867,8.42,8.42,0,0,0-3.729-6.029,14.222,14.222,0,0,0-2.657-12.687c-2.831-3.357-14.317-2.786-18.45-1.9" transform="translate(-249.754 0)" fill="#2f2e41"/>
        <path id="Path_18" data-name="Path 18" d="M279.605,31.531c-5.475.636-9.428,5.736-12.766,10.446-1.924,2.715-3.939,5.713-3.891,9.126.049,3.451,2.194,6.411,3.219,9.681a15.316,15.316,0,0,1-3.947,15.368c3.942.8,8.2-2.374,8.883-6.627.792-4.95-2.7-9.728-2.284-14.732.364-4.408,3.594-7.8,6.34-11.1s5.325-7.669,4.061-11.881" transform="translate(-249.754 2.381)" fill="#2f2e41"/>
      </g>
      <path id="Path_19" data-name="Path 19" d="M486.5,331.479a103.9,103.9,0,0,0-10.277,1.718c-15.552,3.406-15.875,14.764-15.739,17.368l-.106-.071a28.737,28.737,0,0,0-3.135,8.005l-.712-34.81a27.05,27.05,0,0,0,1.229-3.4c1.164,3.856,3.073,7.5,4.718,7.257,2.139-.314,3.072-7.083,2.673-11.894,2.72,3.768,7.3,7.8,9.025,6.555,1.38-.993.562-5.08-.945-8.8,3.139,2.034,6.616,3.371,7.7,2.079,1.472-1.763-2.056-7.777-5.309-11.134,4.355.437,9.894-.309,10.257-2.441.3-1.756-3-3.973-6.526-5.4,3.544-1,6.858-2.756,6.748-4.488-.131-2.058-5.051-3.437-9.3-3.647,3.2-2.694,6.143-6.418,5.244-8.1-.827-1.548-4.674-.949-8.224.415,2.1-3.23,3.578-6.87,2.453-8.115-1.4-1.552-6.374,1.126-9.767,4.087.661-4.612.327-10.433-1.6-10.96-1.609-.441-3.889,2.946-5.453,6.634-.691-3.871-2.09-7.546-3.7-7.546-2.3,0-4.164,7.458-4.164,12.316,0,.275.007.533.018.78-.231-.288-.5-.589-.8-.9-3.241-3.385-9.514-7.142-11.116-5.368-1.125,1.246.352,4.885,2.453,8.115-3.55-1.364-7.4-1.963-8.224-.415-1.111,2.08,3.639,7.274,7.5,9.792-.232-.03-.476-.055-.735-.074-4.507-.331-11.552,1.162-11.708,3.63-.11,1.732,3.2,3.483,6.748,4.488-3.528,1.426-6.825,3.643-6.526,5.4.363,2.132,5.9,2.878,10.257,2.441-3.253,3.357-6.781,9.371-5.309,11.134,1.079,1.292,4.556-.045,7.7-2.079-1.507,3.716-2.325,7.8-.945,8.8,1.824,1.312,6.825-3.254,9.462-7.184-.269,4.807.8,11.411,2.923,11.672.887.109,1.828-.909,2.676-2.476l-2.4,37.417c-.562,4.357,3.032,7.2,3.353,9l.518,25.338A28.319,28.319,0,0,0,455,391.121l-.106.071c.136-2.6-.187-13.962-15.739-17.368a103.9,103.9,0,0,0-10.277-1.718c-3.731-.432-5.187,5.061-1.816,6.836,4.881,2.57,9.473,5.807,11.867,9.641,6.119,9.8,14.574,4.136,15.776,3.256a28.11,28.11,0,0,1,2.779,7.13l.275,13.456c-.067.318-.114.5-.118.51l.129.041.666,32.565,6.181-.053L462.4,412.2a34.3,34.3,0,0,0,0-14.266l-2.211-26.154h0c-.005-.02.125.687,0,0l-2.884-10.277a28.746,28.746,0,0,1,3.369-10.294c1.2.88,9.657,6.546,15.776-3.256,2.393-3.834,6.985-7.071,11.867-9.641,3.371-1.774,1.915-7.267-1.816-6.836Zm-28.233,77.048-.117-5.7A32.643,32.643,0,0,1,458.271,408.527Z" transform="translate(0 19.993)" fill="#f2f2f2"/>
      <path id="Path_20" data-name="Path 20" d="M77.5,331.479A103.9,103.9,0,0,0,67.227,333.2c-15.552,3.406-15.875,14.764-15.739,17.368l-.106-.071a28.737,28.737,0,0,0-3.135,8.005l-.712-34.81a27.051,27.051,0,0,0,1.229-3.4c1.164,3.856,3.073,7.5,4.718,7.257,2.139-.314,3.072-7.083,2.673-11.894,2.72,3.768,7.3,7.8,9.025,6.555,1.38-.993.562-5.08-.945-8.8,3.139,2.034,6.616,3.371,7.7,2.079,1.472-1.763-2.056-7.777-5.309-11.134,4.355.437,9.894-.309,10.257-2.441.3-1.756-3-3.973-6.525-5.4,3.544-1,6.858-2.756,6.748-4.488-.131-2.058-5.051-3.437-9.3-3.647,3.2-2.694,6.143-6.418,5.244-8.1-.827-1.548-4.674-.949-8.224.415,2.1-3.23,3.577-6.87,2.453-8.115-1.4-1.552-6.374,1.126-9.767,4.087.661-4.612.327-10.433-1.6-10.96-1.609-.441-3.889,2.946-5.453,6.634-.691-3.871-2.09-7.546-3.7-7.546-2.3,0-4.164,7.458-4.164,12.316,0,.275.007.533.018.78-.231-.288-.5-.589-.8-.9-3.241-3.385-9.514-7.142-11.116-5.368-1.125,1.246.352,4.885,2.453,8.115-3.55-1.364-7.4-1.963-8.224-.415-1.111,2.08,3.639,7.274,7.5,9.792-.232-.03-.476-.055-.735-.074-4.507-.331-11.552,1.162-11.708,3.63-.11,1.732,3.2,3.483,6.748,4.488-3.528,1.426-6.825,3.643-6.525,5.4.363,2.132,5.9,2.878,10.257,2.441-3.253,3.357-6.781,9.371-5.309,11.134,1.079,1.292,4.556-.045,7.7-2.079-1.507,3.716-2.325,7.8-.945,8.8,1.824,1.312,6.825-3.254,9.463-7.184-.269,4.807.8,11.411,2.923,11.672.887.109,1.828-.909,2.676-2.476l-2.4,37.417c-.562,4.357,3.032,7.2,3.353,9l.518,25.338A28.319,28.319,0,0,0,46,391.121l-.106.071c.136-2.6-.187-13.962-15.739-17.368a103.9,103.9,0,0,0-10.277-1.718c-3.731-.432-5.187,5.061-1.816,6.836,4.881,2.57,9.473,5.807,11.867,9.641,6.119,9.8,14.574,4.136,15.776,3.256a28.108,28.108,0,0,1,2.779,7.13l.275,13.456c-.067.318-.114.5-.118.51l.129.041.666,32.565,6.181-.053L53.4,412.2a34.3,34.3,0,0,0,0-14.266l-2.211-26.154h0c-.006-.02.125.687,0,0l-2.884-10.277a28.746,28.746,0,0,1,3.369-10.294c1.2.88,9.657,6.546,15.776-3.256,2.393-3.834,6.985-7.071,11.867-9.641,3.371-1.774,1.915-7.267-1.816-6.836ZM49.271,408.527l-.117-5.7A32.643,32.643,0,0,1,49.271,408.527Z" transform="translate(0 19.993)" fill="#f2f2f2"/>
      <path id="Path_21" data-name="Path 21" d="M254.6,147.184l30.614-.106c1.93-.007,1.934-3.233,0-3.227l-30.614.106c-1.93.007-1.934,3.233,0,3.227Z" transform="translate(0 10.862)" fill="#1397cf"/>
      <path id="Path_22" data-name="Path 22" d="M338.131,216.689a17.448,17.448,0,0,0-6.458-5.332L330,209.238l.083-.087-32.459-57.609L280.036,95.281c-2.035-6.51-8.679-9.912-14.661-7.508s-8.925,9.663-6.489,16.014l20.556,53.589,41.79,61.025,1.011,1.347a19.1,19.1,0,0,0,3.661,7.817c4.391,5.708,10.686,7.9,14.062,4.893s2.554-10.065-1.836-15.77Z" transform="translate(0 6.569)" fill="#ffb6b6"/>
      <g id="Group_7" data-name="Group 7" transform="translate(331.928 64.819)">
        <g id="Group_6" data-name="Group 6" transform="translate(0 122.995)">
          <path id="uuid-5494c572-d1ef-490f-a18f-c726509d3762-835" d="M350.045,222.286c-1.387,8.292-6.49,14.243-11.4,13.292s-7.758-8.442-6.369-16.737a21.941,21.941,0,0,1,3.63-9.161l6.291-35.053,12.882,2.711-5.47,35a22.624,22.624,0,0,1,.431,9.95Z" transform="translate(-331.928 -174.628)" fill="#ffb6b6"/>
          <path id="Path_23" data-name="Path 23" d="M338.287,197.1l-2.535,7.7,15.818,5.168-1.29-8.491Z" transform="translate(-331.928 -172.931)" fill="#1397cf"/>
        </g>
        <path id="Path_24" data-name="Path 24" d="M365.415,105.837l-.75,14.3-1.38,15.358-.01.043-3.9,43.268-2.95,32.8-.56,6.141-4.86-1.172-.68-.161-4.95-1.194-8.54-2.076-.4-.086-1.71-.419,4.35-76.823.68-33.029.6-28.974.17-8.088c5.53-3.259,9.98-5.464,9.98-5.464l4.44,8.8.34.678c6.66,8.733,9.39,20.886,10.02,33.384.05.9.08,1.807.11,2.71Z" transform="translate(-331.928 -60.268)" fill="#2f2e41"/>
      </g>
    </g>
  </g>
</svg>
