<svg xmlns="http://www.w3.org/2000/svg" xmlns:xlink="http://www.w3.org/1999/xlink" width="700" height="500" viewBox="0 0 700 500">
  <defs>
    <clipPath id="clip-work">
      <rect width="700" height="500"/>
    </clipPath>
  </defs>
  <g id="work" clip-path="url(#clip-work)">
    <g id="undraw_working_re_ddwy" transform="translate(5 5)">
      <path id="Path_1" data-name="Path 1" d="M328.25,437.16V299.454c0-4.1,2.671-7.415,5.965-7.415s5.965,3.32,5.965,7.415V437.16c0,4.1-2.671,7.415-5.965,7.415s-5.965-3.32-5.965-7.415Z" transform="translate(-214.834 -214.364)" fill="#f0f0f0"/>
      <path id="Path_2" data-name="Path 2" d="M311.5,437.16V299.454c0-4.1,2.671-7.415,5.965-7.415s5.965,3.32,5.965,7.415V437.16c0,4.1-2.671,7.415-5.965,7.415s-5.965-3.32-5.965-7.415Z" transform="translate(-212.358 -214.364)" fill="#f0f0f0"/>
      <path id="Path_3" data-name="Path 3" d="M294.75,437.16V299.454c0-4.1,2.671-7.415,5.965-7.415s5.965,3.32,5.965,7.415V437.16c0,4.1-2.671,7.415-5.965,7.415s-5.965-3.32-5.965-7.415Z" transform="translate(-209.882 -214.364)" fill="#f0f0f0"/>
      <path id="Path_4" data-name="Path 4" d="M925.5,640.268a17.221,17.221,0,0,1-7.048-1.521l-.349-.156.161-.959c-4.05-10.17-2.634-24.1,3.624-35.557,5.69-10.414,14.342-17.985,21.975-24.664a5,5,0,0,1,6.645-.158,8.23,8.23,0,0,1,2.6,7.6l-2.73,17.408c-1.97,12.558-4.313,24.444-11.263,31.856A18.919,18.919,0,0,1,925.5,640.268Z" transform="translate(-301.704 -197.527)" fill="#e6e6e6"/>
      <path id="Path_5" data-name="Path 5" d="M945.8,666.813c-5.372-.039-10.362-3.453-13.263-9.073l-.2-.383.472-.517a24.557,24.557,0,0,1,14.677-18.834c7.01-2.884,14.748-2.412,21.57-2h0a4.8,4.8,0,0,1,4.072,3.755,6.631,6.631,0,0,1-1.24,6.111l-7.676,8.613c-5.578,6.257-11.142,11.908-17.853,12.312Q946.076,666.814,945.8,666.813Z" transform="translate(-304.121 -193.992)" fill="#e6e6e6"/>
      <path id="Path_6" data-name="Path 6" d="M919.87,677.579c-1.134-10.493-2.3-21.12-1.5-31.725.706-9.418,2.967-18.617,7.571-26.16a38.885,38.885,0,0,1,8.787-10.117c.879-.7,1.687,1.065.813,1.766a40.662,40.662,0,0,0-12.878,19.745c-2.8,9.062-3.254,18.94-2.771,28.567.292,5.821.911,11.6,1.536,17.381a1.122,1.122,0,0,1-.562,1.258.672.672,0,0,1-.614-.1,1.006,1.006,0,0,1-.376-.613Z" transform="translate(-302.018 -195.55)" fill="#f2f2f2"/>
      <path id="Path_7" data-name="Path 7" d="M916.4,681.23c5.456-12.268,11.785-25.9,23.093-30.26A20.586,20.586,0,0,1,949.2,649.7c1.031.113.774,2.133-.256,2.02a20.262,20.262,0,0,0-15.5,5.211c-4.371,3.78-7.774,9.036-10.654,14.61-1.764,3.414-3.345,6.973-4.925,10.527-.505,1.136-1.982.316-1.471-.833Z" transform="translate(-301.75 -193.17)" fill="#f2f2f2"/>
      <path id="Path_8" data-name="Path 8" d="M899.266,691.625l5.509.157L871.557,471.2l-5.509,1.29,8.674,57.222H846.776l8.674-57.222-5.509-1.29L817,691.781l5.232-.157L839.55,577.379h42.4ZM840.835,568.9l4.657-30.719h30.515l4.657,30.719Z" transform="translate(-287.074 -203.744)" fill="#cacaca"/>
      <path id="Path_9" data-name="Path 9" d="M631.25,436.628v-72.44c0-2.151,2.676-3.9,5.965-3.9s5.965,1.75,5.965,3.9v72.439c0,2.151-2.676,3.9-5.965,3.9S631.25,438.779,631.25,436.628Z" transform="translate(-259.619 -210.318)" fill="#f0f0f0"/>
      <path id="Path_10" data-name="Path 10" d="M614.5,436.628v-72.44c0-2.151,2.676-3.9,5.965-3.9s5.965,1.75,5.965,3.9v72.439c0,2.151-2.676,3.9-5.965,3.9S614.5,438.779,614.5,436.628Z" transform="translate(-257.143 -210.318)" fill="#f0f0f0"/>
      <path id="Path_11" data-name="Path 11" d="M597.75,436.628v-72.44c0-2.151,2.676-3.9,5.965-3.9s5.965,1.75,5.965,3.9v72.439c0,2.151-2.676,3.9-5.965,3.9S597.75,438.779,597.75,436.628Z" transform="translate(-254.667 -210.318)" fill="#f0f0f0"/>
      <path id="Path_12" data-name="Path 12" d="M717.134,387.506a1.663,1.663,0,0,0-.559-1.089l-44.973-36.9a3.725,3.725,0,0,0,1.614-1.758h0a4.854,4.854,0,0,0-1.248-5.788l-3.69-2.648c-1.631-1.163-3.711-.47-4.656,1.551a4.932,4.932,0,0,0-.432,1.74L630.727,315.97c-2.207-6.643-6.656-11.741-12.161-13.936V290.289H606.635v11.746C598.513,305.263,593,314.646,593,325.245v3.178h11.931c0,5.265,3.434,9.534,7.67,9.534s7.67-4.268,7.67-9.534H632.2v-3.178a30.287,30.287,0,0,0-.345-4.54L713.981,388.1l-34.114,51.555c-.265,0-.528,0-.8,0-2.722,0-5.359.08-7.872.218a5.137,5.137,0,0,0,.195-1.635c-.1-2.334-1.7-4.126-3.581-4.011l-4.255.276c-1.878.128-3.319,2.117-3.227,4.452a4.923,4.923,0,0,0,.462,1.877c-7.524.994-12.4,2.364-12.4,3.061,0,1.142,13.092.055,29.479,0a1.392,1.392,0,0,0,.981,1.033,1.154,1.154,0,0,0,1.206-.556l.316-.477c16.339.057,29.376,1.137,29.376,0,0-1.075-11.592-3.748-26.611-4.177l33.718-50.956a1.876,1.876,0,0,0,.276-1.246Z" transform="translate(-253.965 -214.468)" fill="#ccc"/>
      <path id="Path_13" data-name="Path 13" d="M672.026,694.313h-105c-4.418-.007-8-4.457-8-9.949V470.16c0-4.907-3.2-8.884-7.152-8.889H306.252c-3.948.006-7.147,3.982-7.152,8.889v214.2c0,5.492-3.585,9.943-8,9.95H287.5c-4.418-.007-8-4.457-8-9.949V458.623c.012-13.157,8.59-23.819,19.174-23.834H660.857c10.585.015,19.162,10.677,19.174,23.834v225.74c-.005,5.493-3.586,9.944-8,9.95Z" transform="translate(-207.628 -205.902)" fill="#e4e4e4"/>
      <rect id="Rectangle_1" data-name="Rectangle 1" width="120.159" height="6.356" transform="translate(351.818 284.498)" fill="#fff"/>
      <rect id="Rectangle_2" data-name="Rectangle 2" width="120.159" height="6.356" transform="translate(351.818 370.3)" fill="#fff"/>
      <path id="Path_14" data-name="Path 14" d="M483.751,435.106,480.3,433.3l-2.369-21.519H446.379l-2.568,21.431-3.09,1.92a1,1,0,0,0-.386,1.025.787.787,0,0,0,.714.7h42.416a.794.794,0,0,0,.719-.731A.975.975,0,0,0,483.751,435.106Z" transform="translate(-231.398 -207.266)" fill="#e6e6e6"/>
      <path id="Path_15" data-name="Path 15" d="M529.66,416.217H374.686c-1.693,0-3.063-1.712-3.063-3.816V385.236h161.1V412.4c0,2.1-1.371,3.812-3.064,3.817Z" transform="translate(-221.244 -208.84)" fill="#ccc"/>
      <path id="Path_16" data-name="Path 16" d="M532.862,404.118h-161.4V287.889c0-2.539,1.658-4.6,3.7-4.6h154c2.043,0,3.7,2.061,3.7,4.6Z" transform="translate(-221.22 -214.883)" fill="#3f3d56"/>
      <path id="Path_17" data-name="Path 17" d="M524.4,395.21H382.274c-1.575,0-2.852-1.589-2.853-3.547V294.8c0-1.958,1.278-3.545,2.853-3.547H524.4c1.575,0,2.852,1.589,2.854,3.547v96.864c0,1.958-1.278,3.544-2.853,3.546Z" transform="translate(-222.397 -214.411)" fill="#fff"/>
      <path id="Path_18" data-name="Path 18" d="M735.087,301.757a8.233,8.233,0,0,1,7.61,2.861,13.166,13.166,0,0,1,3.121,9.089l31.161,14.909L762.86,341.153l-27.426-16.08c-4.763-.592-8.417-5.518-8.505-11.467S730.345,302.567,735.087,301.757Z" transform="translate(-273.761 -213.795)" fill="#ffb8b8"/>
      <path id="Path_19" data-name="Path 19" d="M856.673,294.841l5.272,11.913a36.436,36.436,0,0,1-9.342,19.29c-8.071,8.461-50.272,39.974-50.272,39.974l-53.277-33.246,9.32-15.395L800.2,334.8h0c15.516-18.212,34.24-31.667,54.68-39.293Z" transform="translate(-277.031 -214.198)" fill="#e4e4e4"/>
      <ellipse id="Ellipse_1" data-name="Ellipse 1" cx="41.579" cy="16.841" rx="41.579" ry="16.841" transform="translate(528.261 244.098)" fill="#cacaca"/>
      <path id="Path_20" data-name="Path 20" d="M557.3,450.381l-11.041-3.793,6.518-54.741,16.3,5.6Z" transform="translate(-80.741 23.229)" fill="#9e616a"/>
      <path id="Path_21" data-name="Path 21" d="M748.037,680.739l-35.6-12.233.124-.56c2.116-9.512,10.034-15.092,17.687-12.463h0l21.744,7.471Z" transform="translate(-271.619 -192.858)" fill="#2f2e41"/>
      <path id="Path_22" data-name="Path 22" d="M519.835,450.56l-10.479-5.752,12.861-52.977,15.466,8.488Z" transform="translate(-75.286 23.228)" fill="#9e616a"/>
      <path id="Path_23" data-name="Path 23" d="M708.828,680.953l-33.789-18.546.189-.531c3.207-9.028,11.695-13.115,18.958-9.129h0l20.637,11.327Z" transform="translate(-266.091 -193.072)" fill="#2f2e41"/>
      <path id="Path_24" data-name="Path 24" d="M876.644,428.193s5.554,21.39-28.524,48.441l-43.889,54.361-45.6,135.594L731.555,651.5l5.31-17.618,3.563-11.822,1.823-6.048,1.954-6.483,28.984-96.168,24.347-52.989.706-28.753,5.989-20.268,43.448-19.163Z" transform="translate(-274.445 -208.427)" fill="#2f2e41"/>
      <path id="Path_25" data-name="Path 25" d="M850.644,429.193s5.554,21.39-28.524,48.441l-43.889,54.361-45.6,135.594L705.555,652.5l5.31-17.618,3.563-11.822,1.823-6.048,1.954-6.483,28.984-96.168,8.152-17.742a327.349,327.349,0,0,1,38.9-64.42l7.992-10.269.852-15.889,18.594-12.852Z" transform="translate(-270.602 -208.368)" fill="#2f2e41"/>
      <path id="Path_26" data-name="Path 26" d="M840.837,330.563l13.635-36.016,23.795-4.035s18.58,29.424,13.7,70.769c-1.829,15.5-3.32,30.94-3.409,44.49-.024,3.605,2.514,5.215,2.557,8.474.042,3.2-4.809,8.417-3.409,10.593a21.262,21.262,0,0,1,3.409,10.593c-1.689,5-52.8-22.069-74.281-18.053Z" transform="translate(-287.05 -214.455)" fill="#e4e4e4"/>
      <path id="Path_60" data-name="Path 60" d="M27.112-.615C41.132-1.883,51.47,7.335,50.2,19.975S36.538,43.891,22.518,45.16-1.84,37.21-.571,24.57,13.092.654,27.112-.615Z" transform="matrix(0.511, -0.86, 0.86, 0.511, 537.258, 54.211)" fill="#ffb8b8"/>
      <path id="Path_27" data-name="Path 27" d="M873.629,253.363c-.041.7-.1,1.636-.164,2.691a16.548,16.548,0,0,0,1.874,8.135c1.2,2.531-.233,17.818-.233,17.818,35.254-30.546,7.4-61.234-3.5-58.506.228-3.885-8.659-2.346-8.659-2.346-3.386-6.555-10.807,2.146-10.807,2.146l1.432-2.995c-5.762,1.822-11.456,23.956-11.456,23.956C844.072,253.812,873.857,249.479,873.629,253.363Z" transform="translate(-290.786 -218.711)" fill="#2f2e41"/>
      <path id="Path_28" data-name="Path 28" d="M709.851,347.4a269.551,269.551,0,0,0,28.4-65.878c.8-2.919-.211-6.131-2.4-7.594L694.4,246.314a4.146,4.146,0,0,0-4.394-.222,6.138,6.138,0,0,0-2.9,4.228c-4.825,22.772-13.895,43.812-26.475,61.419a7.434,7.434,0,0,0-1.225,5.346,6.308,6.308,0,0,0,2.582,4.425l41.455,27.611c2.19,1.451,4.9.721,6.414-1.726Z" transform="translate(-263.768 -217.119)" fill="#ccc"/>
      <path id="Path_29" data-name="Path 29" d="M707.636,344.508a1.343,1.343,0,0,1-1.913.491l-41.456-27.611a1.849,1.849,0,0,1-.77-1.315,2.267,2.267,0,0,1,.383-1.654c12.951-18.125,22.288-39.786,27.255-63.229a1.877,1.877,0,0,1,.894-1.312,1.219,1.219,0,0,1,1.31.067l41.454,27.61a2.118,2.118,0,0,1,.731,2.254A264.721,264.721,0,0,1,707.636,344.508Z" transform="translate(-264.382 -216.873)" fill="#fff"/>
      <path id="Path_30" data-name="Path 30" d="M698.063,275.03l28.593,20.832c2.845,2.073,5.421-3.419,2.581-5.488l-28.593-20.832c-2.845-2.073-5.421,3.419-2.581,5.488Z" transform="translate(-269.312 -215.725)" fill="#1397cf"/>
      <path id="Path_31" data-name="Path 31" d="M692.063,286.03l28.593,20.832c2.845,2.073,5.421-3.419,2.581-5.488l-28.593-20.832c-2.845-2.073-5.421,3.419-2.581,5.488Z" transform="translate(-268.425 -215.073)" fill="#1397cf"/>
      <path id="Path_32" data-name="Path 32" d="M685.063,298.03l28.593,20.832c2.845,2.073,5.421-3.419,2.581-5.488l-28.593-20.832c-2.845-2.073-5.421,3.419-2.581,5.488Z" transform="translate(-267.391 -214.362)" fill="#1397cf"/>
      <path id="Path_33" data-name="Path 33" d="M678.063,308.03l28.593,20.832c2.845,2.073,5.421-3.419,2.581-5.488l-28.593-20.832c-2.845-2.073-5.421,3.419-2.581,5.488Z" transform="translate(-266.356 -213.769)" fill="#1397cf"/>
      <path id="Path_34" data-name="Path 34" d="M829.959,423.533l10.734,30.005a5.742,5.742,0,0,1-.272,4.5,3.575,3.575,0,0,1-3.869,2.139,2.987,2.987,0,0,1-.74-.245,4.358,4.358,0,0,1-2.128-2.515l-10.734-30c-.861-2.405.011-5.223,1.946-6.292s4.2.013,5.062,2.419Z" transform="translate(-287.905 -206.737)" fill="#1397cf"/>
      <path id="Path_35" data-name="Path 35" d="M841.6,449.416l2.151,6.056,1.1,8.585a2.771,2.771,0,0,1-1.214,2.782,1.838,1.838,0,0,1-2.475-.743l-4.45-6.883-2.119-5.924Z" transform="translate(-289.674 -205.035)" fill="#3f3d56"/>
      <path id="Path_36" data-name="Path 36" d="M820.2,415.663l1.538,12.012a2.648,2.648,0,0,0,1.067,1.875,1.73,1.73,0,0,0,1.846.09l1.525-.843,2.943,8.227a.8.8,0,0,0,1.125.537,1.174,1.174,0,0,0,.432-1.4l-2.943-8.227,1.525-.843a2.881,2.881,0,0,0,1.064-3.424,2.786,2.786,0,0,0-.287-.581l-6.146-9.466a1.839,1.839,0,0,0-2.476-.742,2.773,2.773,0,0,0-1.215,2.782Z" transform="translate(-287.544 -207.214)" fill="#3f3d56"/>
      <path id="Path_37" data-name="Path 37" d="M825.406,438.256a11.93,11.93,0,0,1,4.579-8.078,7.791,7.791,0,0,1,7.923-.822L859.1,397.283l5.131,20.6-20.91,27.3c-1.951,5.433-6.862,8.194-11.433,6.426s-7.355-7.5-6.482-13.354Z" transform="translate(-288.293 -208.125)" fill="#ffb8b8"/>
      <path id="Path_38" data-name="Path 38" d="M855.12,441.992l-9.333-16.757,26.5-43.923-13.653-36.365.994-43.256,11.282-2.59.14.087a33.454,33.454,0,0,1,12.015,17.4c2.814,8.746,9.1,41.577,12.592,60.369,1.4,7.4-.4,15.179-4.739,20.539Z" transform="translate(-291.329 -213.946)" fill="#e4e4e4"/>
      <path id="Path_39" data-name="Path 39" d="M535.828,358.319a19.372,19.372,0,0,0-.077,2.453l-47.785,43.212-13.128-7.222-11.357,23.2,22.24,15.592c3.691,2.587,8.312,1.836,11.343-1.844l48.094-58.391c5.04,1.592,10.347-.859,13.329-6.156a18.721,18.721,0,0,0,.084-17.674c-2.931-5.34-8.214-7.869-13.269-6.352s-8.828,6.765-9.474,13.179Z" transform="translate(-234.822 -211.242)" fill="#ffb6b6"/>
      <path id="Path_40" data-name="Path 40" d="M481.728,403.561l-13.935,28.863a5.508,5.508,0,0,1-3.683,3.138,4.634,4.634,0,0,1-4.317-1.416l-20.864-21.3c-7.039-5.286-9.3-16.664-5.046-25.415s13.407-11.558,20.446-6.272l24.858,12.816a6.309,6.309,0,0,1,3.037,4.069,8.1,8.1,0,0,1-.495,5.516Z" transform="translate(-230.129 -209.239)" fill="#1397cf"/>
      <rect id="Rectangle_3" data-name="Rectangle 3" width="27.315" height="56.264" transform="translate(219.207 445.197) rotate(180)" fill="#cacaca"/>
      <path id="Path_61" data-name="Path 61" d="M6.63.337l7.283-.7L4.967,84.925l-7.283.7Z" transform="translate(210.332 430.424) rotate(-55.841)" fill="#cacaca"/>
      <path id="Path_62" data-name="Path 62" d="M.337,6.63,85.63-2.315l-.7,7.283L-.368,13.912Z" transform="translate(123.704 468.706) rotate(-34.159)" fill="#cacaca"/>
      <ellipse id="Ellipse_3" data-name="Ellipse 3" cx="8.585" cy="10.671" rx="8.585" ry="10.671" transform="translate(273.056 466.539)" fill="#cacaca"/>
      <ellipse id="Ellipse_4" data-name="Ellipse 4" cx="8.585" cy="10.671" rx="8.585" ry="10.671" transform="translate(196.574 466.539)" fill="#cacaca"/>
      <ellipse id="Ellipse_5" data-name="Ellipse 5" cx="8.585" cy="10.671" rx="8.585" ry="10.671" transform="translate(120.873 466.539)" fill="#cacaca"/>
      <rect id="Rectangle_6" data-name="Rectangle 6" width="6.243" height="55.294" transform="translate(202.037 421.916)" fill="#cacaca"/>
      <rect id="Rectangle_7" data-name="Rectangle 7" width="11.706" height="74.696" transform="translate(211.403 414.155) rotate(180)" fill="#cacaca"/>
      <path id="Path_41" data-name="Path 41" d="M396.984,551.819V534.358c.006-6.694,4.37-12.118,9.755-12.126h52.289c5.385.008,9.749,5.432,9.755,12.126v17.461c-.006,6.694-4.37,12.118-9.755,12.126H406.739C401.354,563.937,396.99,558.513,396.984,551.819Z" transform="translate(-224.993 -200.718)" fill="#3f3d56"/>
      <path id="Path_42" data-name="Path 42" d="M312.641,446.738H327.1l6.881-46.62H312.639Z" transform="translate(-46.21 23.719)" fill="#ffb8b8"/>
      <path id="Path_43" data-name="Path 43" d="M503.476,680.593l46.628,0v-.733c0-12.459-8.125-22.559-18.149-22.559h-28.48Z" transform="translate(-240.733 -192.711)" fill="#2f2e41"/>
      <path id="Path_44" data-name="Path 44" d="M515.4,644.828l28.829-80.357c4.991-14.045.464-30.5-10.4-37.8l-62.531-41.68-28.534-3.017L416.437,479l-.19.4c-.243.51-5.9,12.66-2.077,25.983,2.9,10.106,10.449,18,22.433,23.462,27.972,12.749,60.285,23.645,72.879,27.737a4.368,4.368,0,0,1,2.608,2.58,6.265,6.265,0,0,1,.231,4.1l-26.783,74.8a8.006,8.006,0,0,0,.5,5.795,5.294,5.294,0,0,0,4,3.045l20.013,1.811a4.319,4.319,0,0,0,.507.03A5.39,5.39,0,0,0,515.4,644.828Z" transform="translate(-227.338 -203.281)" fill="#2f2e41"/>
      <path id="Path_45" data-name="Path 45" d="M301.568,446.738h14.46l6.881-46.62H301.566Z" transform="translate(-44.573 23.719)" fill="#ffb8b8"/>
      <path id="Path_46" data-name="Path 46" d="M492.4,680.593l46.628,0v-.733c0-12.459-8.125-22.559-18.148-22.559H492.4Z" transform="translate(-239.096 -192.711)" fill="#2f2e41"/>
      <path id="Path_47" data-name="Path 47" d="M503.962,648.959,532.792,568.6c4.991-14.045.464-30.5-10.4-37.8l-62.531-41.68L431.324,486.1l-20.616-2.223,0-.352c-.243.51-5.9,12.66-2.077,25.983,2.9,10.106,4.552,18,16.536,23.462,27.972,12.749,60.285,23.645,72.879,27.737a4.368,4.368,0,0,1,2.608,2.58,6.265,6.265,0,0,1,.231,4.1l-26.783,74.8a8.006,8.006,0,0,0,.5,5.795,5.294,5.294,0,0,0,4,3.045l20.013,1.811a4.333,4.333,0,0,0,.507.03,5.389,5.389,0,0,0,4.843-3.91Z" transform="translate(-226.519 -203.013)" fill="#2f2e41"/>
      <path id="Path_63" data-name="Path 63" d="M36.833-.443c19.68-.875,34.924,11.555,34.049,27.763S53.344,57.377,33.664,58.252-1.26,46.7-.385,30.489,17.153.432,36.833-.443Z" transform="translate(194.899 119.097) rotate(-76.623)" fill="#ffb8b8"/>
      <path id="Path_48" data-name="Path 48" d="M574.851,441.4a269.546,269.546,0,0,0,28.4-65.878c.8-2.919-.211-6.131-2.4-7.594L559.4,340.314a4.146,4.146,0,0,0-4.394-.222,6.138,6.138,0,0,0-2.9,4.228c-4.825,22.772-13.895,43.812-26.476,61.419a7.434,7.434,0,0,0-1.225,5.346,6.308,6.308,0,0,0,2.583,4.425l41.455,27.61C570.627,444.573,573.34,443.843,574.851,441.4Z" transform="translate(-243.814 -211.547)" fill="#ccc"/>
      <path id="Path_49" data-name="Path 49" d="M572.636,438.508a1.343,1.343,0,0,1-1.913.491l-41.456-27.611a1.849,1.849,0,0,1-.77-1.315,2.266,2.266,0,0,1,.383-1.654c12.951-18.125,22.288-39.786,27.256-63.229a1.877,1.877,0,0,1,.894-1.312,1.219,1.219,0,0,1,1.31.067l41.454,27.61a2.118,2.118,0,0,1,.731,2.254,264.72,264.72,0,0,1-27.89,64.7Z" transform="translate(-244.428 -211.301)" fill="#fff"/>
      <path id="Path_50" data-name="Path 50" d="M563.063,369.03l28.593,20.832c2.845,2.073,5.421-3.419,2.581-5.488l-28.593-20.832c-2.845-2.073-5.421,3.419-2.581,5.488Z" transform="translate(-249.358 -210.153)" fill="#ccc"/>
      <path id="Path_51" data-name="Path 51" d="M557.063,380.03l28.593,20.832c2.845,2.073,5.421-3.419,2.581-5.488l-28.593-20.832c-2.845-2.073-5.421,3.419-2.581,5.488Z" transform="translate(-248.471 -209.501)" fill="#ccc"/>
      <path id="Path_52" data-name="Path 52" d="M552.384,390.9l26,19.189c2.587,1.909,5.354-2.038,2.771-3.944l-26-19.189c-2.587-1.909-5.354,2.038-2.771,3.944Z" transform="translate(-247.809 -208.768)" fill="#ccc"/>
      <path id="Path_53" data-name="Path 53" d="M543.063,402.03l28.593,20.832c2.845,2.073,5.421-3.419,2.581-5.488l-28.593-20.832c-2.845-2.073-5.421,3.419-2.581,5.488Z" transform="translate(-246.402 -208.197)" fill="#ccc"/>
      <path id="Path_54" data-name="Path 54" d="M476.054,495.685l-57.33-.426-.016-.507c-1.093-35.755,2.422-68.144,10.748-99.016.118-1.155.245-2.391.37-3.6,1.422-13.812,2.551-24.778,13.118-28.862a10.8,10.8,0,0,1-1.493-5.015,10.592,10.592,0,0,1,1.828-6.673,6.654,6.654,0,0,1,4.9-2.973l20.406-.864a4.212,4.212,0,0,1,2.963,1.249c3.209,2.963,4.214,8.383,2.372,12.793-.24.595-.332.866-.367.984.725,4.724,2.878,10.336,5.156,16.275,3.261,8.5,6.958,18.14,7.908,28.451a64.462,64.462,0,0,1-.632,16.683,40.766,40.766,0,0,0-.291,8.954c.186,4.43.362,8.612-1.652,12.656-.513,1.1-1.1,2.265-1.79,3.561l-2.834,8.419Z" transform="translate(-228.175 -211.062)" fill="#1397cf"/>
      <path id="Path_55" data-name="Path 55" d="M385.079,543.792V398.182c.009-9.879,6.45-17.886,14.4-17.9h3.982c7.948.011,14.389,8.017,14.4,17.9V543.792c-.009,9.88-6.45,17.886-14.4,17.9h-3.982c-7.948-.011-14.389-8.017-14.4-17.9Z" transform="translate(-223.233 -209.133)" fill="#3f3d56"/>
      <path id="Path_56" data-name="Path 56" d="M550.285,411.312a16.229,16.229,0,0,0-1.107,2.033l-58.936,5.349-8.083-14.747L462.66,416.2l12.268,27.835c2.036,4.619,6.28,7.013,10.418,5.876l65.644-18.038c3.605,4.659,9.153,6.059,13.935,3.517s7.8-8.5,7.577-14.956-3.635-12.073-8.573-14.1S553.558,406.289,550.285,411.312Z" transform="translate(-234.7 -207.73)" fill="#ffb6b6"/>
      <path id="Path_57" data-name="Path 57" d="M485.43,420.8l-24.092,15.371a4.427,4.427,0,0,1-4.461.248,6.276,6.276,0,0,1-3.065-4.036l-8.676-31.78c-3.7-9.083-.806-20.178,6.483-24.824-10.68,6.814,11.563-12.541,20.052,8.016l15.67,27.2a8,8,0,0,1,.851,5.448,6.613,6.613,0,0,1-2.763,4.36Z" transform="translate(-231.872 -209.505)" fill="#1397cf"/>
      <path id="Path_58" data-name="Path 58" d="M447.6,342.518c-1.744,0-3.668-1.045-5.837-3.161-13.12-12.805-17.746-34.924-11.3-54.05,1.577-4.683,4.527-11.048,9.623-14.778,3.663-2.68,7.967-3.648,11.713-4.346,3.243-.6,6.527-1.085,9.76-1.428,3.863-.411,8.326-.688,12.4,1.234,2.982,1.409,5.52,3.9,7.975,6.3.856.838,1.74,1.706,2.626,2.509a18.1,18.1,0,0,0,7.267,4.387,4.168,4.168,0,0,1,2.664,2.426,6.137,6.137,0,0,1,.284,4.162c-.383,1.334-.728,2.538-.029,3.841a2.638,2.638,0,0,0,2.306,1.461,1.373,1.373,0,0,1,1.209.784,2.189,2.189,0,0,1,.158,1.684l-.112.359a1.884,1.884,0,0,1,1.449,1.172,2.8,2.8,0,0,1-.35,2.932,18.208,18.208,0,0,1-9.3,6.053,15.038,15.038,0,0,1-7.243-.021l-.384-.093.047-.53c-9.667-4.286-18.394,2.987-23.368,11.3l-.719-.564a3.135,3.135,0,0,0,.091-2.009,3.032,3.032,0,0,0-1.24-1.823,2.8,2.8,0,0,0-3.532.876,6.9,6.9,0,0,0-1.321,4.54,19.48,19.48,0,0,0,1.066,5.091c.234.772.476,1.57.672,2.375a23.763,23.763,0,0,1-.824,13.808c-.753,1.971-2.115,4.483-4.326,5.262A4.236,4.236,0,0,1,447.6,342.518Z" transform="translate(-229.516 -215.999)" fill="#2f2e41"/>
      <path id="Path_59" data-name="Path 59" d="M884.15,681.43H196.177a1.291,1.291,0,0,1,0-2.523H884.148a1.291,1.291,0,0,1,0,2.523Z" transform="translate(-195.162 -191.43)" fill="#cacaca"/>
    </g>
  </g>
</svg>
