<svg xmlns="http://www.w3.org/2000/svg" xmlns:xlink="http://www.w3.org/1999/xlink" width="540" height="630" viewBox="0 0 540 630">
  <defs>
    <clipPath id="clip-auth">
      <rect width="540" height="630"/>
    </clipPath>
  </defs>
  <g id="auth" clip-path="url(#clip-auth)">
    <g id="undraw_authentication_re_svpt" transform="translate(25 23)">
      <path id="Path_1" data-name="Path 1" d="M803.045,348.491H343.823a15.616,15.616,0,0,1-15.433-15.757V148.956A15.616,15.616,0,0,1,343.824,133.2H803.045a15.616,15.616,0,0,1,15.434,15.757V332.734a15.616,15.616,0,0,1-15.433,15.757Z" transform="translate(-328.39 -133.199)" fill="#f2f2f2"/>
      <path id="Path_2" data-name="Path 2" d="M697,339.294H417.776c-43.324-.05-78.433-35.9-78.482-80.129V224.239c.049-44.233,35.158-80.079,78.482-80.129H731.212c43.324.05,78.433,35.9,78.482,80.129C809.624,287.752,759.211,339.222,697,339.294Z" transform="translate(-329.448 -134.051)" fill="#fff"/>
      <path id="Path_3" data-name="Path 3" d="M635.411,200.487H450.839a4.065,4.065,0,0,1,0-8.128H635.411a4.065,4.065,0,0,1,0,8.128Z" transform="translate(-339.886 -137.819)" fill="#e6e6e6"/>
      <path id="Path_4" data-name="Path 4" d="M728.844,247.518H450.839a4.065,4.065,0,0,1,0-8.128H728.844a4.065,4.065,0,0,1,0,8.128Z" transform="translate(-339.886 -141.492)" fill="#e6e6e6"/>
      <path id="Path_5" data-name="Path 5" d="M728.844,294.549H450.839a4.065,4.065,0,0,1,0-8.128H728.844a4.065,4.065,0,0,1,0,8.128Z" transform="translate(-339.886 -145.165)" fill="#e6e6e6"/>
      <path id="Path_6" data-name="Path 6" d="M728.844,294.549H450.839a4.065,4.065,0,0,1,0-8.128H728.844a4.065,4.065,0,0,1,0,8.128Z" transform="translate(-339.886 -145.165)" fill="#e6e6e6"/>
      <path id="Path_7" data-name="Path 7" d="M634.1,252.859a8.437,8.437,0,0,0,3.168,6.309,8.078,8.078,0,0,0,6.771,1.571l15.179,25.424,6.46-14-15.4-22a8.247,8.247,0,0,0-9.257-5.99A8.383,8.383,0,0,0,634.1,252.859Z" transform="translate(-358.054 -141.857)" fill="#ffb6b6"/>
      <path id="Path_8" data-name="Path 8" d="M749.544,327.365l-52.311-28.97-16.5-15.805s-7.173-1.961-4.533-4.342-4.883-4.678-4.883-4.678l-8.858-8.485-12.587,9.093,3.643,5.765s-.251,9.544,4.87,7.708,3.841,6.079,3.841,6.079L692.792,342.1Z" transform="translate(-359.585 -143.499)" fill="#1397cf"/>
      <ellipse id="Ellipse_1" data-name="Ellipse 1" cx="51.095" cy="52.167" rx="51.095" ry="52.167" transform="translate(184.448 52.238)" fill="#1397cf"/>
      <path id="Path_9" data-name="Path 9" d="M430.359,608.057H419.735l-5.056-41.838h15.68Z" transform="translate(-40.238 -44.217)" fill="#ffb6b6"/>
      <path id="Path_10" data-name="Path 10" d="M762.645,762.877h-7.619l-1.36-7.344-3.483,7.344H729.977a4.554,4.554,0,0,1-4.337-3.258,4.689,4.689,0,0,1,1.756-5.2l16.137-11.378V735.62l16.973,1.034Z" transform="translate(-366.917 -180.244)" fill="#2f2e41"/>
      <path id="Path_11" data-name="Path 11" d="M336.257,608.057H325.633l-5.056-41.838h15.68Z" transform="translate(-31.107 -44.217)" fill="#ffb6b6"/>
      <path id="Path_12" data-name="Path 12" d="M668.543,762.877h-7.619l-1.36-7.344-3.483,7.344H635.875a4.554,4.554,0,0,1-4.337-3.258,4.689,4.689,0,0,1,1.756-5.2l16.137-11.378V735.62l16.973,1.034Z" transform="translate(-357.786 -180.244)" fill="#2f2e41"/>
      <rect id="Rectangle_1" data-name="Rectangle 1" width="53.622" height="62.328" transform="translate(325.226 247.423)" fill="#ffb6b6"/>
      <path id="Path_13" data-name="Path 13" d="M682.135,434.927l-9.075,10.95-15.675,33.691L617.89,575.51l-8.353,20.29,6.745,35.869s1.092,25.27,1.092,29.407c0,8.423,6.9,13.09,6.9,13.09l5.062,26.918,49.085-2.106s-1.713-29.671-11.993-37.156-15.006-46.491-15.006-46.491l-5.586-17.306,54.448-65.9.351,23.034.17,11.149s-7.973,72.514,1.321,86.587.19,12.417.19,12.417l.443,29.029,58.16.421L748.087,611.19s-6.515-5.252-3.029-10.532-3.378-11.746-3.378-11.746l3.079-65.246s-3.409-11.27.6-12.735.526-11.156.526-11.156l.6-12.629-11.962-39.165Z" transform="translate(-355.671 -156.762)" fill="#2f2e41"/>
      <path id="Path_14" data-name="Path 14" d="M741.669,393.519l5.775-17.688,4.125-5.9,1.65-16.845c0-45.482-9.937-37.909-9.937-37.909l-5.738-16-26.4-.842-16.912,16.424-14.024,5.054-5.492,29.134,10.029,31.088,2.475,16.845c-4.721,8.9-4.322,4.689-.412,11.371l46.61,13.055c16.5,5.9,16.5-9.265,13.191-13.055S741.669,393.519,741.669,393.519Z" transform="translate(-361.996 -146.096)" fill="#1397cf"/>
      <ellipse id="Ellipse_2" data-name="Ellipse 2" cx="24.473" cy="24.986" rx="24.473" ry="24.986" transform="translate(334.466 96.62)" fill="#ffb6b6"/>
      <path id="Path_15" data-name="Path 15" d="M699.506,307.834" transform="translate(-364.401 -146.837)" fill="#2f2e41"/>
      <path id="Path_16" data-name="Path 16" d="M755.308,295.894a3.126,3.126,0,0,1,.223,2.657,3.033,3.033,0,0,1-1.9,1.832c-3.283,1.112-5.3,4.354-7.664,6.949s-6.138,4.734-9.141,2.973-3.2-6.224-5.709-8.65c-2.442-2.358-6.5-2.072-9.372-.278l-.086.054a2.974,2.974,0,0,1-3.328-.015,3.117,3.117,0,0,1-1.3-3.128q1.509-8.193,3.016-16.384a55.2,55.2,0,0,1-11.294,17.435,12.427,12.427,0,0,1-4.9,3.521c-1.716.556-3.382-1.255-5.049-.927,4.141-3.7,18.067-27.4,15.575-43.242L705.6,259.7a8.3,8.3,0,0,0-1.964-3.782,9.879,9.879,0,0,1-.5,4.068c-1.221.143-2.45.278-3.671.421-1.7.194-3.547.362-5.008-.547-2.434-1.516-2.508-5.1-1.815-7.934,2.029-8.229,8.184-15.11,15.716-18.715s9.759,4.413,17.7,1.853c15.674-5.054,27.686,3.588,31.918,19.625C761.52,268.142,758.938,282.418,755.308,295.894Z" transform="translate(-363.698 -140.936)" fill="#2f2e41"/>
      <path id="Path_17" data-name="Path 17" d="M833.07,763.016H803.1l-.129-.239c-.383-.709-.753-1.461-1.1-2.234-3.087-6.747-4.391-14.463-5.543-21.271l-.867-5.132a3.194,3.194,0,0,1,1.42-3.23,3.051,3.051,0,0,1,3.465.13q6.831,5.075,13.668,10.14c1.726,1.282,3.7,2.766,5.584,4.369.182-.9.373-1.809.563-2.7a3.135,3.135,0,0,1,2.505-2.45,3.081,3.081,0,0,1,3.166,1.449l3.506,5.751c2.557,4.2,4.814,8.339,4.354,12.8a.711.711,0,0,1-.012.162,10.267,10.267,0,0,1-.509,2.149Z" transform="translate(-373.708 -179.839)" fill="#f0f0f0"/>
      <path id="Path_18" data-name="Path 18" d="M839.709,766.307l-284.758.283a1.1,1.1,0,0,1,0-2.2l284.758-.283a1.1,1.1,0,0,1,0,2.2Z" transform="translate(-350.27 -182.469)" fill="#cacaca"/>
      <path id="Path_19" data-name="Path 19" d="M580.534,318.924l-31.322-27.006a5.486,5.486,0,0,1-.629-7.612l5.765-6.97a5.221,5.221,0,0,1,7.455-.642L593.125,303.7a5.486,5.486,0,0,1,.629,7.612l-5.765,6.97a5.221,5.221,0,0,1-7.455.642Z" transform="translate(-349.636 -144.306)" fill="#3f3d56"/>
      <path id="Path_20" data-name="Path 20" d="M551.162,284.99a2.957,2.957,0,0,0,.339,4.1L582.823,316.1a2.814,2.814,0,0,0,4.018-.346l5.765-6.97a2.957,2.957,0,0,0-.339-4.1l-31.322-27.006a2.814,2.814,0,0,0-4.018.346Z" transform="translate(-349.942 -144.428)" fill="#fff"/>
      <path id="Path_21" data-name="Path 21" d="M570.834,296.03a1.2,1.2,0,0,1-.952.514l-4.921.115a1.23,1.23,0,0,1-.055-2.458l3.22-.076-3.171-8.542a1.237,1.237,0,0,1,.7-1.586,1.2,1.2,0,0,1,1.553.714l3.774,10.167a1.252,1.252,0,0,1-.127,1.123Z" transform="translate(-351.226 -144.969)" fill="#1397cf"/>
      <path id="Path_22" data-name="Path 22" d="M571.276,299.376a8.2,8.2,0,0,1,5.8,3.9,8.532,8.532,0,0,1,.793,7.043l23.1,18.17-14.33,5.035L566.9,315.5a8.472,8.472,0,0,1-4.825-10.047,8.251,8.251,0,0,1,9.2-6.076Z" transform="translate(-351.036 -146.169)" fill="#ffb6b6"/>
      <path id="Path_23" data-name="Path 23" d="M693.209,309.129l-59.153,37.132s-23.85-9.01-19.189-13.18-10.177-6.991-10.177-6.991L588.3,314.831l-9.512,11.286s1.733,18.332,4.682,15.158,7.357,5.5,7.357,5.5,1.3,9.682,9.7,7.246,30.92,23.1,30.92,23.1l72.8-27.721Z" transform="translate(-352.687 -146.938)" fill="#1397cf"/>
      <path id="Path_24" data-name="Path 24" d="M585.616,265.572a4.386,4.386,0,0,1-3.534-1.8L571.249,249.02a4.572,4.572,0,0,1,.884-6.314,4.358,4.358,0,0,1,6.184.9l7.088,9.648,18.2-27.879a4.362,4.362,0,0,1,6.126-1.251,4.568,4.568,0,0,1,1.225,6.254l-21.667,33.183a4.4,4.4,0,0,1-3.553,2.007Z" transform="translate(-351.87 -140.241)" fill="#fff"/>
    </g>
  </g>
</svg>
