<svg xmlns="http://www.w3.org/2000/svg" xmlns:xlink="http://www.w3.org/1999/xlink" width="800" height="600" viewBox="0 0 800 600">
  <defs>
    <clipPath id="clip-cloud_sync">
      <rect width="800" height="600"/>
    </clipPath>
  </defs>
  <g id="cloud_sync" clip-path="url(#clip-cloud_sync)">
    <g id="undraw_cloud_sync_re_02p1" transform="translate(18.999 47.002)">
      <path id="Path_133" data-name="Path 133" d="M678.632,719.093a46.825,46.825,0,0,1-2.143,12.819c-.029.1-.061.191-.092.287h-8c.008-.086.017-.183.026-.287.533-6.2-2.513-43.463-6.19-49.912C662.555,682.523,679.252,699.4,678.632,719.093Z" transform="translate(-224.666 -207.384)" fill="#e6e6e6"/>
      <path id="Path_134" data-name="Path 134" d="M679.062,734.069c-.067.1-.136.193-.208.288h-6c.045-.082.1-.178.159-.288.991-1.808,3.925-7.214,6.648-12.819,2.925-6.023,5.612-12.274,5.385-14.537C685.117,707.223,687.142,722.78,679.062,734.069Z" transform="translate(-225.696 -209.541)" fill="#e6e6e6"/>
      <path id="Path_1" data-name="Path 1" d="M985.266,549.113a1.229,1.229,0,0,1-1.219-1.15c-2.094-28.764-25.754-51.044-54.289-51.122-1.649,0-3.379.084-5.141.251a1.224,1.224,0,0,1-1.175-.616,64.547,64.547,0,0,0-118.494,14.245,1.232,1.232,0,0,1-1.2.892l-.409-.012c-.215-.007-.429-.015-.645-.015a45.911,45.911,0,0,0-44.626,36.545,1.226,1.226,0,0,1-1.2.981H653.995a1.236,1.236,0,0,1,0-2.473H755.887a48.37,48.37,0,0,1,46.8-37.526h.177A68.546,68.546,0,0,1,826.444,474.9,66.141,66.141,0,0,1,867.183,461a67.323,67.323,0,0,1,57.987,33.563c1.568-.128,3.107-.193,4.587-.193,29.818.082,54.541,23.364,56.729,53.421a1.232,1.232,0,0,1-1.135,1.32C985.32,549.113,985.293,549.113,985.266,549.113Z" transform="translate(-223.748 -188.096)" fill="#e5e5e5"/>
      <path id="Path_2" data-name="Path 2" d="M932.929,579.107h-211.2a1.236,1.236,0,0,1,0-2.473h211.2a1.236,1.236,0,0,1,0,2.473Z" transform="translate(-230.319 -198.188)" fill="#e5e5e5"/>
      <path id="Path_3" data-name="Path 3" d="M780.681,603.764H696.226a1.236,1.236,0,0,1,0-2.473h84.455a1.236,1.236,0,0,1,0,2.473Z" transform="translate(-227.845 -200.34)" fill="#e5e5e5"/>
      <path id="Path_4" data-name="Path 4" d="M569.087,266.375a1.814,1.814,0,0,1-1.8-1.7c-2.449-33.636-30.116-59.689-63.484-59.78-1.925,0-3.948.1-6.012.294a1.8,1.8,0,0,1-1.735-.91,75.55,75.55,0,0,0-138.693,16.673,1.8,1.8,0,0,1-1.776,1.317l-.48-.015c-.25-.008-.5-.017-.751-.017a53.628,53.628,0,0,0-52.124,42.687,1.811,1.811,0,0,1-1.767,1.449H179.472a1.826,1.826,0,0,1,0-3.651H299.019a57.261,57.261,0,0,1,55.274-44.136,79.134,79.134,0,0,1,144.315-17.131c1.776-.14,3.519-.21,5.195-.21,35.262.1,64.5,27.629,67.088,63.175a1.819,1.819,0,0,1-1.675,1.949C569.172,266.374,569.129,266.375,569.087,266.375Z" transform="translate(-177.665 -162)" fill="#e5e5e5"/>
      <path id="Path_5" data-name="Path 5" d="M555.327,301.651H259.141a1.826,1.826,0,0,1,0-3.651H555.327a1.826,1.826,0,0,1,0,3.651Z" transform="translate(-185.393 -173.87)" fill="#e5e5e5"/>
      <path id="Path_6" data-name="Path 6" d="M328.472,330.651H229.141a1.826,1.826,0,0,1,0-3.651h99.331a1.826,1.826,0,0,1,0,3.651Z" transform="translate(-182.483 -176.401)" fill="#e5e5e5"/>
      <path id="Path_7" data-name="Path 7" d="M364.924,548.943l3.792-9.859L332.9,519.609l-5.6,14.551Z" transform="translate(-31.747 -45.35)" fill="#9f616a"/>
      <path id="Path_8" data-name="Path 8" d="M566.5,685.483a13.083,13.083,0,0,0-17,7.563l-2.558,6.646L543,709.951l-.964,2.515,12.638,4.969L566.9,685.643Z" transform="translate(-213.007 -207.609)" fill="#2f2e41"/>
      <path id="Path_9" data-name="Path 9" d="M528.444,688.945l-1.649,4.42L522.679,704.4l-.1.276c-10.486,1.362-21.982-1.308-32.614-5.456a131.885,131.885,0,0,1-12.483-5.63c-6.013-3.071-11.4-6.312-15.692-9.084-6.467-4.2-10.465-7.345-10.465-7.345s-1.056.965-2.968,2.619c-2.562,2.216-6.656,5.676-11.842,9.749q-2.967,2.347-6.372,4.909c-16.731,12.544-38.2-20.927-38.2-20.927s6.039-3.886,7.616-4.64c5.08-2.429,17.014-8.161,27.31-13.255,5.3-2.628,10.168-5.093,13.433-6.844,11.562-6.222,25.935,5.552,25.935,5.552Z" transform="translate(-198.449 -204.325)" fill="#2f2e41"/>
      <path id="Path_10" data-name="Path 10" d="M528.444,688.945l-1.649,4.42L522.679,704.4l-.1.276c-10.486,1.362-21.982-1.308-32.614-5.456a131.885,131.885,0,0,1-12.483-5.63c-6.013-3.071-11.4-6.312-15.692-9.084-6.467-4.2-10.465-7.345-10.465-7.345s-1.056.965-2.968,2.619c-2.562,2.216-6.656,5.676-11.842,9.749q-2.967,2.347-6.372,4.909c-16.731,12.544-38.2-20.927-38.2-20.927s6.039-3.886,7.616-4.64c5.08-2.429,17.014-8.161,27.31-13.255,5.3-2.628,10.168-5.093,13.433-6.844,11.562-6.222,25.935,5.552,25.935,5.552Z" transform="translate(-198.449 -204.325)" opacity="0.14"/>
      <path id="Path_11" data-name="Path 11" d="M407.81,620.966a8.006,8.006,0,0,0-5.548,3.925,8.167,8.167,0,0,0-.585,6.819l-13.462,12.515,5.529,10.124,18.766-17.944a8.162,8.162,0,0,0,4.435-9.83,8.041,8.041,0,0,0-9.135-5.611Z" transform="translate(-198.088 -202.045)" fill="#9f616a"/>
      <path id="Path_12" data-name="Path 12" d="M360.539,676.5q-.912,0-1.827-.08a21.5,21.5,0,0,1-17.326-11.695l-21.568-41.959a12.108,12.108,0,0,1,4.6-15.971,11.837,11.837,0,0,1,15.994,3.923l19.9,45.126,27.075-22.235,15.677,6.168L376.59,669.32a21.65,21.65,0,0,1-16.051,7.18Z" transform="translate(-191.323 -200.679)" fill="#1397cf"/>
      <path id="Path_13" data-name="Path 13" d="M268.235,734.034a8.018,8.018,0,0,0,5.34-4.21,8.169,8.169,0,0,0,.235-6.841l12.8-13.2-6.039-9.822-17.823,18.9a8.17,8.17,0,0,0-3.927,10.049,8.032,8.032,0,0,0,9.41,5.126Z" transform="translate(-185.49 -208.951)" fill="#ffb8b8"/>
      <path id="Path_14" data-name="Path 14" d="M404.207,476.849h1.255V442.107A20,20,0,0,1,425.354,422h72.821a20,20,0,0,1,19.893,20.107V632.7a20,20,0,0,1-19.893,20.107H425.354A20,20,0,0,1,405.461,632.7V501.579h-1.255Z" transform="translate(-199.639 -184.692)" fill="#3f3d56"/>
      <path id="Path_15" data-name="Path 15" d="M425.141,427.731h9.506a7.2,7.2,0,0,0,.677,6.674,7.038,7.038,0,0,0,5.858,3.155H482.9a7.038,7.038,0,0,0,5.857-3.154,7.2,7.2,0,0,0,.678-6.674h8.878a14.937,14.937,0,0,1,14.856,15.016V633.062a14.937,14.937,0,0,1-14.856,15.016H425.142a14.937,14.937,0,0,1-14.856-15.016h0V442.747a14.937,14.937,0,0,1,14.855-15.016Z" transform="translate(-200.228 -185.192)" fill="#fff"/>
      <ellipse id="Ellipse_1" data-name="Ellipse 1" cx="42.162" cy="42.616" rx="42.162" ry="42.616" transform="translate(219.376 310.32)" fill="#1397cf"/>
      <path id="Path_16" data-name="Path 16" d="M283.826,402.958l-12.619-16.4,7.338-5.769,5.975,7.765,20.186-21.538,6.75,6.464Z" transform="translate(-26.306 -32.032)" fill="#fff"/>
      <path id="Path_17" data-name="Path 17" d="M352.047,586.1H302.538a3.866,3.866,0,0,1-3.841-3.882v-21.57a28.6,28.6,0,1,1,57.19,0v21.569a3.866,3.866,0,0,1-3.841,3.883Z" transform="translate(-189.405 -194.27)" fill="#2f2e41"/>
      <path id="Path_18" data-name="Path 18" d="M361.707,563.906l4.529-9.535-34.23-22.2-6.686,14.073Z" transform="translate(-31.554 -46.446)" fill="#9f616a"/>
      <path id="Path_19" data-name="Path 19" d="M565.037,702.448a13.065,13.065,0,0,0-17.524,6.221l-3.056,6.428-4.712,9.922-1.152,2.433,12.223,5.936,14.6-30.749Z" transform="translate(-212.673 -209.054)" fill="#2f2e41"/>
      <path id="Path_20" data-name="Path 20" d="M520.737,703.336l-1.98,4.279L513.815,718.3l-.119.267c-10.559.544-21.817-3.011-32.1-7.972a132.134,132.134,0,0,1-12.018-6.583c-5.762-3.529-10.883-7.178-14.955-10.276-6.129-4.685-9.876-8.136-9.876-8.136s-1.127.88-3.158,2.381c-2.723,2.01-7.068,5.142-12.548,8.8q-3.137,2.11-6.726,4.4c-17.635,11.207-42.713,24.856-64.044,27.738-37.464,5.064-28.646-45.468-28.646-45.468L359.436,667.8l12.659,2.6,14.093,2.882,4.993,1.027s.948-.362,2.578-.992c5.249-2.028,17.584-6.816,28.237-11.1,5.488-2.209,10.525-4.288,13.913-5.781,12-5.306,25.437,7.549,25.437,7.549Z" transform="translate(-192.317 -205.041)" fill="#2f2e41"/>
      <ellipse id="Ellipse_2" data-name="Ellipse 2" cx="19.962" cy="20.177" rx="19.962" ry="20.177" transform="translate(124.935 352.438)" fill="#ffb8b8"/>
      <path id="Path_21" data-name="Path 21" d="M309.367,628.6l17.389,49.83-.1.174c-2.419,4.041-3.209,7.3-2.286,9.427a4.077,4.077,0,0,0,2.577,2.247l41.15-29.072-1.441-11.652.08-.13C370.709,643,372,637.17,370.56,632.114a16.646,16.646,0,0,0-7.849-9.568l-.143-.114-20.525-25.25-27.436,4.927Z" transform="translate(-190.44 -199.981)" fill="#1397cf"/>
      <path id="Path_22" data-name="Path 22" d="M278.831,716.57l-11.649-14.492,28.082-46.857,13.093-40.906.406.133-.406-.133a16.19,16.19,0,0,1,29.324-3.539,16.582,16.582,0,0,1-.333,17.72l-24.036,36.4Z" transform="translate(-186.348 -200.484)" fill="#1397cf"/>
      <path id="Path_23" data-name="Path 23" d="M364.2,563.546H333.931l-.311-4.393-1.552,4.393h-4.661l-.615-8.707-3.076,8.707H314.7v-.431a22.768,22.768,0,0,1,22.62-22.863h4.268a22.768,22.768,0,0,1,22.62,22.863Z" transform="translate(-190.957 -195.013)" fill="#2f2e41"/>
      <path id="Path_24" data-name="Path 24" d="M333.269,591.782a3.888,3.888,0,0,1-.68-.061l-22.167-3.953V550.739h24.4l-.6.712c-8.405,9.908-2.073,25.975,2.45,34.67a3.859,3.859,0,0,1-.3,4.061A3.813,3.813,0,0,1,333.269,591.782Z" transform="translate(-190.542 -195.928)" fill="#2f2e41"/>
      <path id="Path_25" data-name="Path 25" d="M719.709,737.825H232.989a.913.913,0,0,1,0-1.825h486.72a.913.913,0,0,1,0,1.825Z" transform="translate(-182.944 -212.097)" fill="#cbcbcb"/>
    </g>
  </g>
</svg>
