<svg xmlns="http://www.w3.org/2000/svg" xmlns:xlink="http://www.w3.org/1999/xlink" width="950" height="630" viewBox="0 0 950 630">
  <defs>
    <clipPath id="clip-forgot_password">
      <rect width="950" height="630"/>
    </clipPath>
  </defs>
  <g id="forgot_password" clip-path="url(#clip-forgot_password)">
    <g id="undraw_forgot_password_re_hxwm" transform="translate(8.713 12.587)">
      <path id="Path_1" data-name="Path 1" d="M464.871,492.787c31.992-54.933,93.017-97.113,157.617-93.05a287.587,287.587,0,0,0-78.443,184.638c-1.061,26.481.584,56.042-17.429,75.871-11.208,12.338-28.339,18.313-45.183,19.567s-33.685-1.717-50.3-4.676l-4.031,1.208C425.563,613.174,432.879,547.721,464.871,492.787Z" transform="translate(-130.016 -144.273)" fill="#f0f0f0"/>
      <path id="Path_2" data-name="Path 2" d="M622.583,401.008c-47.771,22.447-88.5,59.939-113.51,105.66-5.406,9.885-10.009,20.372-12.016,31.46s-.606,21.653,3.276,32.188c3.549,9.632,8.321,19.083,9.409,29.39,1.147,10.863-2.948,21.021-10.319,29.082-9.019,9.863-21.13,15.975-33.187,21.551-13.387,6.19-27.392,12.413-36.874,23.966-1.149,1.4-3.307-.422-2.16-1.82,16.5-20.1,44.734-23.879,64.316-40.072,9.137-7.556,16-17.845,15.564-29.9-.379-10.543-5.291-20.293-8.971-30.015-3.863-10.208-5.79-20.473-4.4-31.357,1.417-11.134,5.61-21.818,10.733-31.795,11.555-22.5,27.367-43.156,45.482-61.013a259.449,259.449,0,0,1,71.737-49.962c1.65-.775,2.563,1.865.924,2.635Z" transform="translate(-130.015 -144.221)" fill="#fff"/>
      <path id="Path_3" data-name="Path 3" d="M517.8,493.381a36.781,36.781,0,0,1-11.542-47.013c.835-1.6,3.415-.4,2.578,1.194a34.062,34.062,0,0,0,10.828,43.711c1.487,1.051-.386,3.153-1.864,2.108Z" transform="translate(-131.416 -146.214)" fill="#fff"/>
      <path id="Path_4" data-name="Path 4" d="M499.2,571.854a74.151,74.151,0,0,0,46.675-25.97c1.154-1.4,3.312.426,2.16,1.82a77.138,77.138,0,0,1-48.626,26.927c-1.821.254-2.02-2.524-.209-2.778Z" transform="translate(-131.338 -150.41)" fill="#fff"/>
      <path id="Path_5" data-name="Path 5" d="M574.863,432.67a21.954,21.954,0,0,0,19.35,6.734c1.817-.277,2.014,2.5.209,2.777a24.605,24.605,0,0,1-21.424-7.4,1.415,1.415,0,0,1-.148-1.964,1.458,1.458,0,0,1,2.012-.144Z" transform="translate(-132.727 -145.655)" fill="#fff"/>
      <path id="Path_6" data-name="Path 6" d="M750.976,579.133c-1.129.2-2.259.409-3.4.634A290.611,290.611,0,0,0,703,591.8c-1.128.383-2.265.788-3.379,1.2a302,302,0,0,0-94.535,56.156,288.027,288.027,0,0,0-30.619,31.32c-12.95,15.445-25.733,33.2-42.656,43.267a50.473,50.473,0,0,1-5.449,2.883l-97.488-39.471c-.175-.2-.361-.375-.538-.574l-3.966-1.4c.442-.61.915-1.233,1.357-1.842.255-.355.532-.7.787-1.055.177-.234.355-.467.5-.688.059-.078.118-.156.168-.212.146-.221.306-.411.442-.61q3.945-5.235,7.979-10.434c.009-.022.009-.022.04-.035,20.56-26.359,43.556-51.274,69.695-71.99.787-.623,1.581-1.268,2.413-1.873a279.03,279.03,0,0,1,37.65-24.86q10.88-5.938,22.334-10.78a208.816,208.816,0,0,1,62.037-15.444c42.623-3.863,86.037,5.622,118.727,31.759C749.334,577.781,750.149,578.442,750.976,579.133Z" transform="translate(-129.968 -150.373)" fill="#f0f0f0"/>
      <path id="Path_7" data-name="Path 7" d="M750.269,581.489c-51.989-10.151-107.636-4.156-155.8,17.655-10.413,4.716-20.557,10.384-29,18.057s-13.839,16.932-17.238,27.626c-3.108,9.776-5.127,20.127-10.615,29-5.785,9.348-15.319,15.051-26.177,17.156-13.285,2.575-26.725.338-39.79-2.3-14.507-2.925-29.527-6.187-44.224-2.535a1.394,1.394,0,0,1-.6-2.722c25.57-6.354,50.447,7.224,76.069,5.8,11.956-.663,23.779-4.847,30.87-14.727,6.2-8.64,8.292-19.312,11.351-29.237,3.212-10.421,8-19.749,15.824-27.625,8-8.057,17.936-14.124,28.181-19.079,23.1-11.174,48.47-18.374,73.947-21.986a265.7,265.7,0,0,1,88.095,2.268c1.8.351.9,3-.888,2.647Z" transform="translate(-129.994 -151.611)" fill="#fff"/>
      <path id="Path_8" data-name="Path 8" d="M613.2,590.056a37.02,37.02,0,0,1,19.782-44.321c1.651-.783,2.975,1.685,1.322,2.469a34.278,34.278,0,0,0-18.315,41.264c.539,1.713-2.253,2.291-2.789.588Z" transform="translate(-133.454 -150.418)" fill="#fff"/>
      <path id="Path_9" data-name="Path 9" d="M551.436,642.546a75.318,75.318,0,0,0,53.285,6.7,1.394,1.394,0,0,1,.6,2.722,78.338,78.338,0,0,1-55.433-7.077C548.279,644.019,549.834,641.684,551.436,642.546Z" transform="translate(-132.293 -154.488)" fill="#fff"/>
      <path id="Path_10" data-name="Path 10" d="M696.343,576.027a21.117,21.117,0,0,0,11.3,16.749c1.621.847.064,3.182-1.546,2.34a23.666,23.666,0,0,1-12.539-18.5,1.425,1.425,0,0,1,2.789-.588Z" transform="translate(-134.981 -151.652)" fill="#fff"/>
      <path id="Path_11" data-name="Path 11" d="M559.681,641.363c-13.653-64.438-30.719-85.922-30.719-85.922l-6.52-4.935-7.84-5.945.038-.764-1.86-.617-.437-.331-.716-.536-.115.121-.243.246L475.79,530.906l-45.011-14.924-20.842-26.445A36.374,36.374,0,0,0,381.1,475.806l-66.566.481a36.534,36.534,0,0,0-24.25,9.389l-43.753,39.615-68.175,31.783-.115-.112-.716.5-10.534,4.916.435,2.209-6.52,4.592s-17.066,19.99-30.719,79.949c-3.473,15.256-5.183,47.983-5.8,88.311a15.2,15.2,0,0,0,4.533,11.03,15.964,15.964,0,0,0,11.23,4.591H549.735a15.967,15.967,0,0,0,11.224-4.586,15.2,15.2,0,0,0,4.54-11.019C564.9,693.571,563.187,657.907,559.681,641.363Z" transform="translate(-124.382 -147.483)" fill="#1397cf"/>
      <path id="Path_12" data-name="Path 12" d="M614.534,191.732c-29.5,0-53.417,23.344-53.417,52.141s23.916,52.142,53.417,52.142h398.088c29.5,0,53.417-23.344,53.417-52.141s-23.916-52.142-53.417-52.142Z" transform="translate(-132.515 -135.536)" fill="#e5e5e5"/>
      <path id="Path_13" data-name="Path 13" d="M614.74,202.747c-23.531,0-42.607,18.62-42.607,41.589s19.076,41.589,42.607,41.589h398.088c23.531,0,42.607-18.62,42.607-41.589s-19.076-41.589-42.607-41.589Z" transform="translate(-132.72 -136)" fill="#fff"/>
      <ellipse id="ab6171fa-7d69-4734-b81c-8dff60f9761b" cx="87.208" cy="85.126" rx="87.208" ry="85.126" transform="translate(146.677 133.661)" fill="#ffb8b8"/>
      <path id="Path_14" data-name="Path 14" d="M339.951,445.867q-.559-1.2-1.115-2.41c.143,0,.284.025.427.028Z" transform="translate(-128.376 -146.123)" fill="#2f2e41"/>
      <path id="Path_15" data-name="Path 15" d="M270.723,274.869c4.411-3.435,9.566-6.595,15.205-6.417s11.358,5.149,10.189,10.537c21.381-36.952,66.849-53.594,107.849-39.475,14.016,4.827,27.761,14.483,30.98,28.647.827,3.636,1,7.622,3.33,10.575,2.932,3.722,8.542,4.564,13.162,3.255l.138-.04a4.186,4.186,0,0,1,4.462,1.191,3.946,3.946,0,0,1,.517,4.487l-3.966,7.22a32.535,32.535,0,0,0,15.141-.314,4.167,4.167,0,0,1,4.445,1.622,3.94,3.94,0,0,1-.073,4.632c-13.077,17.525-34.923,28.841-57.218,28.708-15.845-.094-31.854-5.425-47.275-1.868a40.881,40.881,0,0,0-27.59,21.69,39.222,39.222,0,0,0-.029,34.58c-4.737-5.058-13.9-3.861-18.741,1.1s-6.1,12.361-5.612,19.2c.747,10.457,4.944,20.31,9.369,29.9-37.1-1.14-72.185-26.542-84-60.9C229.148,338.693,241.579,297.562,270.723,274.869Z" transform="translate(-126.471 -137.336)" fill="#2f2e41"/>
      <path id="Path_16" data-name="Path 16" d="M87.464,495.253l24.46,129.9L126.6,626.4Z" transform="translate(-1.629 -20.828)" opacity="0.2"/>
      <path id="Path_17" data-name="Path 17" d="M361.264,485.026,336.8,624.633l-14.677,1.341Z" transform="translate(-5.999 -20.398)" opacity="0.2"/>
      <path id="Path_18" data-name="Path 18" d="M291.7,226.882A8.761,8.761,0,0,1,280.06,221.9c-2.084-4.871-.138-9.816,4.627-11.758s9.572.158,11.689,5.107C298.463,220.126,296.538,224.909,291.7,226.882Zm-8.984-26.326-3.729,1.52a4.067,4.067,0,0,1-5.109-1.829l-.184-.352c-4.012-7.063-4.472-15.648-1.358-25.5,2.884-8.839,4.082-15.056,1.673-20.688-2.785-6.512-8.734-8.551-16.319-5.6-2.942,1.2-3.878,1.18-6.193,3.422a5.383,5.383,0,0,1-3.848,1.526,5.2,5.2,0,0,1-3.677-1.574,5.034,5.034,0,0,1-.036-6.99,40.807,40.807,0,0,1,13.784-9.239c16.3-6.643,24.5,3.164,28.256,11.941,3.672,8.584,1.607,16.549-1.713,26.864-2.781,8.571-2.619,14.922.54,21.237a3.824,3.824,0,0,1,.105,3.064,3.955,3.955,0,0,1-2.191,2.2Z" transform="translate(-126.582 -133.069)" fill="#1397cf"/>
      <path id="Path_19" data-name="Path 19" d="M703.61,271.958h-79.2a1.863,1.863,0,1,1,0-3.724h79.2a1.863,1.863,0,1,1,0,3.724Z" transform="translate(-133.658 -138.754)" fill="#1397cf"/>
      <path id="Path_20" data-name="Path 20" d="M805.991,272.606h-79.2a1.863,1.863,0,1,1,0-3.724h79.2a1.863,1.863,0,1,1,0,3.724Z" transform="translate(-135.564 -138.781)" fill="#1397cf"/>
      <path id="Path_21" data-name="Path 21" d="M908.373,273.254h-79.2a1.863,1.863,0,1,1,0-3.724h79.2a1.863,1.863,0,1,1,0,3.724Z" transform="translate(-137.471 -138.808)" fill="#1397cf"/>
      <path id="Path_22" data-name="Path 22" d="M1010.751,273.9h-79.2a1.863,1.863,0,1,1,0-3.724h79.2a1.863,1.863,0,1,1,0,3.724Z" transform="translate(-139.377 -138.836)" fill="#1397cf"/>
      <ellipse id="Ellipse_1" data-name="Ellipse 1" cx="14.721" cy="14.369" rx="14.721" ry="14.369" transform="translate(515.454 87.328)" fill="#1397cf"/>
      <ellipse id="Ellipse_2" data-name="Ellipse 2" cx="14.721" cy="14.369" rx="14.721" ry="14.369" transform="translate(616.536 87.328)" fill="#1397cf"/>
      <ellipse id="Ellipse_3" data-name="Ellipse 3" cx="14.721" cy="14.369" rx="14.721" ry="14.369" transform="translate(717.618 87.328)" fill="#1397cf"/>
      <ellipse id="Ellipse_4" data-name="Ellipse 4" cx="14.721" cy="14.369" rx="14.721" ry="14.369" transform="translate(818.7 87.328)" fill="#1397cf"/>
    </g>
  </g>
</svg>
