<svg xmlns="http://www.w3.org/2000/svg" xmlns:xlink="http://www.w3.org/1999/xlink" width="700" height="500" viewBox="0 0 700 500">
  <defs>
    <clipPath id="clip-no_events">
      <rect width="700" height="500"/>
    </clipPath>
  </defs>
  <g id="no_events" clip-path="url(#clip-no_events)">
    <g id="no_events-2" data-name="no_events" transform="translate(14 0.028)">
      <path id="Path_1" data-name="Path 1" d="M624.34,597.775H610.97l-6.362-51.34H624.34Z" transform="translate(-133.709 -122.726)" fill="#fbb4b4"/>
      <path id="Path_2" data-name="Path 2" d="M794.355,760.3h-9.588l-1.711-9.012-4.383,9.012H753.244A5.687,5.687,0,0,1,750,749.931L770.3,735.969v-9.111l21.359,1.269Z" transform="translate(-296.667 -262.195)" fill="#2f2e41"/>
      <path id="Path_3" data-name="Path 3" d="M718.69,579.049l-10.729,7.943-35.876-37.418,15.834-11.723Z" transform="translate(-148.631 -120.798)" fill="#fbb4b4"/>
      <path id="Path_4" data-name="Path 4" d="M913.629,730.033l-7.693,5.7-6.775-6.215,1.884,9.836L880.64,754.455a5.736,5.736,0,0,1-6.775.034,5.677,5.677,0,0,1-2.049-6.429l7.926-23.268-5.461-7.311,17.9-11.671Z" transform="translate(-324.086 -257.468)" fill="#2f2e41"/>
      <path id="Path_5" data-name="Path 5" d="M802.228,398.647s25.366,21.819,13.663,84.018L801.6,543.61l46.6,76.965-14.858,18-60.579-83.305L750.812,504l-6.16-91.243Z" transform="translate(-296.031 -188.484)" fill="#2f2e41"/>
      <path id="Path_6" data-name="Path 6" d="M599.014,425.746l-1.526,23.525,4.669,100.247,21.971-3.81,4.2-71.374Z" transform="translate(-132.134 -95.621)" fill="#2f2e41"/>
      <path id="Path_7" data-name="Path 7" d="M237.445,614.913H249.4L255.088,569H237.443Z" transform="translate(-52.51 -127.794)" fill="#ffb6b6"/>
      <path id="Path_8" data-name="Path 8" d="M402.178,749.265h3.365l13.138-5.319,7.042,5.319h0a14.972,14.972,0,0,1,15,14.937v.487h-38.55Z" transform="translate(-220.293 -266.032)" fill="#2f2e41"/>
      <path id="Path_9" data-name="Path 9" d="M296.932,605.567l11.662,2.621L324.3,564.651l-17.212-3.869Z" transform="translate(-65.666 -125.948)" fill="#ffb6b6"/>
      <path id="Path_10" data-name="Path 10" d="M461.9,739.938l3.283.738,13.993-2.307,5.692,6.732h0A14.938,14.938,0,0,1,496.2,762.964l-.107.474-37.6-8.453Z" transform="translate(-232.745 -264.78)" fill="#2f2e41"/>
      <path id="Path_11" data-name="Path 11" d="M385.561,393.843c-5.605,16.832-5.013,35.1,1.347,54.71l2.719,110.4s-4.051,72.4,9.02,97.877H417.6l9.386-104.488,1.179-70.133,40.642,59.169L442.926,655.125l23.332,2.077,42.007-123.439L456.436,414Z" transform="translate(-215.768 -187.405)" fill="#2f2e41"/>
      <path id="Path_12" data-name="Path 12" d="M659.205,327.586c14.5-13.009,36.068-19.55,54.159-12.255a89.652,89.652,0,0,0-40.413,46.474c-2.88,7.629-5.286,16.413-12.37,20.5-4.408,2.541-9.892,2.666-14.834,1.439s-9.473-3.686-13.941-6.121l-1.271-.029C636.243,359.008,644.706,340.595,659.205,327.586Z" transform="translate(-270.794 -169.091)" fill="#e6e6e6"/>
      <path id="Path_13" data-name="Path 13" d="M713.321,316.47a77.011,77.011,0,0,0-42.764,20.107,32.984,32.984,0,0,0-6.5,8.046,18.834,18.834,0,0,0-2.195,9.7c.078,3.147.525,6.357-.167,9.468a11.58,11.58,0,0,1-5.783,7.513c-3.541,2.026-7.6,2.665-11.594,3.152-4.433.541-9.047,1.033-12.884,3.509-.465.3-.905-.436-.441-.735,6.677-4.307,15.125-2.74,22.3-5.615,3.35-1.341,6.314-3.7,7.363-7.256.917-3.113.46-6.423.353-9.609a20.091,20.091,0,0,1,1.791-9.569,30.475,30.475,0,0,1,6.165-8.265,74.569,74.569,0,0,1,18.952-13.508,78.479,78.479,0,0,1,25.39-7.8c.548-.07.552.787.008.857Z" transform="translate(-270.852 -169.835)" fill="#fff"/>
      <path id="Path_14" data-name="Path 14" d="M685.839,333.464a11.444,11.444,0,0,1,1.271-14.814c.394-.387,1.016.205.621.592a10.6,10.6,0,0,0-1.154,13.782C686.9,333.472,686.161,333.909,685.839,333.464Z" transform="translate(-282.552 -170.49)" fill="#fff"/>
      <path id="Path_15" data-name="Path 15" d="M670.212,362.554a22.308,22.308,0,0,0,15.884-3.166c.466-.3.906.437.441.735A23.2,23.2,0,0,1,670,363.384c-.546-.1-.333-.928.21-.83Z" transform="translate(-279.452 -179.651)" fill="#fff"/>
      <path id="Path_16" data-name="Path 16" d="M714.221,321.888a6.523,6.523,0,0,0,4.882,3.8c.547.091.333.921-.21.83a7.31,7.31,0,0,1-5.411-4.187.441.441,0,0,1,.149-.587.433.433,0,0,1,.59.148Z" transform="translate(-289.126 -171.199)" fill="#fff"/>
      <path id="Path_17" data-name="Path 17" d="M732.993,390.48c-.343-.047-.686-.094-1.034-.136a86.341,86.341,0,0,0-13.927-.7c-.36.005-.725.016-1.084.031a90.964,90.964,0,0,0-32.517,7.452,88.146,88.146,0,0,0-11.81,6.246c-5.209,3.283-10.594,7.256-16.417,8.6a15.182,15.182,0,0,1-1.84.326l-24.058-20.739c-.031-.074-.067-.144-.1-.218l-1-.784c.186-.136.382-.273.568-.409.107-.079.22-.154.328-.234.073-.051.147-.1.21-.153.024-.017.049-.034.069-.046.063-.051.127-.091.186-.136q1.638-1.155,3.3-2.291c0-.005,0-.005.015-.006a129.6,129.6,0,0,1,26.949-14.422c.286-.107.576-.221.872-.319a84.273,84.273,0,0,1,13.193-3.7,74.558,74.558,0,0,1,7.44-1.035,62.008,62.008,0,0,1,19.256,1.358c12.573,2.9,24.074,9.776,30.886,20.5C732.654,389.931,732.824,390.2,732.993,390.48Z" transform="translate(-270.501 -181.506)" fill="#e6e6e6"/>
      <path id="Path_18" data-name="Path 18" d="M732.822,394.288a77.15,77.15,0,0,0-46.3-9.579,33.22,33.22,0,0,0-10.055,2.529,18.964,18.964,0,0,0-7.621,6.433c-1.841,2.56-3.425,5.39-5.859,7.459a11.661,11.661,0,0,1-9.16,2.532c-4.052-.5-7.681-2.428-11.163-4.433-3.867-2.225-7.848-4.6-12.409-4.921-.553-.039-.459-.891.093-.852,7.936.563,13.733,6.879,21.2,8.887,3.486.937,7.276.834,10.267-1.38,2.615-1.936,4.252-4.853,6.093-7.461a20.227,20.227,0,0,1,7.216-6.567,30.7,30.7,0,0,1,9.921-2.9,74.9,74.9,0,0,1,23.3.575,78.453,78.453,0,0,1,24.989,8.992c.48.272-.035.959-.512.689Z" transform="translate(-270.649 -185.057)" fill="#fff"/>
      <path id="Path_19" data-name="Path 19" d="M709.2,380.777a11.5,11.5,0,0,1,9.973-11.066c.549-.072.688.773.138.846a10.649,10.649,0,0,0-9.256,10.312c-.012.551-.867.456-.855-.092Z" transform="translate(-288.191 -181.985)" fill="#fff"/>
      <path id="Path_20" data-name="Path 20" d="M680.661,394.777a22.266,22.266,0,0,0,14.6,6.993c.552.041.459.893-.093.852a23.16,23.16,0,0,1-15.175-7.307c-.377-.405.3-.94.67-.537Z" transform="translate(-281.707 -187.583)" fill="#fff"/>
      <path id="Path_21" data-name="Path 21" d="M740.8,388.054a6.479,6.479,0,0,0,1.6,5.957c.382.4-.291.935-.67.537a7.26,7.26,0,0,1-1.788-6.586.444.444,0,0,1,.474-.38A.431.431,0,0,1,740.8,388.054Z" transform="translate(-294.95 -185.999)" fill="#fff"/>
      <path id="Path_22" data-name="Path 22" d="M208.583,730.266a19.127,19.127,0,0,1-7.679,10.29c-.584.419-1.184.806-1.791,1.171-.187.109-.374.225-.569.326q-.315.186-.631.349H181.066c-.3-.613-.6-1.233-.9-1.846-7.22-15.105-12.29-31.4-11.426-48.006a61.222,61.222,0,0,1,4.027-18.8c4.626-12,13.069-22.378,24.682-27.6.288-.132.592-.264.888-.388-.093.333-.187.659-.28.992a85.568,85.568,0,0,0-2.633,13.64c-.047.357-.086.714-.117,1.078a89.609,89.609,0,0,0,2.9,33.1c.008.023.016.054.023.078q.993,3.571,2.305,7.033c.685,1.822,1.425,3.621,2.235,5.389C206.153,714.486,210.686,722.4,208.583,730.266Z" transform="translate(-168.648 -243.98)" fill="#e6e6e6"/>
      <path id="Path_23" data-name="Path 23" d="M202.258,645.987c-.164.217-.327.426-.491.644a76.02,76.02,0,0,0-8.661,14.547c-.125.256-.241.512-.343.775a75.583,75.583,0,0,0-6.091,22.673,1.152,1.152,0,0,0-.016.163c-.195,1.83-.312,3.675-.358,5.521a32.8,32.8,0,0,0,1.114,10.266,18.413,18.413,0,0,0,4.253,7.3c.195.209.389.419.6.62.156.163.327.326.491.481,1.573,1.5,3.295,2.885,4.774,4.49a16.627,16.627,0,0,1,1.83,2.326,11.513,11.513,0,0,1,1.246,9.383c-1.059,3.924-3.481,7.235-5.958,10.391-1.238,1.582-2.516,3.179-3.622,4.87-.4.6-.779,1.217-1.121,1.846h-.981c.327-.628.685-1.241,1.075-1.846,2.843-4.459,6.885-8.289,8.98-13.2,1.418-3.311,1.846-7.064.055-10.313a13.71,13.71,0,0,0-1.893-2.621c-1.425-1.605-3.131-2.978-4.681-4.428-.389-.364-.771-.737-1.137-1.124a19.348,19.348,0,0,1-4.393-6.9,30.3,30.3,0,0,1-1.511-10.181c0-2.2.117-4.42.335-6.622.023-.279.055-.566.086-.853a77.943,77.943,0,0,1,15.32-38.174c.156-.217.319-.426.483-.636C201.978,644.955,202.593,645.56,202.258,645.987Z" transform="translate(-172.355 -243.865)" fill="#fff"/>
      <path id="Path_24" data-name="Path 24" d="M183.633,693.262a11.5,11.5,0,0,1-9.622-11.37.431.431,0,0,1,.86-.019,10.646,10.646,0,0,0,8.972,10.558c.546.089.333.919-.21.83Z" transform="translate(-169.834 -252.001)" fill="#fff"/>
      <path id="Path_25" data-name="Path 25" d="M193.11,722.246a22.125,22.125,0,0,0,8.983-13.421c.118-.539.952-.329.834.21a23.014,23.014,0,0,1-9.376,13.947c-.456.315-.894-.422-.441-.735Z" transform="translate(-174.016 -258.074)" fill="#fff"/>
      <path id="Path_26" data-name="Path 26" d="M194.81,665.435a6.552,6.552,0,0,0,6.148-.753c.451-.321.889.417.441.735a7.342,7.342,0,0,1-6.8.849.443.443,0,0,1-.312-.52.432.432,0,0,1,.522-.31Z" transform="translate(-174.316 -248.213)" fill="#fff"/>
      <path id="Path_27" data-name="Path 27" d="M261.584,684.52c-.273.209-.553.419-.826.636a85.831,85.831,0,0,0-10.351,9.3c-.249.256-.5.52-.74.783l-.008.008a90.161,90.161,0,0,0-17.649,28.024l-.023.07c-.008.023-.016.039-.023.062a88.449,88.449,0,0,0-3.918,12.732c-.95,4.234-1.729,8.77-3.217,12.849-.226.628-.475,1.248-.74,1.846H189.462c.117-.613.241-1.233.366-1.846a123.905,123.905,0,0,1,8.209-26.132c.125-.279.249-.558.389-.837a83.883,83.883,0,0,1,6.706-11.9.007.007,0,0,1,0-.006l.006,0a73.637,73.637,0,0,1,4.517-5.963,61.546,61.546,0,0,1,14.58-12.593c.031-.023.07-.039.1-.062,10.935-6.754,23.9-9.972,36.287-7.188h.008C260.953,684.373,261.264,684.442,261.584,684.52Z" transform="translate(-173.251 -252.413)" fill="#e6e6e6"/>
      <path id="Path_28" data-name="Path 28" d="M265.081,685.151c-.265.07-.53.147-.787.225a76.978,76.978,0,0,0-15.709,6.413c-.249.132-.5.271-.748.411a76.479,76.479,0,0,0-18.529,14.415.027.027,0,0,0-.008.016c-.062.062-.132.132-.187.194-1.246,1.334-2.446,2.722-3.583,4.148a33.134,33.134,0,0,0-5.312,8.863,18.281,18.281,0,0,0-1.02,8.382c.023.287.062.566.1.853.031.225.062.45.1.682.514,3.109,1.4,6.227,1.153,9.4a11.549,11.549,0,0,1-4.681,8.243,18.55,18.55,0,0,1-2.866,1.815,28.774,28.774,0,0,1-4.494,1.845h-3.061l1.231-.349a37.658,37.658,0,0,0,4.307-1.5,21,21,0,0,0,2.337-1.148c3.131-1.791,5.74-4.536,6.285-8.2.475-3.21-.444-6.421-.989-9.561-.093-.543-.179-1.078-.226-1.613a18.87,18.87,0,0,1,.662-8.111,30.249,30.249,0,0,1,4.953-9.041,64.7,64.7,0,0,1,4.268-5.079q.28-.314.584-.628A78.543,78.543,0,0,1,247.72,691.3h.008a77.515,77.515,0,0,1,16.434-6.777h.008c.257-.078.522-.155.779-.225C265.486,684.159,265.61,685,265.081,685.151Z" transform="translate(-176.787 -252.633)" fill="#fff"/>
      <path id="Path_29" data-name="Path 29" d="M234.219,708.9a11.444,11.444,0,0,1-.807-14.846c.337-.437,1.035.063.7.5a10.6,10.6,0,0,0,.779,13.808c.383.4-.29.933-.67.537Z" transform="translate(-182.45 -254.79)" fill="#fff"/>
      <path id="Path_30" data-name="Path 30" d="M222.623,739.363a22.289,22.289,0,0,0,15.288-5.332c.42-.36.959.308.539.667a23.184,23.184,0,0,1-15.92,5.516c-.554-.022-.459-.873.093-.852Z" transform="translate(-180.482 -263.782)" fill="#fff"/>
      <path id="Path_31" data-name="Path 31" d="M260.428,693.628a6.534,6.534,0,0,0,5.364,3.083c.554.014.458.866-.093.852a7.322,7.322,0,0,1-5.942-3.4.441.441,0,0,1,.065-.6A.434.434,0,0,1,260.428,693.628Z" transform="translate(-188.777 -254.696)" fill="#fff"/>
      <path id="Path_32" data-name="Path 32" d="M612.742,296.519a9.06,9.06,0,0,1-13.838.649l-29.441,12.748,2.868-16.363,27.518-9.6a9.113,9.113,0,0,1,12.051.58,9.014,9.014,0,0,1,.842,11.983Z" transform="translate(-257.288 -162.277)" fill="#ffb8b8"/>
      <path id="Path_33" data-name="Path 33" d="M554.3,294.135,485.923,324.46l-.147-.052-77.937-27.651A25.505,25.505,0,0,1,396.326,263.6h0a25.7,25.7,0,0,1,36.6-11.349l58,34.785,56.242-7.257Z" transform="translate(-218.496 -154.785)" fill="#e6e6e6"/>
      <path id="Path_34" data-name="Path 34" d="M840.571,770.936a.922.922,0,0,1-.927.923H169.607a.923.923,0,1,1,0-1.846H839.644a.922.922,0,0,1,.927.923Z" transform="translate(-168.655 -271.887)" fill="#ccc"/>
      <path id="Path_35" data-name="Path 35" d="M459.823,379.247,390.89,368.27a13.082,13.082,0,0,1-7.754-18.336l3.126-6.225-1.214-65.4a48.4,48.4,0,0,1,23.628-42.38l6.722-4,3.4-8.589,31.326.761.091,11.265,11.218,17.81v.074l-.7,96.938-3.092,10,4.675,11.636Z" transform="translate(-215.775 -149.112)" fill="#e6e6e6"/>
      <ellipse id="Ellipse_1" data-name="Ellipse 1" cx="28.462" cy="28.337" rx="28.462" ry="28.337" transform="translate(193.089 6.868)" fill="#ffb8b8"/>
      <path id="Path_36" data-name="Path 36" d="M414.912,168.99c-.849-3.561-.459-8.571.021-12.156A34,34,0,0,1,429.4,133.207a10.447,10.447,0,0,1,5.191-2.054,4.483,4.483,0,0,1,4.505,2.713,9.32,9.32,0,0,1,5.269-5.2,16.528,16.528,0,0,1,7.5-1.006,27.406,27.406,0,0,1,22.869,16.276c.76,1.8,2.884-4.843,3.847-3.145a7.576,7.576,0,0,0,4.3,3.763c1.887.524,2.654,8.266,3.4,6.461a8.611,8.611,0,0,1-8.264,12c-1.921-.072-3.758-.775-5.656-1.078a14.1,14.1,0,0,0-15.439,10.507A18.559,18.559,0,0,0,454.463,167a6.33,6.33,0,0,0-5.073-2.775,7.111,7.111,0,0,0-4.882,2.794c-1.253,1.465-2.194,3.174-3.456,4.631-3.7,4.275-8.713,14.244-13.992,13.517C422.895,184.591,416.071,173.851,414.912,168.99Z" transform="translate(-222.999 -127.607)" fill="#2f2e41"/>
      <path id="Path_37" data-name="Path 37" d="M631.812,332.94a5.529,5.529,0,0,0-3.744-6.09l-76.649-25.416a5.578,5.578,0,0,0-2.284-.261l-19.212,1.809L518.9,304.023l-20.343,1.914a5.563,5.563,0,0,0-4.972,4.645l-10.329,64.234a5.569,5.569,0,0,0,3.493,6.045L564.2,410.624a5.429,5.429,0,0,0,1.127.3,5.582,5.582,0,0,0,1.695.013l50.045-7.385a5.534,5.534,0,0,0,4.691-4.652Z" transform="translate(-238.209 -166.588)" fill="#fff"/>
      <path id="Path_38" data-name="Path 38" d="M489.887,377.74,567.336,407.5a.7.7,0,0,0,.356.042l50.039-7.384a.687.687,0,0,0,.588-.583l10.063-65.962a.7.7,0,0,0-.467-.761l-.515-.174L551.26,307.443a.53.53,0,0,0-.107-.026.693.693,0,0,0-.179-.009l-46.859,4.415-3.718.347a.7.7,0,0,0-.619.58l-10.327,64.231a.7.7,0,0,0,.436.758Z" transform="translate(-239.592 -167.993)" fill="#1397cf"/>
      <path id="Path_39" data-name="Path 39" d="M508.282,311.823l46.859-4.415a.7.7,0,0,1,.179.009.524.524,0,0,1,.107.026l76.139,25.237L611.482,334.8l-7.516.788-21.388,2.25a1.527,1.527,0,0,1-.188,0l-.122-.035Z" transform="translate(-243.758 -167.993)" fill="#2f2e41"/>
      <path id="Path_40" data-name="Path 40" d="M486.746,380.864,564.2,410.626a5.254,5.254,0,0,0,1.13.294,5.648,5.648,0,0,0,1.7.021l50.039-7.384a5.545,5.545,0,0,0,4.7-4.656L631.81,332.94a5.553,5.553,0,0,0-.326-2.882c-.051-.122-.1-.243-.161-.358a5.426,5.426,0,0,0-1.763-2.092,5.567,5.567,0,0,0-1.492-.757l-.091-.032-76.555-25.385a7,7,0,0,0-.956-.231,5.545,5.545,0,0,0-1.335-.026l-19.209,1.8L518.9,304.026l-20.346,1.913a5.539,5.539,0,0,0-2.351.773,1.038,1.038,0,0,0-.158.094.926.926,0,0,0-.1.076,5.54,5.54,0,0,0-2.357,3.694l-10.335,64.238a5.575,5.575,0,0,0,3.5,6.05Zm8.211-70.064a4.1,4.1,0,0,1,.989-2.071,3.615,3.615,0,0,1,.526-.511,4.149,4.149,0,0,1,1.81-.84,3.161,3.161,0,0,1,.4-.056l34.258-3.222,16.328-1.547c.111-.013.212-.011.315-.017a3.916,3.916,0,0,1,.738.055,3.236,3.236,0,0,1,.658.156l76.645,25.417.174.063a4.154,4.154,0,0,1,2.643,4.5l-10.063,65.97a4.157,4.157,0,0,1-3.512,3.491l-50.047,7.383a4.234,4.234,0,0,1-2.121-.241l-77.45-29.755a4.186,4.186,0,0,1-2.616-4.533Z" transform="translate(-238.208 -166.588)" fill="#3f3d56"/>
      <path id="Path_41" data-name="Path 41" d="M499.341,308.86a.681.681,0,0,1,.209-.3.822.822,0,0,1,.1-.068c.033-.013.066-.033.1-.045a.683.683,0,0,1,.486-.008l1.612.566L580.6,336.664l18.432-1.939,10.314-1.083,21.831-2.3,1.952-.2.38-.042a.7.7,0,0,1,.742.507.577.577,0,0,1,.021.111.692.692,0,0,1-.429.715.775.775,0,0,1-.193.052l-2.655.277-21.5,2.263-7.516.788-21.388,2.25a1.514,1.514,0,0,1-.188,0l-.122-.035-80.246-28.174-.272-.1a.522.522,0,0,1-.171-.094A.7.7,0,0,1,499.341,308.86Z" transform="translate(-241.773 -168.216)" fill="#3f3d56"/>
      <path id="Path_42" data-name="Path 42" d="M588.753,420.941a.694.694,0,0,1-.578-.788l11.307-74.7a.7.7,0,0,1,.792-.582h.006a.694.694,0,0,1,.578.788l-11.307,74.7a.7.7,0,0,1-.792.582Z" transform="translate(-261.424 -176.406)" fill="#3f3d56"/>
      <path id="Path_43" data-name="Path 43" d="M623.581,415.273l-7.52.79,8.8-74.079s10.043-1.81,10.312-1.084C635.334,341.333,623.653,414.8,623.581,415.273Z" transform="translate(-267.593 -175.476)" fill="#3f3d56"/>
      <path id="Path_44" data-name="Path 44" d="M331.193,182.533l-.2,33.783L391.06,239.1l21.572-28.849Z" transform="translate(-73.198 -41)" fill="#3f3d56"/>
      <path id="Path_45" data-name="Path 45" d="M648.419,325.727a4.128,4.128,0,0,0-1.945-1.347L569.83,298.965a3.991,3.991,0,0,0-.661-.16,3.914,3.914,0,0,0-.74-.055l.124-.773.767-.553,18.2-13.119L648.3,302.849l.106,20.976Z" transform="translate(-257.06 -162.805)" fill="#3f3d56"/>
      <path id="Path_46" data-name="Path 46" d="M503.466,380.078a1.18,1.18,0,0,1,.254.053l23.516,7.69a1.164,1.164,0,1,1-.729,2.21l-23.516-7.69a1.163,1.163,0,0,1,.475-2.264Z" transform="translate(-242.41 -184.313)" fill="#fff"/>
      <ellipse id="Ellipse_2" data-name="Ellipse 2" cx="9.346" cy="9.305" rx="9.346" ry="9.305" transform="translate(346.591 318.873)" fill="#f2f2f2"/>
      <ellipse id="Ellipse_3" data-name="Ellipse 3" cx="9.346" cy="9.305" rx="9.346" ry="9.305" transform="translate(108.263 352.992)" fill="#f2f2f2"/>
      <ellipse id="Ellipse_4" data-name="Ellipse 4" cx="9.346" cy="9.305" rx="9.346" ry="9.305" transform="translate(302.975 45.151)" fill="#f2f2f2"/>
      <path id="Path_47" data-name="Path 47" d="M576.752,391.282a9.042,9.042,0,0,1-12.389-6.171L532.421,381.9l10.538-12.877,28.717,5.025a9.043,9.043,0,0,1,5.076,17.235Z" transform="translate(-249.096 -181.831)" fill="#ffb8b8"/>
      <path id="Path_48" data-name="Path 48" d="M526.287,359.711l-74.543-6.838-.1-.117-54.4-62.062a25.484,25.484,0,0,1,6.241-34.524h0a25.707,25.707,0,0,1,37.5,7.916l33.508,58.578,52.623,21.05Z" transform="translate(-218.277 -155.368)" fill="#e6e6e6"/>
      <path id="Path_49" data-name="Path 49" d="M784.282,223.482c-1.851-13.519-4.173-28.033-13.75-37.791A32.3,32.3,0,0,0,724,186.17c-6.971,7.4-10.05,17.8-10.332,27.946s1.988,20.177,4.505,30.011a93.265,93.265,0,0,0,38.776-7.6,62.641,62.641,0,0,1,9.3-3.634c3.231-.819,5.533,1.241,8.539,2.678l1.65-3.145c1.35,2.5,5.532,1.76,7.048-.645S784.667,226.3,784.282,223.482Z" transform="translate(-289.174 -138.489)" fill="#2f2e41"/>
      <path id="Path_50" data-name="Path 50" d="M716.518,326.7l-54.423,1.159a8.6,8.6,0,1,0-3.847,12.076c7.218.408,63.688,8.388,67.057,3.246,3.419-5.219,21.671-23.639,21.671-23.639l-14.029-19.885Z" transform="translate(-274.221 -166.252)" fill="#fbb4b4"/>
      <ellipse id="Ellipse_5" data-name="Ellipse 5" cx="25.57" cy="25.457" rx="25.57" ry="25.457" transform="translate(429.989 47.453)" fill="#fbb4b4"/>
      <path id="Path_51" data-name="Path 51" d="M599.361,299.184" transform="translate(-263.9 -166.147)" fill="#1397cf"/>
      <path id="Path_52" data-name="Path 52" d="M788.63,280.263c-3.013-5.971-4.477-13.346-10.9-15.282-4.338-1.307-21.883.652-25.837,2.858-6.576,3.67-.617,10.547-4.5,16.983-4.218,7-15.68,21.037-19.9,28.033-2.9,4.81,6.867,18.928,5.3,24.316s-1.643,11.435,1.028,16.375c2.39,4.421-1.068,8.332,1.336,12.746,2.5,4.59,5.568,21.753,3.241,26.432l-1.558,4.652c15.458.9,28.455-17.481,43.817-19.418,3.815-.481,7.777-1.109,10.921-3.314,4.631-3.248,6.462-9.142,7.607-14.665a123.056,123.056,0,0,0-10.559-79.715Z" transform="translate(-292.118 -158.371)" fill="#3f3d56"/>
      <path id="Path_53" data-name="Path 53" d="M818.614,356.8c-2.153-5.851-6.051-31.433-6.051-31.433l-24.4-.712,11.928,29.289L767.546,399.31s.06.1.17.277a8.562,8.562,0,1,0,7.22,9.107.6.6,0,0,0,.746-.128C779.3,404.043,820.767,362.653,818.614,356.8Z" transform="translate(-298.926 -171.867)" fill="#fbb4b4"/>
      <path id="Path_54" data-name="Path 54" d="M826.536,329.187c-2.239-9.41-4.5-18.87-8.271-27.78s-9.18-17.325-16.782-23.344a19.656,19.656,0,0,0-8.194-4.221,9.474,9.474,0,0,0-8.619,2.312c-3.424,3.585-2.394,9.34-1.138,14.126l11.108,42.339,32.079-3.385Z" transform="translate(-304.367 -160.408)" fill="#3f3d56"/>
      <path id="Path_55" data-name="Path 55" d="M774.482,215.666c-.942-6.158-1.925-12.368-4.137-18.167s-5.778-11.23-10.893-14.515c-8.1-5.2-18.585-4.2-27.665-1.206-7.022,2.314-13.877,5.83-18.829,11.483s-7.734,13.72-5.892,21.112l29.058-6.835-1.06.746a23.306,23.306,0,0,1,12.486,16.2,24.055,24.055,0,0,1-5.114,20.043l19.818-7c4.077-1.44,8.441-3.1,10.859-6.793C775.915,226.453,775.264,220.777,774.482,215.666Z" transform="translate(-287.592 -139.225)" fill="#2f2e41"/>
    </g>
  </g>
</svg>
