<svg xmlns="http://www.w3.org/2000/svg" xmlns:xlink="http://www.w3.org/1999/xlink" width="700" height="500" viewBox="0 0 700 500">
  <defs>
    <clipPath id="clip-no_internet">
      <rect width="700" height="500"/>
    </clipPath>
  </defs>
  <g id="no_internet" clip-path="url(#clip-no_internet)">
    <g id="undraw_signal_searching_re_yl8n" transform="translate(5 5.006)">
      <path id="Path_1" data-name="Path 1" d="M117.842,490.777a2.7,2.7,0,0,1-2.614-1.632,2.636,2.636,0,0,1,.658-2.981l.185-.725-.073-.174a7.289,7.289,0,0,0-13.37.049c-2.187,5.193-4.971,10.4-5.657,15.886a20.856,20.856,0,0,0,.376,7.272,83.775,83.775,0,0,1-7.821-35.207,80.687,80.687,0,0,1,.515-9.128q.426-3.727,1.183-7.4a85.227,85.227,0,0,1,17.247-36.345,22.968,22.968,0,0,0,9.626-9.847,17.24,17.24,0,0,0,1.606-4.757c-.469.061-1.767-6.977-1.413-7.408-.653-.977-1.822-1.463-2.535-2.416-3.547-4.742-8.434-3.914-10.986,2.53-5.45,2.712-5.5,7.21-2.159,11.537,2.128,2.752,2.42,6.477,4.287,9.423-.192.242-.392.477-.584.72a86.141,86.141,0,0,0-9.136,14.271A35.415,35.415,0,0,0,95,417.778c-2.079-4.946-5.977-9.112-9.409-13.387-4.122-5.136-12.576-2.895-13.3,3.616q-.011.095-.021.189.765.425,1.5.9a3.587,3.587,0,0,1,1.541,3.783,3.64,3.64,0,0,1-3.017,2.787l-.075.011a35.466,35.466,0,0,0,.96,5.371c-4.4,16.79,5.1,22.9,18.675,23.18.3.151.592.3.891.447a87.032,87.032,0,0,0-4.809,22.316A82.391,82.391,0,0,0,88,480.484l-.023-.159a22.02,22.02,0,0,0-7.644-12.748c-5.882-4.765-14.193-6.519-20.539-10.349a4.252,4.252,0,0,0-4.523-.011,4.123,4.123,0,0,0-1.913,4.042l.026.167a24.751,24.751,0,0,1,2.758,1.31q.765.425,1.5.9a3.587,3.587,0,0,1,1.541,3.783,3.64,3.64,0,0,1-3.017,2.787l-.075.011-.154.023A35.892,35.892,0,0,0,62.638,480.6c2.753,14.656,14.577,16.047,27.226,11.779h.008a87.231,87.231,0,0,0,6,17.271H117.3c.077-.235.146-.477.215-.712a24.691,24.691,0,0,1-5.931-.348c1.59-1.924,3.18-3.863,4.771-5.787a1.313,1.313,0,0,0,.1-.114c.807-.985,1.621-1.962,2.428-2.947h0a34.7,34.7,0,0,0-1.045-8.96h0Z" transform="translate(-2.056 -20.429)" fill="#f2f2f2"/>
      <path id="Path_2" data-name="Path 2" d="M146.07,493.222h34.587c5.915-19.639.032-66.053,7.829-85.024,14.959-36.374,34.069-74.753,69.738-92.514,15.229-7.584,31.835-10.546,48.793-10.384,23.426.219,47.511,6.42,69.561,14.637,9.02,3.354,17.958,7.042,26.86,10.811,33.54,14.211,66.715,29.689,102.784,33.873,45.641,5.29,99.3-14.845,111.768-58.215,9.514-33.2-7.621-67.677-25.59-97.331s-38.056-61.384-34.775-95.718c.012-.115.023-.242.047-.357,1.235-12.332,8.7-21.195,19.134-26.877H531.388c-.6,32.029,18.193,60.3,35.1,88.215,17.97,29.643,35.1,64.127,25.59,97.331C579.617,315.027,476.395,264.2,430.753,258.9c-12.889-1.487,7.585,3.8-4.7,0-19.275-5.959-21.412,48.693-40.169,40.671-11.678-5-23.367-9.969-35.21-14.384-4.9-1.833-9.914-3.55-14.982-5.14a.034.034,0,0,1-.024-.012c-34.034-10.626-71.255-14.764-102.7.6-.212.1-.435.207-.647.311-35.668,17.749-54.779,56.128-69.738,92.5-12.36,30.07-10.416,88.055-16.508,119.773Z" transform="translate(-5.632 -4.478)" fill="#f2f2f2"/>
      <path id="Path_3" data-name="Path 3" d="M352.4,497.45c-168.8,3.526-172.5-69.38-172.5-156.1S256.87,186.8,352.254,186.8s171.137,67.811,171.137,154.526S447.779,497.45,352.4,497.45Z" transform="translate(-6.936 -9.712)" fill="#fff"/>
      <path id="Path_4" data-name="Path 4" d="M351.4,498.3c-168.8,3.526-172.5-69.38-172.5-156.1s77.6-157.263,172.984-157.263S524.866,255.49,524.866,342.2,446.779,498.3,351.4,498.3Zm.487-309.033c-92.76,0-166.663,68.619-168.225,152.936C182.2,420.63,273.847,518.494,351.883,495.143c41.848-41.9,160.164-87.029,168.225-152.938,10.25-83.813-75.465-152.936-168.225-152.936Z" transform="translate(-6.897 -9.615)" fill="#3f3d56"/>
      <path id="Path_5" data-name="Path 5" d="M0,515.614a1.117,1.117,0,0,0,.334.8,1.149,1.149,0,0,0,.81.329H688.856a1.128,1.128,0,1,0,0-2.256H1.144a1.149,1.149,0,0,0-.81.329A1.117,1.117,0,0,0,0,515.614Z" transform="translate(0 -26.748)" fill="#ccc"/>
      <path id="Path_6" data-name="Path 6" d="M481.271,497.968H469.4L463.746,452.8h17.528Z" transform="translate(-17.88 -23.541)" fill="#ffb6b6"/>
      <path id="Path_7" data-name="Path 7" d="M480.945,512.264h-36.52v-.455a14.117,14.117,0,0,1,14.213-14.016h0l6.671-4.99,12.446,4.991h3.188v14.472Z" transform="translate(-17.135 -25.62)" fill="#2f2e41"/>
      <path id="Path_8" data-name="Path 8" d="M453.265,387.313A176.914,176.914,0,0,0,407.1,355.45l-8.678,9.66,5.527-11.129a179.151,179.151,0,0,0-145.231-.757l4.509,9.657-6.924-8.582a176.843,176.843,0,0,0-48.4,32.807,7.865,7.865,0,0,0-2.524,5.117A7.379,7.379,0,0,0,207.6,398c2.182,1.019,5.292,3.356,9.912,9.773a7.712,7.712,0,0,0,10.654.065c57.039-54.443,147.6-54.443,204.638,0a7.711,7.711,0,0,0,10.653-.065c4.649-4.123,5.736-9.952,9.73-9.594a7.767,7.767,0,0,0,2.4-5.073,7.418,7.418,0,0,0-2.313-5.791Z" transform="translate(-7.918 -17.584)" fill="#1397cf"/>
      <path id="Path_9" data-name="Path 9" d="M368.328,402.355H356.452L350.8,357.187H368.33Z" transform="translate(-13.525 -18.57)" fill="#ffb6b6"/>
      <path id="Path_10" data-name="Path 10" d="M368,416.651h-36.52v-.455A14.117,14.117,0,0,1,345.7,402.178h0l6.671-4.99,12.446,4.991H368v14.472Z" transform="translate(-12.78 -20.65)" fill="#2f2e41"/>
      <path id="Path_11" data-name="Path 11" d="M489.772,229.417l-84.28,8.682-20.709,20.176-32.941,10.606a21.165,21.165,0,0,0-14.753,19.179c-.857,19.81-2.551,52.7-4.34,52.354-2.558-.493,2.555,11.832,6.136,11.116s7.305,7.32,4.829,8.749,1.648,13.652,1.648,13.652l25.8-4.1c3.229-24.017,15.023-49.331,1.123-67,23.541-7.532,44.279-13.831,59.528-17.713l8.247-3.374h0l17.123,179.394,24.215.392c6.682-33.892,10.038-64.4,4.816-86.156,0,0,.75-65.371,3.614-64.657s.436-7.8.436-7.8-2.508-7.253.574-10.262,1.157-20.706,1.157-20.706c5.092-16.748,3.559-30.576-2.222-42.531Z" transform="translate(-12.803 -11.927)" fill="#2f2e41"/>
      <path id="Path_12" data-name="Path 12" d="M502.594,184.1l2.5-11.074h0q3.517-15.506,7.022-31c3.068-13.532,6.15-27.536,3.511-41.153a40.444,40.444,0,0,0-1.657-6.028C510.021,83.7,501.293,73.927,489.718,71.87l-1.891-6.948L462,61.788l-4.888,6.647c-10.521-.83-16.767,9.5-24.025,18.013L430.2,89.292c-2.1,2.592-2.533,12.331-3.846,15.168-5.836,12.618,2.206.356,1.923,14.22-.293,14.367-3.158,28.309-3.452,42.675-.031,1.542-3.4,2.717-3.974,5.419-.312,1.459,2.294,4.165,1.9,5.8-.337,1.392,1.347,6.986.985,8.425-1.676,6.674-5.474,9.3-5.64,12.593a20.91,20.91,0,0,1-.572,3.756c-.208.875-3.119-.174-3.4.715-.476,1.493,1.619,4.93,1.045,6.424-1.112,2.891-.364,8-1.045,10.64-2.858,11.093-1.761,6.691-7.957,16.37,15.858,4.727,22.708,20.558,39.02,23.408q1.1-3.515,2.2-7.048c2.162.137,4.338.265,6.513.382h0c.122,2.045.245,4.091.368,6.124a427.578,427.578,0,0,0,49.665.267,38.461,38.461,0,0,1-1.326-5.011c-.908-4.721,1.044-9.84,1.253-14.513.147-3.462-1.522-6.4-1.473-10.131.012-.69,3.941-1.27,3.928-1.973-.062-6.2-3.634-14.489-2.455-20.577,1.227-6.257-2.664-12.1-1.265-18.323v0h0Z" transform="translate(-15.66 -3.213)" fill="#3f3d56"/>
      <path id="Path_13" data-name="Path 13" d="M380.474,32.905a8.212,8.212,0,0,0-8.259,8.144V90.122a8.212,8.212,0,0,0,8.259,8.144h15.4a8.212,8.212,0,0,0,8.26-8.144c2.454-24.658,1.552-37.965,0-49.072a8.212,8.212,0,0,0-8.26-8.144h-15.4Z" transform="translate(-14.351 -1.711)" fill="#1397cf"/>
      <path id="Path_14" data-name="Path 14" d="M378.437,32.905a8.212,8.212,0,0,0-8.259,8.144c-.884,19.29-1.5,37.686,0,49.073a8.212,8.212,0,0,0,8.26,8.144h15.4a8.212,8.212,0,0,0,8.259-8.144V41.049a8.212,8.212,0,0,0-8.259-8.144Z" transform="translate(-14.237 -1.711)" fill="#3f3d56"/>
      <path id="Path_15" data-name="Path 15" d="M418.316,107.4s14.563-.582,7.151,5.618c-4.823,4.035-15.685,32.122-26.969,35.52a10.155,10.155,0,0,1-8.013-.937,9.9,9.9,0,0,1-4.72-6.453L375.536,94.14l13.362-2,8.143,37.208Z" transform="translate(-14.479 -4.79)" fill="#ffb6b6"/>
      <ellipse id="Ellipse_1" data-name="Ellipse 1" cx="9.45" cy="9.318" rx="9.45" ry="9.318" transform="translate(359.027 74.147)" fill="#ffb6b6"/>
      <path id="Path_16" data-name="Path 16" d="M438.082,80.918h0c8.657,6.41,11.206,27.432,5.766,36.661-10.4,17.643-30.9,31.227-31.775,29.34-1.2-2.583-3.284.886-3.213,2.021s-3.879.8-3.418,2-2.657,1.463-4.01,2.16c0,0-12.389.207-16.3-5.368s-4.432-13.278-4.432-13.278l-4.852-5.629L401.576,114l-2.121,10.009,12.833-14.734L415,103.36l4.333-2.182,1.436-4.454,4-1.781L440.57,76.8l-2.488,4.118Z" transform="translate(-14.491 -3.993)" fill="#3f3d56"/>
      <path id="Path_17" data-name="Path 17" d="M513.956,258.2a8.65,8.65,0,0,0,1.543-13.291l1.818-79.713-15.974,2.45,1.126,77.317a8.681,8.681,0,0,0-.22,11.649,8.985,8.985,0,0,0,11.706,1.588Z" transform="translate(-19.282 -8.589)" fill="#ffb6b6"/>
      <path id="Path_18" data-name="Path 18" d="M514.348,93.525s-1.06.79,4.374,8.954c1.078,1.619,1.808,8.147,2.319,16.666.167,2.775,1.769,4.725,1.893,7.822.106,2.628-1.261,6.373-1.18,9.1.043,1.454,1.143,2.719,1.18,4.173.016.606-1.028,1.406-1.014,2.01q.024.977.046,1.949c.373,16.191.453,30.814.824,30.567.791-.527-1.173,2.2-.191,2.65s-.839,2.71-.369,3.878c.572,1.424-.139,3-.588,4.424-1.3,4.128-1.576,7.672-2.7,9.633a6.814,6.814,0,0,1,3.24,7.772l-22.514-4.014c-2.745-4.336-2.348-8.886-.478-9.679l-.557-14.109-6.412-73,18.792-8.273,3.337-.526Z" transform="translate(-18.978 -4.863)" fill="#3f3d56"/>
      <path id="Path_19" data-name="Path 19" d="M369.875,46.181c-.323,0-.586.152-.586.339v2.708c0,.187.263.339.586.339s.586-.152.586-.339V46.52C370.461,46.333,370.2,46.181,369.875,46.181Z" transform="translate(-14.238 -2.401)" fill="#3f3d56"/>
      <path id="Path_20" data-name="Path 20" d="M369.875,53.752c-.323,0-.586.152-.586.339v5.247c0,.187.263.339.586.339s.586-.152.586-.339V54.091C370.461,53.9,370.2,53.752,369.875,53.752Z" transform="translate(-14.238 -2.795)" fill="#3f3d56"/>
      <path id="Path_21" data-name="Path 21" d="M403.874,54.752a.657.657,0,0,0-.586.71v11a.586.586,0,0,0,.252.61.606.606,0,0,0,.668,0,.586.586,0,0,0,.252-.61v-11A.657.657,0,0,0,403.874,54.752Z" transform="translate(-15.548 -2.847)" fill="#3f3d56"/>
      <path id="Path_22" data-name="Path 22" d="M368.874,62.609c-.323,0-.586.152-.586.339v5.247c0,.187.263.339.586.339s.586-.152.586-.339V62.947C369.461,62.76,369.2,62.609,368.874,62.609Z" transform="translate(-14.199 -3.255)" fill="#3f3d56"/>
      <ellipse id="Ellipse_2" data-name="Ellipse 2" cx="24.136" cy="23.799" rx="24.136" ry="23.799" transform="translate(433.309 8.516)" fill="#ffb6b6"/>
      <path id="Path_23" data-name="Path 23" d="M501.56,43.25c-1.884,3.718-3.678,6.044-6.936,8.122a11.228,11.228,0,0,1-.4-1.449c-.347.764-.685,1.527-1.04,2.293-2.061,1.135.163-.616-3.21.653l-2.838-4.8c-.777-2.28.324-4.762,1.725-6.735s3.147-3.766,3.907-6.05.086-5.31-2.193-6.16c-2.244-.849-4.723.762-7.108.482-2.753-.32-4.626-3.16-4.776-5.893s.981-5.356,2.088-7.857c-3.334,2.356-13.662,6.577-19.285,6.778a6.829,6.829,0,0,0-2.268-4.5,6.18,6.18,0,0,1-1.087,4.477c-5.5-.278-6.539,7.605-9.381,4.751.887-.44-2.382-10.238-1.5-10.678q-1.024-2.767-2.045-5.518c1.265.314,2.539.635,3.812.948a5.317,5.317,0,0,1,.609-1.915A13.28,13.28,0,0,1,452.514,9c.323-.085.655-.172.99-.243a13.411,13.411,0,0,1,1.5-.242c-.732-.418-1.47-.827-2.2-1.254-.088-.049-.167-.1-.254-.149a28.249,28.249,0,0,1,3.223-1.886c4.7-2.426,9.585-4.9,14.886-5.2a15.062,15.062,0,0,1,9.66,2.742,13.5,13.5,0,0,0,8.311,2.465,9.633,9.633,0,0,1,4.178.918,13.345,13.345,0,0,1-1.952,1.6c1.53.039,3.051.08,4.583.127a20.882,20.882,0,0,1,4.281,5.348c5.365,9.038,6.591,20.661,1.839,30.024Z" transform="translate(-17.165)" fill="#2f2e41"/>
      <path id="Path_24" data-name="Path 24" d="M416.435,435.375a7.554,7.554,0,0,0-4.107-5.6A175.662,175.662,0,0,0,380.4,417.406l-10.321,13.416,7.628-14.156a178.367,178.367,0,0,0-86.344-1.208l3.969,10.791-6.484-10.173a176.151,176.151,0,0,0-36.955,13.7,7.551,7.551,0,0,0-1.943,12.147c4.462.27,7.409,4.358,10.35,10.205a7.758,7.758,0,0,0,8.724,1.432,148.761,148.761,0,0,1,126.174,0,7.755,7.755,0,0,0,8.723-1.432c1.768-4.727,5.412-7.522,10.351-10.205a7.457,7.457,0,0,0,2.163-6.549Z" transform="translate(-9.55 -21.354)" fill="#1397cf"/>
      <path id="Path_25" data-name="Path 25" d="M361.485,485.347q-3.39-.525-6.821-.916L345.7,498.5l6.681-14.308a181.674,181.674,0,0,0-32.667-.339l6.839,14.647-9.206-14.444q-5.27.493-10.464,1.293a6.427,6.427,0,0,0-3.55,10.938c3.7,3.576,7.784,8.542,14.493,14.291a6.491,6.491,0,0,0,5.052,1.873c3.718-.271,7.522-.409,11.307-.409h0c3.785,0,7.59.138,11.307.409a6.51,6.51,0,0,0,5.052-1.873c6.928-5.831,10.429-11.177,14.493-14.29a6.427,6.427,0,0,0-3.55-10.938Z" transform="translate(-11.621 -25.125)" fill="#1397cf"/>
    </g>
  </g>
</svg>
