<svg xmlns="http://www.w3.org/2000/svg" xmlns:xlink="http://www.w3.org/1999/xlink" width="700" height="630" viewBox="0 0 700 630">
  <defs>
    <clipPath id="clip-sign_up">
      <rect width="700" height="630"/>
    </clipPath>
  </defs>
  <g id="sign_up" clip-path="url(#clip-sign_up)">
    <g id="undraw_access_account_re_8spm" transform="translate(0 -0.001)">
      <path id="Path_1" data-name="Path 1" d="M291.376,697.85l-5.843-21.4a314.552,314.552,0,0,0-31.747-10.579l-.738,9.947-2.991-10.958c-13.379-3.552-22.481-5.115-22.481-5.115s12.292,43.421,38.081,76.616l30.047,4.9-23.342,3.126A116.421,116.421,0,0,0,282.8,754.663C320.311,787,362.093,801.838,376.12,787.8s-5.01-51.629-42.522-83.964c-11.629-10.025-26.237-18.07-40.861-24.4Z" transform="translate(-227.576 -177.233)" fill="#f2f2f2"/>
      <path id="Path_2" data-name="Path 2" d="M356.185,664.5l6.91-21.126a283.044,283.044,0,0,0-21.288-24.3l-6.167,8.161,3.538-10.817c-9.478-9.46-16.4-15.167-16.4-15.167s-13.641,43.071-10.043,83.868l22.993,18.621L314,695.21a105.554,105.554,0,0,0,3.219,13.81c14.114,45.691,41.623,78.451,61.443,73.17S403.111,735.587,389,689.9c-4.375-14.165-12.4-28.065-21.4-40.505Z" transform="translate(-236.818 -167.128)" fill="#f2f2f2"/>
      <path id="Path_22" data-name="Path 22" d="M706.736,222.868h-3.645V130.135c0-29.643-25.874-53.673-57.791-53.673H433.753c-31.917,0-57.791,24.03-57.791,53.673V638.884c0,29.643,25.874,53.673,57.791,53.673H645.3c31.916,0,57.79-24.03,57.79-53.672V288.877h3.645Z" transform="translate(-243.795 -76.461)" fill="#e6e6e6"/>
      <path id="Path_23" data-name="Path 23" d="M649.588,93.335H621.977a17.891,17.891,0,0,1-1.968,17.815,20.972,20.972,0,0,1-17.018,8.42H481.8a20.972,20.972,0,0,1-17.016-8.42,17.892,17.892,0,0,1-1.968-17.815H437.023c-23.835,0-43.158,17.946-43.158,40.083v508.01c0,22.137,19.322,40.083,43.158,40.083H649.588c23.835,0,43.158-17.946,43.158-40.083h0V133.417c0-22.136-19.322-40.081-43.157-40.082Z" transform="translate(-245.752 -79.377)" fill="#fff"/>
      <path id="Path_6" data-name="Path 6" d="M528.562,333.74a20,20,0,0,1,10.9-17.518,22.946,22.946,0,0,0-27.573,4.512,19.135,19.135,0,0,0,0,26,22.946,22.946,0,0,0,27.572,4.517A20,20,0,0,1,528.562,333.74Z" transform="translate(-258.095 -117.416)" fill="#ccc"/>
      <path id="Path_7" data-name="Path 7" d="M559.3,333.74a20,20,0,0,1,10.9-17.518,22.947,22.947,0,0,0-27.572,4.512,19.135,19.135,0,0,0,0,26,22.946,22.946,0,0,0,27.571,4.517A20,20,0,0,1,559.3,333.74Z" transform="translate(-261.455 -117.415)" fill="#ccc"/>
      <ellipse id="Ellipse_1" data-name="Ellipse 1" cx="21.778" cy="20.226" rx="21.778" ry="20.226" transform="translate(302.823 196.097)" fill="#1397cf"/>
      <path id="Path_8" data-name="Path 8" d="M616.737,387.944H489.813a4.409,4.409,0,0,1-4.558-4.233V265.83a4.41,4.41,0,0,1,4.558-4.233H616.737a4.409,4.409,0,0,1,4.558,4.233V383.711A4.409,4.409,0,0,1,616.737,387.944ZM489.813,263.291a2.645,2.645,0,0,0-2.734,2.54V383.711a2.645,2.645,0,0,0,2.734,2.54H616.737a2.645,2.645,0,0,0,2.734-2.54V265.831a2.645,2.645,0,0,0-2.734-2.54Z" transform="translate(-255.741 -108.447)" fill="#ccc"/>
      <rect id="Rectangle_1" data-name="Rectangle 1" width="194.664" height="1.693" transform="translate(194.672 369.858)" fill="#ccc"/>
      <ellipse id="Ellipse_2" data-name="Ellipse 2" cx="6.148" cy="5.71" rx="6.148" ry="5.71" transform="translate(194.672 347.866)" fill="#1397cf"/>
      <rect id="Rectangle_2" data-name="Rectangle 2" width="194.664" height="1.693" transform="translate(194.672 426.95)" fill="#ccc"/>
      <ellipse id="Ellipse_3" data-name="Ellipse 3" cx="6.148" cy="5.71" rx="6.148" ry="5.71" transform="translate(194.672 404.96)" fill="#1397cf"/>
      <path id="Path_1-2" data-name="Path 1" d="M652.649,665.435H591.13a3.877,3.877,0,0,1-4.008-3.722V641.687a3.877,3.877,0,0,1,4.008-3.723h61.519a3.877,3.877,0,0,1,4.008,3.723v20.026a3.878,3.878,0,0,1-4.009,3.723Z" transform="translate(-266.876 -173.471)" fill="#1397cf"/>
      <ellipse id="Ellipse_7" data-name="Ellipse 7" cx="6.148" cy="5.71" rx="6.148" ry="5.71" transform="translate(214.726 347.866)" fill="#1397cf"/>
      <ellipse id="Ellipse_8" data-name="Ellipse 8" cx="6.148" cy="5.71" rx="6.148" ry="5.71" transform="translate(234.779 347.866)" fill="#1397cf"/>
      <ellipse id="Ellipse_9" data-name="Ellipse 9" cx="6.148" cy="5.71" rx="6.148" ry="5.71" transform="translate(214.726 404.96)" fill="#1397cf"/>
      <ellipse id="Ellipse_10" data-name="Ellipse 10" cx="6.148" cy="5.71" rx="6.148" ry="5.71" transform="translate(234.779 404.96)" fill="#1397cf"/>
      <path id="Path_88" data-name="Path 88" d="M890.86,823.118H251.352c-1.369,0-2.478-.452-2.478-1.007s1.109-1.008,2.478-1.008H890.86c1.368,0,2.478.452,2.478,1.008S892.228,823.118,890.86,823.118Z" transform="translate(-229.904 -205.111)" fill="#3f3d56"/>
      <path id="Path_2-2" data-name="Path 2" d="M790.676,560.691a9.209,9.209,0,0,1,1.257.651l39.95-15.836,1.426-9.774,15.963-.091-.943,22.416L795.6,571.01a8.394,8.394,0,0,1-.4,1,9.425,9.425,0,0,1-12.077,4.093,8.226,8.226,0,0,1-4.474-11.193A9.413,9.413,0,0,1,790.676,560.691Z" transform="translate(-287.72 -155.793)" fill="#ffb8b8"/>
      <path id="Path_3" data-name="Path 3" d="M635,726.851h-10.92l-5.195-39.118H635Z" transform="translate(-67.646 -118.817)" fill="#ffb8b8"/>
      <path id="Path_4" data-name="Path 4" d="M614.336,731.518H635.4v12.315H601.076C601.076,737.032,607.013,731.518,614.336,731.518Z" transform="translate(-65.7 -126.382)" fill="#2f2e41"/>
      <path id="Path_5" data-name="Path 5" d="M682.185,723.426l-10.867.994-9.3-38.456,16.039-1.468Z" transform="translate(-72.361 -118.258)" fill="#ffb8b8"/>
      <path id="Path_6-2" data-name="Path 6" d="M13.1-.069,34.143.077,34.235,12.4l-34.3-.239h0C-.112,5.356,5.779-.12,13.1-.069Z" transform="translate(577.857 605.341) rotate(-5.625)" fill="#2f2e41"/>
      <ellipse id="Ellipse_1-2" data-name="Ellipse 1" cx="21.876" cy="20.318" rx="21.876" ry="20.318" transform="translate(548.52 297.815)" fill="#ffb8b8"/>
      <path id="Path_7-2" data-name="Path 7" d="M846.057,772.057A3.912,3.912,0,0,1,842.124,769c-5.652-29.14-24.127-124.42-24.569-127.06a1.105,1.105,0,0,1-.014-.183v-7.1a1.172,1.172,0,0,1,.249-.721l2.441-3.175a1.345,1.345,0,0,1,1.018-.517c13.915-.606,59.484-2.381,61.686.173h0c2.211,2.567,1.43,10.346,1.251,11.879l.009.16,20.473,121.6a3.776,3.776,0,0,1-3.309,4.248l-12.787,1.957a4.058,4.058,0,0,1-4.476-2.558c-3.955-11.737-17.216-51.221-21.813-66.5a.446.446,0,0,0-.491-.3.424.424,0,0,0-.382.414c.23,14.564.784,51.721.976,64.555l.021,1.382A3.853,3.853,0,0,1,858.761,771l-12.331,1.041C846.306,772.052,846.181,772.057,846.057,772.057Z" transform="translate(-292.061 -171.934)" fill="#2f2e41"/>
      <path id="Path_99" data-name="Path 99" d="M848.663,494.859c-3.818,2.108-6.1,5.981-7.413,9.923a88.039,88.039,0,0,0-4.351,22.467l-1.386,22.832-17.151,60.529c14.865,11.681,23.439,9.026,43.449-.528s22.3,3.186,22.3,3.186l4-51.5,5.717-56.279a26.109,26.109,0,0,0-4.33-3.867,46.9,46.9,0,0,0-37.8-7.441Z" transform="translate(-292.151 -148.42)" fill="#1397cf"/>
      <path id="Path_8-2" data-name="Path 8" d="M844.583,574.692a9.728,9.728,0,0,1,1.336.582l39.5-18.362.656-9.948,16.294-1.043.873,22.677L850.455,584.81a9.123,9.123,0,0,1-7.868,6.635,9.564,9.564,0,0,1-9.466-4.487,8.2,8.2,0,0,1,1.168-9.81,9.828,9.828,0,0,1,10.292-2.457Z" transform="translate(-293.642 -157.568)" fill="#ffb8b8"/>
      <path id="Path_101" data-name="Path 101" d="M900.2,508.182c9.719,3.186,11.431,37.7,11.431,37.7-11.434-5.841-25.155,3.717-25.155,3.717s-2.858-9.026-6.289-20.708a19.225,19.225,0,0,1,4.573-19.114S890.483,504.995,900.2,508.182Z" transform="translate(-298.812 -150.859)" fill="#1397cf"/>
      <path id="Path_102" data-name="Path 102" d="M884.9,460.486c-2.725-2.025-6.444,1.656-6.444,1.656l-2.181-18.227s-13.629,1.516-22.351-.506-10.085,7.342-10.085,7.342a60.407,60.407,0,0,1-.272-11.392c.545-4.557,7.632-9.114,20.17-12.152s19.08,10.126,19.08,10.126C891.54,441.383,887.626,462.511,884.9,460.486Z" transform="translate(-294.89 -136.98)" fill="#2f2e41"/>
    </g>
  </g>
</svg>
