<svg xmlns="http://www.w3.org/2000/svg" xmlns:xlink="http://www.w3.org/1999/xlink" width="950" height="800" viewBox="0 0 950 800">
  <defs>
    <clipPath id="clip-welcome">
      <rect width="950" height="800"/>
    </clipPath>
  </defs>
  <g id="welcome" clip-path="url(#clip-welcome)">
    <g id="welcome-2" data-name="welcome" transform="translate(48 53.001)">
      <path id="Path_1" data-name="Path 1" d="M823.779,397.87q0,15.1-1.276,29.887-1,11.545-2.743,22.884-1.847,12-4.527,23.721v.009q-1.752,7.71-3.848,15.295A339.327,339.327,0,0,1,796.294,532.8q-1.955,4.578-4.038,9.092a340.135,340.135,0,0,1-17.617,33.254,347.505,347.505,0,0,1-67.31,80.885q-4.291,3.794-8.7,7.463a347.4,347.4,0,0,1-222.49,80.057c-192,0-347.64-154.766-347.64-345.685S284.14,52.185,476.139,52.185A347.343,347.343,0,0,1,692.3,127.128q4.318,3.4,8.528,6.959a349.171,349.171,0,0,1,38.231,37.629h.009a343.206,343.206,0,0,1,84.71,226.154Z" transform="translate(-128.499 -52.185)" fill="#f2f2f2"/>
      <path id="Path_2" data-name="Path 2" d="M236.088,492.051c-33.117-19.6-58.112-56.228-54.867-94.413A178.041,178.041,0,0,0,292.876,446.3c16.135.948,34.18.332,46.056,11.233,7.39,6.783,10.83,16.994,11.395,26.979s-1.447,19.916-3.448,29.717l.689,2.4C309.029,516.773,269.2,511.651,236.088,492.051Z" transform="translate(-133.465 -86.654)" fill="#e6e6e6"/>
      <path id="Path_3" data-name="Path 3" d="M181.965,397.535A151.235,151.235,0,0,0,245.045,466a65.572,65.572,0,0,0,19.041,7.493,37.686,37.686,0,0,0,19.666-1.549c5.915-1.984,11.735-4.694,18.033-5.213a23.027,23.027,0,0,1,17.611,6.459c5.907,5.457,9.49,12.7,12.747,19.9,3.616,8,7.244,16.362,14.176,22.114.84.7-.3,1.952-1.135,1.256-12.061-10.007-14.03-26.765-23.671-38.551-4.5-5.5-10.691-9.684-18.048-9.573-6.433.1-12.437,2.886-18.409,4.946a40.21,40.21,0,0,1-19.173,2.227,60.645,60.645,0,0,1-19.26-6.737,147.162,147.162,0,0,1-36.663-27.657,153.559,153.559,0,0,1-29.613-43.063c-.453-.986,1.168-1.495,1.618-.515Z" transform="translate(-133.401 -86.591)" fill="#fff"/>
      <path id="Path_4" data-name="Path 4" d="M238.565,468.46a22.853,22.853,0,0,1-28.8,6.262c-.963-.514-.205-2.026.759-1.511a21.161,21.161,0,0,0,26.782-5.88C237.96,466.464,239.219,467.6,238.565,468.46Z" transform="translate(-136.152 -93.577)" fill="#fff"/>
      <path id="Path_5" data-name="Path 5" d="M289.781,478.538A43.573,43.573,0,0,0,274.5,450.6c-.837-.7.3-1.955,1.135-1.256a45.321,45.321,0,0,1,15.842,29.106c.134,1.081-1.563,1.165-1.7.09Z" transform="translate(-142.296 -91.793)" fill="#fff"/>
      <path id="Path_6" data-name="Path 6" d="M201.818,429.8a12.778,12.778,0,0,0,4.336-11.371c-.147-1.079,1.55-1.162,1.7-.09a14.318,14.318,0,0,1-4.769,12.59.881.881,0,0,1-1.2.064.845.845,0,0,1-.064-1.193Z" transform="translate(-135.421 -88.644)" fill="#fff"/>
      <path id="Path_7" data-name="Path 7" d="M297.321,315.46c.111.671.222,1.342.346,2.019a168.01,168.01,0,0,0,6.805,26.53c.22.672.454,1.35.693,2.014a177.706,177.706,0,0,0,33.12,56.631,173.32,173.32,0,0,0,18.734,18.5c9.264,7.852,19.936,15.632,25.876,25.77a29.594,29.594,0,0,1,1.693,3.26l-25.227,57.223c-.123.1-.233.209-.356.311l-.9,2.331c-.367-.269-.741-.556-1.107-.826-.213-.155-.421-.323-.634-.479-.14-.108-.281-.216-.413-.3-.047-.036-.093-.072-.127-.1-.133-.089-.247-.186-.367-.269q-3.145-2.4-6.268-4.849c-.013-.006-.013-.006-.021-.024-15.829-12.488-30.748-26.4-43.07-42.121-.371-.473-.755-.951-1.114-1.451a164.792,164.792,0,0,1-14.712-22.584,145.377,145.377,0,0,1-6.308-13.349,120.649,120.649,0,0,1-8.681-36.9c-1.85-25.273,4.45-50.854,20.776-69.886C296.478,316.416,296.89,315.942,297.321,315.46Z" transform="translate(-142.368 -78.455)" fill="#e6e6e6"/>
      <path id="Path_8" data-name="Path 8" d="M299.857,315.833a150.129,150.129,0,0,0,8.915,92.427,64.924,64.924,0,0,0,10.666,17.382,37.51,37.51,0,0,0,16.641,10.537c5.924,1.958,12.212,3.278,17.555,6.633a22.813,22.813,0,0,1,10.15,15.7c1.413,7.894-.112,15.821-1.873,23.523-1.956,8.551-4.123,17.4-2.071,26.144.249,1.059-1.419,1.381-1.667.323-3.571-15.211,5-29.77,4.442-44.952-.262-7.084-2.673-14.133-8.614-18.449-5.195-3.774-11.678-5.141-17.693-7.072a40.051,40.051,0,0,1-16.657-9.7,60.056,60.056,0,0,1-11.3-16.91,145.785,145.785,0,0,1-12.528-44.033,152.746,152.746,0,0,1,2.429-52.112c.235-1.059,1.837-.494,1.6.557Z" transform="translate(-144.23 -78.38)" fill="#fff"/>
      <path id="Path_9" data-name="Path 9" d="M302.321,406.989a22.812,22.812,0,0,1-26.79-12.245c-.458-.987,1.063-1.741,1.521-.753A21.123,21.123,0,0,0,302,405.331c1.051-.3,1.37,1.361.325,1.658Z" transform="translate(-142.413 -86.244)" fill="#fff"/>
      <path id="Path_10" data-name="Path 10" d="M336.937,445.381a43.427,43.427,0,0,0,4.716-31.456c-.245-1.06,1.422-1.382,1.667-.323a45.171,45.171,0,0,1-4.974,32.723c-.548.943-1.954-.006-1.409-.944Z" transform="translate(-148.224 -88.182)" fill="#fff"/>
      <path id="Path_11" data-name="Path 11" d="M295.851,353.854A12.9,12.9,0,0,0,306.2,347.37c.535-.949,1.941,0,1.409.944a14.451,14.451,0,0,1-11.431,7.2.878.878,0,0,1-1-.667.849.849,0,0,1,.671-.991Z" transform="translate(-144.281 -81.599)" fill="#fff"/>
      <path id="Path_12" data-name="Path 12" d="M390.049,141.124,432.6,636.418l-85.1,6.362V147.426C357.639,140.754,372.2,139.71,390.049,141.124Z" transform="translate(-149.236 -61.005)" fill="#ccc"/>
      <path id="Path_13" data-name="Path 13" d="M622.049,141.124,579.5,636.418l85.1,6.362V147.426C654.458,140.754,639.9,139.71,622.049,141.124Z" transform="translate(-171.203 -61.005)" fill="#ccc"/>
      <path id="Path_14" data-name="Path 14" d="M629.416,663.014H358.863A16.336,16.336,0,0,1,342.5,646.742V154.457a16.336,16.336,0,0,1,16.363-16.271H629.416a16.336,16.336,0,0,1,16.363,16.271V646.742A16.336,16.336,0,0,1,629.416,663.014ZM358.863,143.586a10.913,10.913,0,0,0-10.932,10.87V646.742a10.913,10.913,0,0,0,10.931,10.87H629.416a10.913,10.913,0,0,0,10.932-10.87V154.457a10.913,10.913,0,0,0-10.931-10.87Z" transform="translate(-148.763 -60.766)" fill="#ccc"/>
      <rect id="Rectangle_1" data-name="Rectangle 1" width="298" height="6" transform="translate(197 158.999)" fill="#ccc"/>
      <rect id="Rectangle_2" data-name="Rectangle 2" width="298" height="5" transform="translate(197 249.999)" fill="#ccc"/>
      <rect id="Rectangle_3" data-name="Rectangle 3" width="5.432" height="245.76" transform="translate(287.676 80.12)" fill="#ccc"/>
      <rect id="Rectangle_4" data-name="Rectangle 4" width="5.432" height="245.76" transform="translate(397.646 80.12)" fill="#ccc"/>
      <path id="Path_15" data-name="Path 15" d="M672.136,732.3H315.443a24.306,24.306,0,1,1,0-48.612H672.136a24.306,24.306,0,1,1,0,48.612Z" transform="translate(-143.886 -115.196)" fill="#ccc"/>
      <rect id="Rectangle_5" data-name="Rectangle 5" width="297" height="19" transform="translate(198 312.999)" fill="#ccc"/>
      <path id="Path_16" data-name="Path 16" d="M443.611,455.34l-.376-.18c-20.181-9.694-46.608-9.685-85.691.032l-.417.1-.125-.41c-4.134-13.48-8.818-28.748-.019-36.259.123-22.042,19.568-39.941,43.451-39.941s43.32,17.889,43.451,39.926c13.089,9.951,6.851,24.655-.062,36.371Z" transform="translate(-149.661 -84.763)" fill="#2f2e41"/>
      <path id="Path_17" data-name="Path 17" d="M580.316,409.733a12.469,12.469,0,0,1-6.3,8.486,12.6,12.6,0,0,1-10.585.648l-71.318,71.266-6.363-22.128,70.833-66.18a12.6,12.6,0,0,1,23.73,7.908Z" transform="translate(-162.327 -86.356)" fill="#ffb6b6"/>
      <path id="Path_18" data-name="Path 18" d="M395.371,481.153s-6.471,14.581,9.5,23.572,71.767-3.431,80.821-5.166S528.559,447.5,528.559,447.5l-4.782-24.679-44.849,38.714Z" transform="translate(-153.646 -89.167)" fill="#1397cf"/>
      <path id="Path_19" data-name="Path 19" d="M382.453,577.147l.905,17.1s-2.672,15.151-.474,18.421c2.181,3.253,61.7,3.664,61.7,3.664s3.933-21.08,7.32-39.531Z" transform="translate(-152.504 -104.531)" fill="#ffb6b6"/>
      <path id="Path_20" data-name="Path 20" d="M442.022,770.4l12.443-2.5L450.9,717.931l-18.363,3.688Z" transform="translate(-40.956 -71.635)" fill="#ffb6b6"/>
      <path id="Path_21" data-name="Path 21" d="M460.556,698.1l11.567-5.172-15.006-47.816-17.072,7.634Z" transform="translate(-41.667 -64.369)" fill="#ffb6b6"/>
      <path id="Path_22" data-name="Path 22" d="M579.8,712.463l-21.78,12.263L504.307,638.9c-37.708,25.261-74.581,37.359-111.753,43.814-12.568,2.225-25.381,1.1-27.794-11.622q-.169-.892-.27-1.794c-1.484-13.893,15.9-31.7,18.1-48.7l47.566-2.839,5.866,7.478,55.008-33.629a23.688,23.688,0,0,1,32.5,8.17q.545.893,1.013,1.83Z" transform="translate(-150.836 -105.67)" fill="#2f2e41"/>
      <path id="Path_23" data-name="Path 23" d="M565.5,773.064l-24.922,2.3-45.187-91.9c-44.809,7.663-87.082,10.118-123.647.848a23.491,23.491,0,0,1-16.9-28.391q.213-.882.494-1.746c4.376-13.276,15.831-22.67,24.856-37.273l65.922,1-7.363,25.262,64.039-8.24a23.585,23.585,0,0,1,26.27,20.7q.129,1.037.169,2.082Z" transform="translate(-149.868 -108.533)" fill="#2f2e41"/>
      <ellipse id="Ellipse_1" data-name="Ellipse 1" cx="26.768" cy="26.618" rx="26.768" ry="26.618" transform="translate(228.921 304.277)" fill="#ffb6b6"/>
      <path id="Path_24" data-name="Path 24" d="M391.375,460l24.544,2.871a5,5,0,0,1,4.308,3.883l3.9,17.76L448.462,513s8.737,16.29,5.461,34.753-4.716,32.181-4.716,32.181-65.27,24.334-67.454,21.076-2.893-18.057-2.893-18.057L370.121,486.3s9.83-16.29,15.291-16.29C388.936,469.892,388.484,462.005,391.375,460Z" transform="translate(-151.378 -92.876)" fill="#1397cf"/>
      <ellipse id="Ellipse_2" data-name="Ellipse 2" cx="6.232" cy="7.436" rx="6.232" ry="7.436" transform="translate(292.26 478.131)" fill="#6c63ff"/>
      <path id="Path_25" data-name="Path 25" d="M564.693,813.065l18.97-9.453,3.575,8.294,23.988,4.822a5.628,5.628,0,0,1,1.111,10.706l-23.177,9.879-7.531-6.5,1.977,8.869-8.739,3.725Z" transform="translate(-169.801 -127.162)" fill="#2f2e41"/>
      <path id="Path_26" data-name="Path 26" d="M585.2,750.66l18.8-9.784,3.721,8.23,24.069,4.4a5.628,5.628,0,0,1,1.3,10.685l-23,10.283-7.645-6.368,2.133,8.833-8.671,3.877Z" transform="translate(-171.743 -120.902)" fill="#2f2e41"/>
      <path id="Path_27" data-name="Path 27" d="M391.952,406.908a34.389,34.389,0,0,1-19.759-6.2l-.193-.134v-.234a25.758,25.758,0,0,1,25.8-25.656h10.864a25.758,25.758,0,0,1,25.8,25.656,5.99,5.99,0,0,1-5.876,5.945l-36.028.618C392.359,406.907,392.155,406.908,391.952,406.908Z" transform="translate(-151.556 -84.364)" fill="#2f2e41"/>
      <path id="Path_46" data-name="Path 46" d="M7.113-.07c3.994.01,7.243,4.457,7.257,9.934s-3.214,9.909-7.208,9.9S-.082,15.306-.1,9.829,3.119-.08,7.113-.07Z" transform="translate(268.639 297.517) rotate(-30)" fill="#2f2e41"/>
      <path id="Path_47" data-name="Path 47" d="M9.83-.11c5.484.015,9.94,3.261,9.951,7.25s-4.426,7.21-9.91,7.194S-.069,11.073-.08,7.084,4.346-.126,9.83-.11Z" transform="translate(213.431 302.61) rotate(-45)" fill="#2f2e41"/>
      <path id="Path_28" data-name="Path 28" d="M640.93,662.185H614.211a4.147,4.147,0,0,0-3.167,1.456,6.348,6.348,0,0,0-6.726,3.213,6.274,6.274,0,0,0,1.013,7.351,6.362,6.362,0,0,0,7.347,1.295l2.216,7.161a4.172,4.172,0,0,0,3.99,2.931h17.371a4.172,4.172,0,0,0,3.99-2.931l4.674-15.1a4.133,4.133,0,0,0-.632-3.687A4.183,4.183,0,0,0,640.93,662.185Zm-31.013,12.153a4.5,4.5,0,1,1,0-9c.083,0,.16.02.241.024a4.086,4.086,0,0,0,.063,2.2l1.912,6.18a4.489,4.489,0,0,1-2.217.6Z" transform="translate(-173.482 -113.051)" fill="#3f3d56"/>
      <path id="Path_29" data-name="Path 29" d="M502.3,632.347a12.575,12.575,0,0,1-9.982-3.562,12.423,12.423,0,0,1-3.662-9.9L399.543,571.4l19.492-12.41,84.079,48.484a12.523,12.523,0,0,1-.81,24.873Z" transform="translate(-154.164 -102.754)" fill="#ffb6b6"/>
      <path id="Path_30" data-name="Path 30" d="M382.049,475.825s-15.9-1.98-19.985,15.808,23.9,67.378,28.165,75.505,62.451,25.9,62.451,25.9l22.4-11.636L424.921,549.79Z" transform="translate(-150.577 -94.449)" fill="#1397cf"/>
      <path id="Path_31" data-name="Path 31" d="M378.458,342h5.432a9.931,9.931,0,0,1,9.958,9.9H368.5A9.931,9.931,0,0,1,378.458,342Z" transform="translate(-34.892 -34.125)" fill="#ccc"/>
      <ellipse id="Ellipse_5" data-name="Ellipse 5" cx="53.814" cy="53.511" rx="53.814" ry="53.511" transform="translate(117.51 16.098)" fill="#f25151"/>
      <path id="Path_32" data-name="Path 32" d="M481.414,121.938c-14.242-14.856-30.782-28.408-50.362-35.57a81.321,81.321,0,0,0-16.868-4.215c-.046-.006-.09,0-.136,0a2.5,2.5,0,0,0-.284-.056,65.291,65.291,0,0,0-24.1,1.447,66.844,66.844,0,0,0-11.222,3.888,98.283,98.283,0,0,0-10.53,5.934A68.73,68.73,0,0,1,344.64,102a78.711,78.711,0,0,1-12.5,1.22c-3.637.073-7.067.2-10.514,1.5a25.149,25.149,0,0,0-15.368,16.547,1.623,1.623,0,0,0,.727,1.777c.932.664,1.841,1.417,2.82,2.009a8.838,8.838,0,0,0,2.755.747q2.336.49,4.677.952,8.627,1.7,17.325,3.009,17.6,2.65,35.393,3.733a396.3,396.3,0,0,0,71.235-2.129,397.48,397.48,0,0,0,39.522-6.8,1.585,1.585,0,0,0,.7-2.631Z" transform="translate(-145.327 -55.118)" fill="#e6e6e6"/>
      <path id="Path_33" data-name="Path 33" d="M307.505,165.624a81.323,81.323,0,0,0-16.868-4.215c-.046-.006-.09,0-.136,0a2.5,2.5,0,0,0-.285-.056,65.291,65.291,0,0,0-24.1,1.447,66.843,66.843,0,0,0-11.222,3.887,98.288,98.288,0,0,0-10.53,5.934,68.73,68.73,0,0,1-23.269,8.632,78.706,78.706,0,0,1-12.5,1.22c-3.637.073-7.068.2-10.514,1.5a25.149,25.149,0,0,0-15.368,16.547,1.623,1.623,0,0,0,.727,1.777c.932.664,1.841,1.417,2.82,2.009a8.839,8.839,0,0,0,2.755.747q2.336.49,4.677.952,8.627,1.7,17.325,3.009,17.6,2.65,35.393,3.733a396.3,396.3,0,0,0,71.235-2.129,397.484,397.484,0,0,0,39.522-6.8,1.585,1.585,0,0,0,.7-2.63C343.626,186.338,327.086,172.785,307.505,165.624Z" transform="translate(-133.628 -63.026)" fill="#e6e6e6"/>
      <path id="Path_34" data-name="Path 34" d="M612.98,551.107,571.6,497.048l-32.653,18.359,69.194,81.706Z" transform="translate(-51.031 -49.595)" fill="#3f3d56"/>
      <path id="Path_35" data-name="Path 35" d="M842.137,498.077a294.934,294.934,0,0,0,10.52,66.986q-1.955,4.577-4.038,9.092A340.169,340.169,0,0,1,831,607.409a347.508,347.508,0,0,1-67.31,80.885q-4.291,3.794-8.7,7.463c-16.757-22.974-25.8-48.324-29.377-74.412-.453-3.313-.824-6.662-1.1-9.992v-.018a211.937,211.937,0,0,1-.661-24.342c.009-.648.027-1.305.054-1.963a260.536,260.536,0,0,1,2.29-25.989v-.009c.136-.99.272-1.981.425-2.971.435-2.971.923-5.941,1.458-8.894a358.639,358.639,0,0,1,12.982-50.223v-.009c.154-.477.308-.945.48-1.413.6-1.783,1.2-3.547,1.829-5.311a3.083,3.083,0,0,1,.145-.405q1.208-3.457,2.471-6.86.34-.945.706-1.89c.951-2.53,1.919-5.041,2.906-7.517.308-.792.625-1.584.942-2.368.244-.6.48-1.206.733-1.8v-.009q2.159-5.307,4.373-10.407c4.137-9.56,8.392-18.554,12.539-26.845l.009-.009c17.21-34.325,32.854-56.615,32.854-56.615l58.746,18.9c-7.007,12.36-12.43,30.59-15.4,52.1a289.209,289.209,0,0,0-2.254,51.583Z" transform="translate(-184.862 -84.444)" fill="#3f3d56"/>
      <path id="Path_36" data-name="Path 36" d="M734.137,502.654c-.344-.8-.733-1.584-1.132-2.368a44.353,44.353,0,0,0-7.885-10.8c-.471-.477-.96-.954-1.467-1.4a44.284,44.284,0,0,0-41.174-10.136l-.036.018-.272.072.063.306a25.339,25.339,0,0,0,1.177,4.186c.136.369.29.72.443,1.071.063.162.145.306.217.468,0,0-.009.009.009.009,0,.009.009.018.009.027.172.333.335.675.516,1-.371-.351-.724-.711-1.068-1.08-.335-.342-.643-.7-.951-1.062a29.847,29.847,0,0,1-2.852-3.907l-.145-.243-.254.1a44.566,44.566,0,0,0-9.7,4.726l-.326.216a19.832,19.832,0,0,1-15.852,2.575,31.581,31.581,0,0,0-24.978,4.06,31,31,0,0,0-6.5,5.635c-.163.189-.326.387-.489.576-.344.414-.67.837-.987,1.269a30.744,30.744,0,0,0-6.038,15.511l-.018.207.172.117a26.984,26.984,0,0,0,10.176,4.213,30.614,30.614,0,0,1-6.917.171h-.009a28.172,28.172,0,0,1-3.114-.432l-.19-.036h-.009l-.235-.045.036.432A30.848,30.848,0,0,0,619.4,533.54l.091.126a1.255,1.255,0,0,1,.091.144,32.338,32.338,0,0,1,3.187,6.221,29.477,29.477,0,0,1,1.34,17.023,31.128,31.128,0,0,0,28.128,37.926c.751.063,1.512.1,2.272.1a31.366,31.366,0,0,0,12.647-2.62l.145-.054.036-.162a30.387,30.387,0,0,1,3.2-7,21.112,21.112,0,0,0-.67,5.284v.594l.516-.3c.444-.261.9-.54,1.3-.8a31.842,31.842,0,0,0,6.582-5.689c.751-.864,1.512-1.7,2.309-2.539l.009-.009c1.548-1.638,3.187-3.241,4.889-4.771a91.369,91.369,0,0,1,11.588-8.8,100.052,100.052,0,0,1,12.792-6.914h.009c.5-.234,1-.459,1.5-.675a44.212,44.212,0,0,0,6.346-3.385c.072-.045.136-.081.2-.126a43.786,43.786,0,0,0,16.223-54.463Z" transform="translate(-174.5 -94.521)" fill="#1397cf"/>
      <path id="Path_37" data-name="Path 37" d="M626.564,578.46a30.884,30.884,0,0,0-.561,3.316,31.275,31.275,0,0,1-.708-16.363c.189-.829.33-1.669.44-2.512A29.352,29.352,0,0,1,626.564,578.46Z" transform="translate(-175.467 -103.144)" opacity="0.15"/>
      <path id="Path_38" data-name="Path 38" d="M626.5,536.357a30.62,30.62,0,0,1-8.086.038,31.053,31.053,0,0,1-1.817-4.091,26.613,26.613,0,0,0,9.9,4.053Z" transform="translate(-174.716 -100.091)" opacity="0.15"/>
      <path id="Path_39" data-name="Path 39" d="M618.005,522.43a31.16,31.16,0,0,0-1.957,7.837,30.787,30.787,0,0,1-1.45-7.893l-.022-.432.427.082Q616.493,522.3,618.005,522.43Z" transform="translate(-174.525 -99.057)" opacity="0.15"/>
      <path id="Path_40" data-name="Path 40" d="M628.748,490.186a31.5,31.5,0,0,1,24.963-4.065,19.8,19.8,0,0,0,15.861-2.571l.327-.214a44.436,44.436,0,0,1,9.7-4.737l.261-.09.143.234a29.843,29.843,0,0,0,4.867,6.054,22.78,22.78,0,0,1-2.37-6.761l-.062-.312.309-.081a44.3,44.3,0,0,1,39.113,8.371,43.753,43.753,0,0,1,16.216,36.37,44.137,44.137,0,0,0-54.061-31.694l-.309.081.062.312a22.777,22.777,0,0,0,2.37,6.761,29.849,29.849,0,0,1-4.867-6.054l-.143-.234-.261.09a44.432,44.432,0,0,0-9.7,4.737l-.327.214a19.8,19.8,0,0,1-15.861,2.571,31.342,31.342,0,0,0-36.031,16.588,37.99,37.99,0,0,1-4.068-2.26l-.177-.112.021-.207a30.958,30.958,0,0,1,14.023-22.99Z" transform="translate(-174.537 -94.491)" opacity="0.15"/>
      <path id="Path_41" data-name="Path 41" d="M963.361,224.386l-.86-.567-.625.81a73.56,73.56,0,0,0-11.4,20.066,95.615,95.615,0,0,1,4.364-24.567l.272-.837-.779-.441A143.207,143.207,0,0,0,922.2,205.6l-1.222-.324a63.348,63.348,0,0,1-39.97-32.66A100.95,100.95,0,0,0,780.126,118.16h-.009c-.217.018-.444.045-.661.072-.371.036-.733.081-1.1.126-.742.1-1.467.2-2.191.306-.616.09-1.24.189-1.856.3-.326.045-.643.1-.96.162s-.643.108-.96.171h-.009a100.248,100.248,0,0,0-17.8,5.086h-.009v.009l-1.458.567q-2.254.918-4.472,1.944c-.335.153-.661.315-1,.468-.09.045-.19.09-.281.144-.951.45-1.892.918-2.825,1.413-.136.063-.272.135-.407.207l-.869.459q-2.865,1.539-5.631,3.268c-.154.09-.3.18-.453.279s-.335.216-.5.324c-.1.054-.2.126-.3.189-.281.171-.552.351-.824.54-.543.351-1.086.711-1.62,1.08-.552.369-1.1.756-1.639,1.143l-.543.387.1.666c.091.549.172,1.1.272,1.638s.181,1.071.281,1.6c.154.891.326,1.773.5,2.629.118.567.226,1.125.353,1.674q.177.851.38,1.7c.263,1.17.543,2.3.842,3.421.145.558.3,1.116.462,1.665.091.333.181.666.281.99l.217.675c.018.072.036.153.063.234a2.128,2.128,0,0,0,.072.225q.149.5.3.972c.054.171.109.342.172.5.127.387.263.783.4,1.161.145.432.3.864.453,1.287.036.108.073.207.109.315.027.081.054.162.091.243s.072.189.109.279c.154.405.308.819.471,1.224.054.144.109.3.172.441a64.348,64.348,0,0,0,5.387,10.533q-3.517-3-6.772-6.356a97.038,97.038,0,0,1-9.234-11.082c-.226-.306-.453-.621-.661-.936-.425-.6-.842-1.206-1.249-1.818-.435-.63-.851-1.287-1.258-1.935-.272-.432-.543-.873-.806-1.305-.263-.414-.507-.819-.742-1.233l-.706-1.206h-.009v.009l-1,.972c-.4.387-.8.774-1.186,1.161a99.919,99.919,0,0,0-25.593,43.8l-.136.5-.136.513c-.263.918-.525,1.809-.806,2.719v.009c-.272.9-.561,1.8-.869,2.683-.281.837-.57,1.665-.878,2.494q-.149.419-.326.837c-.19.54-.4,1.071-.607,1.611-.1.243-.2.5-.3.738-.244.594-.489,1.188-.733,1.773-.036.09-.081.189-.127.279-.072.18-.154.36-.226.531-.19.432-.389.873-.579,1.305-.136.279-.263.567-.389.846-.054.126-.118.252-.172.378-.335.72-.679,1.431-1.041,2.134-.407.828-.824,1.656-1.267,2.467-.389.756-.8,1.494-1.222,2.233-.733,1.305-1.5,2.6-2.3,3.862-.308.486-.616.972-.932,1.458-.073.117-.145.234-.217.342-.263.423-.534.828-.815,1.242-.19.279-.38.558-.57.828-.317.486-.652.954-1,1.413-.091.144-.19.279-.29.414-.507.7-1.014,1.386-1.53,2.071-.018.009-.018.018-.027.027s-.018.009-.027.018c-.226.3-.453.594-.688.882-.308.423-.643.837-.978,1.242-.543.684-1.114,1.377-1.693,2.052-.018.018-.027.036-.045.045a96.164,96.164,0,0,1-9.723,9.83c-.063.054-.109.108-.172.153-.489.423-.978.846-1.485,1.26l-.625.513c-.344.288-.7.576-1.041.837a.718.718,0,0,1-.136.108c-.308.252-.607.486-.914.72-.371.3-.742.576-1.123.855Q655.2,247.2,652.368,249c-.281.189-.579.378-.869.558-.172.108-.344.216-.507.306-.688.423-1.376.837-2.064,1.233s-1.394.792-2.091,1.17c-1.494.81-2.969,1.656-4.409,2.539-.724.45-1.448.9-2.164,1.359q-4.264,2.755-8.211,5.9a100.083,100.083,0,0,0-7.559,6.671q-.448.432-.9.891c-.6.585-1.177,1.179-1.729,1.773-.887.909-1.738,1.845-2.58,2.791a101.2,101.2,0,0,0-11.733,16.222,95.146,95.146,0,0,0-4.6,8.9c-1.041,2.278-1.992,4.609-2.852,6.968q-.856,2.363-1.6,4.771c-.245.8-.48,1.611-.706,2.422-.77,2.746-1.412,5.518-1.937,8.3q-.638,3.349-1.032,6.707c-.136,1.125-.244,2.251-.344,3.367q-.35,4.115-.357,8.239a99.666,99.666,0,0,0,3,24.466q.665,2.647,1.476,5.266c.272.873.561,1.737.851,2.6q1.1,3.241,2.435,6.419.8,1.9,1.684,3.781a100.408,100.408,0,0,0,14.2,22.109q1.4,1.661,2.888,3.268c.009,0,0,.009,0,.009a100.137,100.137,0,0,0,7.813,7.6h.009q1.643,1.445,3.341,2.8c.009-.009.009,0,.009,0,1.141.918,2.291,1.8,3.467,2.656q.883.635,1.793,1.269,1.779,1.256,3.63,2.422h.009q1.847,1.188,3.748,2.269c2.544,1.449,5.151,2.809,7.831,4.042l.453.207.462-.207a99.443,99.443,0,0,1,13.254-4.834c1-.288,2-.549,3-.8q3.775-.932,7.6-1.566a62.646,62.646,0,0,0-7.188,4.2c-1.783,1.2-3.54,2.5-5.305,3.943-.589.477-1.177.972-1.765,1.476l-1.467,1.26,1.838.6c.67.216,1.34.432,2.01.63.914.288,1.82.549,2.707.792q2.906.81,5.848,1.431l1.43.3c.932.18,1.874.36,2.816.522a.623.623,0,0,0,.118.018c.978.162,1.965.315,2.942.45q2.729.392,5.459.621c.2.027.4.036.607.045.444.036.878.072,1.322.1.978.063,1.964.108,2.951.144.072,0,.136.009.208.009.5.018,1,.036,1.494.045,0,0,0,.009.009,0,.5.009,1,.018,1.494.018h2.752c.516,0,1.032.009,1.557.009.724,0,1.458.009,2.182.018.19,0,.389.009.589.009,1.159.018,2.318.045,3.476.072.072,0,.145.009.217.009,1.159.036,2.318.072,3.476.126.254.009.507.018.77.036q1.67.068,3.341.162c.317.018.643.045.969.063.842.045,1.693.1,2.535.162.5.027.987.063,1.485.108,2.01.153,4.011.324,6.02.522.67.054,1.34.126,2.01.2q2.689.284,5.4.621c.806.09,1.612.2,2.417.306.091.009.181.018.272.036,1,.135,1.983.27,2.978.414.652.09,1.3.189,1.955.288.67.1,1.34.2,2.01.315.362.054.724.117,1.1.18.869.135,1.747.279,2.625.441a2.138,2.138,0,0,1,.235.036c1.865.324,3.739.666,5.6,1.035,1.1.207,2.182.423,3.268.648.851.171,1.7.351,2.553.531.145.027.29.063.435.1a.469.469,0,0,0,.1.018c1.285.279,2.58.567,3.866.873q6.695,1.539,13.372,3.421c1.023.279,2.046.576,3.069.873.435.126.86.252,1.285.378.887.261,1.765.522,2.653.8.779.234,1.566.477,2.345.729.489.153.978.306,1.467.468.76.234,1.521.477,2.272.738.643.2,1.276.405,1.91.63.905.3,1.82.6,2.725.927.263.09.534.18.8.279,1.1.378,2.209.765,3.313,1.17,1.077.387,2.155.783,3.223,1.179.742.279,1.485.549,2.218.837.824.315,1.648.63,2.462.954,1.177.459,2.363.927,3.54,1.4,1.086.432,2.164.873,3.25,1.332.2.081.407.162.607.252.941.387,1.883.792,2.815,1.2.607.252,1.2.513,1.8.774q3.911,1.7,7.813,3.52h.009c1.63.765,3.286,1.494,4.952,2.188.389.162.779.324,1.177.477.661.279,1.331.54,2,.81.435.171.869.342,1.313.5.643.252,1.295.5,1.946.729.688.252,1.367.5,2.064.738.245.09.489.171.742.261.806.27,1.611.54,2.426.8.082.027.163.054.254.081.851.27,1.7.54,2.562.792a1.808,1.808,0,0,0,.208.063c.923.279,1.865.549,2.8.81,1.376.378,2.761.738,4.146,1.071.254.063.507.126.76.18.742.18,1.476.351,2.218.513.788.18,1.584.342,2.372.5s1.593.324,2.381.468c.425.081.851.162,1.267.234l1.113.189c.77.135,1.539.252,2.318.378a.177.177,0,0,1,.063.009c.878.135,1.747.261,2.625.369.842.117,1.684.216,2.526.315l.534.054c.7.081,1.394.162,2.091.225l.6.054c.688.063,1.376.126,2.064.171a3.232,3.232,0,0,0,.416.027c.616.054,1.231.1,1.847.126.435.036.86.054,1.295.081l.67.027c.6.036,1.2.054,1.8.072.733.027,1.467.045,2.191.063.878.018,1.765.027,2.644.027h.018c.86,0,1.729-.009,2.589-.027h.326l.951-.027c.489-.009.978-.027,1.458-.045.923-.036,1.838-.081,2.752-.135.362-.018.733-.045,1.1-.063.163-.009.335-.027.5-.036.57-.036,1.132-.072,1.7-.117.588-.045,1.186-.1,1.774-.162.76-.072,1.521-.153,2.281-.234.6-.063,1.2-.135,1.783-.207a1.864,1.864,0,0,0,.235-.036c.57-.063,1.141-.135,1.7-.216.67-.09,1.331-.189,1.992-.288l.208-.027c1.141-.18,2.29-.36,3.44-.567,1.2-.216,2.408-.45,3.6-.693.444-.09.878-.189,1.322-.279.244-.054.5-.1.733-.153.371-.081.733-.162,1.1-.252.063-.009.136-.027.2-.036.507-.108,1-.234,1.512-.36,1.014-.243,2.01-.5,3.006-.765.444-.108.887-.225,1.313-.342.127-.036.254-.072.371-.108q2.757-.77,5.468-1.629c.8-.252,1.584-.513,2.372-.792q2.539-.864,5.034-1.818c.444-.162.887-.342,1.331-.513.652-.261,1.3-.522,1.946-.783.579-.243,1.159-.486,1.747-.738.29-.117.579-.243.869-.369.869-.378,1.738-.765,2.6-1.152.579-.27,1.15-.531,1.72-.8.905-.432,1.8-.873,2.7-1.314.226-.117.444-.234.661-.342.57-.288,1.141-.585,1.72-.873.914-.486,1.829-.972,2.734-1.476.308-.162.607-.333.914-.5q1.494-.837,2.96-1.7,3.245-1.931,6.4-4.033c.525-.342,1.05-.7,1.566-1.053.978-.666,1.937-1.35,2.9-2.035.1-.072.19-.144.29-.207.48-.351.96-.7,1.439-1.062,1-.747,1.983-1.5,2.969-2.278.018-.009.045-.036.073-.054.444-.351.887-.7,1.322-1.053,1.349-1.089,2.68-2.2,3.983-3.34.643-.549,1.277-1.116,1.9-1.683.471-.423.942-.846,1.4-1.278.932-.873,1.847-1.737,2.752-2.62.453-.432.9-.882,1.349-1.332s.9-.9,1.34-1.359c.154-.153.308-.315.462-.477.453-.477.905-.963,1.358-1.44.389-.414.769-.846,1.159-1.278.652-.72,1.313-1.44,1.955-2.17a1.4,1.4,0,0,1,.109-.117c.036-.045.072-.081.1-.117h-.009a140.781,140.781,0,0,0-28.309-209.724Z" transform="translate(-172.588 -58.709)" fill="#1397cf"/>
      <g id="Group_1" data-name="Group 1" transform="translate(421.523 59.443)" opacity="0.15">
        <path id="Path_42" data-name="Path 42" d="M798.764,118.217a70.551,70.551,0,0,0,8.064,18.292,97.6,97.6,0,0,1-15.791-17.148Q794.876,118.639,798.764,118.217Z" transform="translate(-612.756 -118.217)"/>
        <path id="Path_43" data-name="Path 43" d="M700.041,220.882a101.134,101.134,0,0,0-18.675,13.053A102.183,102.183,0,0,0,702.015,195c.048-.172.1-.345.143-.517l.135-.487a99.969,99.969,0,0,1,26.774-44.969l1-.973.708,1.2a97.915,97.915,0,0,0,13.96,18.289C736.527,190.587,720.548,209.763,700.041,220.882Z" transform="translate(-602.371 -121.194)"/>
        <path id="Path_44" data-name="Path 44" d="M753.369,157.276l-.135.487c-.047.172-.1.345-.143.517-.264.947-.546,1.887-.835,2.824a103.839,103.839,0,0,1-5.995-22.88l-.105-.664.549-.39a101.721,101.721,0,0,1,22.272-12.039,100.07,100.07,0,0,0-15.608,32.146Z" transform="translate(-608.506 -118.907)"/>
        <path id="Path_45" data-name="Path 45" d="M646.838,265.925a91.069,91.069,0,0,0,16.548-11.55,99.773,99.773,0,0,0,33.854,155.9l.458.21.457-.205a96.934,96.934,0,0,1,23.862-7.205,68.98,68.98,0,0,0-14.26,9.626l-1.465,1.259,1.838.6c1.586.522,3.172,1,4.714,1.427a102.139,102.139,0,0,0,27.832,3.7c42.732-.272,85.8,9.552,127.995,29.2a144.314,144.314,0,0,0,22.441,8.247A142.205,142.205,0,0,0,991.7,447.753a142.752,142.752,0,0,1-145.524,43.817,144.308,144.308,0,0,1-22.441-8.247c-42.2-19.646-85.263-29.47-128-29.2a102.136,102.136,0,0,1-27.832-3.7c-1.542-.426-3.128-.905-4.714-1.427l-1.837-.6,1.464-1.259a68.98,68.98,0,0,1,14.26-9.626,96.932,96.932,0,0,0-23.862,7.205l-.457.2-.458-.21a99.854,99.854,0,0,1-5.461-178.78Z" transform="translate(-594.109 -131.803)"/>
      </g>
    </g>
  </g>
</svg>
